G04 (created by PCBNEW-RS274X (2012-01-19 BZR 3256)-stable) date 21/05/2012 10:04:41 p.m.*
G01*
G70*
G90*
%MOIN*%
G04 Gerber Fmt 3.4, Leading zero omitted, Abs format*
%FSLAX34Y34*%
G04 APERTURE LIST*
%ADD10C,0.006000*%
%ADD11C,0.070000*%
%ADD12R,0.070000X0.070000*%
%ADD13C,0.055000*%
%ADD14R,0.060000X0.060000*%
%ADD15C,0.060000*%
%ADD16C,0.066000*%
%ADD17R,0.090000X0.062000*%
%ADD18O,0.090000X0.062000*%
%ADD19R,0.055000X0.055000*%
%ADD20R,0.065000X0.065000*%
%ADD21C,0.065000*%
%ADD22C,0.098400*%
%ADD23C,0.150000*%
%ADD24R,0.150000X0.150000*%
%ADD25O,0.078700X0.078700*%
%ADD26C,0.078700*%
%ADD27C,0.118100*%
%ADD28C,0.035000*%
%ADD29C,0.010000*%
%ADD30C,0.014000*%
%ADD31C,0.050000*%
%ADD32C,0.016000*%
%ADD33C,0.030000*%
G04 APERTURE END LIST*
G54D10*
G54D11*
X64500Y-16750D03*
X65500Y-16750D03*
G54D12*
X66500Y-16750D03*
G54D11*
X57250Y-16750D03*
X58250Y-16750D03*
G54D12*
X59250Y-16750D03*
G54D13*
X56500Y-37500D03*
X56500Y-34500D03*
X42500Y-25750D03*
X45500Y-25750D03*
X48250Y-40000D03*
X48250Y-43000D03*
X69500Y-22750D03*
X69500Y-19750D03*
X63750Y-21250D03*
X63750Y-18250D03*
X67000Y-27000D03*
X64000Y-27000D03*
X59000Y-27250D03*
X56000Y-27250D03*
X57500Y-34500D03*
X60500Y-34500D03*
X44500Y-16000D03*
X44500Y-19000D03*
X48000Y-26000D03*
X51000Y-26000D03*
X56750Y-45500D03*
X56750Y-42500D03*
X54500Y-45500D03*
X54500Y-42500D03*
X43500Y-39750D03*
X40500Y-39750D03*
X52500Y-39500D03*
X55500Y-39500D03*
X65500Y-46000D03*
X68500Y-46000D03*
X65500Y-45000D03*
X68500Y-45000D03*
X69750Y-35250D03*
X69750Y-32250D03*
X69750Y-27500D03*
X72750Y-27500D03*
X74500Y-43000D03*
X74500Y-46000D03*
X71750Y-30000D03*
X74750Y-30000D03*
X52500Y-43750D03*
X52500Y-40750D03*
G54D14*
X62750Y-41500D03*
G54D15*
X62750Y-42500D03*
G54D14*
X63750Y-41500D03*
G54D15*
X63750Y-42500D03*
G54D14*
X64750Y-29500D03*
G54D15*
X64750Y-28500D03*
G54D14*
X64750Y-41500D03*
G54D15*
X64750Y-42500D03*
G54D14*
X65750Y-41500D03*
G54D15*
X65750Y-42500D03*
G54D14*
X66750Y-41500D03*
G54D15*
X66750Y-42500D03*
G54D14*
X60750Y-41500D03*
G54D15*
X60750Y-42500D03*
G54D14*
X59750Y-41500D03*
G54D15*
X59750Y-42500D03*
G54D14*
X60750Y-29500D03*
G54D15*
X60750Y-28500D03*
G54D14*
X61750Y-29500D03*
G54D15*
X61750Y-28500D03*
G54D14*
X62750Y-29500D03*
G54D15*
X62750Y-28500D03*
G54D14*
X63750Y-29500D03*
G54D15*
X63750Y-28500D03*
G54D14*
X61750Y-41500D03*
G54D15*
X61750Y-42500D03*
G54D14*
X46750Y-42500D03*
G54D15*
X46750Y-41500D03*
G54D14*
X45000Y-42500D03*
G54D15*
X45000Y-41500D03*
G54D14*
X42500Y-42500D03*
G54D15*
X42500Y-41500D03*
G54D14*
X40750Y-42500D03*
G54D15*
X40750Y-41500D03*
G54D16*
X50500Y-27750D03*
X49500Y-27750D03*
X48250Y-44250D03*
X48250Y-45250D03*
X62000Y-25750D03*
X62000Y-24750D03*
X53750Y-27500D03*
X53750Y-26500D03*
G54D17*
X56000Y-23500D03*
G54D18*
X56000Y-24500D03*
X56000Y-25500D03*
X59000Y-25500D03*
X59000Y-24500D03*
X59000Y-23500D03*
G54D17*
X64000Y-22750D03*
G54D18*
X64000Y-23750D03*
X64000Y-24750D03*
X67000Y-24750D03*
X67000Y-23750D03*
X67000Y-22750D03*
G54D17*
X61500Y-31500D03*
G54D18*
X61500Y-32500D03*
X61500Y-33500D03*
X61500Y-34500D03*
X61500Y-35500D03*
X61500Y-36500D03*
X61500Y-37500D03*
X61500Y-38500D03*
X61500Y-39500D03*
X64500Y-39500D03*
X64500Y-38500D03*
X64500Y-37500D03*
X64500Y-36500D03*
X64500Y-35500D03*
X64500Y-34500D03*
X64500Y-33500D03*
X64500Y-32500D03*
X64500Y-31500D03*
G54D11*
X39000Y-20750D03*
G54D12*
X39000Y-24750D03*
G54D11*
X49500Y-29500D03*
G54D12*
X49500Y-33500D03*
G54D11*
X71000Y-22250D03*
G54D12*
X71000Y-26250D03*
G54D11*
X68250Y-26000D03*
G54D12*
X68250Y-30000D03*
G54D19*
X45500Y-24250D03*
G54D13*
X42500Y-24250D03*
G54D19*
X73250Y-43000D03*
G54D13*
X73250Y-46000D03*
G54D19*
X40750Y-20750D03*
G54D13*
X40750Y-23750D03*
G54D19*
X55500Y-37500D03*
G54D13*
X55500Y-34500D03*
G54D19*
X71750Y-41000D03*
G54D13*
X71750Y-38000D03*
G54D20*
X66500Y-20250D03*
G54D21*
X66500Y-19250D03*
G54D20*
X40000Y-27750D03*
G54D21*
X40000Y-26750D03*
G54D20*
X57500Y-20000D03*
G54D21*
X58500Y-20000D03*
G54D19*
X71000Y-17750D03*
G54D13*
X70000Y-17750D03*
G54D19*
X69750Y-38000D03*
G54D13*
X69750Y-39000D03*
G54D19*
X70250Y-30000D03*
G54D13*
X70250Y-31000D03*
X40500Y-37000D03*
X41500Y-37000D03*
X74000Y-28750D03*
X74000Y-27750D03*
X52000Y-45250D03*
X51000Y-45250D03*
X45250Y-22250D03*
X44250Y-22250D03*
X71750Y-32250D03*
X71750Y-33250D03*
X58000Y-36500D03*
X58000Y-35500D03*
X68750Y-36000D03*
X67750Y-36000D03*
X67750Y-34500D03*
X68750Y-34500D03*
X67750Y-33000D03*
X68750Y-33000D03*
X71000Y-43250D03*
X71000Y-44250D03*
G54D12*
X41000Y-16500D03*
G54D11*
X41000Y-18500D03*
G54D19*
X45750Y-31250D03*
G54D13*
X46750Y-31250D03*
X46750Y-30250D03*
G54D22*
X49500Y-23600D03*
X47050Y-22800D03*
X51850Y-22800D03*
X51850Y-18100D03*
X47050Y-18050D03*
G54D23*
X68750Y-13750D03*
X70750Y-13750D03*
G54D24*
X66750Y-13750D03*
G54D23*
X72750Y-13750D03*
X74750Y-13750D03*
X53000Y-13750D03*
X55000Y-13750D03*
G54D24*
X51000Y-13750D03*
G54D23*
X57000Y-13750D03*
X59000Y-13750D03*
G54D25*
X51750Y-30700D03*
X52750Y-33700D03*
X51750Y-35700D03*
X74500Y-17950D03*
X75500Y-20950D03*
X74500Y-22950D03*
X72250Y-17950D03*
X73250Y-20950D03*
X72250Y-22950D03*
G54D26*
X57530Y-31364D03*
X54970Y-33136D03*
X57530Y-33136D03*
X54970Y-31364D03*
X42280Y-31364D03*
X39720Y-33136D03*
X42280Y-33136D03*
X39720Y-31364D03*
G54D27*
X48000Y-13750D03*
X41000Y-13750D03*
G54D14*
X44750Y-45000D03*
G54D15*
X43750Y-45000D03*
X42750Y-45000D03*
G54D27*
X54500Y-16500D03*
X54500Y-23500D03*
X61750Y-16250D03*
X61750Y-23250D03*
G54D26*
X66250Y-35000D03*
X66250Y-33000D03*
G54D28*
X56750Y-41250D03*
X69000Y-46750D03*
X73250Y-38000D03*
X40000Y-23750D03*
X58500Y-28750D03*
X56250Y-32250D03*
X49250Y-46750D03*
G54D29*
X48000Y-26000D02*
X48000Y-32000D01*
X48000Y-32000D02*
X49500Y-33500D01*
X43500Y-40000D02*
X45000Y-41500D01*
X69000Y-46750D02*
X61000Y-46750D01*
X57750Y-43500D02*
X57750Y-42250D01*
X57750Y-42250D02*
X56750Y-41250D01*
X43500Y-39750D02*
X43500Y-40000D01*
X61000Y-46750D02*
X57750Y-43500D01*
G54D30*
X70750Y-13750D02*
X70750Y-15250D01*
X69250Y-16750D02*
X69250Y-18500D01*
X71000Y-20250D02*
X71000Y-22250D01*
X69250Y-18500D02*
X71000Y-20250D01*
X70750Y-15250D02*
X69250Y-16750D01*
G54D29*
X76250Y-13250D02*
X76250Y-45750D01*
X66750Y-13750D02*
X66750Y-12500D01*
X66750Y-12500D02*
X67000Y-12250D01*
X76250Y-45750D02*
X75250Y-46750D01*
X75250Y-12250D02*
X76250Y-13250D01*
X75250Y-46750D02*
X70250Y-46750D01*
X70250Y-46750D02*
X68500Y-45000D01*
X67000Y-12250D02*
X75250Y-12250D01*
G54D30*
X68250Y-24250D02*
X68750Y-23750D01*
X68750Y-23750D02*
X68750Y-13750D01*
X68250Y-26000D02*
X68250Y-24250D01*
X70250Y-30000D02*
X70250Y-29750D01*
X59750Y-42500D02*
X59000Y-42500D01*
X73250Y-38000D02*
X73250Y-33000D01*
X58000Y-41500D02*
X58000Y-41000D01*
X58750Y-40250D02*
X71000Y-40250D01*
X58000Y-41000D02*
X58750Y-40250D01*
X73250Y-33000D02*
X72500Y-32250D01*
X69750Y-29250D02*
X69750Y-27500D01*
X72500Y-32250D02*
X71750Y-32250D01*
X70250Y-29750D02*
X69750Y-29250D01*
X59000Y-42500D02*
X58000Y-41500D01*
X71000Y-40250D02*
X71750Y-41000D01*
X70750Y-43500D02*
X71000Y-43250D01*
X61750Y-42750D02*
X62500Y-43500D01*
X69750Y-38000D02*
X69750Y-35250D01*
X62500Y-43500D02*
X70750Y-43500D01*
X61750Y-42500D02*
X61750Y-42750D01*
G54D29*
X45500Y-29250D02*
X45000Y-29750D01*
X45000Y-39000D02*
X46000Y-40000D01*
X46000Y-41750D02*
X46750Y-42500D01*
X45500Y-25750D02*
X45500Y-29250D01*
X45000Y-29750D02*
X45000Y-39000D01*
X46000Y-40000D02*
X46000Y-41750D01*
G54D31*
X59250Y-16750D02*
X61750Y-14250D01*
X53750Y-12250D02*
X53000Y-13000D01*
X65250Y-20000D02*
X65250Y-19750D01*
X65250Y-19750D02*
X65750Y-19250D01*
X65750Y-19250D02*
X66500Y-19250D01*
X64000Y-23750D02*
X65250Y-23750D01*
X66500Y-19250D02*
X66500Y-16750D01*
X59250Y-19250D02*
X58500Y-20000D01*
X59250Y-16750D02*
X59250Y-19250D01*
X61750Y-14250D02*
X61750Y-12750D01*
X61750Y-12750D02*
X61250Y-12250D01*
X61250Y-12250D02*
X53750Y-12250D01*
X53000Y-13000D02*
X53000Y-13750D01*
X65250Y-23750D02*
X65250Y-20000D01*
G54D30*
X74750Y-28000D02*
X74750Y-30000D01*
X74500Y-27750D02*
X74750Y-28000D01*
X71750Y-38000D02*
X72500Y-38750D01*
G54D29*
X50400Y-24500D02*
X49500Y-23600D01*
G54D30*
X74000Y-27750D02*
X74500Y-27750D01*
G54D32*
X40000Y-23750D02*
X40000Y-26750D01*
G54D30*
X72500Y-38750D02*
X72500Y-45250D01*
X72500Y-45250D02*
X73250Y-46000D01*
G54D29*
X56000Y-24500D02*
X50400Y-24500D01*
G54D30*
X71750Y-33250D02*
X71750Y-38000D01*
X70750Y-39000D02*
X71750Y-38000D01*
X57000Y-39500D02*
X55500Y-39500D01*
X69750Y-39000D02*
X70750Y-39000D01*
X58000Y-35500D02*
X58750Y-36250D01*
X58750Y-36250D02*
X58750Y-37750D01*
X58750Y-37750D02*
X57000Y-39500D01*
G54D29*
X56250Y-32250D02*
X56500Y-32000D01*
X56500Y-30750D02*
X58500Y-28750D01*
X56500Y-32000D02*
X56500Y-30750D01*
G54D30*
X53750Y-41750D02*
X54500Y-42500D01*
X53750Y-27500D02*
X53750Y-28000D01*
X53750Y-28000D02*
X53750Y-41750D01*
G54D29*
X46750Y-31250D02*
X46750Y-33750D01*
X46750Y-33750D02*
X52500Y-39500D01*
G54D32*
X65500Y-16750D02*
X65500Y-16000D01*
X68000Y-15750D02*
X68000Y-23750D01*
X65750Y-15750D02*
X68000Y-15750D01*
X65500Y-16000D02*
X65750Y-15750D01*
X68000Y-23750D02*
X67000Y-24750D01*
X59000Y-23500D02*
X59000Y-22500D01*
X60250Y-21250D02*
X63750Y-21250D01*
X59000Y-22500D02*
X60250Y-21250D01*
G54D33*
X56250Y-19750D02*
X58250Y-17750D01*
X59000Y-25500D02*
X58500Y-25500D01*
X58250Y-17750D02*
X58250Y-16750D01*
X56250Y-20500D02*
X56250Y-19750D01*
X57500Y-21750D02*
X56250Y-20500D01*
X57500Y-24500D02*
X57500Y-21750D01*
X58500Y-25500D02*
X57500Y-24500D01*
G54D30*
X56750Y-42500D02*
X55500Y-42500D01*
X54250Y-41250D02*
X54250Y-30750D01*
X54250Y-30750D02*
X57000Y-28000D01*
X59750Y-28000D02*
X62000Y-25750D01*
X55500Y-42500D02*
X54250Y-41250D01*
X57000Y-28000D02*
X59750Y-28000D01*
G54D29*
X49250Y-46750D02*
X48500Y-46000D01*
X39000Y-44250D02*
X39000Y-41250D01*
X39000Y-41250D02*
X40500Y-39750D01*
X40500Y-37000D02*
X40500Y-39750D01*
X40750Y-46000D02*
X39000Y-44250D01*
X48500Y-46000D02*
X40750Y-46000D01*
G54D10*
G36*
X61496Y-25450D02*
X61420Y-25634D01*
X61420Y-25865D01*
X61423Y-25873D01*
X59617Y-27680D01*
X59312Y-27680D01*
X59445Y-27548D01*
X59525Y-27355D01*
X59525Y-27146D01*
X59445Y-26953D01*
X59298Y-26805D01*
X59105Y-26725D01*
X58896Y-26725D01*
X58703Y-26805D01*
X58555Y-26952D01*
X58475Y-27145D01*
X58475Y-27354D01*
X58555Y-27547D01*
X58687Y-27680D01*
X57000Y-27680D01*
X56877Y-27704D01*
X56774Y-27774D01*
X56519Y-28029D01*
X56519Y-27324D01*
X56508Y-27120D01*
X56452Y-26983D01*
X56361Y-26960D01*
X56290Y-27031D01*
X56290Y-26889D01*
X56267Y-26798D01*
X56074Y-26731D01*
X55870Y-26742D01*
X55733Y-26798D01*
X55710Y-26889D01*
X56000Y-27179D01*
X56290Y-26889D01*
X56290Y-27031D01*
X56071Y-27250D01*
X56361Y-27540D01*
X56452Y-27517D01*
X56519Y-27324D01*
X56519Y-28029D01*
X56290Y-28258D01*
X56290Y-27611D01*
X56000Y-27321D01*
X55929Y-27392D01*
X55929Y-27250D01*
X55639Y-26960D01*
X55548Y-26983D01*
X55481Y-27176D01*
X55492Y-27380D01*
X55548Y-27517D01*
X55639Y-27540D01*
X55929Y-27250D01*
X55929Y-27392D01*
X55710Y-27611D01*
X55733Y-27702D01*
X55926Y-27769D01*
X56130Y-27758D01*
X56267Y-27702D01*
X56290Y-27611D01*
X56290Y-28258D01*
X54070Y-30478D01*
X54070Y-28000D01*
X54070Y-27995D01*
X54078Y-27992D01*
X54241Y-27829D01*
X54330Y-27616D01*
X54330Y-27385D01*
X54242Y-27172D01*
X54079Y-27009D01*
X54058Y-27000D01*
X54078Y-26992D01*
X54241Y-26829D01*
X54330Y-26616D01*
X54330Y-26598D01*
X59850Y-26650D01*
X59850Y-25450D01*
X61496Y-25450D01*
X61496Y-25450D01*
G37*
G54D29*
X61496Y-25450D02*
X61420Y-25634D01*
X61420Y-25865D01*
X61423Y-25873D01*
X59617Y-27680D01*
X59312Y-27680D01*
X59445Y-27548D01*
X59525Y-27355D01*
X59525Y-27146D01*
X59445Y-26953D01*
X59298Y-26805D01*
X59105Y-26725D01*
X58896Y-26725D01*
X58703Y-26805D01*
X58555Y-26952D01*
X58475Y-27145D01*
X58475Y-27354D01*
X58555Y-27547D01*
X58687Y-27680D01*
X57000Y-27680D01*
X56877Y-27704D01*
X56774Y-27774D01*
X56519Y-28029D01*
X56519Y-27324D01*
X56508Y-27120D01*
X56452Y-26983D01*
X56361Y-26960D01*
X56290Y-27031D01*
X56290Y-26889D01*
X56267Y-26798D01*
X56074Y-26731D01*
X55870Y-26742D01*
X55733Y-26798D01*
X55710Y-26889D01*
X56000Y-27179D01*
X56290Y-26889D01*
X56290Y-27031D01*
X56071Y-27250D01*
X56361Y-27540D01*
X56452Y-27517D01*
X56519Y-27324D01*
X56519Y-28029D01*
X56290Y-28258D01*
X56290Y-27611D01*
X56000Y-27321D01*
X55929Y-27392D01*
X55929Y-27250D01*
X55639Y-26960D01*
X55548Y-26983D01*
X55481Y-27176D01*
X55492Y-27380D01*
X55548Y-27517D01*
X55639Y-27540D01*
X55929Y-27250D01*
X55929Y-27392D01*
X55710Y-27611D01*
X55733Y-27702D01*
X55926Y-27769D01*
X56130Y-27758D01*
X56267Y-27702D01*
X56290Y-27611D01*
X56290Y-28258D01*
X54070Y-30478D01*
X54070Y-28000D01*
X54070Y-27995D01*
X54078Y-27992D01*
X54241Y-27829D01*
X54330Y-27616D01*
X54330Y-27385D01*
X54242Y-27172D01*
X54079Y-27009D01*
X54058Y-27000D01*
X54078Y-26992D01*
X54241Y-26829D01*
X54330Y-26616D01*
X54330Y-26598D01*
X59850Y-26650D01*
X59850Y-25450D01*
X61496Y-25450D01*
G54D10*
G36*
X75950Y-45626D02*
X75269Y-46307D01*
X75269Y-30074D01*
X75258Y-29870D01*
X75202Y-29733D01*
X75143Y-29718D01*
X75143Y-23076D01*
X75143Y-22825D01*
X75047Y-22593D01*
X74870Y-22415D01*
X74638Y-22319D01*
X74387Y-22319D01*
X74363Y-22319D01*
X74131Y-22415D01*
X73953Y-22592D01*
X73875Y-22780D01*
X73875Y-21100D01*
X73875Y-20800D01*
X73805Y-20609D01*
X73632Y-20423D01*
X73401Y-20317D01*
X73300Y-20363D01*
X73300Y-20900D01*
X73828Y-20900D01*
X73875Y-20800D01*
X73875Y-21100D01*
X73828Y-21000D01*
X73300Y-21000D01*
X73300Y-21537D01*
X73401Y-21583D01*
X73632Y-21477D01*
X73805Y-21291D01*
X73875Y-21100D01*
X73875Y-22780D01*
X73857Y-22824D01*
X73857Y-23075D01*
X73953Y-23307D01*
X74130Y-23485D01*
X74362Y-23581D01*
X74613Y-23581D01*
X74637Y-23581D01*
X74869Y-23485D01*
X75047Y-23308D01*
X75143Y-23076D01*
X75143Y-29718D01*
X75111Y-29710D01*
X75040Y-29781D01*
X75040Y-29639D01*
X75017Y-29548D01*
X74824Y-29481D01*
X74620Y-29492D01*
X74525Y-29530D01*
X74525Y-28855D01*
X74525Y-28646D01*
X74519Y-28631D01*
X74519Y-27824D01*
X74508Y-27620D01*
X74452Y-27483D01*
X74361Y-27460D01*
X74290Y-27531D01*
X74290Y-27389D01*
X74267Y-27298D01*
X74074Y-27231D01*
X73870Y-27242D01*
X73733Y-27298D01*
X73710Y-27389D01*
X74000Y-27679D01*
X74290Y-27389D01*
X74290Y-27531D01*
X74071Y-27750D01*
X74361Y-28040D01*
X74452Y-28017D01*
X74519Y-27824D01*
X74519Y-28631D01*
X74445Y-28453D01*
X74298Y-28305D01*
X74157Y-28246D01*
X74267Y-28202D01*
X74290Y-28111D01*
X74000Y-27821D01*
X73929Y-27892D01*
X73929Y-27750D01*
X73639Y-27460D01*
X73548Y-27483D01*
X73481Y-27676D01*
X73492Y-27880D01*
X73548Y-28017D01*
X73639Y-28040D01*
X73929Y-27750D01*
X73929Y-27892D01*
X73710Y-28111D01*
X73733Y-28202D01*
X73851Y-28243D01*
X73703Y-28305D01*
X73555Y-28452D01*
X73475Y-28645D01*
X73475Y-28854D01*
X73555Y-29047D01*
X73702Y-29195D01*
X73895Y-29275D01*
X74104Y-29275D01*
X74297Y-29195D01*
X74445Y-29048D01*
X74525Y-28855D01*
X74525Y-29530D01*
X74483Y-29548D01*
X74460Y-29639D01*
X74750Y-29929D01*
X75040Y-29639D01*
X75040Y-29781D01*
X74821Y-30000D01*
X75111Y-30290D01*
X75202Y-30267D01*
X75269Y-30074D01*
X75269Y-46307D01*
X75126Y-46450D01*
X75040Y-46450D01*
X75040Y-30361D01*
X74750Y-30071D01*
X74679Y-30142D01*
X74679Y-30000D01*
X74389Y-29710D01*
X74298Y-29733D01*
X74231Y-29926D01*
X74242Y-30130D01*
X74298Y-30267D01*
X74389Y-30290D01*
X74679Y-30000D01*
X74679Y-30142D01*
X74460Y-30361D01*
X74483Y-30452D01*
X74676Y-30519D01*
X74880Y-30508D01*
X75017Y-30452D01*
X75040Y-30361D01*
X75040Y-46450D01*
X75025Y-46450D01*
X75025Y-43105D01*
X75025Y-42896D01*
X74945Y-42703D01*
X74798Y-42555D01*
X74605Y-42475D01*
X74396Y-42475D01*
X74203Y-42555D01*
X74055Y-42702D01*
X73975Y-42895D01*
X73975Y-43104D01*
X74055Y-43297D01*
X74202Y-43445D01*
X74395Y-43525D01*
X74604Y-43525D01*
X74797Y-43445D01*
X74945Y-43298D01*
X75025Y-43105D01*
X75025Y-46450D01*
X75019Y-46450D01*
X75019Y-46074D01*
X75008Y-45870D01*
X74952Y-45733D01*
X74861Y-45710D01*
X74790Y-45781D01*
X74790Y-45639D01*
X74767Y-45548D01*
X74574Y-45481D01*
X74370Y-45492D01*
X74233Y-45548D01*
X74210Y-45639D01*
X74500Y-45929D01*
X74790Y-45639D01*
X74790Y-45781D01*
X74571Y-46000D01*
X74861Y-46290D01*
X74952Y-46267D01*
X75019Y-46074D01*
X75019Y-46450D01*
X74767Y-46450D01*
X74790Y-46361D01*
X74500Y-46071D01*
X74429Y-46142D01*
X74429Y-46000D01*
X74139Y-45710D01*
X74048Y-45733D01*
X73981Y-45926D01*
X73992Y-46130D01*
X74048Y-46267D01*
X74139Y-46290D01*
X74429Y-46000D01*
X74429Y-46142D01*
X74210Y-46361D01*
X74232Y-46450D01*
X73774Y-46450D01*
X73774Y-43325D01*
X73774Y-43226D01*
X73774Y-42676D01*
X73736Y-42584D01*
X73675Y-42523D01*
X73675Y-38085D01*
X73675Y-37916D01*
X73611Y-37760D01*
X73570Y-37719D01*
X73570Y-33000D01*
X73546Y-32878D01*
X73545Y-32876D01*
X73476Y-32774D01*
X73476Y-32773D01*
X73275Y-32572D01*
X73275Y-27605D01*
X73275Y-27396D01*
X73200Y-27215D01*
X73200Y-21537D01*
X73200Y-21000D01*
X73200Y-20900D01*
X73200Y-20363D01*
X73099Y-20317D01*
X72893Y-20411D01*
X72893Y-18076D01*
X72893Y-17825D01*
X72797Y-17593D01*
X72620Y-17415D01*
X72388Y-17319D01*
X72137Y-17319D01*
X72113Y-17319D01*
X71881Y-17415D01*
X71703Y-17592D01*
X71607Y-17824D01*
X71607Y-18075D01*
X71703Y-18307D01*
X71880Y-18485D01*
X72112Y-18581D01*
X72363Y-18581D01*
X72387Y-18581D01*
X72619Y-18485D01*
X72797Y-18308D01*
X72893Y-18076D01*
X72893Y-20411D01*
X72868Y-20423D01*
X72695Y-20609D01*
X72625Y-20800D01*
X72672Y-20900D01*
X73200Y-20900D01*
X73200Y-21000D01*
X72672Y-21000D01*
X72625Y-21100D01*
X72695Y-21291D01*
X72868Y-21477D01*
X73099Y-21583D01*
X73200Y-21537D01*
X73200Y-27215D01*
X73195Y-27203D01*
X73048Y-27055D01*
X72875Y-26983D01*
X72875Y-23100D01*
X72875Y-22800D01*
X72805Y-22609D01*
X72632Y-22423D01*
X72401Y-22317D01*
X72300Y-22363D01*
X72300Y-22900D01*
X72828Y-22900D01*
X72875Y-22800D01*
X72875Y-23100D01*
X72828Y-23000D01*
X72300Y-23000D01*
X72300Y-23537D01*
X72401Y-23583D01*
X72632Y-23477D01*
X72805Y-23291D01*
X72875Y-23100D01*
X72875Y-26983D01*
X72855Y-26975D01*
X72646Y-26975D01*
X72453Y-27055D01*
X72305Y-27202D01*
X72225Y-27395D01*
X72225Y-27604D01*
X72305Y-27797D01*
X72452Y-27945D01*
X72645Y-28025D01*
X72854Y-28025D01*
X73047Y-27945D01*
X73195Y-27798D01*
X73275Y-27605D01*
X73275Y-32572D01*
X72726Y-32024D01*
X72623Y-31954D01*
X72500Y-31930D01*
X72275Y-31930D01*
X72275Y-30105D01*
X72275Y-29896D01*
X72200Y-29715D01*
X72200Y-23537D01*
X72200Y-23000D01*
X72200Y-22900D01*
X72200Y-22363D01*
X72099Y-22317D01*
X71868Y-22423D01*
X71695Y-22609D01*
X71625Y-22800D01*
X71672Y-22900D01*
X72200Y-22900D01*
X72200Y-23000D01*
X71672Y-23000D01*
X71625Y-23100D01*
X71695Y-23291D01*
X71868Y-23477D01*
X72099Y-23583D01*
X72200Y-23537D01*
X72200Y-29715D01*
X72195Y-29703D01*
X72048Y-29555D01*
X71855Y-29475D01*
X71646Y-29475D01*
X71599Y-29494D01*
X71599Y-26650D01*
X71599Y-26551D01*
X71599Y-25851D01*
X71561Y-25759D01*
X71491Y-25689D01*
X71400Y-25651D01*
X71301Y-25651D01*
X70601Y-25651D01*
X70509Y-25689D01*
X70439Y-25759D01*
X70401Y-25850D01*
X70401Y-25949D01*
X70401Y-26649D01*
X70439Y-26741D01*
X70509Y-26811D01*
X70600Y-26849D01*
X70699Y-26849D01*
X71399Y-26849D01*
X71491Y-26811D01*
X71561Y-26741D01*
X71599Y-26650D01*
X71599Y-29494D01*
X71453Y-29555D01*
X71305Y-29702D01*
X71225Y-29895D01*
X71225Y-30104D01*
X71305Y-30297D01*
X71452Y-30445D01*
X71645Y-30525D01*
X71854Y-30525D01*
X72047Y-30445D01*
X72195Y-30298D01*
X72275Y-30105D01*
X72275Y-31930D01*
X72172Y-31930D01*
X72048Y-31805D01*
X71855Y-31725D01*
X71646Y-31725D01*
X71453Y-31805D01*
X71305Y-31952D01*
X71225Y-32145D01*
X71225Y-32354D01*
X71305Y-32547D01*
X71452Y-32695D01*
X71592Y-32753D01*
X71483Y-32798D01*
X71460Y-32889D01*
X71750Y-33179D01*
X72040Y-32889D01*
X72017Y-32798D01*
X71898Y-32756D01*
X72047Y-32695D01*
X72172Y-32570D01*
X72367Y-32570D01*
X72930Y-33132D01*
X72930Y-37719D01*
X72890Y-37759D01*
X72825Y-37915D01*
X72825Y-38084D01*
X72889Y-38240D01*
X73009Y-38360D01*
X73165Y-38425D01*
X73334Y-38425D01*
X73490Y-38361D01*
X73610Y-38241D01*
X73675Y-38085D01*
X73675Y-42523D01*
X73666Y-42514D01*
X73575Y-42476D01*
X73476Y-42476D01*
X72926Y-42476D01*
X72834Y-42514D01*
X72764Y-42584D01*
X72726Y-42675D01*
X72726Y-42774D01*
X72726Y-43324D01*
X72764Y-43416D01*
X72834Y-43486D01*
X72925Y-43524D01*
X73024Y-43524D01*
X73574Y-43524D01*
X73666Y-43486D01*
X73736Y-43416D01*
X73774Y-43325D01*
X73774Y-46450D01*
X73769Y-46450D01*
X73769Y-46074D01*
X73758Y-45870D01*
X73702Y-45733D01*
X73611Y-45710D01*
X73540Y-45781D01*
X73540Y-45639D01*
X73517Y-45548D01*
X73324Y-45481D01*
X73120Y-45492D01*
X72983Y-45548D01*
X72960Y-45639D01*
X73250Y-45929D01*
X73540Y-45639D01*
X73540Y-45781D01*
X73321Y-46000D01*
X73611Y-46290D01*
X73702Y-46267D01*
X73769Y-46074D01*
X73769Y-46450D01*
X73517Y-46450D01*
X73540Y-46361D01*
X73250Y-46071D01*
X73179Y-46142D01*
X73179Y-46000D01*
X72889Y-45710D01*
X72798Y-45733D01*
X72731Y-45926D01*
X72742Y-46130D01*
X72798Y-46267D01*
X72889Y-46290D01*
X73179Y-46000D01*
X73179Y-46142D01*
X72960Y-46361D01*
X72982Y-46450D01*
X72274Y-46450D01*
X72274Y-41325D01*
X72274Y-41226D01*
X72274Y-40676D01*
X72269Y-40663D01*
X72269Y-38074D01*
X72269Y-33324D01*
X72258Y-33120D01*
X72202Y-32983D01*
X72111Y-32960D01*
X71821Y-33250D01*
X72111Y-33540D01*
X72202Y-33517D01*
X72269Y-33324D01*
X72269Y-38074D01*
X72258Y-37870D01*
X72202Y-37733D01*
X72111Y-37710D01*
X72040Y-37781D01*
X72040Y-37639D01*
X72040Y-33611D01*
X71750Y-33321D01*
X71679Y-33392D01*
X71679Y-33250D01*
X71389Y-32960D01*
X71298Y-32983D01*
X71231Y-33176D01*
X71242Y-33380D01*
X71298Y-33517D01*
X71389Y-33540D01*
X71679Y-33250D01*
X71679Y-33392D01*
X71460Y-33611D01*
X71483Y-33702D01*
X71676Y-33769D01*
X71880Y-33758D01*
X72017Y-33702D01*
X72040Y-33611D01*
X72040Y-37639D01*
X72017Y-37548D01*
X71824Y-37481D01*
X71620Y-37492D01*
X71483Y-37548D01*
X71460Y-37639D01*
X71750Y-37929D01*
X72040Y-37639D01*
X72040Y-37781D01*
X71821Y-38000D01*
X72111Y-38290D01*
X72202Y-38267D01*
X72269Y-38074D01*
X72269Y-40663D01*
X72236Y-40584D01*
X72166Y-40514D01*
X72075Y-40476D01*
X72040Y-40476D01*
X72040Y-38361D01*
X71750Y-38071D01*
X71679Y-38142D01*
X71679Y-38000D01*
X71389Y-37710D01*
X71298Y-37733D01*
X71231Y-37926D01*
X71242Y-38130D01*
X71298Y-38267D01*
X71389Y-38290D01*
X71679Y-38000D01*
X71679Y-38142D01*
X71460Y-38361D01*
X71483Y-38452D01*
X71676Y-38519D01*
X71880Y-38508D01*
X72017Y-38452D01*
X72040Y-38361D01*
X72040Y-40476D01*
X71976Y-40476D01*
X71678Y-40476D01*
X71226Y-40024D01*
X71123Y-39954D01*
X71000Y-39930D01*
X70774Y-39930D01*
X70774Y-30325D01*
X70774Y-30226D01*
X70774Y-29676D01*
X70736Y-29584D01*
X70666Y-29514D01*
X70575Y-29476D01*
X70476Y-29476D01*
X70428Y-29476D01*
X70070Y-29118D01*
X70070Y-27922D01*
X70195Y-27798D01*
X70275Y-27605D01*
X70275Y-27396D01*
X70195Y-27203D01*
X70048Y-27055D01*
X69855Y-26975D01*
X69646Y-26975D01*
X69453Y-27055D01*
X69305Y-27202D01*
X69225Y-27395D01*
X69225Y-27604D01*
X69305Y-27797D01*
X69430Y-27922D01*
X69430Y-29250D01*
X69454Y-29373D01*
X69524Y-29476D01*
X69726Y-29678D01*
X69726Y-29774D01*
X69726Y-30324D01*
X69764Y-30416D01*
X69834Y-30486D01*
X69925Y-30524D01*
X70024Y-30524D01*
X70041Y-30524D01*
X69983Y-30548D01*
X69960Y-30639D01*
X70250Y-30929D01*
X70540Y-30639D01*
X70517Y-30548D01*
X70447Y-30524D01*
X70574Y-30524D01*
X70666Y-30486D01*
X70736Y-30416D01*
X70774Y-30325D01*
X70774Y-39930D01*
X70769Y-39930D01*
X70769Y-31074D01*
X70758Y-30870D01*
X70702Y-30733D01*
X70611Y-30710D01*
X70321Y-31000D01*
X70611Y-31290D01*
X70702Y-31267D01*
X70769Y-31074D01*
X70769Y-39930D01*
X70540Y-39930D01*
X70540Y-31361D01*
X70250Y-31071D01*
X70179Y-31142D01*
X70179Y-31000D01*
X69889Y-30710D01*
X69798Y-30733D01*
X69731Y-30926D01*
X69742Y-31130D01*
X69798Y-31267D01*
X69889Y-31290D01*
X70179Y-31000D01*
X70179Y-31142D01*
X69960Y-31361D01*
X69983Y-31452D01*
X70176Y-31519D01*
X70380Y-31508D01*
X70517Y-31452D01*
X70540Y-31361D01*
X70540Y-39930D01*
X70275Y-39930D01*
X70275Y-35355D01*
X70275Y-35146D01*
X70275Y-32355D01*
X70275Y-32146D01*
X70195Y-31953D01*
X70048Y-31805D01*
X69855Y-31725D01*
X69646Y-31725D01*
X69453Y-31805D01*
X69305Y-31952D01*
X69225Y-32145D01*
X69225Y-32354D01*
X69305Y-32547D01*
X69452Y-32695D01*
X69645Y-32775D01*
X69854Y-32775D01*
X70047Y-32695D01*
X70195Y-32548D01*
X70275Y-32355D01*
X70275Y-35146D01*
X70195Y-34953D01*
X70048Y-34805D01*
X69855Y-34725D01*
X69646Y-34725D01*
X69453Y-34805D01*
X69305Y-34952D01*
X69269Y-35038D01*
X69269Y-34574D01*
X69269Y-33074D01*
X69258Y-32870D01*
X69202Y-32733D01*
X69111Y-32710D01*
X69040Y-32781D01*
X69040Y-32639D01*
X69017Y-32548D01*
X68849Y-32489D01*
X68849Y-30400D01*
X68849Y-30301D01*
X68849Y-29601D01*
X68811Y-29509D01*
X68741Y-29439D01*
X68650Y-29401D01*
X68551Y-29401D01*
X67851Y-29401D01*
X67759Y-29439D01*
X67689Y-29509D01*
X67651Y-29600D01*
X67651Y-29699D01*
X67651Y-30399D01*
X67689Y-30491D01*
X67759Y-30561D01*
X67850Y-30599D01*
X67949Y-30599D01*
X68649Y-30599D01*
X68741Y-30561D01*
X68811Y-30491D01*
X68849Y-30400D01*
X68849Y-32489D01*
X68824Y-32481D01*
X68620Y-32492D01*
X68483Y-32548D01*
X68460Y-32639D01*
X68750Y-32929D01*
X69040Y-32639D01*
X69040Y-32781D01*
X68821Y-33000D01*
X69111Y-33290D01*
X69202Y-33267D01*
X69269Y-33074D01*
X69269Y-34574D01*
X69258Y-34370D01*
X69202Y-34233D01*
X69111Y-34210D01*
X69040Y-34281D01*
X69040Y-34139D01*
X69040Y-33361D01*
X68750Y-33071D01*
X68679Y-33142D01*
X68679Y-33000D01*
X68389Y-32710D01*
X68298Y-32733D01*
X68256Y-32851D01*
X68195Y-32703D01*
X68048Y-32555D01*
X67855Y-32475D01*
X67646Y-32475D01*
X67525Y-32525D01*
X67525Y-27105D01*
X67525Y-26896D01*
X67445Y-26703D01*
X67298Y-26555D01*
X67105Y-26475D01*
X66896Y-26475D01*
X66703Y-26555D01*
X66555Y-26702D01*
X66475Y-26895D01*
X66475Y-27104D01*
X66555Y-27297D01*
X66702Y-27445D01*
X66895Y-27525D01*
X67104Y-27525D01*
X67297Y-27445D01*
X67445Y-27298D01*
X67525Y-27105D01*
X67525Y-32525D01*
X67453Y-32555D01*
X67305Y-32702D01*
X67225Y-32895D01*
X67225Y-33104D01*
X67305Y-33297D01*
X67452Y-33445D01*
X67645Y-33525D01*
X67854Y-33525D01*
X68047Y-33445D01*
X68195Y-33298D01*
X68253Y-33157D01*
X68298Y-33267D01*
X68389Y-33290D01*
X68679Y-33000D01*
X68679Y-33142D01*
X68460Y-33361D01*
X68483Y-33452D01*
X68676Y-33519D01*
X68880Y-33508D01*
X69017Y-33452D01*
X69040Y-33361D01*
X69040Y-34139D01*
X69017Y-34048D01*
X68824Y-33981D01*
X68620Y-33992D01*
X68483Y-34048D01*
X68460Y-34139D01*
X68750Y-34429D01*
X69040Y-34139D01*
X69040Y-34281D01*
X68821Y-34500D01*
X69111Y-34790D01*
X69202Y-34767D01*
X69269Y-34574D01*
X69269Y-35038D01*
X69225Y-35145D01*
X69225Y-35354D01*
X69305Y-35547D01*
X69430Y-35672D01*
X69430Y-37476D01*
X69426Y-37476D01*
X69334Y-37514D01*
X69269Y-37579D01*
X69269Y-36074D01*
X69258Y-35870D01*
X69202Y-35733D01*
X69111Y-35710D01*
X69040Y-35781D01*
X69040Y-35639D01*
X69040Y-34861D01*
X68750Y-34571D01*
X68679Y-34642D01*
X68679Y-34500D01*
X68389Y-34210D01*
X68298Y-34233D01*
X68256Y-34351D01*
X68195Y-34203D01*
X68048Y-34055D01*
X67855Y-33975D01*
X67646Y-33975D01*
X67453Y-34055D01*
X67305Y-34202D01*
X67225Y-34395D01*
X67225Y-34604D01*
X67305Y-34797D01*
X67452Y-34945D01*
X67645Y-35025D01*
X67854Y-35025D01*
X68047Y-34945D01*
X68195Y-34798D01*
X68253Y-34657D01*
X68298Y-34767D01*
X68389Y-34790D01*
X68679Y-34500D01*
X68679Y-34642D01*
X68460Y-34861D01*
X68483Y-34952D01*
X68676Y-35019D01*
X68880Y-35008D01*
X69017Y-34952D01*
X69040Y-34861D01*
X69040Y-35639D01*
X69017Y-35548D01*
X68824Y-35481D01*
X68620Y-35492D01*
X68483Y-35548D01*
X68460Y-35639D01*
X68750Y-35929D01*
X69040Y-35639D01*
X69040Y-35781D01*
X68821Y-36000D01*
X69111Y-36290D01*
X69202Y-36267D01*
X69269Y-36074D01*
X69269Y-37579D01*
X69264Y-37584D01*
X69226Y-37675D01*
X69226Y-37774D01*
X69226Y-38324D01*
X69264Y-38416D01*
X69334Y-38486D01*
X69425Y-38524D01*
X69524Y-38524D01*
X69541Y-38524D01*
X69483Y-38548D01*
X69460Y-38639D01*
X69750Y-38929D01*
X70040Y-38639D01*
X70017Y-38548D01*
X69947Y-38524D01*
X70074Y-38524D01*
X70166Y-38486D01*
X70236Y-38416D01*
X70274Y-38325D01*
X70274Y-38226D01*
X70274Y-37676D01*
X70236Y-37584D01*
X70166Y-37514D01*
X70075Y-37476D01*
X70070Y-37476D01*
X70070Y-35672D01*
X70195Y-35548D01*
X70275Y-35355D01*
X70275Y-39930D01*
X70269Y-39930D01*
X70269Y-39074D01*
X70258Y-38870D01*
X70202Y-38733D01*
X70111Y-38710D01*
X69821Y-39000D01*
X70111Y-39290D01*
X70202Y-39267D01*
X70269Y-39074D01*
X70269Y-39930D01*
X70040Y-39930D01*
X70040Y-39361D01*
X69750Y-39071D01*
X69679Y-39142D01*
X69679Y-39000D01*
X69389Y-38710D01*
X69298Y-38733D01*
X69231Y-38926D01*
X69242Y-39130D01*
X69298Y-39267D01*
X69389Y-39290D01*
X69679Y-39000D01*
X69679Y-39142D01*
X69460Y-39361D01*
X69483Y-39452D01*
X69676Y-39519D01*
X69880Y-39508D01*
X70017Y-39452D01*
X70040Y-39361D01*
X70040Y-39930D01*
X69040Y-39930D01*
X69040Y-36361D01*
X68750Y-36071D01*
X68679Y-36142D01*
X68679Y-36000D01*
X68389Y-35710D01*
X68298Y-35733D01*
X68256Y-35851D01*
X68195Y-35703D01*
X68048Y-35555D01*
X67855Y-35475D01*
X67646Y-35475D01*
X67453Y-35555D01*
X67305Y-35702D01*
X67225Y-35895D01*
X67225Y-36104D01*
X67305Y-36297D01*
X67452Y-36445D01*
X67645Y-36525D01*
X67854Y-36525D01*
X68047Y-36445D01*
X68195Y-36298D01*
X68253Y-36157D01*
X68298Y-36267D01*
X68389Y-36290D01*
X68679Y-36000D01*
X68679Y-36142D01*
X68460Y-36361D01*
X68483Y-36452D01*
X68676Y-36519D01*
X68880Y-36508D01*
X69017Y-36452D01*
X69040Y-36361D01*
X69040Y-39930D01*
X66893Y-39930D01*
X66893Y-35129D01*
X66893Y-34873D01*
X66893Y-33129D01*
X66893Y-32873D01*
X66795Y-32637D01*
X66615Y-32456D01*
X66379Y-32357D01*
X66123Y-32357D01*
X65887Y-32455D01*
X65706Y-32635D01*
X65607Y-32871D01*
X65607Y-33127D01*
X65705Y-33363D01*
X65885Y-33544D01*
X66121Y-33643D01*
X66377Y-33643D01*
X66613Y-33545D01*
X66794Y-33365D01*
X66893Y-33129D01*
X66893Y-34873D01*
X66795Y-34637D01*
X66615Y-34456D01*
X66379Y-34357D01*
X66123Y-34357D01*
X65887Y-34455D01*
X65706Y-34635D01*
X65607Y-34871D01*
X65607Y-35127D01*
X65705Y-35363D01*
X65885Y-35544D01*
X66121Y-35643D01*
X66377Y-35643D01*
X66613Y-35545D01*
X66794Y-35365D01*
X66893Y-35129D01*
X66893Y-39930D01*
X65299Y-39930D01*
X65299Y-29850D01*
X65299Y-29751D01*
X65299Y-29151D01*
X65261Y-29059D01*
X65191Y-28989D01*
X65100Y-28951D01*
X65075Y-28951D01*
X65215Y-28811D01*
X65299Y-28609D01*
X65299Y-28391D01*
X65215Y-28189D01*
X65061Y-28035D01*
X64859Y-27951D01*
X64641Y-27951D01*
X64519Y-28001D01*
X64519Y-27074D01*
X64508Y-26870D01*
X64452Y-26733D01*
X64361Y-26710D01*
X64290Y-26781D01*
X64290Y-26639D01*
X64267Y-26548D01*
X64074Y-26481D01*
X63870Y-26492D01*
X63733Y-26548D01*
X63710Y-26639D01*
X64000Y-26929D01*
X64290Y-26639D01*
X64290Y-26781D01*
X64071Y-27000D01*
X64361Y-27290D01*
X64452Y-27267D01*
X64519Y-27074D01*
X64519Y-28001D01*
X64439Y-28035D01*
X64290Y-28184D01*
X64290Y-27361D01*
X64000Y-27071D01*
X63929Y-27142D01*
X63929Y-27000D01*
X63639Y-26710D01*
X63548Y-26733D01*
X63481Y-26926D01*
X63492Y-27130D01*
X63548Y-27267D01*
X63639Y-27290D01*
X63929Y-27000D01*
X63929Y-27142D01*
X63710Y-27361D01*
X63733Y-27452D01*
X63926Y-27519D01*
X64130Y-27508D01*
X64267Y-27452D01*
X64290Y-27361D01*
X64290Y-28184D01*
X64285Y-28189D01*
X64250Y-28273D01*
X64215Y-28189D01*
X64061Y-28035D01*
X63859Y-27951D01*
X63641Y-27951D01*
X63439Y-28035D01*
X63285Y-28189D01*
X63250Y-28273D01*
X63215Y-28189D01*
X63061Y-28035D01*
X62859Y-27951D01*
X62641Y-27951D01*
X62439Y-28035D01*
X62285Y-28189D01*
X62250Y-28273D01*
X62215Y-28189D01*
X62061Y-28035D01*
X61859Y-27951D01*
X61641Y-27951D01*
X61439Y-28035D01*
X61285Y-28189D01*
X61250Y-28273D01*
X61215Y-28189D01*
X61061Y-28035D01*
X60859Y-27951D01*
X60641Y-27951D01*
X60439Y-28035D01*
X60285Y-28189D01*
X60201Y-28391D01*
X60201Y-28609D01*
X60285Y-28811D01*
X60425Y-28951D01*
X60401Y-28951D01*
X60309Y-28989D01*
X60239Y-29059D01*
X60201Y-29150D01*
X60201Y-29249D01*
X60201Y-29849D01*
X60239Y-29941D01*
X60309Y-30011D01*
X60400Y-30049D01*
X60499Y-30049D01*
X61099Y-30049D01*
X61191Y-30011D01*
X61250Y-29952D01*
X61309Y-30011D01*
X61400Y-30049D01*
X61499Y-30049D01*
X62099Y-30049D01*
X62191Y-30011D01*
X62250Y-29952D01*
X62309Y-30011D01*
X62400Y-30049D01*
X62499Y-30049D01*
X63099Y-30049D01*
X63191Y-30011D01*
X63250Y-29952D01*
X63309Y-30011D01*
X63400Y-30049D01*
X63499Y-30049D01*
X64099Y-30049D01*
X64191Y-30011D01*
X64250Y-29952D01*
X64309Y-30011D01*
X64400Y-30049D01*
X64499Y-30049D01*
X65099Y-30049D01*
X65191Y-30011D01*
X65261Y-29941D01*
X65299Y-29850D01*
X65299Y-39930D01*
X64999Y-39930D01*
X65118Y-39811D01*
X65202Y-39609D01*
X65202Y-39391D01*
X65118Y-39189D01*
X64964Y-39035D01*
X64879Y-39000D01*
X64964Y-38965D01*
X65118Y-38811D01*
X65202Y-38609D01*
X65202Y-38391D01*
X65118Y-38189D01*
X64964Y-38035D01*
X64879Y-38000D01*
X64964Y-37965D01*
X65118Y-37811D01*
X65202Y-37609D01*
X65202Y-37391D01*
X65118Y-37189D01*
X64964Y-37035D01*
X64879Y-37000D01*
X64964Y-36965D01*
X65118Y-36811D01*
X65202Y-36609D01*
X65202Y-36391D01*
X65118Y-36189D01*
X64964Y-36035D01*
X64879Y-36000D01*
X64964Y-35965D01*
X65118Y-35811D01*
X65202Y-35609D01*
X65202Y-35391D01*
X65118Y-35189D01*
X64964Y-35035D01*
X64879Y-35000D01*
X64964Y-34965D01*
X65118Y-34811D01*
X65202Y-34609D01*
X65202Y-34391D01*
X65118Y-34189D01*
X64964Y-34035D01*
X64879Y-34000D01*
X64964Y-33965D01*
X65118Y-33811D01*
X65202Y-33609D01*
X65202Y-33391D01*
X65118Y-33189D01*
X64964Y-33035D01*
X64879Y-33000D01*
X64964Y-32965D01*
X65118Y-32811D01*
X65202Y-32609D01*
X65202Y-32391D01*
X65118Y-32189D01*
X64964Y-32035D01*
X64879Y-32000D01*
X64964Y-31965D01*
X65118Y-31811D01*
X65202Y-31609D01*
X65202Y-31391D01*
X65118Y-31189D01*
X64964Y-31035D01*
X64762Y-30951D01*
X64544Y-30951D01*
X64238Y-30951D01*
X64036Y-31035D01*
X63882Y-31189D01*
X63798Y-31391D01*
X63798Y-31609D01*
X63882Y-31811D01*
X64036Y-31965D01*
X64120Y-32000D01*
X64036Y-32035D01*
X63882Y-32189D01*
X63798Y-32391D01*
X63798Y-32609D01*
X63882Y-32811D01*
X64036Y-32965D01*
X64120Y-33000D01*
X64036Y-33035D01*
X63882Y-33189D01*
X63798Y-33391D01*
X63798Y-33609D01*
X63882Y-33811D01*
X64036Y-33965D01*
X64120Y-34000D01*
X64036Y-34035D01*
X63882Y-34189D01*
X63798Y-34391D01*
X63798Y-34609D01*
X63882Y-34811D01*
X64036Y-34965D01*
X64120Y-35000D01*
X64036Y-35035D01*
X63882Y-35189D01*
X63798Y-35391D01*
X63798Y-35609D01*
X63882Y-35811D01*
X64036Y-35965D01*
X64120Y-36000D01*
X64036Y-36035D01*
X63882Y-36189D01*
X63798Y-36391D01*
X63798Y-36609D01*
X63882Y-36811D01*
X64036Y-36965D01*
X64120Y-37000D01*
X64036Y-37035D01*
X63882Y-37189D01*
X63798Y-37391D01*
X63798Y-37609D01*
X63882Y-37811D01*
X64036Y-37965D01*
X64120Y-38000D01*
X64036Y-38035D01*
X63882Y-38189D01*
X63798Y-38391D01*
X63798Y-38609D01*
X63882Y-38811D01*
X64036Y-38965D01*
X64120Y-39000D01*
X64036Y-39035D01*
X63882Y-39189D01*
X63798Y-39391D01*
X63798Y-39609D01*
X63882Y-39811D01*
X64001Y-39930D01*
X61999Y-39930D01*
X62118Y-39811D01*
X62202Y-39609D01*
X62202Y-39391D01*
X62118Y-39189D01*
X61964Y-39035D01*
X61879Y-39000D01*
X61964Y-38965D01*
X62118Y-38811D01*
X62202Y-38609D01*
X62202Y-38391D01*
X62118Y-38189D01*
X61964Y-38035D01*
X61879Y-38000D01*
X61964Y-37965D01*
X62118Y-37811D01*
X62202Y-37609D01*
X62202Y-37391D01*
X62118Y-37189D01*
X61964Y-37035D01*
X61879Y-37000D01*
X61964Y-36965D01*
X62118Y-36811D01*
X62202Y-36609D01*
X62202Y-36391D01*
X62202Y-34609D01*
X62202Y-34391D01*
X62118Y-34189D01*
X61964Y-34035D01*
X61879Y-34000D01*
X61964Y-33965D01*
X62118Y-33811D01*
X62202Y-33609D01*
X62202Y-33391D01*
X62118Y-33189D01*
X61964Y-33035D01*
X61879Y-33000D01*
X61964Y-32965D01*
X62118Y-32811D01*
X62202Y-32609D01*
X62202Y-32391D01*
X62118Y-32189D01*
X61988Y-32059D01*
X61999Y-32059D01*
X62091Y-32021D01*
X62161Y-31951D01*
X62199Y-31860D01*
X62199Y-31761D01*
X62199Y-31141D01*
X62161Y-31049D01*
X62091Y-30979D01*
X62000Y-30941D01*
X61901Y-30941D01*
X61001Y-30941D01*
X60909Y-30979D01*
X60839Y-31049D01*
X60801Y-31140D01*
X60801Y-31239D01*
X60801Y-31859D01*
X60839Y-31951D01*
X60909Y-32021D01*
X61000Y-32059D01*
X61012Y-32059D01*
X60882Y-32189D01*
X60798Y-32391D01*
X60798Y-32609D01*
X60882Y-32811D01*
X61036Y-32965D01*
X61120Y-33000D01*
X61036Y-33035D01*
X60882Y-33189D01*
X60798Y-33391D01*
X60798Y-33609D01*
X60882Y-33811D01*
X61036Y-33965D01*
X61120Y-34000D01*
X61036Y-34035D01*
X60906Y-34164D01*
X60798Y-34055D01*
X60605Y-33975D01*
X60396Y-33975D01*
X60203Y-34055D01*
X60055Y-34202D01*
X59975Y-34395D01*
X59975Y-34604D01*
X60055Y-34797D01*
X60202Y-34945D01*
X60395Y-35025D01*
X60604Y-35025D01*
X60797Y-34945D01*
X60906Y-34835D01*
X61036Y-34965D01*
X61115Y-34998D01*
X60950Y-35118D01*
X60835Y-35304D01*
X60818Y-35363D01*
X60865Y-35450D01*
X61400Y-35450D01*
X61450Y-35450D01*
X61550Y-35450D01*
X61600Y-35450D01*
X62135Y-35450D01*
X62182Y-35363D01*
X62165Y-35304D01*
X62050Y-35118D01*
X61884Y-34998D01*
X61964Y-34965D01*
X62118Y-34811D01*
X62202Y-34609D01*
X62202Y-36391D01*
X62118Y-36189D01*
X61964Y-36035D01*
X61884Y-36001D01*
X62050Y-35882D01*
X62165Y-35696D01*
X62182Y-35637D01*
X62135Y-35550D01*
X61600Y-35550D01*
X61550Y-35550D01*
X61450Y-35550D01*
X61400Y-35550D01*
X60865Y-35550D01*
X60818Y-35637D01*
X60835Y-35696D01*
X60950Y-35882D01*
X61115Y-36001D01*
X61036Y-36035D01*
X60882Y-36189D01*
X60798Y-36391D01*
X60798Y-36609D01*
X60882Y-36811D01*
X61036Y-36965D01*
X61120Y-37000D01*
X61036Y-37035D01*
X60882Y-37189D01*
X60798Y-37391D01*
X60798Y-37609D01*
X60882Y-37811D01*
X61036Y-37965D01*
X61120Y-38000D01*
X61036Y-38035D01*
X60882Y-38189D01*
X60798Y-38391D01*
X60798Y-38609D01*
X60882Y-38811D01*
X61036Y-38965D01*
X61120Y-39000D01*
X61036Y-39035D01*
X60882Y-39189D01*
X60798Y-39391D01*
X60798Y-39609D01*
X60882Y-39811D01*
X61001Y-39930D01*
X58925Y-39930D01*
X58925Y-28835D01*
X58925Y-28666D01*
X58861Y-28510D01*
X58741Y-28390D01*
X58585Y-28325D01*
X58416Y-28325D01*
X58260Y-28389D01*
X58140Y-28509D01*
X58075Y-28665D01*
X58075Y-28751D01*
X56288Y-30538D01*
X56223Y-30635D01*
X56200Y-30750D01*
X56200Y-31825D01*
X56166Y-31825D01*
X56010Y-31889D01*
X55890Y-32009D01*
X55825Y-32165D01*
X55825Y-32334D01*
X55889Y-32490D01*
X56009Y-32610D01*
X56165Y-32675D01*
X56334Y-32675D01*
X56490Y-32611D01*
X56610Y-32491D01*
X56675Y-32335D01*
X56675Y-32249D01*
X56712Y-32213D01*
X56712Y-32212D01*
X56777Y-32115D01*
X56799Y-32000D01*
X56800Y-32000D01*
X56800Y-30874D01*
X58499Y-29175D01*
X58584Y-29175D01*
X58740Y-29111D01*
X58860Y-28991D01*
X58925Y-28835D01*
X58925Y-39930D01*
X58750Y-39930D01*
X58628Y-39954D01*
X58626Y-39954D01*
X58626Y-39955D01*
X58525Y-40022D01*
X58525Y-36605D01*
X58525Y-36396D01*
X58519Y-36381D01*
X58519Y-35574D01*
X58508Y-35370D01*
X58452Y-35233D01*
X58361Y-35210D01*
X58290Y-35281D01*
X58290Y-35139D01*
X58267Y-35048D01*
X58173Y-35015D01*
X58173Y-33265D01*
X58173Y-33009D01*
X58165Y-32989D01*
X58165Y-31464D01*
X58155Y-31214D01*
X58078Y-31028D01*
X57974Y-30991D01*
X57903Y-31062D01*
X57903Y-30920D01*
X57866Y-30816D01*
X57630Y-30729D01*
X57380Y-30739D01*
X57194Y-30816D01*
X57157Y-30920D01*
X57530Y-31293D01*
X57903Y-30920D01*
X57903Y-31062D01*
X57601Y-31364D01*
X57974Y-31737D01*
X58078Y-31700D01*
X58165Y-31464D01*
X58165Y-32989D01*
X58075Y-32773D01*
X57903Y-32600D01*
X57903Y-31808D01*
X57530Y-31435D01*
X57459Y-31506D01*
X57459Y-31364D01*
X57086Y-30991D01*
X56982Y-31028D01*
X56895Y-31264D01*
X56905Y-31514D01*
X56982Y-31700D01*
X57086Y-31737D01*
X57459Y-31364D01*
X57459Y-31506D01*
X57157Y-31808D01*
X57194Y-31912D01*
X57430Y-31999D01*
X57680Y-31989D01*
X57866Y-31912D01*
X57903Y-31808D01*
X57903Y-32600D01*
X57895Y-32592D01*
X57659Y-32493D01*
X57403Y-32493D01*
X57167Y-32591D01*
X56986Y-32771D01*
X56887Y-33007D01*
X56887Y-33263D01*
X56985Y-33499D01*
X57165Y-33680D01*
X57401Y-33779D01*
X57657Y-33779D01*
X57893Y-33681D01*
X58074Y-33501D01*
X58173Y-33265D01*
X58173Y-35015D01*
X58074Y-34981D01*
X58025Y-34983D01*
X58025Y-34605D01*
X58025Y-34396D01*
X57945Y-34203D01*
X57798Y-34055D01*
X57605Y-33975D01*
X57396Y-33975D01*
X57203Y-34055D01*
X57055Y-34202D01*
X56999Y-34335D01*
X56945Y-34203D01*
X56798Y-34055D01*
X56605Y-33975D01*
X56396Y-33975D01*
X56203Y-34055D01*
X56055Y-34202D01*
X55999Y-34335D01*
X55945Y-34203D01*
X55798Y-34055D01*
X55605Y-33975D01*
X55396Y-33975D01*
X55203Y-34055D01*
X55055Y-34202D01*
X54975Y-34395D01*
X54975Y-34604D01*
X55055Y-34797D01*
X55202Y-34945D01*
X55395Y-35025D01*
X55604Y-35025D01*
X55797Y-34945D01*
X55945Y-34798D01*
X56000Y-34664D01*
X56055Y-34797D01*
X56202Y-34945D01*
X56395Y-35025D01*
X56604Y-35025D01*
X56797Y-34945D01*
X56945Y-34798D01*
X57000Y-34664D01*
X57055Y-34797D01*
X57202Y-34945D01*
X57395Y-35025D01*
X57604Y-35025D01*
X57797Y-34945D01*
X57945Y-34798D01*
X58025Y-34605D01*
X58025Y-34983D01*
X57870Y-34992D01*
X57733Y-35048D01*
X57710Y-35139D01*
X58000Y-35429D01*
X58290Y-35139D01*
X58290Y-35281D01*
X58071Y-35500D01*
X58361Y-35790D01*
X58452Y-35767D01*
X58519Y-35574D01*
X58519Y-36381D01*
X58445Y-36203D01*
X58298Y-36055D01*
X58157Y-35996D01*
X58267Y-35952D01*
X58290Y-35861D01*
X58000Y-35571D01*
X57929Y-35642D01*
X57929Y-35500D01*
X57639Y-35210D01*
X57548Y-35233D01*
X57481Y-35426D01*
X57492Y-35630D01*
X57548Y-35767D01*
X57639Y-35790D01*
X57929Y-35500D01*
X57929Y-35642D01*
X57710Y-35861D01*
X57733Y-35952D01*
X57851Y-35993D01*
X57703Y-36055D01*
X57555Y-36202D01*
X57475Y-36395D01*
X57475Y-36604D01*
X57555Y-36797D01*
X57702Y-36945D01*
X57895Y-37025D01*
X58104Y-37025D01*
X58297Y-36945D01*
X58445Y-36798D01*
X58525Y-36605D01*
X58525Y-40022D01*
X58523Y-40024D01*
X57774Y-40774D01*
X57704Y-40877D01*
X57680Y-41000D01*
X57680Y-41500D01*
X57704Y-41623D01*
X57774Y-41726D01*
X58774Y-42726D01*
X58877Y-42795D01*
X58878Y-42796D01*
X59000Y-42820D01*
X59294Y-42820D01*
X59439Y-42965D01*
X59641Y-43049D01*
X59859Y-43049D01*
X60061Y-42965D01*
X60215Y-42811D01*
X60250Y-42726D01*
X60285Y-42811D01*
X60439Y-42965D01*
X60641Y-43049D01*
X60859Y-43049D01*
X61061Y-42965D01*
X61215Y-42811D01*
X61250Y-42726D01*
X61285Y-42811D01*
X61439Y-42965D01*
X61565Y-43017D01*
X62273Y-43726D01*
X62274Y-43726D01*
X62376Y-43795D01*
X62378Y-43796D01*
X62500Y-43820D01*
X70727Y-43820D01*
X70710Y-43889D01*
X71000Y-44179D01*
X71290Y-43889D01*
X71267Y-43798D01*
X71148Y-43756D01*
X71297Y-43695D01*
X71445Y-43548D01*
X71525Y-43355D01*
X71525Y-43146D01*
X71445Y-42953D01*
X71298Y-42805D01*
X71105Y-42725D01*
X70896Y-42725D01*
X70703Y-42805D01*
X70555Y-42952D01*
X70475Y-43145D01*
X70475Y-43180D01*
X62632Y-43180D01*
X62229Y-42776D01*
X62250Y-42726D01*
X62285Y-42811D01*
X62439Y-42965D01*
X62641Y-43049D01*
X62859Y-43049D01*
X63061Y-42965D01*
X63215Y-42811D01*
X63250Y-42726D01*
X63285Y-42811D01*
X63439Y-42965D01*
X63641Y-43049D01*
X63859Y-43049D01*
X64061Y-42965D01*
X64215Y-42811D01*
X64250Y-42726D01*
X64285Y-42811D01*
X64439Y-42965D01*
X64641Y-43049D01*
X64859Y-43049D01*
X65061Y-42965D01*
X65215Y-42811D01*
X65250Y-42726D01*
X65285Y-42811D01*
X65439Y-42965D01*
X65641Y-43049D01*
X65859Y-43049D01*
X66061Y-42965D01*
X66215Y-42811D01*
X66250Y-42726D01*
X66285Y-42811D01*
X66439Y-42965D01*
X66641Y-43049D01*
X66859Y-43049D01*
X67061Y-42965D01*
X67215Y-42811D01*
X67299Y-42609D01*
X67299Y-42391D01*
X67215Y-42189D01*
X67075Y-42049D01*
X67099Y-42049D01*
X67191Y-42011D01*
X67261Y-41941D01*
X67299Y-41850D01*
X67299Y-41751D01*
X67299Y-41151D01*
X67261Y-41059D01*
X67191Y-40989D01*
X67100Y-40951D01*
X67001Y-40951D01*
X66401Y-40951D01*
X66309Y-40989D01*
X66250Y-41048D01*
X66191Y-40989D01*
X66100Y-40951D01*
X66001Y-40951D01*
X65401Y-40951D01*
X65309Y-40989D01*
X65250Y-41048D01*
X65191Y-40989D01*
X65100Y-40951D01*
X65001Y-40951D01*
X64401Y-40951D01*
X64309Y-40989D01*
X64250Y-41048D01*
X64191Y-40989D01*
X64100Y-40951D01*
X64001Y-40951D01*
X63401Y-40951D01*
X63309Y-40989D01*
X63250Y-41048D01*
X63191Y-40989D01*
X63100Y-40951D01*
X63001Y-40951D01*
X62401Y-40951D01*
X62309Y-40989D01*
X62250Y-41048D01*
X62191Y-40989D01*
X62100Y-40951D01*
X62001Y-40951D01*
X61401Y-40951D01*
X61309Y-40989D01*
X61250Y-41048D01*
X61191Y-40989D01*
X61100Y-40951D01*
X61001Y-40951D01*
X60401Y-40951D01*
X60309Y-40989D01*
X60250Y-41048D01*
X60191Y-40989D01*
X60100Y-40951D01*
X60001Y-40951D01*
X59401Y-40951D01*
X59309Y-40989D01*
X59239Y-41059D01*
X59201Y-41150D01*
X59201Y-41249D01*
X59201Y-41849D01*
X59239Y-41941D01*
X59309Y-42011D01*
X59400Y-42049D01*
X59425Y-42049D01*
X59294Y-42180D01*
X59132Y-42180D01*
X58320Y-41368D01*
X58320Y-41132D01*
X58882Y-40570D01*
X70867Y-40570D01*
X71226Y-40928D01*
X71226Y-41324D01*
X71264Y-41416D01*
X71334Y-41486D01*
X71425Y-41524D01*
X71524Y-41524D01*
X72074Y-41524D01*
X72166Y-41486D01*
X72236Y-41416D01*
X72274Y-41325D01*
X72274Y-46450D01*
X71519Y-46450D01*
X71519Y-44324D01*
X71508Y-44120D01*
X71452Y-43983D01*
X71361Y-43960D01*
X71071Y-44250D01*
X71361Y-44540D01*
X71452Y-44517D01*
X71519Y-44324D01*
X71519Y-46450D01*
X71290Y-46450D01*
X71290Y-44611D01*
X71000Y-44321D01*
X70929Y-44392D01*
X70929Y-44250D01*
X70639Y-43960D01*
X70548Y-43983D01*
X70481Y-44176D01*
X70492Y-44380D01*
X70548Y-44517D01*
X70639Y-44540D01*
X70929Y-44250D01*
X70929Y-44392D01*
X70710Y-44611D01*
X70733Y-44702D01*
X70926Y-44769D01*
X71130Y-44758D01*
X71267Y-44702D01*
X71290Y-44611D01*
X71290Y-46450D01*
X70374Y-46450D01*
X69025Y-45100D01*
X69025Y-44896D01*
X68945Y-44703D01*
X68798Y-44555D01*
X68605Y-44475D01*
X68396Y-44475D01*
X68203Y-44555D01*
X68055Y-44702D01*
X67975Y-44895D01*
X67975Y-45104D01*
X68055Y-45297D01*
X68202Y-45445D01*
X68335Y-45500D01*
X68203Y-45555D01*
X68055Y-45702D01*
X67975Y-45895D01*
X67975Y-46104D01*
X68055Y-46297D01*
X68202Y-46445D01*
X68214Y-46450D01*
X65784Y-46450D01*
X65797Y-46445D01*
X65945Y-46298D01*
X66025Y-46105D01*
X66025Y-45896D01*
X65945Y-45703D01*
X65798Y-45555D01*
X65664Y-45499D01*
X65797Y-45445D01*
X65945Y-45298D01*
X66025Y-45105D01*
X66025Y-44896D01*
X65945Y-44703D01*
X65798Y-44555D01*
X65605Y-44475D01*
X65396Y-44475D01*
X65203Y-44555D01*
X65055Y-44702D01*
X64975Y-44895D01*
X64975Y-45104D01*
X65055Y-45297D01*
X65202Y-45445D01*
X65335Y-45500D01*
X65203Y-45555D01*
X65055Y-45702D01*
X64975Y-45895D01*
X64975Y-46104D01*
X65055Y-46297D01*
X65202Y-46445D01*
X65214Y-46450D01*
X61124Y-46450D01*
X58050Y-43376D01*
X58050Y-42250D01*
X58027Y-42135D01*
X57962Y-42038D01*
X57175Y-41251D01*
X57175Y-41166D01*
X57111Y-41010D01*
X57025Y-40924D01*
X57025Y-37605D01*
X57025Y-37396D01*
X56945Y-37203D01*
X56798Y-37055D01*
X56605Y-36975D01*
X56396Y-36975D01*
X56203Y-37055D01*
X56055Y-37202D01*
X56024Y-37276D01*
X56024Y-37176D01*
X55986Y-37084D01*
X55916Y-37014D01*
X55825Y-36976D01*
X55726Y-36976D01*
X55176Y-36976D01*
X55084Y-37014D01*
X55014Y-37084D01*
X54976Y-37175D01*
X54976Y-37274D01*
X54976Y-37824D01*
X55014Y-37916D01*
X55084Y-37986D01*
X55175Y-38024D01*
X55274Y-38024D01*
X55824Y-38024D01*
X55916Y-37986D01*
X55986Y-37916D01*
X56024Y-37825D01*
X56024Y-37726D01*
X56024Y-37722D01*
X56055Y-37797D01*
X56202Y-37945D01*
X56395Y-38025D01*
X56604Y-38025D01*
X56797Y-37945D01*
X56945Y-37798D01*
X57025Y-37605D01*
X57025Y-40924D01*
X56991Y-40890D01*
X56835Y-40825D01*
X56666Y-40825D01*
X56510Y-40889D01*
X56390Y-41009D01*
X56325Y-41165D01*
X56325Y-41334D01*
X56389Y-41490D01*
X56509Y-41610D01*
X56665Y-41675D01*
X56751Y-41675D01*
X57450Y-42374D01*
X57450Y-43500D01*
X57473Y-43615D01*
X57538Y-43712D01*
X60517Y-46691D01*
X57275Y-46699D01*
X57275Y-45605D01*
X57275Y-45396D01*
X57195Y-45203D01*
X57048Y-45055D01*
X56855Y-44975D01*
X56646Y-44975D01*
X56453Y-45055D01*
X56305Y-45202D01*
X56225Y-45395D01*
X56225Y-45604D01*
X56305Y-45797D01*
X56452Y-45945D01*
X56645Y-46025D01*
X56854Y-46025D01*
X57047Y-45945D01*
X57195Y-45798D01*
X57275Y-45605D01*
X57275Y-46699D01*
X55025Y-46705D01*
X55025Y-45605D01*
X55025Y-45396D01*
X54945Y-45203D01*
X54798Y-45055D01*
X54605Y-44975D01*
X54396Y-44975D01*
X54203Y-45055D01*
X54055Y-45202D01*
X53975Y-45395D01*
X53975Y-45604D01*
X54055Y-45797D01*
X54202Y-45945D01*
X54395Y-46025D01*
X54604Y-46025D01*
X54797Y-45945D01*
X54945Y-45798D01*
X55025Y-45605D01*
X55025Y-46705D01*
X53393Y-46710D01*
X53393Y-33826D01*
X53393Y-33575D01*
X53297Y-33343D01*
X53120Y-33165D01*
X52888Y-33069D01*
X52637Y-33069D01*
X52613Y-33069D01*
X52393Y-33160D01*
X52393Y-30826D01*
X52393Y-30575D01*
X52297Y-30343D01*
X52120Y-30165D01*
X51888Y-30069D01*
X51637Y-30069D01*
X51613Y-30069D01*
X51381Y-30165D01*
X51203Y-30342D01*
X51107Y-30574D01*
X51107Y-30825D01*
X51203Y-31057D01*
X51380Y-31235D01*
X51612Y-31331D01*
X51863Y-31331D01*
X51887Y-31331D01*
X52119Y-31235D01*
X52297Y-31058D01*
X52393Y-30826D01*
X52393Y-33160D01*
X52381Y-33165D01*
X52203Y-33342D01*
X52107Y-33574D01*
X52107Y-33825D01*
X52203Y-34057D01*
X52380Y-34235D01*
X52612Y-34331D01*
X52863Y-34331D01*
X52887Y-34331D01*
X53119Y-34235D01*
X53297Y-34058D01*
X53393Y-33826D01*
X53393Y-46710D01*
X53025Y-46711D01*
X53025Y-43855D01*
X53025Y-43646D01*
X53025Y-40855D01*
X53025Y-40646D01*
X53025Y-39605D01*
X53025Y-39396D01*
X52945Y-39203D01*
X52798Y-39055D01*
X52605Y-38975D01*
X52399Y-38975D01*
X52393Y-38968D01*
X52393Y-35826D01*
X52393Y-35575D01*
X52297Y-35343D01*
X52120Y-35165D01*
X51888Y-35069D01*
X51637Y-35069D01*
X51613Y-35069D01*
X51381Y-35165D01*
X51203Y-35342D01*
X51107Y-35574D01*
X51107Y-35825D01*
X51203Y-36057D01*
X51380Y-36235D01*
X51612Y-36331D01*
X51863Y-36331D01*
X51887Y-36331D01*
X52119Y-36235D01*
X52297Y-36058D01*
X52393Y-35826D01*
X52393Y-38968D01*
X51080Y-37655D01*
X51080Y-27866D01*
X51080Y-27635D01*
X50992Y-27422D01*
X50829Y-27259D01*
X50616Y-27170D01*
X50385Y-27170D01*
X50172Y-27258D01*
X50009Y-27421D01*
X50000Y-27441D01*
X49992Y-27422D01*
X49829Y-27259D01*
X49616Y-27170D01*
X49385Y-27170D01*
X49172Y-27258D01*
X49009Y-27421D01*
X48920Y-27634D01*
X48920Y-27865D01*
X49008Y-28078D01*
X49171Y-28241D01*
X49384Y-28330D01*
X49615Y-28330D01*
X49828Y-28242D01*
X49991Y-28079D01*
X49999Y-28058D01*
X50008Y-28078D01*
X50171Y-28241D01*
X50384Y-28330D01*
X50615Y-28330D01*
X50828Y-28242D01*
X50991Y-28079D01*
X51080Y-27866D01*
X51080Y-37655D01*
X47050Y-33625D01*
X47050Y-31692D01*
X47195Y-31548D01*
X47275Y-31355D01*
X47275Y-31146D01*
X47195Y-30953D01*
X47048Y-30805D01*
X46914Y-30749D01*
X47047Y-30695D01*
X47195Y-30548D01*
X47275Y-30355D01*
X47275Y-30146D01*
X47195Y-29953D01*
X47048Y-29805D01*
X46855Y-29725D01*
X46646Y-29725D01*
X46453Y-29805D01*
X46305Y-29952D01*
X46225Y-30145D01*
X46225Y-30354D01*
X46305Y-30547D01*
X46452Y-30695D01*
X46585Y-30750D01*
X46453Y-30805D01*
X46305Y-30952D01*
X46274Y-31024D01*
X46274Y-30925D01*
X46236Y-30834D01*
X46166Y-30764D01*
X46074Y-30726D01*
X45862Y-30725D01*
X45800Y-30787D01*
X45800Y-31150D01*
X45800Y-31200D01*
X45800Y-31300D01*
X45800Y-31350D01*
X45800Y-31713D01*
X45862Y-31775D01*
X46074Y-31774D01*
X46166Y-31736D01*
X46236Y-31666D01*
X46274Y-31575D01*
X46274Y-31476D01*
X46274Y-31472D01*
X46305Y-31547D01*
X46450Y-31692D01*
X46450Y-33750D01*
X46473Y-33865D01*
X46538Y-33962D01*
X51975Y-39399D01*
X51975Y-39604D01*
X52055Y-39797D01*
X52202Y-39945D01*
X52395Y-40025D01*
X52604Y-40025D01*
X52797Y-39945D01*
X52945Y-39798D01*
X53025Y-39605D01*
X53025Y-40646D01*
X52945Y-40453D01*
X52798Y-40305D01*
X52605Y-40225D01*
X52396Y-40225D01*
X52203Y-40305D01*
X52055Y-40452D01*
X51975Y-40645D01*
X51975Y-40854D01*
X52055Y-41047D01*
X52202Y-41195D01*
X52395Y-41275D01*
X52604Y-41275D01*
X52797Y-41195D01*
X52945Y-41048D01*
X53025Y-40855D01*
X53025Y-43646D01*
X52945Y-43453D01*
X52798Y-43305D01*
X52605Y-43225D01*
X52396Y-43225D01*
X52203Y-43305D01*
X52055Y-43452D01*
X51975Y-43645D01*
X51975Y-43854D01*
X52055Y-44047D01*
X52202Y-44195D01*
X52395Y-44275D01*
X52604Y-44275D01*
X52797Y-44195D01*
X52945Y-44048D01*
X53025Y-43855D01*
X53025Y-46711D01*
X52525Y-46712D01*
X52525Y-45355D01*
X52525Y-45146D01*
X52445Y-44953D01*
X52298Y-44805D01*
X52105Y-44725D01*
X51896Y-44725D01*
X51703Y-44805D01*
X51555Y-44952D01*
X51496Y-45092D01*
X51452Y-44983D01*
X51361Y-44960D01*
X51290Y-45031D01*
X51290Y-44889D01*
X51267Y-44798D01*
X51074Y-44731D01*
X50870Y-44742D01*
X50733Y-44798D01*
X50710Y-44889D01*
X51000Y-45179D01*
X51290Y-44889D01*
X51290Y-45031D01*
X51071Y-45250D01*
X51361Y-45540D01*
X51452Y-45517D01*
X51493Y-45398D01*
X51555Y-45547D01*
X51702Y-45695D01*
X51895Y-45775D01*
X52104Y-45775D01*
X52297Y-45695D01*
X52445Y-45548D01*
X52525Y-45355D01*
X52525Y-46712D01*
X51290Y-46715D01*
X51290Y-45611D01*
X51000Y-45321D01*
X50929Y-45392D01*
X50929Y-45250D01*
X50639Y-44960D01*
X50548Y-44983D01*
X50481Y-45176D01*
X50492Y-45380D01*
X50548Y-45517D01*
X50639Y-45540D01*
X50929Y-45250D01*
X50929Y-45392D01*
X50710Y-45611D01*
X50733Y-45702D01*
X50926Y-45769D01*
X51130Y-45758D01*
X51267Y-45702D01*
X51290Y-45611D01*
X51290Y-46715D01*
X49675Y-46720D01*
X49675Y-46666D01*
X49611Y-46510D01*
X49491Y-46390D01*
X49335Y-46325D01*
X49249Y-46325D01*
X48830Y-45906D01*
X48830Y-44366D01*
X48830Y-44135D01*
X48775Y-44001D01*
X48775Y-43105D01*
X48775Y-42896D01*
X48775Y-40105D01*
X48775Y-39896D01*
X48695Y-39703D01*
X48548Y-39555D01*
X48355Y-39475D01*
X48146Y-39475D01*
X47953Y-39555D01*
X47805Y-39702D01*
X47725Y-39895D01*
X47725Y-40104D01*
X47805Y-40297D01*
X47952Y-40445D01*
X48145Y-40525D01*
X48354Y-40525D01*
X48547Y-40445D01*
X48695Y-40298D01*
X48775Y-40105D01*
X48775Y-42896D01*
X48695Y-42703D01*
X48548Y-42555D01*
X48355Y-42475D01*
X48146Y-42475D01*
X47953Y-42555D01*
X47805Y-42702D01*
X47725Y-42895D01*
X47725Y-43104D01*
X47805Y-43297D01*
X47952Y-43445D01*
X48145Y-43525D01*
X48354Y-43525D01*
X48547Y-43445D01*
X48695Y-43298D01*
X48775Y-43105D01*
X48775Y-44001D01*
X48742Y-43922D01*
X48579Y-43759D01*
X48366Y-43670D01*
X48135Y-43670D01*
X47922Y-43758D01*
X47759Y-43921D01*
X47670Y-44134D01*
X47670Y-44365D01*
X47758Y-44578D01*
X47921Y-44741D01*
X47952Y-44753D01*
X47952Y-44754D01*
X47921Y-44850D01*
X48250Y-45179D01*
X48579Y-44850D01*
X48548Y-44754D01*
X48578Y-44742D01*
X48741Y-44579D01*
X48830Y-44366D01*
X48830Y-45906D01*
X48823Y-45899D01*
X48823Y-45336D01*
X48812Y-45111D01*
X48746Y-44952D01*
X48650Y-44921D01*
X48321Y-45250D01*
X48650Y-45579D01*
X48746Y-45548D01*
X48823Y-45336D01*
X48823Y-45899D01*
X48712Y-45788D01*
X48615Y-45723D01*
X48559Y-45711D01*
X48579Y-45650D01*
X48250Y-45321D01*
X48179Y-45392D01*
X48179Y-45250D01*
X47850Y-44921D01*
X47754Y-44952D01*
X47677Y-45164D01*
X47688Y-45389D01*
X47754Y-45548D01*
X47850Y-45579D01*
X48179Y-45250D01*
X48179Y-45392D01*
X47921Y-45650D01*
X47937Y-45700D01*
X45549Y-45700D01*
X45549Y-42850D01*
X45549Y-42751D01*
X45549Y-42151D01*
X45511Y-42059D01*
X45441Y-41989D01*
X45350Y-41951D01*
X45325Y-41951D01*
X45465Y-41811D01*
X45549Y-41609D01*
X45549Y-41391D01*
X45465Y-41189D01*
X45311Y-41035D01*
X45109Y-40951D01*
X44891Y-40951D01*
X44879Y-40955D01*
X43952Y-40028D01*
X44025Y-39855D01*
X44025Y-39646D01*
X43945Y-39453D01*
X43798Y-39305D01*
X43605Y-39225D01*
X43396Y-39225D01*
X43203Y-39305D01*
X43055Y-39452D01*
X42975Y-39645D01*
X42975Y-39854D01*
X43055Y-40047D01*
X43202Y-40195D01*
X43319Y-40243D01*
X44455Y-41379D01*
X44451Y-41391D01*
X44451Y-41609D01*
X44535Y-41811D01*
X44675Y-41951D01*
X44651Y-41951D01*
X44559Y-41989D01*
X44489Y-42059D01*
X44451Y-42150D01*
X44451Y-42249D01*
X44451Y-42849D01*
X44489Y-42941D01*
X44559Y-43011D01*
X44650Y-43049D01*
X44749Y-43049D01*
X45349Y-43049D01*
X45441Y-43011D01*
X45511Y-42941D01*
X45549Y-42850D01*
X45549Y-45700D01*
X45299Y-45700D01*
X45299Y-45350D01*
X45299Y-45251D01*
X45299Y-44651D01*
X45261Y-44559D01*
X45191Y-44489D01*
X45100Y-44451D01*
X45001Y-44451D01*
X44401Y-44451D01*
X44309Y-44489D01*
X44239Y-44559D01*
X44201Y-44650D01*
X44201Y-44712D01*
X44128Y-44692D01*
X44058Y-44762D01*
X44058Y-44622D01*
X44031Y-44528D01*
X43829Y-44457D01*
X43616Y-44468D01*
X43469Y-44528D01*
X43442Y-44622D01*
X43750Y-44929D01*
X44058Y-44622D01*
X44058Y-44762D01*
X43821Y-45000D01*
X44128Y-45308D01*
X44201Y-45287D01*
X44201Y-45349D01*
X44239Y-45441D01*
X44309Y-45511D01*
X44400Y-45549D01*
X44499Y-45549D01*
X45099Y-45549D01*
X45191Y-45511D01*
X45261Y-45441D01*
X45299Y-45350D01*
X45299Y-45700D01*
X44058Y-45700D01*
X44058Y-45378D01*
X43750Y-45071D01*
X43679Y-45141D01*
X43679Y-45000D01*
X43372Y-44692D01*
X43278Y-44719D01*
X43254Y-44784D01*
X43215Y-44689D01*
X43061Y-44535D01*
X43049Y-44530D01*
X43049Y-42850D01*
X43049Y-42751D01*
X43049Y-42151D01*
X43011Y-42059D01*
X42941Y-41989D01*
X42850Y-41951D01*
X42825Y-41951D01*
X42965Y-41811D01*
X43049Y-41609D01*
X43049Y-41391D01*
X42965Y-41189D01*
X42923Y-41147D01*
X42923Y-33265D01*
X42923Y-33009D01*
X42915Y-32989D01*
X42915Y-31464D01*
X42905Y-31214D01*
X42828Y-31028D01*
X42724Y-30991D01*
X42653Y-31062D01*
X42653Y-30920D01*
X42616Y-30816D01*
X42380Y-30729D01*
X42130Y-30739D01*
X41944Y-30816D01*
X41907Y-30920D01*
X42280Y-31293D01*
X42653Y-30920D01*
X42653Y-31062D01*
X42351Y-31364D01*
X42724Y-31737D01*
X42828Y-31700D01*
X42915Y-31464D01*
X42915Y-32989D01*
X42825Y-32773D01*
X42653Y-32600D01*
X42653Y-31808D01*
X42280Y-31435D01*
X42209Y-31506D01*
X42209Y-31364D01*
X41836Y-30991D01*
X41732Y-31028D01*
X41645Y-31264D01*
X41655Y-31514D01*
X41732Y-31700D01*
X41836Y-31737D01*
X42209Y-31364D01*
X42209Y-31506D01*
X41907Y-31808D01*
X41944Y-31912D01*
X42180Y-31999D01*
X42430Y-31989D01*
X42616Y-31912D01*
X42653Y-31808D01*
X42653Y-32600D01*
X42645Y-32592D01*
X42409Y-32493D01*
X42153Y-32493D01*
X41917Y-32591D01*
X41736Y-32771D01*
X41637Y-33007D01*
X41637Y-33263D01*
X41735Y-33499D01*
X41915Y-33680D01*
X42151Y-33779D01*
X42407Y-33779D01*
X42643Y-33681D01*
X42824Y-33501D01*
X42923Y-33265D01*
X42923Y-41147D01*
X42811Y-41035D01*
X42609Y-40951D01*
X42391Y-40951D01*
X42189Y-41035D01*
X42035Y-41189D01*
X42019Y-41227D01*
X42019Y-37074D01*
X42008Y-36870D01*
X41952Y-36733D01*
X41861Y-36710D01*
X41790Y-36781D01*
X41790Y-36639D01*
X41767Y-36548D01*
X41574Y-36481D01*
X41370Y-36492D01*
X41233Y-36548D01*
X41210Y-36639D01*
X41500Y-36929D01*
X41790Y-36639D01*
X41790Y-36781D01*
X41571Y-37000D01*
X41861Y-37290D01*
X41952Y-37267D01*
X42019Y-37074D01*
X42019Y-41227D01*
X41951Y-41391D01*
X41951Y-41609D01*
X42035Y-41811D01*
X42175Y-41951D01*
X42151Y-41951D01*
X42059Y-41989D01*
X41989Y-42059D01*
X41951Y-42150D01*
X41951Y-42249D01*
X41951Y-42849D01*
X41989Y-42941D01*
X42059Y-43011D01*
X42150Y-43049D01*
X42249Y-43049D01*
X42849Y-43049D01*
X42941Y-43011D01*
X43011Y-42941D01*
X43049Y-42850D01*
X43049Y-44530D01*
X42859Y-44451D01*
X42641Y-44451D01*
X42439Y-44535D01*
X42285Y-44689D01*
X42201Y-44891D01*
X42201Y-45109D01*
X42285Y-45311D01*
X42439Y-45465D01*
X42641Y-45549D01*
X42859Y-45549D01*
X43061Y-45465D01*
X43215Y-45311D01*
X43252Y-45219D01*
X43278Y-45281D01*
X43372Y-45308D01*
X43679Y-45000D01*
X43679Y-45141D01*
X43442Y-45378D01*
X43469Y-45472D01*
X43671Y-45543D01*
X43884Y-45532D01*
X44031Y-45472D01*
X44058Y-45378D01*
X44058Y-45700D01*
X41790Y-45700D01*
X41790Y-37361D01*
X41500Y-37071D01*
X41210Y-37361D01*
X41233Y-37452D01*
X41426Y-37519D01*
X41630Y-37508D01*
X41767Y-37452D01*
X41790Y-37361D01*
X41790Y-45700D01*
X41299Y-45700D01*
X41299Y-42850D01*
X41299Y-42751D01*
X41299Y-42151D01*
X41261Y-42059D01*
X41191Y-41989D01*
X41100Y-41951D01*
X41075Y-41951D01*
X41215Y-41811D01*
X41299Y-41609D01*
X41299Y-41391D01*
X41215Y-41189D01*
X41061Y-41035D01*
X40859Y-40951D01*
X40641Y-40951D01*
X40439Y-41035D01*
X40285Y-41189D01*
X40201Y-41391D01*
X40201Y-41609D01*
X40285Y-41811D01*
X40425Y-41951D01*
X40401Y-41951D01*
X40309Y-41989D01*
X40239Y-42059D01*
X40201Y-42150D01*
X40201Y-42249D01*
X40201Y-42849D01*
X40239Y-42941D01*
X40309Y-43011D01*
X40400Y-43049D01*
X40499Y-43049D01*
X41099Y-43049D01*
X41191Y-43011D01*
X41261Y-42941D01*
X41299Y-42850D01*
X41299Y-45700D01*
X40874Y-45700D01*
X39300Y-44125D01*
X39300Y-41374D01*
X40399Y-40275D01*
X40604Y-40275D01*
X40797Y-40195D01*
X40945Y-40048D01*
X41025Y-39855D01*
X41025Y-39646D01*
X40945Y-39453D01*
X40800Y-39307D01*
X40800Y-37442D01*
X40945Y-37298D01*
X41003Y-37157D01*
X41048Y-37267D01*
X41139Y-37290D01*
X41429Y-37000D01*
X41139Y-36710D01*
X41048Y-36733D01*
X41006Y-36851D01*
X40945Y-36703D01*
X40798Y-36555D01*
X40605Y-36475D01*
X40574Y-36475D01*
X40574Y-28125D01*
X40574Y-28026D01*
X40574Y-27376D01*
X40536Y-27284D01*
X40466Y-27214D01*
X40375Y-27176D01*
X40315Y-27176D01*
X40325Y-27146D01*
X40000Y-26821D01*
X39675Y-27146D01*
X39684Y-27176D01*
X39626Y-27176D01*
X39534Y-27214D01*
X39464Y-27284D01*
X39426Y-27375D01*
X39426Y-27474D01*
X39426Y-28124D01*
X39464Y-28216D01*
X39534Y-28286D01*
X39625Y-28324D01*
X39724Y-28324D01*
X40374Y-28324D01*
X40466Y-28286D01*
X40536Y-28216D01*
X40574Y-28125D01*
X40574Y-36475D01*
X40396Y-36475D01*
X40363Y-36488D01*
X40363Y-33265D01*
X40363Y-33009D01*
X40363Y-31493D01*
X40363Y-31237D01*
X40265Y-31001D01*
X40085Y-30820D01*
X39849Y-30721D01*
X39593Y-30721D01*
X39357Y-30819D01*
X39176Y-30999D01*
X39077Y-31235D01*
X39077Y-31491D01*
X39175Y-31727D01*
X39355Y-31908D01*
X39591Y-32007D01*
X39847Y-32007D01*
X40083Y-31909D01*
X40264Y-31729D01*
X40363Y-31493D01*
X40363Y-33009D01*
X40265Y-32773D01*
X40085Y-32592D01*
X39849Y-32493D01*
X39593Y-32493D01*
X39357Y-32591D01*
X39176Y-32771D01*
X39077Y-33007D01*
X39077Y-33263D01*
X39175Y-33499D01*
X39355Y-33680D01*
X39591Y-33779D01*
X39847Y-33779D01*
X40083Y-33681D01*
X40264Y-33501D01*
X40363Y-33265D01*
X40363Y-36488D01*
X40203Y-36555D01*
X40055Y-36702D01*
X39975Y-36895D01*
X39975Y-37104D01*
X40055Y-37297D01*
X40200Y-37442D01*
X40200Y-39307D01*
X40055Y-39452D01*
X39975Y-39645D01*
X39975Y-39851D01*
X38788Y-41038D01*
X38723Y-41135D01*
X38700Y-41250D01*
X38700Y-44250D01*
X38723Y-44365D01*
X38788Y-44462D01*
X40537Y-46212D01*
X40538Y-46212D01*
X40635Y-46277D01*
X40749Y-46299D01*
X40750Y-46300D01*
X48375Y-46300D01*
X48797Y-46722D01*
X38350Y-46750D01*
X38350Y-26450D01*
X39505Y-26460D01*
X39432Y-26666D01*
X39444Y-26889D01*
X39508Y-27046D01*
X39604Y-27075D01*
X39894Y-26785D01*
X39929Y-26750D01*
X40000Y-26679D01*
X40071Y-26750D01*
X40106Y-26785D01*
X40396Y-27075D01*
X40492Y-27046D01*
X40568Y-26834D01*
X40556Y-26611D01*
X40498Y-26469D01*
X45200Y-26513D01*
X45200Y-29126D01*
X44788Y-29538D01*
X44723Y-29635D01*
X44700Y-29750D01*
X44700Y-39000D01*
X44723Y-39115D01*
X44788Y-39212D01*
X45700Y-40124D01*
X45700Y-41750D01*
X45723Y-41865D01*
X45788Y-41962D01*
X46201Y-42375D01*
X46201Y-42849D01*
X46239Y-42941D01*
X46309Y-43011D01*
X46400Y-43049D01*
X46499Y-43049D01*
X47099Y-43049D01*
X47191Y-43011D01*
X47261Y-42941D01*
X47299Y-42850D01*
X47299Y-42751D01*
X47299Y-42151D01*
X47261Y-42059D01*
X47191Y-41989D01*
X47100Y-41951D01*
X47075Y-41951D01*
X47215Y-41811D01*
X47299Y-41609D01*
X47299Y-41391D01*
X47215Y-41189D01*
X47061Y-41035D01*
X46859Y-40951D01*
X46641Y-40951D01*
X46439Y-41035D01*
X46300Y-41174D01*
X46300Y-40000D01*
X46277Y-39885D01*
X46212Y-39788D01*
X45300Y-38876D01*
X45300Y-31702D01*
X45334Y-31736D01*
X45426Y-31774D01*
X45638Y-31775D01*
X45700Y-31713D01*
X45700Y-31350D01*
X45700Y-31300D01*
X45700Y-31200D01*
X45700Y-31150D01*
X45700Y-30787D01*
X45638Y-30725D01*
X45426Y-30726D01*
X45334Y-30764D01*
X45300Y-30798D01*
X45300Y-29874D01*
X45712Y-29462D01*
X45777Y-29365D01*
X45800Y-29250D01*
X45800Y-26519D01*
X47700Y-26536D01*
X47700Y-32000D01*
X47723Y-32115D01*
X47788Y-32212D01*
X48901Y-33325D01*
X48901Y-33899D01*
X48939Y-33991D01*
X49009Y-34061D01*
X49100Y-34099D01*
X49199Y-34099D01*
X49899Y-34099D01*
X49991Y-34061D01*
X50061Y-33991D01*
X50099Y-33900D01*
X50099Y-33801D01*
X50099Y-33101D01*
X50099Y-29619D01*
X50099Y-29381D01*
X50008Y-29161D01*
X49839Y-28992D01*
X49619Y-28901D01*
X49381Y-28901D01*
X49161Y-28992D01*
X48992Y-29161D01*
X48901Y-29381D01*
X48901Y-29619D01*
X48992Y-29839D01*
X49161Y-30008D01*
X49381Y-30099D01*
X49619Y-30099D01*
X49839Y-30008D01*
X50008Y-29839D01*
X50099Y-29619D01*
X50099Y-33101D01*
X50061Y-33009D01*
X49991Y-32939D01*
X49900Y-32901D01*
X49801Y-32901D01*
X49325Y-32901D01*
X48300Y-31876D01*
X48300Y-26542D01*
X53170Y-26587D01*
X53170Y-26615D01*
X53258Y-26828D01*
X53421Y-26991D01*
X53441Y-26999D01*
X53422Y-27008D01*
X53259Y-27171D01*
X53170Y-27384D01*
X53170Y-27615D01*
X53258Y-27828D01*
X53421Y-27991D01*
X53430Y-27994D01*
X53430Y-27995D01*
X53430Y-28000D01*
X53430Y-41750D01*
X53454Y-41873D01*
X53524Y-41976D01*
X53975Y-42427D01*
X53975Y-42604D01*
X54055Y-42797D01*
X54202Y-42945D01*
X54395Y-43025D01*
X54604Y-43025D01*
X54797Y-42945D01*
X54945Y-42798D01*
X55025Y-42605D01*
X55025Y-42477D01*
X55273Y-42726D01*
X55274Y-42726D01*
X55376Y-42795D01*
X55378Y-42796D01*
X55499Y-42819D01*
X55500Y-42820D01*
X56327Y-42820D01*
X56452Y-42945D01*
X56645Y-43025D01*
X56854Y-43025D01*
X57047Y-42945D01*
X57195Y-42798D01*
X57275Y-42605D01*
X57275Y-42396D01*
X57195Y-42203D01*
X57048Y-42055D01*
X56855Y-41975D01*
X56646Y-41975D01*
X56453Y-42055D01*
X56327Y-42180D01*
X56019Y-42180D01*
X56019Y-39574D01*
X56008Y-39370D01*
X55952Y-39233D01*
X55861Y-39210D01*
X55790Y-39281D01*
X55790Y-39139D01*
X55767Y-39048D01*
X55574Y-38981D01*
X55370Y-38992D01*
X55233Y-39048D01*
X55210Y-39139D01*
X55500Y-39429D01*
X55790Y-39139D01*
X55790Y-39281D01*
X55571Y-39500D01*
X55861Y-39790D01*
X55952Y-39767D01*
X56019Y-39574D01*
X56019Y-42180D01*
X55790Y-42180D01*
X55790Y-39861D01*
X55500Y-39571D01*
X55429Y-39642D01*
X55429Y-39500D01*
X55139Y-39210D01*
X55048Y-39233D01*
X54981Y-39426D01*
X54992Y-39630D01*
X55048Y-39767D01*
X55139Y-39790D01*
X55429Y-39500D01*
X55429Y-39642D01*
X55210Y-39861D01*
X55233Y-39952D01*
X55426Y-40019D01*
X55630Y-40008D01*
X55767Y-39952D01*
X55790Y-39861D01*
X55790Y-42180D01*
X55632Y-42180D01*
X54570Y-41117D01*
X54570Y-33644D01*
X54605Y-33680D01*
X54841Y-33779D01*
X55097Y-33779D01*
X55333Y-33681D01*
X55514Y-33501D01*
X55613Y-33265D01*
X55613Y-33009D01*
X55515Y-32773D01*
X55335Y-32592D01*
X55099Y-32493D01*
X54843Y-32493D01*
X54607Y-32591D01*
X54570Y-32627D01*
X54570Y-31872D01*
X54605Y-31908D01*
X54841Y-32007D01*
X55097Y-32007D01*
X55333Y-31909D01*
X55514Y-31729D01*
X55613Y-31493D01*
X55613Y-31237D01*
X55515Y-31001D01*
X55335Y-30820D01*
X55099Y-30721D01*
X54843Y-30721D01*
X54651Y-30800D01*
X57132Y-28320D01*
X59750Y-28320D01*
X59872Y-28296D01*
X59873Y-28296D01*
X59976Y-28226D01*
X61876Y-26326D01*
X61884Y-26330D01*
X62115Y-26330D01*
X62328Y-26242D01*
X62491Y-26079D01*
X62580Y-25866D01*
X62580Y-25635D01*
X62503Y-25450D01*
X67930Y-25450D01*
X67930Y-25484D01*
X67911Y-25492D01*
X67742Y-25661D01*
X67651Y-25881D01*
X67651Y-26119D01*
X67742Y-26339D01*
X67911Y-26508D01*
X68131Y-26599D01*
X68369Y-26599D01*
X68589Y-26508D01*
X68758Y-26339D01*
X68849Y-26119D01*
X68849Y-25881D01*
X68758Y-25661D01*
X68589Y-25492D01*
X68570Y-25484D01*
X68570Y-24382D01*
X68976Y-23976D01*
X69045Y-23873D01*
X69046Y-23872D01*
X69070Y-23750D01*
X69070Y-23062D01*
X69202Y-23195D01*
X69395Y-23275D01*
X69604Y-23275D01*
X69797Y-23195D01*
X69945Y-23048D01*
X70025Y-22855D01*
X70025Y-22646D01*
X69945Y-22453D01*
X69798Y-22305D01*
X69605Y-22225D01*
X69396Y-22225D01*
X69203Y-22305D01*
X69070Y-22437D01*
X69070Y-20062D01*
X69202Y-20195D01*
X69395Y-20275D01*
X69604Y-20275D01*
X69797Y-20195D01*
X69945Y-20048D01*
X70025Y-19855D01*
X70025Y-19727D01*
X70680Y-20382D01*
X70680Y-21734D01*
X70661Y-21742D01*
X70492Y-21911D01*
X70401Y-22131D01*
X70401Y-22369D01*
X70492Y-22589D01*
X70661Y-22758D01*
X70881Y-22849D01*
X71119Y-22849D01*
X71339Y-22758D01*
X71508Y-22589D01*
X71599Y-22369D01*
X71599Y-22131D01*
X71524Y-21949D01*
X71524Y-18075D01*
X71524Y-17976D01*
X71524Y-17426D01*
X71486Y-17334D01*
X71416Y-17264D01*
X71325Y-17226D01*
X71226Y-17226D01*
X70676Y-17226D01*
X70584Y-17264D01*
X70514Y-17334D01*
X70476Y-17425D01*
X70476Y-17524D01*
X70476Y-17541D01*
X70452Y-17483D01*
X70361Y-17460D01*
X70290Y-17531D01*
X70290Y-17389D01*
X70267Y-17298D01*
X70074Y-17231D01*
X69870Y-17242D01*
X69733Y-17298D01*
X69710Y-17389D01*
X70000Y-17679D01*
X70290Y-17389D01*
X70290Y-17531D01*
X70071Y-17750D01*
X70361Y-18040D01*
X70452Y-18017D01*
X70476Y-17947D01*
X70476Y-18074D01*
X70514Y-18166D01*
X70584Y-18236D01*
X70675Y-18274D01*
X70774Y-18274D01*
X71324Y-18274D01*
X71416Y-18236D01*
X71486Y-18166D01*
X71524Y-18075D01*
X71524Y-21949D01*
X71508Y-21911D01*
X71339Y-21742D01*
X71320Y-21734D01*
X71320Y-20250D01*
X71319Y-20249D01*
X71296Y-20128D01*
X71295Y-20126D01*
X71226Y-20024D01*
X71226Y-20023D01*
X70290Y-19087D01*
X70290Y-18111D01*
X70000Y-17821D01*
X69710Y-18111D01*
X69733Y-18202D01*
X69926Y-18269D01*
X70130Y-18258D01*
X70267Y-18202D01*
X70290Y-18111D01*
X70290Y-19087D01*
X69570Y-18367D01*
X69570Y-18022D01*
X69639Y-18040D01*
X69929Y-17750D01*
X69639Y-17460D01*
X69570Y-17477D01*
X69570Y-16882D01*
X70402Y-16050D01*
X75950Y-16050D01*
X75950Y-20495D01*
X75870Y-20415D01*
X75638Y-20319D01*
X75387Y-20319D01*
X75363Y-20319D01*
X75143Y-20410D01*
X75143Y-18076D01*
X75143Y-17825D01*
X75047Y-17593D01*
X74870Y-17415D01*
X74638Y-17319D01*
X74387Y-17319D01*
X74363Y-17319D01*
X74131Y-17415D01*
X73953Y-17592D01*
X73857Y-17824D01*
X73857Y-18075D01*
X73953Y-18307D01*
X74130Y-18485D01*
X74362Y-18581D01*
X74613Y-18581D01*
X74637Y-18581D01*
X74869Y-18485D01*
X75047Y-18308D01*
X75143Y-18076D01*
X75143Y-20410D01*
X75131Y-20415D01*
X74953Y-20592D01*
X74857Y-20824D01*
X74857Y-21075D01*
X74953Y-21307D01*
X75130Y-21485D01*
X75362Y-21581D01*
X75613Y-21581D01*
X75637Y-21581D01*
X75869Y-21485D01*
X75950Y-21404D01*
X75950Y-45626D01*
X75950Y-45626D01*
G37*
G54D29*
X75950Y-45626D02*
X75269Y-46307D01*
X75269Y-30074D01*
X75258Y-29870D01*
X75202Y-29733D01*
X75143Y-29718D01*
X75143Y-23076D01*
X75143Y-22825D01*
X75047Y-22593D01*
X74870Y-22415D01*
X74638Y-22319D01*
X74387Y-22319D01*
X74363Y-22319D01*
X74131Y-22415D01*
X73953Y-22592D01*
X73875Y-22780D01*
X73875Y-21100D01*
X73875Y-20800D01*
X73805Y-20609D01*
X73632Y-20423D01*
X73401Y-20317D01*
X73300Y-20363D01*
X73300Y-20900D01*
X73828Y-20900D01*
X73875Y-20800D01*
X73875Y-21100D01*
X73828Y-21000D01*
X73300Y-21000D01*
X73300Y-21537D01*
X73401Y-21583D01*
X73632Y-21477D01*
X73805Y-21291D01*
X73875Y-21100D01*
X73875Y-22780D01*
X73857Y-22824D01*
X73857Y-23075D01*
X73953Y-23307D01*
X74130Y-23485D01*
X74362Y-23581D01*
X74613Y-23581D01*
X74637Y-23581D01*
X74869Y-23485D01*
X75047Y-23308D01*
X75143Y-23076D01*
X75143Y-29718D01*
X75111Y-29710D01*
X75040Y-29781D01*
X75040Y-29639D01*
X75017Y-29548D01*
X74824Y-29481D01*
X74620Y-29492D01*
X74525Y-29530D01*
X74525Y-28855D01*
X74525Y-28646D01*
X74519Y-28631D01*
X74519Y-27824D01*
X74508Y-27620D01*
X74452Y-27483D01*
X74361Y-27460D01*
X74290Y-27531D01*
X74290Y-27389D01*
X74267Y-27298D01*
X74074Y-27231D01*
X73870Y-27242D01*
X73733Y-27298D01*
X73710Y-27389D01*
X74000Y-27679D01*
X74290Y-27389D01*
X74290Y-27531D01*
X74071Y-27750D01*
X74361Y-28040D01*
X74452Y-28017D01*
X74519Y-27824D01*
X74519Y-28631D01*
X74445Y-28453D01*
X74298Y-28305D01*
X74157Y-28246D01*
X74267Y-28202D01*
X74290Y-28111D01*
X74000Y-27821D01*
X73929Y-27892D01*
X73929Y-27750D01*
X73639Y-27460D01*
X73548Y-27483D01*
X73481Y-27676D01*
X73492Y-27880D01*
X73548Y-28017D01*
X73639Y-28040D01*
X73929Y-27750D01*
X73929Y-27892D01*
X73710Y-28111D01*
X73733Y-28202D01*
X73851Y-28243D01*
X73703Y-28305D01*
X73555Y-28452D01*
X73475Y-28645D01*
X73475Y-28854D01*
X73555Y-29047D01*
X73702Y-29195D01*
X73895Y-29275D01*
X74104Y-29275D01*
X74297Y-29195D01*
X74445Y-29048D01*
X74525Y-28855D01*
X74525Y-29530D01*
X74483Y-29548D01*
X74460Y-29639D01*
X74750Y-29929D01*
X75040Y-29639D01*
X75040Y-29781D01*
X74821Y-30000D01*
X75111Y-30290D01*
X75202Y-30267D01*
X75269Y-30074D01*
X75269Y-46307D01*
X75126Y-46450D01*
X75040Y-46450D01*
X75040Y-30361D01*
X74750Y-30071D01*
X74679Y-30142D01*
X74679Y-30000D01*
X74389Y-29710D01*
X74298Y-29733D01*
X74231Y-29926D01*
X74242Y-30130D01*
X74298Y-30267D01*
X74389Y-30290D01*
X74679Y-30000D01*
X74679Y-30142D01*
X74460Y-30361D01*
X74483Y-30452D01*
X74676Y-30519D01*
X74880Y-30508D01*
X75017Y-30452D01*
X75040Y-30361D01*
X75040Y-46450D01*
X75025Y-46450D01*
X75025Y-43105D01*
X75025Y-42896D01*
X74945Y-42703D01*
X74798Y-42555D01*
X74605Y-42475D01*
X74396Y-42475D01*
X74203Y-42555D01*
X74055Y-42702D01*
X73975Y-42895D01*
X73975Y-43104D01*
X74055Y-43297D01*
X74202Y-43445D01*
X74395Y-43525D01*
X74604Y-43525D01*
X74797Y-43445D01*
X74945Y-43298D01*
X75025Y-43105D01*
X75025Y-46450D01*
X75019Y-46450D01*
X75019Y-46074D01*
X75008Y-45870D01*
X74952Y-45733D01*
X74861Y-45710D01*
X74790Y-45781D01*
X74790Y-45639D01*
X74767Y-45548D01*
X74574Y-45481D01*
X74370Y-45492D01*
X74233Y-45548D01*
X74210Y-45639D01*
X74500Y-45929D01*
X74790Y-45639D01*
X74790Y-45781D01*
X74571Y-46000D01*
X74861Y-46290D01*
X74952Y-46267D01*
X75019Y-46074D01*
X75019Y-46450D01*
X74767Y-46450D01*
X74790Y-46361D01*
X74500Y-46071D01*
X74429Y-46142D01*
X74429Y-46000D01*
X74139Y-45710D01*
X74048Y-45733D01*
X73981Y-45926D01*
X73992Y-46130D01*
X74048Y-46267D01*
X74139Y-46290D01*
X74429Y-46000D01*
X74429Y-46142D01*
X74210Y-46361D01*
X74232Y-46450D01*
X73774Y-46450D01*
X73774Y-43325D01*
X73774Y-43226D01*
X73774Y-42676D01*
X73736Y-42584D01*
X73675Y-42523D01*
X73675Y-38085D01*
X73675Y-37916D01*
X73611Y-37760D01*
X73570Y-37719D01*
X73570Y-33000D01*
X73546Y-32878D01*
X73545Y-32876D01*
X73476Y-32774D01*
X73476Y-32773D01*
X73275Y-32572D01*
X73275Y-27605D01*
X73275Y-27396D01*
X73200Y-27215D01*
X73200Y-21537D01*
X73200Y-21000D01*
X73200Y-20900D01*
X73200Y-20363D01*
X73099Y-20317D01*
X72893Y-20411D01*
X72893Y-18076D01*
X72893Y-17825D01*
X72797Y-17593D01*
X72620Y-17415D01*
X72388Y-17319D01*
X72137Y-17319D01*
X72113Y-17319D01*
X71881Y-17415D01*
X71703Y-17592D01*
X71607Y-17824D01*
X71607Y-18075D01*
X71703Y-18307D01*
X71880Y-18485D01*
X72112Y-18581D01*
X72363Y-18581D01*
X72387Y-18581D01*
X72619Y-18485D01*
X72797Y-18308D01*
X72893Y-18076D01*
X72893Y-20411D01*
X72868Y-20423D01*
X72695Y-20609D01*
X72625Y-20800D01*
X72672Y-20900D01*
X73200Y-20900D01*
X73200Y-21000D01*
X72672Y-21000D01*
X72625Y-21100D01*
X72695Y-21291D01*
X72868Y-21477D01*
X73099Y-21583D01*
X73200Y-21537D01*
X73200Y-27215D01*
X73195Y-27203D01*
X73048Y-27055D01*
X72875Y-26983D01*
X72875Y-23100D01*
X72875Y-22800D01*
X72805Y-22609D01*
X72632Y-22423D01*
X72401Y-22317D01*
X72300Y-22363D01*
X72300Y-22900D01*
X72828Y-22900D01*
X72875Y-22800D01*
X72875Y-23100D01*
X72828Y-23000D01*
X72300Y-23000D01*
X72300Y-23537D01*
X72401Y-23583D01*
X72632Y-23477D01*
X72805Y-23291D01*
X72875Y-23100D01*
X72875Y-26983D01*
X72855Y-26975D01*
X72646Y-26975D01*
X72453Y-27055D01*
X72305Y-27202D01*
X72225Y-27395D01*
X72225Y-27604D01*
X72305Y-27797D01*
X72452Y-27945D01*
X72645Y-28025D01*
X72854Y-28025D01*
X73047Y-27945D01*
X73195Y-27798D01*
X73275Y-27605D01*
X73275Y-32572D01*
X72726Y-32024D01*
X72623Y-31954D01*
X72500Y-31930D01*
X72275Y-31930D01*
X72275Y-30105D01*
X72275Y-29896D01*
X72200Y-29715D01*
X72200Y-23537D01*
X72200Y-23000D01*
X72200Y-22900D01*
X72200Y-22363D01*
X72099Y-22317D01*
X71868Y-22423D01*
X71695Y-22609D01*
X71625Y-22800D01*
X71672Y-22900D01*
X72200Y-22900D01*
X72200Y-23000D01*
X71672Y-23000D01*
X71625Y-23100D01*
X71695Y-23291D01*
X71868Y-23477D01*
X72099Y-23583D01*
X72200Y-23537D01*
X72200Y-29715D01*
X72195Y-29703D01*
X72048Y-29555D01*
X71855Y-29475D01*
X71646Y-29475D01*
X71599Y-29494D01*
X71599Y-26650D01*
X71599Y-26551D01*
X71599Y-25851D01*
X71561Y-25759D01*
X71491Y-25689D01*
X71400Y-25651D01*
X71301Y-25651D01*
X70601Y-25651D01*
X70509Y-25689D01*
X70439Y-25759D01*
X70401Y-25850D01*
X70401Y-25949D01*
X70401Y-26649D01*
X70439Y-26741D01*
X70509Y-26811D01*
X70600Y-26849D01*
X70699Y-26849D01*
X71399Y-26849D01*
X71491Y-26811D01*
X71561Y-26741D01*
X71599Y-26650D01*
X71599Y-29494D01*
X71453Y-29555D01*
X71305Y-29702D01*
X71225Y-29895D01*
X71225Y-30104D01*
X71305Y-30297D01*
X71452Y-30445D01*
X71645Y-30525D01*
X71854Y-30525D01*
X72047Y-30445D01*
X72195Y-30298D01*
X72275Y-30105D01*
X72275Y-31930D01*
X72172Y-31930D01*
X72048Y-31805D01*
X71855Y-31725D01*
X71646Y-31725D01*
X71453Y-31805D01*
X71305Y-31952D01*
X71225Y-32145D01*
X71225Y-32354D01*
X71305Y-32547D01*
X71452Y-32695D01*
X71592Y-32753D01*
X71483Y-32798D01*
X71460Y-32889D01*
X71750Y-33179D01*
X72040Y-32889D01*
X72017Y-32798D01*
X71898Y-32756D01*
X72047Y-32695D01*
X72172Y-32570D01*
X72367Y-32570D01*
X72930Y-33132D01*
X72930Y-37719D01*
X72890Y-37759D01*
X72825Y-37915D01*
X72825Y-38084D01*
X72889Y-38240D01*
X73009Y-38360D01*
X73165Y-38425D01*
X73334Y-38425D01*
X73490Y-38361D01*
X73610Y-38241D01*
X73675Y-38085D01*
X73675Y-42523D01*
X73666Y-42514D01*
X73575Y-42476D01*
X73476Y-42476D01*
X72926Y-42476D01*
X72834Y-42514D01*
X72764Y-42584D01*
X72726Y-42675D01*
X72726Y-42774D01*
X72726Y-43324D01*
X72764Y-43416D01*
X72834Y-43486D01*
X72925Y-43524D01*
X73024Y-43524D01*
X73574Y-43524D01*
X73666Y-43486D01*
X73736Y-43416D01*
X73774Y-43325D01*
X73774Y-46450D01*
X73769Y-46450D01*
X73769Y-46074D01*
X73758Y-45870D01*
X73702Y-45733D01*
X73611Y-45710D01*
X73540Y-45781D01*
X73540Y-45639D01*
X73517Y-45548D01*
X73324Y-45481D01*
X73120Y-45492D01*
X72983Y-45548D01*
X72960Y-45639D01*
X73250Y-45929D01*
X73540Y-45639D01*
X73540Y-45781D01*
X73321Y-46000D01*
X73611Y-46290D01*
X73702Y-46267D01*
X73769Y-46074D01*
X73769Y-46450D01*
X73517Y-46450D01*
X73540Y-46361D01*
X73250Y-46071D01*
X73179Y-46142D01*
X73179Y-46000D01*
X72889Y-45710D01*
X72798Y-45733D01*
X72731Y-45926D01*
X72742Y-46130D01*
X72798Y-46267D01*
X72889Y-46290D01*
X73179Y-46000D01*
X73179Y-46142D01*
X72960Y-46361D01*
X72982Y-46450D01*
X72274Y-46450D01*
X72274Y-41325D01*
X72274Y-41226D01*
X72274Y-40676D01*
X72269Y-40663D01*
X72269Y-38074D01*
X72269Y-33324D01*
X72258Y-33120D01*
X72202Y-32983D01*
X72111Y-32960D01*
X71821Y-33250D01*
X72111Y-33540D01*
X72202Y-33517D01*
X72269Y-33324D01*
X72269Y-38074D01*
X72258Y-37870D01*
X72202Y-37733D01*
X72111Y-37710D01*
X72040Y-37781D01*
X72040Y-37639D01*
X72040Y-33611D01*
X71750Y-33321D01*
X71679Y-33392D01*
X71679Y-33250D01*
X71389Y-32960D01*
X71298Y-32983D01*
X71231Y-33176D01*
X71242Y-33380D01*
X71298Y-33517D01*
X71389Y-33540D01*
X71679Y-33250D01*
X71679Y-33392D01*
X71460Y-33611D01*
X71483Y-33702D01*
X71676Y-33769D01*
X71880Y-33758D01*
X72017Y-33702D01*
X72040Y-33611D01*
X72040Y-37639D01*
X72017Y-37548D01*
X71824Y-37481D01*
X71620Y-37492D01*
X71483Y-37548D01*
X71460Y-37639D01*
X71750Y-37929D01*
X72040Y-37639D01*
X72040Y-37781D01*
X71821Y-38000D01*
X72111Y-38290D01*
X72202Y-38267D01*
X72269Y-38074D01*
X72269Y-40663D01*
X72236Y-40584D01*
X72166Y-40514D01*
X72075Y-40476D01*
X72040Y-40476D01*
X72040Y-38361D01*
X71750Y-38071D01*
X71679Y-38142D01*
X71679Y-38000D01*
X71389Y-37710D01*
X71298Y-37733D01*
X71231Y-37926D01*
X71242Y-38130D01*
X71298Y-38267D01*
X71389Y-38290D01*
X71679Y-38000D01*
X71679Y-38142D01*
X71460Y-38361D01*
X71483Y-38452D01*
X71676Y-38519D01*
X71880Y-38508D01*
X72017Y-38452D01*
X72040Y-38361D01*
X72040Y-40476D01*
X71976Y-40476D01*
X71678Y-40476D01*
X71226Y-40024D01*
X71123Y-39954D01*
X71000Y-39930D01*
X70774Y-39930D01*
X70774Y-30325D01*
X70774Y-30226D01*
X70774Y-29676D01*
X70736Y-29584D01*
X70666Y-29514D01*
X70575Y-29476D01*
X70476Y-29476D01*
X70428Y-29476D01*
X70070Y-29118D01*
X70070Y-27922D01*
X70195Y-27798D01*
X70275Y-27605D01*
X70275Y-27396D01*
X70195Y-27203D01*
X70048Y-27055D01*
X69855Y-26975D01*
X69646Y-26975D01*
X69453Y-27055D01*
X69305Y-27202D01*
X69225Y-27395D01*
X69225Y-27604D01*
X69305Y-27797D01*
X69430Y-27922D01*
X69430Y-29250D01*
X69454Y-29373D01*
X69524Y-29476D01*
X69726Y-29678D01*
X69726Y-29774D01*
X69726Y-30324D01*
X69764Y-30416D01*
X69834Y-30486D01*
X69925Y-30524D01*
X70024Y-30524D01*
X70041Y-30524D01*
X69983Y-30548D01*
X69960Y-30639D01*
X70250Y-30929D01*
X70540Y-30639D01*
X70517Y-30548D01*
X70447Y-30524D01*
X70574Y-30524D01*
X70666Y-30486D01*
X70736Y-30416D01*
X70774Y-30325D01*
X70774Y-39930D01*
X70769Y-39930D01*
X70769Y-31074D01*
X70758Y-30870D01*
X70702Y-30733D01*
X70611Y-30710D01*
X70321Y-31000D01*
X70611Y-31290D01*
X70702Y-31267D01*
X70769Y-31074D01*
X70769Y-39930D01*
X70540Y-39930D01*
X70540Y-31361D01*
X70250Y-31071D01*
X70179Y-31142D01*
X70179Y-31000D01*
X69889Y-30710D01*
X69798Y-30733D01*
X69731Y-30926D01*
X69742Y-31130D01*
X69798Y-31267D01*
X69889Y-31290D01*
X70179Y-31000D01*
X70179Y-31142D01*
X69960Y-31361D01*
X69983Y-31452D01*
X70176Y-31519D01*
X70380Y-31508D01*
X70517Y-31452D01*
X70540Y-31361D01*
X70540Y-39930D01*
X70275Y-39930D01*
X70275Y-35355D01*
X70275Y-35146D01*
X70275Y-32355D01*
X70275Y-32146D01*
X70195Y-31953D01*
X70048Y-31805D01*
X69855Y-31725D01*
X69646Y-31725D01*
X69453Y-31805D01*
X69305Y-31952D01*
X69225Y-32145D01*
X69225Y-32354D01*
X69305Y-32547D01*
X69452Y-32695D01*
X69645Y-32775D01*
X69854Y-32775D01*
X70047Y-32695D01*
X70195Y-32548D01*
X70275Y-32355D01*
X70275Y-35146D01*
X70195Y-34953D01*
X70048Y-34805D01*
X69855Y-34725D01*
X69646Y-34725D01*
X69453Y-34805D01*
X69305Y-34952D01*
X69269Y-35038D01*
X69269Y-34574D01*
X69269Y-33074D01*
X69258Y-32870D01*
X69202Y-32733D01*
X69111Y-32710D01*
X69040Y-32781D01*
X69040Y-32639D01*
X69017Y-32548D01*
X68849Y-32489D01*
X68849Y-30400D01*
X68849Y-30301D01*
X68849Y-29601D01*
X68811Y-29509D01*
X68741Y-29439D01*
X68650Y-29401D01*
X68551Y-29401D01*
X67851Y-29401D01*
X67759Y-29439D01*
X67689Y-29509D01*
X67651Y-29600D01*
X67651Y-29699D01*
X67651Y-30399D01*
X67689Y-30491D01*
X67759Y-30561D01*
X67850Y-30599D01*
X67949Y-30599D01*
X68649Y-30599D01*
X68741Y-30561D01*
X68811Y-30491D01*
X68849Y-30400D01*
X68849Y-32489D01*
X68824Y-32481D01*
X68620Y-32492D01*
X68483Y-32548D01*
X68460Y-32639D01*
X68750Y-32929D01*
X69040Y-32639D01*
X69040Y-32781D01*
X68821Y-33000D01*
X69111Y-33290D01*
X69202Y-33267D01*
X69269Y-33074D01*
X69269Y-34574D01*
X69258Y-34370D01*
X69202Y-34233D01*
X69111Y-34210D01*
X69040Y-34281D01*
X69040Y-34139D01*
X69040Y-33361D01*
X68750Y-33071D01*
X68679Y-33142D01*
X68679Y-33000D01*
X68389Y-32710D01*
X68298Y-32733D01*
X68256Y-32851D01*
X68195Y-32703D01*
X68048Y-32555D01*
X67855Y-32475D01*
X67646Y-32475D01*
X67525Y-32525D01*
X67525Y-27105D01*
X67525Y-26896D01*
X67445Y-26703D01*
X67298Y-26555D01*
X67105Y-26475D01*
X66896Y-26475D01*
X66703Y-26555D01*
X66555Y-26702D01*
X66475Y-26895D01*
X66475Y-27104D01*
X66555Y-27297D01*
X66702Y-27445D01*
X66895Y-27525D01*
X67104Y-27525D01*
X67297Y-27445D01*
X67445Y-27298D01*
X67525Y-27105D01*
X67525Y-32525D01*
X67453Y-32555D01*
X67305Y-32702D01*
X67225Y-32895D01*
X67225Y-33104D01*
X67305Y-33297D01*
X67452Y-33445D01*
X67645Y-33525D01*
X67854Y-33525D01*
X68047Y-33445D01*
X68195Y-33298D01*
X68253Y-33157D01*
X68298Y-33267D01*
X68389Y-33290D01*
X68679Y-33000D01*
X68679Y-33142D01*
X68460Y-33361D01*
X68483Y-33452D01*
X68676Y-33519D01*
X68880Y-33508D01*
X69017Y-33452D01*
X69040Y-33361D01*
X69040Y-34139D01*
X69017Y-34048D01*
X68824Y-33981D01*
X68620Y-33992D01*
X68483Y-34048D01*
X68460Y-34139D01*
X68750Y-34429D01*
X69040Y-34139D01*
X69040Y-34281D01*
X68821Y-34500D01*
X69111Y-34790D01*
X69202Y-34767D01*
X69269Y-34574D01*
X69269Y-35038D01*
X69225Y-35145D01*
X69225Y-35354D01*
X69305Y-35547D01*
X69430Y-35672D01*
X69430Y-37476D01*
X69426Y-37476D01*
X69334Y-37514D01*
X69269Y-37579D01*
X69269Y-36074D01*
X69258Y-35870D01*
X69202Y-35733D01*
X69111Y-35710D01*
X69040Y-35781D01*
X69040Y-35639D01*
X69040Y-34861D01*
X68750Y-34571D01*
X68679Y-34642D01*
X68679Y-34500D01*
X68389Y-34210D01*
X68298Y-34233D01*
X68256Y-34351D01*
X68195Y-34203D01*
X68048Y-34055D01*
X67855Y-33975D01*
X67646Y-33975D01*
X67453Y-34055D01*
X67305Y-34202D01*
X67225Y-34395D01*
X67225Y-34604D01*
X67305Y-34797D01*
X67452Y-34945D01*
X67645Y-35025D01*
X67854Y-35025D01*
X68047Y-34945D01*
X68195Y-34798D01*
X68253Y-34657D01*
X68298Y-34767D01*
X68389Y-34790D01*
X68679Y-34500D01*
X68679Y-34642D01*
X68460Y-34861D01*
X68483Y-34952D01*
X68676Y-35019D01*
X68880Y-35008D01*
X69017Y-34952D01*
X69040Y-34861D01*
X69040Y-35639D01*
X69017Y-35548D01*
X68824Y-35481D01*
X68620Y-35492D01*
X68483Y-35548D01*
X68460Y-35639D01*
X68750Y-35929D01*
X69040Y-35639D01*
X69040Y-35781D01*
X68821Y-36000D01*
X69111Y-36290D01*
X69202Y-36267D01*
X69269Y-36074D01*
X69269Y-37579D01*
X69264Y-37584D01*
X69226Y-37675D01*
X69226Y-37774D01*
X69226Y-38324D01*
X69264Y-38416D01*
X69334Y-38486D01*
X69425Y-38524D01*
X69524Y-38524D01*
X69541Y-38524D01*
X69483Y-38548D01*
X69460Y-38639D01*
X69750Y-38929D01*
X70040Y-38639D01*
X70017Y-38548D01*
X69947Y-38524D01*
X70074Y-38524D01*
X70166Y-38486D01*
X70236Y-38416D01*
X70274Y-38325D01*
X70274Y-38226D01*
X70274Y-37676D01*
X70236Y-37584D01*
X70166Y-37514D01*
X70075Y-37476D01*
X70070Y-37476D01*
X70070Y-35672D01*
X70195Y-35548D01*
X70275Y-35355D01*
X70275Y-39930D01*
X70269Y-39930D01*
X70269Y-39074D01*
X70258Y-38870D01*
X70202Y-38733D01*
X70111Y-38710D01*
X69821Y-39000D01*
X70111Y-39290D01*
X70202Y-39267D01*
X70269Y-39074D01*
X70269Y-39930D01*
X70040Y-39930D01*
X70040Y-39361D01*
X69750Y-39071D01*
X69679Y-39142D01*
X69679Y-39000D01*
X69389Y-38710D01*
X69298Y-38733D01*
X69231Y-38926D01*
X69242Y-39130D01*
X69298Y-39267D01*
X69389Y-39290D01*
X69679Y-39000D01*
X69679Y-39142D01*
X69460Y-39361D01*
X69483Y-39452D01*
X69676Y-39519D01*
X69880Y-39508D01*
X70017Y-39452D01*
X70040Y-39361D01*
X70040Y-39930D01*
X69040Y-39930D01*
X69040Y-36361D01*
X68750Y-36071D01*
X68679Y-36142D01*
X68679Y-36000D01*
X68389Y-35710D01*
X68298Y-35733D01*
X68256Y-35851D01*
X68195Y-35703D01*
X68048Y-35555D01*
X67855Y-35475D01*
X67646Y-35475D01*
X67453Y-35555D01*
X67305Y-35702D01*
X67225Y-35895D01*
X67225Y-36104D01*
X67305Y-36297D01*
X67452Y-36445D01*
X67645Y-36525D01*
X67854Y-36525D01*
X68047Y-36445D01*
X68195Y-36298D01*
X68253Y-36157D01*
X68298Y-36267D01*
X68389Y-36290D01*
X68679Y-36000D01*
X68679Y-36142D01*
X68460Y-36361D01*
X68483Y-36452D01*
X68676Y-36519D01*
X68880Y-36508D01*
X69017Y-36452D01*
X69040Y-36361D01*
X69040Y-39930D01*
X66893Y-39930D01*
X66893Y-35129D01*
X66893Y-34873D01*
X66893Y-33129D01*
X66893Y-32873D01*
X66795Y-32637D01*
X66615Y-32456D01*
X66379Y-32357D01*
X66123Y-32357D01*
X65887Y-32455D01*
X65706Y-32635D01*
X65607Y-32871D01*
X65607Y-33127D01*
X65705Y-33363D01*
X65885Y-33544D01*
X66121Y-33643D01*
X66377Y-33643D01*
X66613Y-33545D01*
X66794Y-33365D01*
X66893Y-33129D01*
X66893Y-34873D01*
X66795Y-34637D01*
X66615Y-34456D01*
X66379Y-34357D01*
X66123Y-34357D01*
X65887Y-34455D01*
X65706Y-34635D01*
X65607Y-34871D01*
X65607Y-35127D01*
X65705Y-35363D01*
X65885Y-35544D01*
X66121Y-35643D01*
X66377Y-35643D01*
X66613Y-35545D01*
X66794Y-35365D01*
X66893Y-35129D01*
X66893Y-39930D01*
X65299Y-39930D01*
X65299Y-29850D01*
X65299Y-29751D01*
X65299Y-29151D01*
X65261Y-29059D01*
X65191Y-28989D01*
X65100Y-28951D01*
X65075Y-28951D01*
X65215Y-28811D01*
X65299Y-28609D01*
X65299Y-28391D01*
X65215Y-28189D01*
X65061Y-28035D01*
X64859Y-27951D01*
X64641Y-27951D01*
X64519Y-28001D01*
X64519Y-27074D01*
X64508Y-26870D01*
X64452Y-26733D01*
X64361Y-26710D01*
X64290Y-26781D01*
X64290Y-26639D01*
X64267Y-26548D01*
X64074Y-26481D01*
X63870Y-26492D01*
X63733Y-26548D01*
X63710Y-26639D01*
X64000Y-26929D01*
X64290Y-26639D01*
X64290Y-26781D01*
X64071Y-27000D01*
X64361Y-27290D01*
X64452Y-27267D01*
X64519Y-27074D01*
X64519Y-28001D01*
X64439Y-28035D01*
X64290Y-28184D01*
X64290Y-27361D01*
X64000Y-27071D01*
X63929Y-27142D01*
X63929Y-27000D01*
X63639Y-26710D01*
X63548Y-26733D01*
X63481Y-26926D01*
X63492Y-27130D01*
X63548Y-27267D01*
X63639Y-27290D01*
X63929Y-27000D01*
X63929Y-27142D01*
X63710Y-27361D01*
X63733Y-27452D01*
X63926Y-27519D01*
X64130Y-27508D01*
X64267Y-27452D01*
X64290Y-27361D01*
X64290Y-28184D01*
X64285Y-28189D01*
X64250Y-28273D01*
X64215Y-28189D01*
X64061Y-28035D01*
X63859Y-27951D01*
X63641Y-27951D01*
X63439Y-28035D01*
X63285Y-28189D01*
X63250Y-28273D01*
X63215Y-28189D01*
X63061Y-28035D01*
X62859Y-27951D01*
X62641Y-27951D01*
X62439Y-28035D01*
X62285Y-28189D01*
X62250Y-28273D01*
X62215Y-28189D01*
X62061Y-28035D01*
X61859Y-27951D01*
X61641Y-27951D01*
X61439Y-28035D01*
X61285Y-28189D01*
X61250Y-28273D01*
X61215Y-28189D01*
X61061Y-28035D01*
X60859Y-27951D01*
X60641Y-27951D01*
X60439Y-28035D01*
X60285Y-28189D01*
X60201Y-28391D01*
X60201Y-28609D01*
X60285Y-28811D01*
X60425Y-28951D01*
X60401Y-28951D01*
X60309Y-28989D01*
X60239Y-29059D01*
X60201Y-29150D01*
X60201Y-29249D01*
X60201Y-29849D01*
X60239Y-29941D01*
X60309Y-30011D01*
X60400Y-30049D01*
X60499Y-30049D01*
X61099Y-30049D01*
X61191Y-30011D01*
X61250Y-29952D01*
X61309Y-30011D01*
X61400Y-30049D01*
X61499Y-30049D01*
X62099Y-30049D01*
X62191Y-30011D01*
X62250Y-29952D01*
X62309Y-30011D01*
X62400Y-30049D01*
X62499Y-30049D01*
X63099Y-30049D01*
X63191Y-30011D01*
X63250Y-29952D01*
X63309Y-30011D01*
X63400Y-30049D01*
X63499Y-30049D01*
X64099Y-30049D01*
X64191Y-30011D01*
X64250Y-29952D01*
X64309Y-30011D01*
X64400Y-30049D01*
X64499Y-30049D01*
X65099Y-30049D01*
X65191Y-30011D01*
X65261Y-29941D01*
X65299Y-29850D01*
X65299Y-39930D01*
X64999Y-39930D01*
X65118Y-39811D01*
X65202Y-39609D01*
X65202Y-39391D01*
X65118Y-39189D01*
X64964Y-39035D01*
X64879Y-39000D01*
X64964Y-38965D01*
X65118Y-38811D01*
X65202Y-38609D01*
X65202Y-38391D01*
X65118Y-38189D01*
X64964Y-38035D01*
X64879Y-38000D01*
X64964Y-37965D01*
X65118Y-37811D01*
X65202Y-37609D01*
X65202Y-37391D01*
X65118Y-37189D01*
X64964Y-37035D01*
X64879Y-37000D01*
X64964Y-36965D01*
X65118Y-36811D01*
X65202Y-36609D01*
X65202Y-36391D01*
X65118Y-36189D01*
X64964Y-36035D01*
X64879Y-36000D01*
X64964Y-35965D01*
X65118Y-35811D01*
X65202Y-35609D01*
X65202Y-35391D01*
X65118Y-35189D01*
X64964Y-35035D01*
X64879Y-35000D01*
X64964Y-34965D01*
X65118Y-34811D01*
X65202Y-34609D01*
X65202Y-34391D01*
X65118Y-34189D01*
X64964Y-34035D01*
X64879Y-34000D01*
X64964Y-33965D01*
X65118Y-33811D01*
X65202Y-33609D01*
X65202Y-33391D01*
X65118Y-33189D01*
X64964Y-33035D01*
X64879Y-33000D01*
X64964Y-32965D01*
X65118Y-32811D01*
X65202Y-32609D01*
X65202Y-32391D01*
X65118Y-32189D01*
X64964Y-32035D01*
X64879Y-32000D01*
X64964Y-31965D01*
X65118Y-31811D01*
X65202Y-31609D01*
X65202Y-31391D01*
X65118Y-31189D01*
X64964Y-31035D01*
X64762Y-30951D01*
X64544Y-30951D01*
X64238Y-30951D01*
X64036Y-31035D01*
X63882Y-31189D01*
X63798Y-31391D01*
X63798Y-31609D01*
X63882Y-31811D01*
X64036Y-31965D01*
X64120Y-32000D01*
X64036Y-32035D01*
X63882Y-32189D01*
X63798Y-32391D01*
X63798Y-32609D01*
X63882Y-32811D01*
X64036Y-32965D01*
X64120Y-33000D01*
X64036Y-33035D01*
X63882Y-33189D01*
X63798Y-33391D01*
X63798Y-33609D01*
X63882Y-33811D01*
X64036Y-33965D01*
X64120Y-34000D01*
X64036Y-34035D01*
X63882Y-34189D01*
X63798Y-34391D01*
X63798Y-34609D01*
X63882Y-34811D01*
X64036Y-34965D01*
X64120Y-35000D01*
X64036Y-35035D01*
X63882Y-35189D01*
X63798Y-35391D01*
X63798Y-35609D01*
X63882Y-35811D01*
X64036Y-35965D01*
X64120Y-36000D01*
X64036Y-36035D01*
X63882Y-36189D01*
X63798Y-36391D01*
X63798Y-36609D01*
X63882Y-36811D01*
X64036Y-36965D01*
X64120Y-37000D01*
X64036Y-37035D01*
X63882Y-37189D01*
X63798Y-37391D01*
X63798Y-37609D01*
X63882Y-37811D01*
X64036Y-37965D01*
X64120Y-38000D01*
X64036Y-38035D01*
X63882Y-38189D01*
X63798Y-38391D01*
X63798Y-38609D01*
X63882Y-38811D01*
X64036Y-38965D01*
X64120Y-39000D01*
X64036Y-39035D01*
X63882Y-39189D01*
X63798Y-39391D01*
X63798Y-39609D01*
X63882Y-39811D01*
X64001Y-39930D01*
X61999Y-39930D01*
X62118Y-39811D01*
X62202Y-39609D01*
X62202Y-39391D01*
X62118Y-39189D01*
X61964Y-39035D01*
X61879Y-39000D01*
X61964Y-38965D01*
X62118Y-38811D01*
X62202Y-38609D01*
X62202Y-38391D01*
X62118Y-38189D01*
X61964Y-38035D01*
X61879Y-38000D01*
X61964Y-37965D01*
X62118Y-37811D01*
X62202Y-37609D01*
X62202Y-37391D01*
X62118Y-37189D01*
X61964Y-37035D01*
X61879Y-37000D01*
X61964Y-36965D01*
X62118Y-36811D01*
X62202Y-36609D01*
X62202Y-36391D01*
X62202Y-34609D01*
X62202Y-34391D01*
X62118Y-34189D01*
X61964Y-34035D01*
X61879Y-34000D01*
X61964Y-33965D01*
X62118Y-33811D01*
X62202Y-33609D01*
X62202Y-33391D01*
X62118Y-33189D01*
X61964Y-33035D01*
X61879Y-33000D01*
X61964Y-32965D01*
X62118Y-32811D01*
X62202Y-32609D01*
X62202Y-32391D01*
X62118Y-32189D01*
X61988Y-32059D01*
X61999Y-32059D01*
X62091Y-32021D01*
X62161Y-31951D01*
X62199Y-31860D01*
X62199Y-31761D01*
X62199Y-31141D01*
X62161Y-31049D01*
X62091Y-30979D01*
X62000Y-30941D01*
X61901Y-30941D01*
X61001Y-30941D01*
X60909Y-30979D01*
X60839Y-31049D01*
X60801Y-31140D01*
X60801Y-31239D01*
X60801Y-31859D01*
X60839Y-31951D01*
X60909Y-32021D01*
X61000Y-32059D01*
X61012Y-32059D01*
X60882Y-32189D01*
X60798Y-32391D01*
X60798Y-32609D01*
X60882Y-32811D01*
X61036Y-32965D01*
X61120Y-33000D01*
X61036Y-33035D01*
X60882Y-33189D01*
X60798Y-33391D01*
X60798Y-33609D01*
X60882Y-33811D01*
X61036Y-33965D01*
X61120Y-34000D01*
X61036Y-34035D01*
X60906Y-34164D01*
X60798Y-34055D01*
X60605Y-33975D01*
X60396Y-33975D01*
X60203Y-34055D01*
X60055Y-34202D01*
X59975Y-34395D01*
X59975Y-34604D01*
X60055Y-34797D01*
X60202Y-34945D01*
X60395Y-35025D01*
X60604Y-35025D01*
X60797Y-34945D01*
X60906Y-34835D01*
X61036Y-34965D01*
X61115Y-34998D01*
X60950Y-35118D01*
X60835Y-35304D01*
X60818Y-35363D01*
X60865Y-35450D01*
X61400Y-35450D01*
X61450Y-35450D01*
X61550Y-35450D01*
X61600Y-35450D01*
X62135Y-35450D01*
X62182Y-35363D01*
X62165Y-35304D01*
X62050Y-35118D01*
X61884Y-34998D01*
X61964Y-34965D01*
X62118Y-34811D01*
X62202Y-34609D01*
X62202Y-36391D01*
X62118Y-36189D01*
X61964Y-36035D01*
X61884Y-36001D01*
X62050Y-35882D01*
X62165Y-35696D01*
X62182Y-35637D01*
X62135Y-35550D01*
X61600Y-35550D01*
X61550Y-35550D01*
X61450Y-35550D01*
X61400Y-35550D01*
X60865Y-35550D01*
X60818Y-35637D01*
X60835Y-35696D01*
X60950Y-35882D01*
X61115Y-36001D01*
X61036Y-36035D01*
X60882Y-36189D01*
X60798Y-36391D01*
X60798Y-36609D01*
X60882Y-36811D01*
X61036Y-36965D01*
X61120Y-37000D01*
X61036Y-37035D01*
X60882Y-37189D01*
X60798Y-37391D01*
X60798Y-37609D01*
X60882Y-37811D01*
X61036Y-37965D01*
X61120Y-38000D01*
X61036Y-38035D01*
X60882Y-38189D01*
X60798Y-38391D01*
X60798Y-38609D01*
X60882Y-38811D01*
X61036Y-38965D01*
X61120Y-39000D01*
X61036Y-39035D01*
X60882Y-39189D01*
X60798Y-39391D01*
X60798Y-39609D01*
X60882Y-39811D01*
X61001Y-39930D01*
X58925Y-39930D01*
X58925Y-28835D01*
X58925Y-28666D01*
X58861Y-28510D01*
X58741Y-28390D01*
X58585Y-28325D01*
X58416Y-28325D01*
X58260Y-28389D01*
X58140Y-28509D01*
X58075Y-28665D01*
X58075Y-28751D01*
X56288Y-30538D01*
X56223Y-30635D01*
X56200Y-30750D01*
X56200Y-31825D01*
X56166Y-31825D01*
X56010Y-31889D01*
X55890Y-32009D01*
X55825Y-32165D01*
X55825Y-32334D01*
X55889Y-32490D01*
X56009Y-32610D01*
X56165Y-32675D01*
X56334Y-32675D01*
X56490Y-32611D01*
X56610Y-32491D01*
X56675Y-32335D01*
X56675Y-32249D01*
X56712Y-32213D01*
X56712Y-32212D01*
X56777Y-32115D01*
X56799Y-32000D01*
X56800Y-32000D01*
X56800Y-30874D01*
X58499Y-29175D01*
X58584Y-29175D01*
X58740Y-29111D01*
X58860Y-28991D01*
X58925Y-28835D01*
X58925Y-39930D01*
X58750Y-39930D01*
X58628Y-39954D01*
X58626Y-39954D01*
X58626Y-39955D01*
X58525Y-40022D01*
X58525Y-36605D01*
X58525Y-36396D01*
X58519Y-36381D01*
X58519Y-35574D01*
X58508Y-35370D01*
X58452Y-35233D01*
X58361Y-35210D01*
X58290Y-35281D01*
X58290Y-35139D01*
X58267Y-35048D01*
X58173Y-35015D01*
X58173Y-33265D01*
X58173Y-33009D01*
X58165Y-32989D01*
X58165Y-31464D01*
X58155Y-31214D01*
X58078Y-31028D01*
X57974Y-30991D01*
X57903Y-31062D01*
X57903Y-30920D01*
X57866Y-30816D01*
X57630Y-30729D01*
X57380Y-30739D01*
X57194Y-30816D01*
X57157Y-30920D01*
X57530Y-31293D01*
X57903Y-30920D01*
X57903Y-31062D01*
X57601Y-31364D01*
X57974Y-31737D01*
X58078Y-31700D01*
X58165Y-31464D01*
X58165Y-32989D01*
X58075Y-32773D01*
X57903Y-32600D01*
X57903Y-31808D01*
X57530Y-31435D01*
X57459Y-31506D01*
X57459Y-31364D01*
X57086Y-30991D01*
X56982Y-31028D01*
X56895Y-31264D01*
X56905Y-31514D01*
X56982Y-31700D01*
X57086Y-31737D01*
X57459Y-31364D01*
X57459Y-31506D01*
X57157Y-31808D01*
X57194Y-31912D01*
X57430Y-31999D01*
X57680Y-31989D01*
X57866Y-31912D01*
X57903Y-31808D01*
X57903Y-32600D01*
X57895Y-32592D01*
X57659Y-32493D01*
X57403Y-32493D01*
X57167Y-32591D01*
X56986Y-32771D01*
X56887Y-33007D01*
X56887Y-33263D01*
X56985Y-33499D01*
X57165Y-33680D01*
X57401Y-33779D01*
X57657Y-33779D01*
X57893Y-33681D01*
X58074Y-33501D01*
X58173Y-33265D01*
X58173Y-35015D01*
X58074Y-34981D01*
X58025Y-34983D01*
X58025Y-34605D01*
X58025Y-34396D01*
X57945Y-34203D01*
X57798Y-34055D01*
X57605Y-33975D01*
X57396Y-33975D01*
X57203Y-34055D01*
X57055Y-34202D01*
X56999Y-34335D01*
X56945Y-34203D01*
X56798Y-34055D01*
X56605Y-33975D01*
X56396Y-33975D01*
X56203Y-34055D01*
X56055Y-34202D01*
X55999Y-34335D01*
X55945Y-34203D01*
X55798Y-34055D01*
X55605Y-33975D01*
X55396Y-33975D01*
X55203Y-34055D01*
X55055Y-34202D01*
X54975Y-34395D01*
X54975Y-34604D01*
X55055Y-34797D01*
X55202Y-34945D01*
X55395Y-35025D01*
X55604Y-35025D01*
X55797Y-34945D01*
X55945Y-34798D01*
X56000Y-34664D01*
X56055Y-34797D01*
X56202Y-34945D01*
X56395Y-35025D01*
X56604Y-35025D01*
X56797Y-34945D01*
X56945Y-34798D01*
X57000Y-34664D01*
X57055Y-34797D01*
X57202Y-34945D01*
X57395Y-35025D01*
X57604Y-35025D01*
X57797Y-34945D01*
X57945Y-34798D01*
X58025Y-34605D01*
X58025Y-34983D01*
X57870Y-34992D01*
X57733Y-35048D01*
X57710Y-35139D01*
X58000Y-35429D01*
X58290Y-35139D01*
X58290Y-35281D01*
X58071Y-35500D01*
X58361Y-35790D01*
X58452Y-35767D01*
X58519Y-35574D01*
X58519Y-36381D01*
X58445Y-36203D01*
X58298Y-36055D01*
X58157Y-35996D01*
X58267Y-35952D01*
X58290Y-35861D01*
X58000Y-35571D01*
X57929Y-35642D01*
X57929Y-35500D01*
X57639Y-35210D01*
X57548Y-35233D01*
X57481Y-35426D01*
X57492Y-35630D01*
X57548Y-35767D01*
X57639Y-35790D01*
X57929Y-35500D01*
X57929Y-35642D01*
X57710Y-35861D01*
X57733Y-35952D01*
X57851Y-35993D01*
X57703Y-36055D01*
X57555Y-36202D01*
X57475Y-36395D01*
X57475Y-36604D01*
X57555Y-36797D01*
X57702Y-36945D01*
X57895Y-37025D01*
X58104Y-37025D01*
X58297Y-36945D01*
X58445Y-36798D01*
X58525Y-36605D01*
X58525Y-40022D01*
X58523Y-40024D01*
X57774Y-40774D01*
X57704Y-40877D01*
X57680Y-41000D01*
X57680Y-41500D01*
X57704Y-41623D01*
X57774Y-41726D01*
X58774Y-42726D01*
X58877Y-42795D01*
X58878Y-42796D01*
X59000Y-42820D01*
X59294Y-42820D01*
X59439Y-42965D01*
X59641Y-43049D01*
X59859Y-43049D01*
X60061Y-42965D01*
X60215Y-42811D01*
X60250Y-42726D01*
X60285Y-42811D01*
X60439Y-42965D01*
X60641Y-43049D01*
X60859Y-43049D01*
X61061Y-42965D01*
X61215Y-42811D01*
X61250Y-42726D01*
X61285Y-42811D01*
X61439Y-42965D01*
X61565Y-43017D01*
X62273Y-43726D01*
X62274Y-43726D01*
X62376Y-43795D01*
X62378Y-43796D01*
X62500Y-43820D01*
X70727Y-43820D01*
X70710Y-43889D01*
X71000Y-44179D01*
X71290Y-43889D01*
X71267Y-43798D01*
X71148Y-43756D01*
X71297Y-43695D01*
X71445Y-43548D01*
X71525Y-43355D01*
X71525Y-43146D01*
X71445Y-42953D01*
X71298Y-42805D01*
X71105Y-42725D01*
X70896Y-42725D01*
X70703Y-42805D01*
X70555Y-42952D01*
X70475Y-43145D01*
X70475Y-43180D01*
X62632Y-43180D01*
X62229Y-42776D01*
X62250Y-42726D01*
X62285Y-42811D01*
X62439Y-42965D01*
X62641Y-43049D01*
X62859Y-43049D01*
X63061Y-42965D01*
X63215Y-42811D01*
X63250Y-42726D01*
X63285Y-42811D01*
X63439Y-42965D01*
X63641Y-43049D01*
X63859Y-43049D01*
X64061Y-42965D01*
X64215Y-42811D01*
X64250Y-42726D01*
X64285Y-42811D01*
X64439Y-42965D01*
X64641Y-43049D01*
X64859Y-43049D01*
X65061Y-42965D01*
X65215Y-42811D01*
X65250Y-42726D01*
X65285Y-42811D01*
X65439Y-42965D01*
X65641Y-43049D01*
X65859Y-43049D01*
X66061Y-42965D01*
X66215Y-42811D01*
X66250Y-42726D01*
X66285Y-42811D01*
X66439Y-42965D01*
X66641Y-43049D01*
X66859Y-43049D01*
X67061Y-42965D01*
X67215Y-42811D01*
X67299Y-42609D01*
X67299Y-42391D01*
X67215Y-42189D01*
X67075Y-42049D01*
X67099Y-42049D01*
X67191Y-42011D01*
X67261Y-41941D01*
X67299Y-41850D01*
X67299Y-41751D01*
X67299Y-41151D01*
X67261Y-41059D01*
X67191Y-40989D01*
X67100Y-40951D01*
X67001Y-40951D01*
X66401Y-40951D01*
X66309Y-40989D01*
X66250Y-41048D01*
X66191Y-40989D01*
X66100Y-40951D01*
X66001Y-40951D01*
X65401Y-40951D01*
X65309Y-40989D01*
X65250Y-41048D01*
X65191Y-40989D01*
X65100Y-40951D01*
X65001Y-40951D01*
X64401Y-40951D01*
X64309Y-40989D01*
X64250Y-41048D01*
X64191Y-40989D01*
X64100Y-40951D01*
X64001Y-40951D01*
X63401Y-40951D01*
X63309Y-40989D01*
X63250Y-41048D01*
X63191Y-40989D01*
X63100Y-40951D01*
X63001Y-40951D01*
X62401Y-40951D01*
X62309Y-40989D01*
X62250Y-41048D01*
X62191Y-40989D01*
X62100Y-40951D01*
X62001Y-40951D01*
X61401Y-40951D01*
X61309Y-40989D01*
X61250Y-41048D01*
X61191Y-40989D01*
X61100Y-40951D01*
X61001Y-40951D01*
X60401Y-40951D01*
X60309Y-40989D01*
X60250Y-41048D01*
X60191Y-40989D01*
X60100Y-40951D01*
X60001Y-40951D01*
X59401Y-40951D01*
X59309Y-40989D01*
X59239Y-41059D01*
X59201Y-41150D01*
X59201Y-41249D01*
X59201Y-41849D01*
X59239Y-41941D01*
X59309Y-42011D01*
X59400Y-42049D01*
X59425Y-42049D01*
X59294Y-42180D01*
X59132Y-42180D01*
X58320Y-41368D01*
X58320Y-41132D01*
X58882Y-40570D01*
X70867Y-40570D01*
X71226Y-40928D01*
X71226Y-41324D01*
X71264Y-41416D01*
X71334Y-41486D01*
X71425Y-41524D01*
X71524Y-41524D01*
X72074Y-41524D01*
X72166Y-41486D01*
X72236Y-41416D01*
X72274Y-41325D01*
X72274Y-46450D01*
X71519Y-46450D01*
X71519Y-44324D01*
X71508Y-44120D01*
X71452Y-43983D01*
X71361Y-43960D01*
X71071Y-44250D01*
X71361Y-44540D01*
X71452Y-44517D01*
X71519Y-44324D01*
X71519Y-46450D01*
X71290Y-46450D01*
X71290Y-44611D01*
X71000Y-44321D01*
X70929Y-44392D01*
X70929Y-44250D01*
X70639Y-43960D01*
X70548Y-43983D01*
X70481Y-44176D01*
X70492Y-44380D01*
X70548Y-44517D01*
X70639Y-44540D01*
X70929Y-44250D01*
X70929Y-44392D01*
X70710Y-44611D01*
X70733Y-44702D01*
X70926Y-44769D01*
X71130Y-44758D01*
X71267Y-44702D01*
X71290Y-44611D01*
X71290Y-46450D01*
X70374Y-46450D01*
X69025Y-45100D01*
X69025Y-44896D01*
X68945Y-44703D01*
X68798Y-44555D01*
X68605Y-44475D01*
X68396Y-44475D01*
X68203Y-44555D01*
X68055Y-44702D01*
X67975Y-44895D01*
X67975Y-45104D01*
X68055Y-45297D01*
X68202Y-45445D01*
X68335Y-45500D01*
X68203Y-45555D01*
X68055Y-45702D01*
X67975Y-45895D01*
X67975Y-46104D01*
X68055Y-46297D01*
X68202Y-46445D01*
X68214Y-46450D01*
X65784Y-46450D01*
X65797Y-46445D01*
X65945Y-46298D01*
X66025Y-46105D01*
X66025Y-45896D01*
X65945Y-45703D01*
X65798Y-45555D01*
X65664Y-45499D01*
X65797Y-45445D01*
X65945Y-45298D01*
X66025Y-45105D01*
X66025Y-44896D01*
X65945Y-44703D01*
X65798Y-44555D01*
X65605Y-44475D01*
X65396Y-44475D01*
X65203Y-44555D01*
X65055Y-44702D01*
X64975Y-44895D01*
X64975Y-45104D01*
X65055Y-45297D01*
X65202Y-45445D01*
X65335Y-45500D01*
X65203Y-45555D01*
X65055Y-45702D01*
X64975Y-45895D01*
X64975Y-46104D01*
X65055Y-46297D01*
X65202Y-46445D01*
X65214Y-46450D01*
X61124Y-46450D01*
X58050Y-43376D01*
X58050Y-42250D01*
X58027Y-42135D01*
X57962Y-42038D01*
X57175Y-41251D01*
X57175Y-41166D01*
X57111Y-41010D01*
X57025Y-40924D01*
X57025Y-37605D01*
X57025Y-37396D01*
X56945Y-37203D01*
X56798Y-37055D01*
X56605Y-36975D01*
X56396Y-36975D01*
X56203Y-37055D01*
X56055Y-37202D01*
X56024Y-37276D01*
X56024Y-37176D01*
X55986Y-37084D01*
X55916Y-37014D01*
X55825Y-36976D01*
X55726Y-36976D01*
X55176Y-36976D01*
X55084Y-37014D01*
X55014Y-37084D01*
X54976Y-37175D01*
X54976Y-37274D01*
X54976Y-37824D01*
X55014Y-37916D01*
X55084Y-37986D01*
X55175Y-38024D01*
X55274Y-38024D01*
X55824Y-38024D01*
X55916Y-37986D01*
X55986Y-37916D01*
X56024Y-37825D01*
X56024Y-37726D01*
X56024Y-37722D01*
X56055Y-37797D01*
X56202Y-37945D01*
X56395Y-38025D01*
X56604Y-38025D01*
X56797Y-37945D01*
X56945Y-37798D01*
X57025Y-37605D01*
X57025Y-40924D01*
X56991Y-40890D01*
X56835Y-40825D01*
X56666Y-40825D01*
X56510Y-40889D01*
X56390Y-41009D01*
X56325Y-41165D01*
X56325Y-41334D01*
X56389Y-41490D01*
X56509Y-41610D01*
X56665Y-41675D01*
X56751Y-41675D01*
X57450Y-42374D01*
X57450Y-43500D01*
X57473Y-43615D01*
X57538Y-43712D01*
X60517Y-46691D01*
X57275Y-46699D01*
X57275Y-45605D01*
X57275Y-45396D01*
X57195Y-45203D01*
X57048Y-45055D01*
X56855Y-44975D01*
X56646Y-44975D01*
X56453Y-45055D01*
X56305Y-45202D01*
X56225Y-45395D01*
X56225Y-45604D01*
X56305Y-45797D01*
X56452Y-45945D01*
X56645Y-46025D01*
X56854Y-46025D01*
X57047Y-45945D01*
X57195Y-45798D01*
X57275Y-45605D01*
X57275Y-46699D01*
X55025Y-46705D01*
X55025Y-45605D01*
X55025Y-45396D01*
X54945Y-45203D01*
X54798Y-45055D01*
X54605Y-44975D01*
X54396Y-44975D01*
X54203Y-45055D01*
X54055Y-45202D01*
X53975Y-45395D01*
X53975Y-45604D01*
X54055Y-45797D01*
X54202Y-45945D01*
X54395Y-46025D01*
X54604Y-46025D01*
X54797Y-45945D01*
X54945Y-45798D01*
X55025Y-45605D01*
X55025Y-46705D01*
X53393Y-46710D01*
X53393Y-33826D01*
X53393Y-33575D01*
X53297Y-33343D01*
X53120Y-33165D01*
X52888Y-33069D01*
X52637Y-33069D01*
X52613Y-33069D01*
X52393Y-33160D01*
X52393Y-30826D01*
X52393Y-30575D01*
X52297Y-30343D01*
X52120Y-30165D01*
X51888Y-30069D01*
X51637Y-30069D01*
X51613Y-30069D01*
X51381Y-30165D01*
X51203Y-30342D01*
X51107Y-30574D01*
X51107Y-30825D01*
X51203Y-31057D01*
X51380Y-31235D01*
X51612Y-31331D01*
X51863Y-31331D01*
X51887Y-31331D01*
X52119Y-31235D01*
X52297Y-31058D01*
X52393Y-30826D01*
X52393Y-33160D01*
X52381Y-33165D01*
X52203Y-33342D01*
X52107Y-33574D01*
X52107Y-33825D01*
X52203Y-34057D01*
X52380Y-34235D01*
X52612Y-34331D01*
X52863Y-34331D01*
X52887Y-34331D01*
X53119Y-34235D01*
X53297Y-34058D01*
X53393Y-33826D01*
X53393Y-46710D01*
X53025Y-46711D01*
X53025Y-43855D01*
X53025Y-43646D01*
X53025Y-40855D01*
X53025Y-40646D01*
X53025Y-39605D01*
X53025Y-39396D01*
X52945Y-39203D01*
X52798Y-39055D01*
X52605Y-38975D01*
X52399Y-38975D01*
X52393Y-38968D01*
X52393Y-35826D01*
X52393Y-35575D01*
X52297Y-35343D01*
X52120Y-35165D01*
X51888Y-35069D01*
X51637Y-35069D01*
X51613Y-35069D01*
X51381Y-35165D01*
X51203Y-35342D01*
X51107Y-35574D01*
X51107Y-35825D01*
X51203Y-36057D01*
X51380Y-36235D01*
X51612Y-36331D01*
X51863Y-36331D01*
X51887Y-36331D01*
X52119Y-36235D01*
X52297Y-36058D01*
X52393Y-35826D01*
X52393Y-38968D01*
X51080Y-37655D01*
X51080Y-27866D01*
X51080Y-27635D01*
X50992Y-27422D01*
X50829Y-27259D01*
X50616Y-27170D01*
X50385Y-27170D01*
X50172Y-27258D01*
X50009Y-27421D01*
X50000Y-27441D01*
X49992Y-27422D01*
X49829Y-27259D01*
X49616Y-27170D01*
X49385Y-27170D01*
X49172Y-27258D01*
X49009Y-27421D01*
X48920Y-27634D01*
X48920Y-27865D01*
X49008Y-28078D01*
X49171Y-28241D01*
X49384Y-28330D01*
X49615Y-28330D01*
X49828Y-28242D01*
X49991Y-28079D01*
X49999Y-28058D01*
X50008Y-28078D01*
X50171Y-28241D01*
X50384Y-28330D01*
X50615Y-28330D01*
X50828Y-28242D01*
X50991Y-28079D01*
X51080Y-27866D01*
X51080Y-37655D01*
X47050Y-33625D01*
X47050Y-31692D01*
X47195Y-31548D01*
X47275Y-31355D01*
X47275Y-31146D01*
X47195Y-30953D01*
X47048Y-30805D01*
X46914Y-30749D01*
X47047Y-30695D01*
X47195Y-30548D01*
X47275Y-30355D01*
X47275Y-30146D01*
X47195Y-29953D01*
X47048Y-29805D01*
X46855Y-29725D01*
X46646Y-29725D01*
X46453Y-29805D01*
X46305Y-29952D01*
X46225Y-30145D01*
X46225Y-30354D01*
X46305Y-30547D01*
X46452Y-30695D01*
X46585Y-30750D01*
X46453Y-30805D01*
X46305Y-30952D01*
X46274Y-31024D01*
X46274Y-30925D01*
X46236Y-30834D01*
X46166Y-30764D01*
X46074Y-30726D01*
X45862Y-30725D01*
X45800Y-30787D01*
X45800Y-31150D01*
X45800Y-31200D01*
X45800Y-31300D01*
X45800Y-31350D01*
X45800Y-31713D01*
X45862Y-31775D01*
X46074Y-31774D01*
X46166Y-31736D01*
X46236Y-31666D01*
X46274Y-31575D01*
X46274Y-31476D01*
X46274Y-31472D01*
X46305Y-31547D01*
X46450Y-31692D01*
X46450Y-33750D01*
X46473Y-33865D01*
X46538Y-33962D01*
X51975Y-39399D01*
X51975Y-39604D01*
X52055Y-39797D01*
X52202Y-39945D01*
X52395Y-40025D01*
X52604Y-40025D01*
X52797Y-39945D01*
X52945Y-39798D01*
X53025Y-39605D01*
X53025Y-40646D01*
X52945Y-40453D01*
X52798Y-40305D01*
X52605Y-40225D01*
X52396Y-40225D01*
X52203Y-40305D01*
X52055Y-40452D01*
X51975Y-40645D01*
X51975Y-40854D01*
X52055Y-41047D01*
X52202Y-41195D01*
X52395Y-41275D01*
X52604Y-41275D01*
X52797Y-41195D01*
X52945Y-41048D01*
X53025Y-40855D01*
X53025Y-43646D01*
X52945Y-43453D01*
X52798Y-43305D01*
X52605Y-43225D01*
X52396Y-43225D01*
X52203Y-43305D01*
X52055Y-43452D01*
X51975Y-43645D01*
X51975Y-43854D01*
X52055Y-44047D01*
X52202Y-44195D01*
X52395Y-44275D01*
X52604Y-44275D01*
X52797Y-44195D01*
X52945Y-44048D01*
X53025Y-43855D01*
X53025Y-46711D01*
X52525Y-46712D01*
X52525Y-45355D01*
X52525Y-45146D01*
X52445Y-44953D01*
X52298Y-44805D01*
X52105Y-44725D01*
X51896Y-44725D01*
X51703Y-44805D01*
X51555Y-44952D01*
X51496Y-45092D01*
X51452Y-44983D01*
X51361Y-44960D01*
X51290Y-45031D01*
X51290Y-44889D01*
X51267Y-44798D01*
X51074Y-44731D01*
X50870Y-44742D01*
X50733Y-44798D01*
X50710Y-44889D01*
X51000Y-45179D01*
X51290Y-44889D01*
X51290Y-45031D01*
X51071Y-45250D01*
X51361Y-45540D01*
X51452Y-45517D01*
X51493Y-45398D01*
X51555Y-45547D01*
X51702Y-45695D01*
X51895Y-45775D01*
X52104Y-45775D01*
X52297Y-45695D01*
X52445Y-45548D01*
X52525Y-45355D01*
X52525Y-46712D01*
X51290Y-46715D01*
X51290Y-45611D01*
X51000Y-45321D01*
X50929Y-45392D01*
X50929Y-45250D01*
X50639Y-44960D01*
X50548Y-44983D01*
X50481Y-45176D01*
X50492Y-45380D01*
X50548Y-45517D01*
X50639Y-45540D01*
X50929Y-45250D01*
X50929Y-45392D01*
X50710Y-45611D01*
X50733Y-45702D01*
X50926Y-45769D01*
X51130Y-45758D01*
X51267Y-45702D01*
X51290Y-45611D01*
X51290Y-46715D01*
X49675Y-46720D01*
X49675Y-46666D01*
X49611Y-46510D01*
X49491Y-46390D01*
X49335Y-46325D01*
X49249Y-46325D01*
X48830Y-45906D01*
X48830Y-44366D01*
X48830Y-44135D01*
X48775Y-44001D01*
X48775Y-43105D01*
X48775Y-42896D01*
X48775Y-40105D01*
X48775Y-39896D01*
X48695Y-39703D01*
X48548Y-39555D01*
X48355Y-39475D01*
X48146Y-39475D01*
X47953Y-39555D01*
X47805Y-39702D01*
X47725Y-39895D01*
X47725Y-40104D01*
X47805Y-40297D01*
X47952Y-40445D01*
X48145Y-40525D01*
X48354Y-40525D01*
X48547Y-40445D01*
X48695Y-40298D01*
X48775Y-40105D01*
X48775Y-42896D01*
X48695Y-42703D01*
X48548Y-42555D01*
X48355Y-42475D01*
X48146Y-42475D01*
X47953Y-42555D01*
X47805Y-42702D01*
X47725Y-42895D01*
X47725Y-43104D01*
X47805Y-43297D01*
X47952Y-43445D01*
X48145Y-43525D01*
X48354Y-43525D01*
X48547Y-43445D01*
X48695Y-43298D01*
X48775Y-43105D01*
X48775Y-44001D01*
X48742Y-43922D01*
X48579Y-43759D01*
X48366Y-43670D01*
X48135Y-43670D01*
X47922Y-43758D01*
X47759Y-43921D01*
X47670Y-44134D01*
X47670Y-44365D01*
X47758Y-44578D01*
X47921Y-44741D01*
X47952Y-44753D01*
X47952Y-44754D01*
X47921Y-44850D01*
X48250Y-45179D01*
X48579Y-44850D01*
X48548Y-44754D01*
X48578Y-44742D01*
X48741Y-44579D01*
X48830Y-44366D01*
X48830Y-45906D01*
X48823Y-45899D01*
X48823Y-45336D01*
X48812Y-45111D01*
X48746Y-44952D01*
X48650Y-44921D01*
X48321Y-45250D01*
X48650Y-45579D01*
X48746Y-45548D01*
X48823Y-45336D01*
X48823Y-45899D01*
X48712Y-45788D01*
X48615Y-45723D01*
X48559Y-45711D01*
X48579Y-45650D01*
X48250Y-45321D01*
X48179Y-45392D01*
X48179Y-45250D01*
X47850Y-44921D01*
X47754Y-44952D01*
X47677Y-45164D01*
X47688Y-45389D01*
X47754Y-45548D01*
X47850Y-45579D01*
X48179Y-45250D01*
X48179Y-45392D01*
X47921Y-45650D01*
X47937Y-45700D01*
X45549Y-45700D01*
X45549Y-42850D01*
X45549Y-42751D01*
X45549Y-42151D01*
X45511Y-42059D01*
X45441Y-41989D01*
X45350Y-41951D01*
X45325Y-41951D01*
X45465Y-41811D01*
X45549Y-41609D01*
X45549Y-41391D01*
X45465Y-41189D01*
X45311Y-41035D01*
X45109Y-40951D01*
X44891Y-40951D01*
X44879Y-40955D01*
X43952Y-40028D01*
X44025Y-39855D01*
X44025Y-39646D01*
X43945Y-39453D01*
X43798Y-39305D01*
X43605Y-39225D01*
X43396Y-39225D01*
X43203Y-39305D01*
X43055Y-39452D01*
X42975Y-39645D01*
X42975Y-39854D01*
X43055Y-40047D01*
X43202Y-40195D01*
X43319Y-40243D01*
X44455Y-41379D01*
X44451Y-41391D01*
X44451Y-41609D01*
X44535Y-41811D01*
X44675Y-41951D01*
X44651Y-41951D01*
X44559Y-41989D01*
X44489Y-42059D01*
X44451Y-42150D01*
X44451Y-42249D01*
X44451Y-42849D01*
X44489Y-42941D01*
X44559Y-43011D01*
X44650Y-43049D01*
X44749Y-43049D01*
X45349Y-43049D01*
X45441Y-43011D01*
X45511Y-42941D01*
X45549Y-42850D01*
X45549Y-45700D01*
X45299Y-45700D01*
X45299Y-45350D01*
X45299Y-45251D01*
X45299Y-44651D01*
X45261Y-44559D01*
X45191Y-44489D01*
X45100Y-44451D01*
X45001Y-44451D01*
X44401Y-44451D01*
X44309Y-44489D01*
X44239Y-44559D01*
X44201Y-44650D01*
X44201Y-44712D01*
X44128Y-44692D01*
X44058Y-44762D01*
X44058Y-44622D01*
X44031Y-44528D01*
X43829Y-44457D01*
X43616Y-44468D01*
X43469Y-44528D01*
X43442Y-44622D01*
X43750Y-44929D01*
X44058Y-44622D01*
X44058Y-44762D01*
X43821Y-45000D01*
X44128Y-45308D01*
X44201Y-45287D01*
X44201Y-45349D01*
X44239Y-45441D01*
X44309Y-45511D01*
X44400Y-45549D01*
X44499Y-45549D01*
X45099Y-45549D01*
X45191Y-45511D01*
X45261Y-45441D01*
X45299Y-45350D01*
X45299Y-45700D01*
X44058Y-45700D01*
X44058Y-45378D01*
X43750Y-45071D01*
X43679Y-45141D01*
X43679Y-45000D01*
X43372Y-44692D01*
X43278Y-44719D01*
X43254Y-44784D01*
X43215Y-44689D01*
X43061Y-44535D01*
X43049Y-44530D01*
X43049Y-42850D01*
X43049Y-42751D01*
X43049Y-42151D01*
X43011Y-42059D01*
X42941Y-41989D01*
X42850Y-41951D01*
X42825Y-41951D01*
X42965Y-41811D01*
X43049Y-41609D01*
X43049Y-41391D01*
X42965Y-41189D01*
X42923Y-41147D01*
X42923Y-33265D01*
X42923Y-33009D01*
X42915Y-32989D01*
X42915Y-31464D01*
X42905Y-31214D01*
X42828Y-31028D01*
X42724Y-30991D01*
X42653Y-31062D01*
X42653Y-30920D01*
X42616Y-30816D01*
X42380Y-30729D01*
X42130Y-30739D01*
X41944Y-30816D01*
X41907Y-30920D01*
X42280Y-31293D01*
X42653Y-30920D01*
X42653Y-31062D01*
X42351Y-31364D01*
X42724Y-31737D01*
X42828Y-31700D01*
X42915Y-31464D01*
X42915Y-32989D01*
X42825Y-32773D01*
X42653Y-32600D01*
X42653Y-31808D01*
X42280Y-31435D01*
X42209Y-31506D01*
X42209Y-31364D01*
X41836Y-30991D01*
X41732Y-31028D01*
X41645Y-31264D01*
X41655Y-31514D01*
X41732Y-31700D01*
X41836Y-31737D01*
X42209Y-31364D01*
X42209Y-31506D01*
X41907Y-31808D01*
X41944Y-31912D01*
X42180Y-31999D01*
X42430Y-31989D01*
X42616Y-31912D01*
X42653Y-31808D01*
X42653Y-32600D01*
X42645Y-32592D01*
X42409Y-32493D01*
X42153Y-32493D01*
X41917Y-32591D01*
X41736Y-32771D01*
X41637Y-33007D01*
X41637Y-33263D01*
X41735Y-33499D01*
X41915Y-33680D01*
X42151Y-33779D01*
X42407Y-33779D01*
X42643Y-33681D01*
X42824Y-33501D01*
X42923Y-33265D01*
X42923Y-41147D01*
X42811Y-41035D01*
X42609Y-40951D01*
X42391Y-40951D01*
X42189Y-41035D01*
X42035Y-41189D01*
X42019Y-41227D01*
X42019Y-37074D01*
X42008Y-36870D01*
X41952Y-36733D01*
X41861Y-36710D01*
X41790Y-36781D01*
X41790Y-36639D01*
X41767Y-36548D01*
X41574Y-36481D01*
X41370Y-36492D01*
X41233Y-36548D01*
X41210Y-36639D01*
X41500Y-36929D01*
X41790Y-36639D01*
X41790Y-36781D01*
X41571Y-37000D01*
X41861Y-37290D01*
X41952Y-37267D01*
X42019Y-37074D01*
X42019Y-41227D01*
X41951Y-41391D01*
X41951Y-41609D01*
X42035Y-41811D01*
X42175Y-41951D01*
X42151Y-41951D01*
X42059Y-41989D01*
X41989Y-42059D01*
X41951Y-42150D01*
X41951Y-42249D01*
X41951Y-42849D01*
X41989Y-42941D01*
X42059Y-43011D01*
X42150Y-43049D01*
X42249Y-43049D01*
X42849Y-43049D01*
X42941Y-43011D01*
X43011Y-42941D01*
X43049Y-42850D01*
X43049Y-44530D01*
X42859Y-44451D01*
X42641Y-44451D01*
X42439Y-44535D01*
X42285Y-44689D01*
X42201Y-44891D01*
X42201Y-45109D01*
X42285Y-45311D01*
X42439Y-45465D01*
X42641Y-45549D01*
X42859Y-45549D01*
X43061Y-45465D01*
X43215Y-45311D01*
X43252Y-45219D01*
X43278Y-45281D01*
X43372Y-45308D01*
X43679Y-45000D01*
X43679Y-45141D01*
X43442Y-45378D01*
X43469Y-45472D01*
X43671Y-45543D01*
X43884Y-45532D01*
X44031Y-45472D01*
X44058Y-45378D01*
X44058Y-45700D01*
X41790Y-45700D01*
X41790Y-37361D01*
X41500Y-37071D01*
X41210Y-37361D01*
X41233Y-37452D01*
X41426Y-37519D01*
X41630Y-37508D01*
X41767Y-37452D01*
X41790Y-37361D01*
X41790Y-45700D01*
X41299Y-45700D01*
X41299Y-42850D01*
X41299Y-42751D01*
X41299Y-42151D01*
X41261Y-42059D01*
X41191Y-41989D01*
X41100Y-41951D01*
X41075Y-41951D01*
X41215Y-41811D01*
X41299Y-41609D01*
X41299Y-41391D01*
X41215Y-41189D01*
X41061Y-41035D01*
X40859Y-40951D01*
X40641Y-40951D01*
X40439Y-41035D01*
X40285Y-41189D01*
X40201Y-41391D01*
X40201Y-41609D01*
X40285Y-41811D01*
X40425Y-41951D01*
X40401Y-41951D01*
X40309Y-41989D01*
X40239Y-42059D01*
X40201Y-42150D01*
X40201Y-42249D01*
X40201Y-42849D01*
X40239Y-42941D01*
X40309Y-43011D01*
X40400Y-43049D01*
X40499Y-43049D01*
X41099Y-43049D01*
X41191Y-43011D01*
X41261Y-42941D01*
X41299Y-42850D01*
X41299Y-45700D01*
X40874Y-45700D01*
X39300Y-44125D01*
X39300Y-41374D01*
X40399Y-40275D01*
X40604Y-40275D01*
X40797Y-40195D01*
X40945Y-40048D01*
X41025Y-39855D01*
X41025Y-39646D01*
X40945Y-39453D01*
X40800Y-39307D01*
X40800Y-37442D01*
X40945Y-37298D01*
X41003Y-37157D01*
X41048Y-37267D01*
X41139Y-37290D01*
X41429Y-37000D01*
X41139Y-36710D01*
X41048Y-36733D01*
X41006Y-36851D01*
X40945Y-36703D01*
X40798Y-36555D01*
X40605Y-36475D01*
X40574Y-36475D01*
X40574Y-28125D01*
X40574Y-28026D01*
X40574Y-27376D01*
X40536Y-27284D01*
X40466Y-27214D01*
X40375Y-27176D01*
X40315Y-27176D01*
X40325Y-27146D01*
X40000Y-26821D01*
X39675Y-27146D01*
X39684Y-27176D01*
X39626Y-27176D01*
X39534Y-27214D01*
X39464Y-27284D01*
X39426Y-27375D01*
X39426Y-27474D01*
X39426Y-28124D01*
X39464Y-28216D01*
X39534Y-28286D01*
X39625Y-28324D01*
X39724Y-28324D01*
X40374Y-28324D01*
X40466Y-28286D01*
X40536Y-28216D01*
X40574Y-28125D01*
X40574Y-36475D01*
X40396Y-36475D01*
X40363Y-36488D01*
X40363Y-33265D01*
X40363Y-33009D01*
X40363Y-31493D01*
X40363Y-31237D01*
X40265Y-31001D01*
X40085Y-30820D01*
X39849Y-30721D01*
X39593Y-30721D01*
X39357Y-30819D01*
X39176Y-30999D01*
X39077Y-31235D01*
X39077Y-31491D01*
X39175Y-31727D01*
X39355Y-31908D01*
X39591Y-32007D01*
X39847Y-32007D01*
X40083Y-31909D01*
X40264Y-31729D01*
X40363Y-31493D01*
X40363Y-33009D01*
X40265Y-32773D01*
X40085Y-32592D01*
X39849Y-32493D01*
X39593Y-32493D01*
X39357Y-32591D01*
X39176Y-32771D01*
X39077Y-33007D01*
X39077Y-33263D01*
X39175Y-33499D01*
X39355Y-33680D01*
X39591Y-33779D01*
X39847Y-33779D01*
X40083Y-33681D01*
X40264Y-33501D01*
X40363Y-33265D01*
X40363Y-36488D01*
X40203Y-36555D01*
X40055Y-36702D01*
X39975Y-36895D01*
X39975Y-37104D01*
X40055Y-37297D01*
X40200Y-37442D01*
X40200Y-39307D01*
X40055Y-39452D01*
X39975Y-39645D01*
X39975Y-39851D01*
X38788Y-41038D01*
X38723Y-41135D01*
X38700Y-41250D01*
X38700Y-44250D01*
X38723Y-44365D01*
X38788Y-44462D01*
X40537Y-46212D01*
X40538Y-46212D01*
X40635Y-46277D01*
X40749Y-46299D01*
X40750Y-46300D01*
X48375Y-46300D01*
X48797Y-46722D01*
X38350Y-46750D01*
X38350Y-26450D01*
X39505Y-26460D01*
X39432Y-26666D01*
X39444Y-26889D01*
X39508Y-27046D01*
X39604Y-27075D01*
X39894Y-26785D01*
X39929Y-26750D01*
X40000Y-26679D01*
X40071Y-26750D01*
X40106Y-26785D01*
X40396Y-27075D01*
X40492Y-27046D01*
X40568Y-26834D01*
X40556Y-26611D01*
X40498Y-26469D01*
X45200Y-26513D01*
X45200Y-29126D01*
X44788Y-29538D01*
X44723Y-29635D01*
X44700Y-29750D01*
X44700Y-39000D01*
X44723Y-39115D01*
X44788Y-39212D01*
X45700Y-40124D01*
X45700Y-41750D01*
X45723Y-41865D01*
X45788Y-41962D01*
X46201Y-42375D01*
X46201Y-42849D01*
X46239Y-42941D01*
X46309Y-43011D01*
X46400Y-43049D01*
X46499Y-43049D01*
X47099Y-43049D01*
X47191Y-43011D01*
X47261Y-42941D01*
X47299Y-42850D01*
X47299Y-42751D01*
X47299Y-42151D01*
X47261Y-42059D01*
X47191Y-41989D01*
X47100Y-41951D01*
X47075Y-41951D01*
X47215Y-41811D01*
X47299Y-41609D01*
X47299Y-41391D01*
X47215Y-41189D01*
X47061Y-41035D01*
X46859Y-40951D01*
X46641Y-40951D01*
X46439Y-41035D01*
X46300Y-41174D01*
X46300Y-40000D01*
X46277Y-39885D01*
X46212Y-39788D01*
X45300Y-38876D01*
X45300Y-31702D01*
X45334Y-31736D01*
X45426Y-31774D01*
X45638Y-31775D01*
X45700Y-31713D01*
X45700Y-31350D01*
X45700Y-31300D01*
X45700Y-31200D01*
X45700Y-31150D01*
X45700Y-30787D01*
X45638Y-30725D01*
X45426Y-30726D01*
X45334Y-30764D01*
X45300Y-30798D01*
X45300Y-29874D01*
X45712Y-29462D01*
X45777Y-29365D01*
X45800Y-29250D01*
X45800Y-26519D01*
X47700Y-26536D01*
X47700Y-32000D01*
X47723Y-32115D01*
X47788Y-32212D01*
X48901Y-33325D01*
X48901Y-33899D01*
X48939Y-33991D01*
X49009Y-34061D01*
X49100Y-34099D01*
X49199Y-34099D01*
X49899Y-34099D01*
X49991Y-34061D01*
X50061Y-33991D01*
X50099Y-33900D01*
X50099Y-33801D01*
X50099Y-33101D01*
X50099Y-29619D01*
X50099Y-29381D01*
X50008Y-29161D01*
X49839Y-28992D01*
X49619Y-28901D01*
X49381Y-28901D01*
X49161Y-28992D01*
X48992Y-29161D01*
X48901Y-29381D01*
X48901Y-29619D01*
X48992Y-29839D01*
X49161Y-30008D01*
X49381Y-30099D01*
X49619Y-30099D01*
X49839Y-30008D01*
X50008Y-29839D01*
X50099Y-29619D01*
X50099Y-33101D01*
X50061Y-33009D01*
X49991Y-32939D01*
X49900Y-32901D01*
X49801Y-32901D01*
X49325Y-32901D01*
X48300Y-31876D01*
X48300Y-26542D01*
X53170Y-26587D01*
X53170Y-26615D01*
X53258Y-26828D01*
X53421Y-26991D01*
X53441Y-26999D01*
X53422Y-27008D01*
X53259Y-27171D01*
X53170Y-27384D01*
X53170Y-27615D01*
X53258Y-27828D01*
X53421Y-27991D01*
X53430Y-27994D01*
X53430Y-27995D01*
X53430Y-28000D01*
X53430Y-41750D01*
X53454Y-41873D01*
X53524Y-41976D01*
X53975Y-42427D01*
X53975Y-42604D01*
X54055Y-42797D01*
X54202Y-42945D01*
X54395Y-43025D01*
X54604Y-43025D01*
X54797Y-42945D01*
X54945Y-42798D01*
X55025Y-42605D01*
X55025Y-42477D01*
X55273Y-42726D01*
X55274Y-42726D01*
X55376Y-42795D01*
X55378Y-42796D01*
X55499Y-42819D01*
X55500Y-42820D01*
X56327Y-42820D01*
X56452Y-42945D01*
X56645Y-43025D01*
X56854Y-43025D01*
X57047Y-42945D01*
X57195Y-42798D01*
X57275Y-42605D01*
X57275Y-42396D01*
X57195Y-42203D01*
X57048Y-42055D01*
X56855Y-41975D01*
X56646Y-41975D01*
X56453Y-42055D01*
X56327Y-42180D01*
X56019Y-42180D01*
X56019Y-39574D01*
X56008Y-39370D01*
X55952Y-39233D01*
X55861Y-39210D01*
X55790Y-39281D01*
X55790Y-39139D01*
X55767Y-39048D01*
X55574Y-38981D01*
X55370Y-38992D01*
X55233Y-39048D01*
X55210Y-39139D01*
X55500Y-39429D01*
X55790Y-39139D01*
X55790Y-39281D01*
X55571Y-39500D01*
X55861Y-39790D01*
X55952Y-39767D01*
X56019Y-39574D01*
X56019Y-42180D01*
X55790Y-42180D01*
X55790Y-39861D01*
X55500Y-39571D01*
X55429Y-39642D01*
X55429Y-39500D01*
X55139Y-39210D01*
X55048Y-39233D01*
X54981Y-39426D01*
X54992Y-39630D01*
X55048Y-39767D01*
X55139Y-39790D01*
X55429Y-39500D01*
X55429Y-39642D01*
X55210Y-39861D01*
X55233Y-39952D01*
X55426Y-40019D01*
X55630Y-40008D01*
X55767Y-39952D01*
X55790Y-39861D01*
X55790Y-42180D01*
X55632Y-42180D01*
X54570Y-41117D01*
X54570Y-33644D01*
X54605Y-33680D01*
X54841Y-33779D01*
X55097Y-33779D01*
X55333Y-33681D01*
X55514Y-33501D01*
X55613Y-33265D01*
X55613Y-33009D01*
X55515Y-32773D01*
X55335Y-32592D01*
X55099Y-32493D01*
X54843Y-32493D01*
X54607Y-32591D01*
X54570Y-32627D01*
X54570Y-31872D01*
X54605Y-31908D01*
X54841Y-32007D01*
X55097Y-32007D01*
X55333Y-31909D01*
X55514Y-31729D01*
X55613Y-31493D01*
X55613Y-31237D01*
X55515Y-31001D01*
X55335Y-30820D01*
X55099Y-30721D01*
X54843Y-30721D01*
X54651Y-30800D01*
X57132Y-28320D01*
X59750Y-28320D01*
X59872Y-28296D01*
X59873Y-28296D01*
X59976Y-28226D01*
X61876Y-26326D01*
X61884Y-26330D01*
X62115Y-26330D01*
X62328Y-26242D01*
X62491Y-26079D01*
X62580Y-25866D01*
X62580Y-25635D01*
X62503Y-25450D01*
X67930Y-25450D01*
X67930Y-25484D01*
X67911Y-25492D01*
X67742Y-25661D01*
X67651Y-25881D01*
X67651Y-26119D01*
X67742Y-26339D01*
X67911Y-26508D01*
X68131Y-26599D01*
X68369Y-26599D01*
X68589Y-26508D01*
X68758Y-26339D01*
X68849Y-26119D01*
X68849Y-25881D01*
X68758Y-25661D01*
X68589Y-25492D01*
X68570Y-25484D01*
X68570Y-24382D01*
X68976Y-23976D01*
X69045Y-23873D01*
X69046Y-23872D01*
X69070Y-23750D01*
X69070Y-23062D01*
X69202Y-23195D01*
X69395Y-23275D01*
X69604Y-23275D01*
X69797Y-23195D01*
X69945Y-23048D01*
X70025Y-22855D01*
X70025Y-22646D01*
X69945Y-22453D01*
X69798Y-22305D01*
X69605Y-22225D01*
X69396Y-22225D01*
X69203Y-22305D01*
X69070Y-22437D01*
X69070Y-20062D01*
X69202Y-20195D01*
X69395Y-20275D01*
X69604Y-20275D01*
X69797Y-20195D01*
X69945Y-20048D01*
X70025Y-19855D01*
X70025Y-19727D01*
X70680Y-20382D01*
X70680Y-21734D01*
X70661Y-21742D01*
X70492Y-21911D01*
X70401Y-22131D01*
X70401Y-22369D01*
X70492Y-22589D01*
X70661Y-22758D01*
X70881Y-22849D01*
X71119Y-22849D01*
X71339Y-22758D01*
X71508Y-22589D01*
X71599Y-22369D01*
X71599Y-22131D01*
X71524Y-21949D01*
X71524Y-18075D01*
X71524Y-17976D01*
X71524Y-17426D01*
X71486Y-17334D01*
X71416Y-17264D01*
X71325Y-17226D01*
X71226Y-17226D01*
X70676Y-17226D01*
X70584Y-17264D01*
X70514Y-17334D01*
X70476Y-17425D01*
X70476Y-17524D01*
X70476Y-17541D01*
X70452Y-17483D01*
X70361Y-17460D01*
X70290Y-17531D01*
X70290Y-17389D01*
X70267Y-17298D01*
X70074Y-17231D01*
X69870Y-17242D01*
X69733Y-17298D01*
X69710Y-17389D01*
X70000Y-17679D01*
X70290Y-17389D01*
X70290Y-17531D01*
X70071Y-17750D01*
X70361Y-18040D01*
X70452Y-18017D01*
X70476Y-17947D01*
X70476Y-18074D01*
X70514Y-18166D01*
X70584Y-18236D01*
X70675Y-18274D01*
X70774Y-18274D01*
X71324Y-18274D01*
X71416Y-18236D01*
X71486Y-18166D01*
X71524Y-18075D01*
X71524Y-21949D01*
X71508Y-21911D01*
X71339Y-21742D01*
X71320Y-21734D01*
X71320Y-20250D01*
X71319Y-20249D01*
X71296Y-20128D01*
X71295Y-20126D01*
X71226Y-20024D01*
X71226Y-20023D01*
X70290Y-19087D01*
X70290Y-18111D01*
X70000Y-17821D01*
X69710Y-18111D01*
X69733Y-18202D01*
X69926Y-18269D01*
X70130Y-18258D01*
X70267Y-18202D01*
X70290Y-18111D01*
X70290Y-19087D01*
X69570Y-18367D01*
X69570Y-18022D01*
X69639Y-18040D01*
X69929Y-17750D01*
X69639Y-17460D01*
X69570Y-17477D01*
X69570Y-16882D01*
X70402Y-16050D01*
X75950Y-16050D01*
X75950Y-20495D01*
X75870Y-20415D01*
X75638Y-20319D01*
X75387Y-20319D01*
X75363Y-20319D01*
X75143Y-20410D01*
X75143Y-18076D01*
X75143Y-17825D01*
X75047Y-17593D01*
X74870Y-17415D01*
X74638Y-17319D01*
X74387Y-17319D01*
X74363Y-17319D01*
X74131Y-17415D01*
X73953Y-17592D01*
X73857Y-17824D01*
X73857Y-18075D01*
X73953Y-18307D01*
X74130Y-18485D01*
X74362Y-18581D01*
X74613Y-18581D01*
X74637Y-18581D01*
X74869Y-18485D01*
X75047Y-18308D01*
X75143Y-18076D01*
X75143Y-20410D01*
X75131Y-20415D01*
X74953Y-20592D01*
X74857Y-20824D01*
X74857Y-21075D01*
X74953Y-21307D01*
X75130Y-21485D01*
X75362Y-21581D01*
X75613Y-21581D01*
X75637Y-21581D01*
X75869Y-21485D01*
X75950Y-21404D01*
X75950Y-45626D01*
M02*
