G04 (created by PCBNEW-RS274X (2012-01-19 BZR 3256)-stable) date 21/05/2012 10:04:41 p.m.*
G01*
G70*
G90*
%MOIN*%
G04 Gerber Fmt 3.4, Leading zero omitted, Abs format*
%FSLAX34Y34*%
G04 APERTURE LIST*
%ADD10C,0.006000*%
%ADD11C,0.015000*%
%ADD12C,0.008000*%
%ADD13C,0.003000*%
%ADD14C,0.010000*%
%ADD15C,0.012000*%
%ADD16C,0.005000*%
%ADD17C,0.100000*%
%ADD18C,0.003500*%
%ADD19C,0.011300*%
%ADD20C,0.007500*%
%ADD21C,0.012500*%
G04 APERTURE END LIST*
G54D10*
G54D11*
X63500Y-16000D02*
X63500Y-15750D01*
X63500Y-15750D02*
X67500Y-15750D01*
X67500Y-15750D02*
X67500Y-16000D01*
X63500Y-17500D02*
X63500Y-16000D01*
X63500Y-16000D02*
X67500Y-16000D01*
X67500Y-16000D02*
X67500Y-17500D01*
X67500Y-17500D02*
X63500Y-17500D01*
X56250Y-16000D02*
X56250Y-15750D01*
X56250Y-15750D02*
X60250Y-15750D01*
X60250Y-15750D02*
X60250Y-16000D01*
X56250Y-17500D02*
X56250Y-16000D01*
X56250Y-16000D02*
X60250Y-16000D01*
X60250Y-16000D02*
X60250Y-17500D01*
X60250Y-17500D02*
X56250Y-17500D01*
G54D12*
X56500Y-37500D02*
X56500Y-37300D01*
X56500Y-34500D02*
X56500Y-34700D01*
X56500Y-34700D02*
X56100Y-34700D01*
X56100Y-34700D02*
X56100Y-37300D01*
X56100Y-37300D02*
X56900Y-37300D01*
X56900Y-37300D02*
X56900Y-34700D01*
X56900Y-34700D02*
X56500Y-34700D01*
X56300Y-37300D02*
X56100Y-37100D01*
X42500Y-25750D02*
X42700Y-25750D01*
X45500Y-25750D02*
X45300Y-25750D01*
X45300Y-25750D02*
X45300Y-25350D01*
X45300Y-25350D02*
X42700Y-25350D01*
X42700Y-25350D02*
X42700Y-26150D01*
X42700Y-26150D02*
X45300Y-26150D01*
X45300Y-26150D02*
X45300Y-25750D01*
X42700Y-25550D02*
X42900Y-25350D01*
X48250Y-40000D02*
X48250Y-40200D01*
X48250Y-43000D02*
X48250Y-42800D01*
X48250Y-42800D02*
X48650Y-42800D01*
X48650Y-42800D02*
X48650Y-40200D01*
X48650Y-40200D02*
X47850Y-40200D01*
X47850Y-40200D02*
X47850Y-42800D01*
X47850Y-42800D02*
X48250Y-42800D01*
X48450Y-40200D02*
X48650Y-40400D01*
X69500Y-22750D02*
X69500Y-22550D01*
X69500Y-19750D02*
X69500Y-19950D01*
X69500Y-19950D02*
X69100Y-19950D01*
X69100Y-19950D02*
X69100Y-22550D01*
X69100Y-22550D02*
X69900Y-22550D01*
X69900Y-22550D02*
X69900Y-19950D01*
X69900Y-19950D02*
X69500Y-19950D01*
X69300Y-22550D02*
X69100Y-22350D01*
X63750Y-21250D02*
X63750Y-21050D01*
X63750Y-18250D02*
X63750Y-18450D01*
X63750Y-18450D02*
X63350Y-18450D01*
X63350Y-18450D02*
X63350Y-21050D01*
X63350Y-21050D02*
X64150Y-21050D01*
X64150Y-21050D02*
X64150Y-18450D01*
X64150Y-18450D02*
X63750Y-18450D01*
X63550Y-21050D02*
X63350Y-20850D01*
X67000Y-27000D02*
X66800Y-27000D01*
X64000Y-27000D02*
X64200Y-27000D01*
X64200Y-27000D02*
X64200Y-27400D01*
X64200Y-27400D02*
X66800Y-27400D01*
X66800Y-27400D02*
X66800Y-26600D01*
X66800Y-26600D02*
X64200Y-26600D01*
X64200Y-26600D02*
X64200Y-27000D01*
X66800Y-27200D02*
X66600Y-27400D01*
X59000Y-27250D02*
X58800Y-27250D01*
X56000Y-27250D02*
X56200Y-27250D01*
X56200Y-27250D02*
X56200Y-27650D01*
X56200Y-27650D02*
X58800Y-27650D01*
X58800Y-27650D02*
X58800Y-26850D01*
X58800Y-26850D02*
X56200Y-26850D01*
X56200Y-26850D02*
X56200Y-27250D01*
X58800Y-27450D02*
X58600Y-27650D01*
X57500Y-34500D02*
X57700Y-34500D01*
X60500Y-34500D02*
X60300Y-34500D01*
X60300Y-34500D02*
X60300Y-34100D01*
X60300Y-34100D02*
X57700Y-34100D01*
X57700Y-34100D02*
X57700Y-34900D01*
X57700Y-34900D02*
X60300Y-34900D01*
X60300Y-34900D02*
X60300Y-34500D01*
X57700Y-34300D02*
X57900Y-34100D01*
X44500Y-16000D02*
X44500Y-16200D01*
X44500Y-19000D02*
X44500Y-18800D01*
X44500Y-18800D02*
X44900Y-18800D01*
X44900Y-18800D02*
X44900Y-16200D01*
X44900Y-16200D02*
X44100Y-16200D01*
X44100Y-16200D02*
X44100Y-18800D01*
X44100Y-18800D02*
X44500Y-18800D01*
X44700Y-16200D02*
X44900Y-16400D01*
X48000Y-26000D02*
X48200Y-26000D01*
X51000Y-26000D02*
X50800Y-26000D01*
X50800Y-26000D02*
X50800Y-25600D01*
X50800Y-25600D02*
X48200Y-25600D01*
X48200Y-25600D02*
X48200Y-26400D01*
X48200Y-26400D02*
X50800Y-26400D01*
X50800Y-26400D02*
X50800Y-26000D01*
X48200Y-25800D02*
X48400Y-25600D01*
X56750Y-45500D02*
X56750Y-45300D01*
X56750Y-42500D02*
X56750Y-42700D01*
X56750Y-42700D02*
X56350Y-42700D01*
X56350Y-42700D02*
X56350Y-45300D01*
X56350Y-45300D02*
X57150Y-45300D01*
X57150Y-45300D02*
X57150Y-42700D01*
X57150Y-42700D02*
X56750Y-42700D01*
X56550Y-45300D02*
X56350Y-45100D01*
X54500Y-45500D02*
X54500Y-45300D01*
X54500Y-42500D02*
X54500Y-42700D01*
X54500Y-42700D02*
X54100Y-42700D01*
X54100Y-42700D02*
X54100Y-45300D01*
X54100Y-45300D02*
X54900Y-45300D01*
X54900Y-45300D02*
X54900Y-42700D01*
X54900Y-42700D02*
X54500Y-42700D01*
X54300Y-45300D02*
X54100Y-45100D01*
X43500Y-39750D02*
X43300Y-39750D01*
X40500Y-39750D02*
X40700Y-39750D01*
X40700Y-39750D02*
X40700Y-40150D01*
X40700Y-40150D02*
X43300Y-40150D01*
X43300Y-40150D02*
X43300Y-39350D01*
X43300Y-39350D02*
X40700Y-39350D01*
X40700Y-39350D02*
X40700Y-39750D01*
X43300Y-39950D02*
X43100Y-40150D01*
X52500Y-39500D02*
X52700Y-39500D01*
X55500Y-39500D02*
X55300Y-39500D01*
X55300Y-39500D02*
X55300Y-39100D01*
X55300Y-39100D02*
X52700Y-39100D01*
X52700Y-39100D02*
X52700Y-39900D01*
X52700Y-39900D02*
X55300Y-39900D01*
X55300Y-39900D02*
X55300Y-39500D01*
X52700Y-39300D02*
X52900Y-39100D01*
X65500Y-46000D02*
X65700Y-46000D01*
X68500Y-46000D02*
X68300Y-46000D01*
X68300Y-46000D02*
X68300Y-45600D01*
X68300Y-45600D02*
X65700Y-45600D01*
X65700Y-45600D02*
X65700Y-46400D01*
X65700Y-46400D02*
X68300Y-46400D01*
X68300Y-46400D02*
X68300Y-46000D01*
X65700Y-45800D02*
X65900Y-45600D01*
X65500Y-45000D02*
X65700Y-45000D01*
X68500Y-45000D02*
X68300Y-45000D01*
X68300Y-45000D02*
X68300Y-44600D01*
X68300Y-44600D02*
X65700Y-44600D01*
X65700Y-44600D02*
X65700Y-45400D01*
X65700Y-45400D02*
X68300Y-45400D01*
X68300Y-45400D02*
X68300Y-45000D01*
X65700Y-44800D02*
X65900Y-44600D01*
X69750Y-35250D02*
X69750Y-35050D01*
X69750Y-32250D02*
X69750Y-32450D01*
X69750Y-32450D02*
X69350Y-32450D01*
X69350Y-32450D02*
X69350Y-35050D01*
X69350Y-35050D02*
X70150Y-35050D01*
X70150Y-35050D02*
X70150Y-32450D01*
X70150Y-32450D02*
X69750Y-32450D01*
X69550Y-35050D02*
X69350Y-34850D01*
X69750Y-27500D02*
X69950Y-27500D01*
X72750Y-27500D02*
X72550Y-27500D01*
X72550Y-27500D02*
X72550Y-27100D01*
X72550Y-27100D02*
X69950Y-27100D01*
X69950Y-27100D02*
X69950Y-27900D01*
X69950Y-27900D02*
X72550Y-27900D01*
X72550Y-27900D02*
X72550Y-27500D01*
X69950Y-27300D02*
X70150Y-27100D01*
X74500Y-43000D02*
X74500Y-43200D01*
X74500Y-46000D02*
X74500Y-45800D01*
X74500Y-45800D02*
X74900Y-45800D01*
X74900Y-45800D02*
X74900Y-43200D01*
X74900Y-43200D02*
X74100Y-43200D01*
X74100Y-43200D02*
X74100Y-45800D01*
X74100Y-45800D02*
X74500Y-45800D01*
X74700Y-43200D02*
X74900Y-43400D01*
X71750Y-30000D02*
X71950Y-30000D01*
X74750Y-30000D02*
X74550Y-30000D01*
X74550Y-30000D02*
X74550Y-29600D01*
X74550Y-29600D02*
X71950Y-29600D01*
X71950Y-29600D02*
X71950Y-30400D01*
X71950Y-30400D02*
X74550Y-30400D01*
X74550Y-30400D02*
X74550Y-30000D01*
X71950Y-29800D02*
X72150Y-29600D01*
X52500Y-43750D02*
X52500Y-43550D01*
X52500Y-40750D02*
X52500Y-40950D01*
X52500Y-40950D02*
X52100Y-40950D01*
X52100Y-40950D02*
X52100Y-43550D01*
X52100Y-43550D02*
X52900Y-43550D01*
X52900Y-43550D02*
X52900Y-40950D01*
X52900Y-40950D02*
X52500Y-40950D01*
X52300Y-43550D02*
X52100Y-43350D01*
G54D10*
X62250Y-41000D02*
X63250Y-41000D01*
X63250Y-41000D02*
X63250Y-43000D01*
X63250Y-43000D02*
X62250Y-43000D01*
X62250Y-43000D02*
X62250Y-41000D01*
X63250Y-41000D02*
X64250Y-41000D01*
X64250Y-41000D02*
X64250Y-43000D01*
X64250Y-43000D02*
X63250Y-43000D01*
X63250Y-43000D02*
X63250Y-41000D01*
X65250Y-30000D02*
X64250Y-30000D01*
X64250Y-30000D02*
X64250Y-28000D01*
X64250Y-28000D02*
X65250Y-28000D01*
X65250Y-28000D02*
X65250Y-30000D01*
X64250Y-41000D02*
X65250Y-41000D01*
X65250Y-41000D02*
X65250Y-43000D01*
X65250Y-43000D02*
X64250Y-43000D01*
X64250Y-43000D02*
X64250Y-41000D01*
X65250Y-41000D02*
X66250Y-41000D01*
X66250Y-41000D02*
X66250Y-43000D01*
X66250Y-43000D02*
X65250Y-43000D01*
X65250Y-43000D02*
X65250Y-41000D01*
X66250Y-41000D02*
X67250Y-41000D01*
X67250Y-41000D02*
X67250Y-43000D01*
X67250Y-43000D02*
X66250Y-43000D01*
X66250Y-43000D02*
X66250Y-41000D01*
X60250Y-41000D02*
X61250Y-41000D01*
X61250Y-41000D02*
X61250Y-43000D01*
X61250Y-43000D02*
X60250Y-43000D01*
X60250Y-43000D02*
X60250Y-41000D01*
X59250Y-41000D02*
X60250Y-41000D01*
X60250Y-41000D02*
X60250Y-43000D01*
X60250Y-43000D02*
X59250Y-43000D01*
X59250Y-43000D02*
X59250Y-41000D01*
X61250Y-30000D02*
X60250Y-30000D01*
X60250Y-30000D02*
X60250Y-28000D01*
X60250Y-28000D02*
X61250Y-28000D01*
X61250Y-28000D02*
X61250Y-30000D01*
X62250Y-30000D02*
X61250Y-30000D01*
X61250Y-30000D02*
X61250Y-28000D01*
X61250Y-28000D02*
X62250Y-28000D01*
X62250Y-28000D02*
X62250Y-30000D01*
X63250Y-30000D02*
X62250Y-30000D01*
X62250Y-30000D02*
X62250Y-28000D01*
X62250Y-28000D02*
X63250Y-28000D01*
X63250Y-28000D02*
X63250Y-30000D01*
X64250Y-30000D02*
X63250Y-30000D01*
X63250Y-30000D02*
X63250Y-28000D01*
X63250Y-28000D02*
X64250Y-28000D01*
X64250Y-28000D02*
X64250Y-30000D01*
X61250Y-41000D02*
X62250Y-41000D01*
X62250Y-41000D02*
X62250Y-43000D01*
X62250Y-43000D02*
X61250Y-43000D01*
X61250Y-43000D02*
X61250Y-41000D01*
X47250Y-43000D02*
X46250Y-43000D01*
X46250Y-43000D02*
X46250Y-41000D01*
X46250Y-41000D02*
X47250Y-41000D01*
X47250Y-41000D02*
X47250Y-43000D01*
X45500Y-43000D02*
X44500Y-43000D01*
X44500Y-43000D02*
X44500Y-41000D01*
X44500Y-41000D02*
X45500Y-41000D01*
X45500Y-41000D02*
X45500Y-43000D01*
X43000Y-43000D02*
X42000Y-43000D01*
X42000Y-43000D02*
X42000Y-41000D01*
X42000Y-41000D02*
X43000Y-41000D01*
X43000Y-41000D02*
X43000Y-43000D01*
X41250Y-43000D02*
X40250Y-43000D01*
X40250Y-43000D02*
X40250Y-41000D01*
X40250Y-41000D02*
X41250Y-41000D01*
X41250Y-41000D02*
X41250Y-43000D01*
G54D12*
X48880Y-27000D02*
X48880Y-28500D01*
G54D13*
X50607Y-27750D02*
X50593Y-27887D01*
X50553Y-28019D01*
X50488Y-28141D01*
X50401Y-28248D01*
X50295Y-28336D01*
X50173Y-28401D01*
X50042Y-28442D01*
X49904Y-28456D01*
X49768Y-28444D01*
X49636Y-28405D01*
X49513Y-28341D01*
X49406Y-28255D01*
X49317Y-28149D01*
X49251Y-28028D01*
X49209Y-27896D01*
X49194Y-27759D01*
X49205Y-27623D01*
X49243Y-27490D01*
X49306Y-27368D01*
X49392Y-27259D01*
X49497Y-27170D01*
X49617Y-27103D01*
X49749Y-27060D01*
X49886Y-27044D01*
X50022Y-27054D01*
X50155Y-27091D01*
X50278Y-27154D01*
X50387Y-27239D01*
X50477Y-27343D01*
X50545Y-27463D01*
X50589Y-27594D01*
X50606Y-27731D01*
X50607Y-27750D01*
G54D14*
X48901Y-28500D02*
X48970Y-28584D01*
X49046Y-28662D01*
X49129Y-28733D01*
X49218Y-28797D01*
X49312Y-28852D01*
X49410Y-28899D01*
X49512Y-28938D01*
X49617Y-28967D01*
X49724Y-28987D01*
X49833Y-28998D01*
X49941Y-28999D01*
X50050Y-28990D01*
X50157Y-28973D01*
X50263Y-28946D01*
X50366Y-28909D01*
X50465Y-28864D01*
X50560Y-28811D01*
X50650Y-28749D01*
X50734Y-28680D01*
X50812Y-28604D01*
X50883Y-28521D01*
X50947Y-28432D01*
X51002Y-28338D01*
X51049Y-28240D01*
X51088Y-28138D01*
X51117Y-28033D01*
X51137Y-27926D01*
X51148Y-27817D01*
X51149Y-27709D01*
X51140Y-27600D01*
X51123Y-27493D01*
X51096Y-27387D01*
X51059Y-27284D01*
X51014Y-27185D01*
X50961Y-27090D01*
X50899Y-27000D01*
X50830Y-26916D01*
X50754Y-26838D01*
X50671Y-26767D01*
X50582Y-26703D01*
X50488Y-26648D01*
X50390Y-26601D01*
X50288Y-26562D01*
X50183Y-26533D01*
X50076Y-26513D01*
X49967Y-26502D01*
X49859Y-26501D01*
X49750Y-26510D01*
X49643Y-26527D01*
X49537Y-26554D01*
X49434Y-26591D01*
X49335Y-26636D01*
X49240Y-26689D01*
X49150Y-26751D01*
X49066Y-26820D01*
X48988Y-26896D01*
X48917Y-26979D01*
X48901Y-27000D01*
G54D10*
X49900Y-28200D02*
X49939Y-28198D01*
X49978Y-28193D01*
X50016Y-28184D01*
X50053Y-28172D01*
X50090Y-28157D01*
X50125Y-28139D01*
X50158Y-28118D01*
X50189Y-28094D01*
X50218Y-28068D01*
X50244Y-28039D01*
X50268Y-28008D01*
X50289Y-27974D01*
X50307Y-27940D01*
X50322Y-27903D01*
X50334Y-27866D01*
X50343Y-27828D01*
X50348Y-27789D01*
X50350Y-27750D01*
X49900Y-27300D02*
X49861Y-27302D01*
X49822Y-27307D01*
X49784Y-27316D01*
X49747Y-27328D01*
X49710Y-27343D01*
X49676Y-27361D01*
X49642Y-27382D01*
X49611Y-27406D01*
X49582Y-27432D01*
X49556Y-27461D01*
X49532Y-27492D01*
X49511Y-27526D01*
X49493Y-27560D01*
X49478Y-27597D01*
X49466Y-27634D01*
X49457Y-27672D01*
X49452Y-27711D01*
X49450Y-27750D01*
X49900Y-28400D02*
X49956Y-28397D01*
X50012Y-28390D01*
X50068Y-28377D01*
X50122Y-28360D01*
X50174Y-28339D01*
X50225Y-28312D01*
X50272Y-28282D01*
X50317Y-28247D01*
X50359Y-28209D01*
X50397Y-28167D01*
X50432Y-28122D01*
X50462Y-28074D01*
X50489Y-28024D01*
X50510Y-27972D01*
X50527Y-27918D01*
X50540Y-27862D01*
X50547Y-27806D01*
X50550Y-27750D01*
X49900Y-27100D02*
X49844Y-27103D01*
X49788Y-27110D01*
X49732Y-27123D01*
X49678Y-27140D01*
X49626Y-27161D01*
X49576Y-27188D01*
X49528Y-27218D01*
X49483Y-27253D01*
X49441Y-27291D01*
X49403Y-27333D01*
X49368Y-27378D01*
X49338Y-27426D01*
X49311Y-27476D01*
X49290Y-27528D01*
X49273Y-27582D01*
X49260Y-27638D01*
X49253Y-27694D01*
X49250Y-27750D01*
X49900Y-28600D02*
X49974Y-28596D01*
X50047Y-28587D01*
X50119Y-28571D01*
X50190Y-28548D01*
X50259Y-28520D01*
X50325Y-28486D01*
X50387Y-28446D01*
X50446Y-28401D01*
X50501Y-28351D01*
X50551Y-28296D01*
X50596Y-28237D01*
X50636Y-28174D01*
X50670Y-28109D01*
X50698Y-28040D01*
X50721Y-27969D01*
X50737Y-27897D01*
X50746Y-27824D01*
X50750Y-27750D01*
X49900Y-26900D02*
X49826Y-26904D01*
X49753Y-26913D01*
X49681Y-26929D01*
X49610Y-26952D01*
X49541Y-26980D01*
X49476Y-27014D01*
X49413Y-27054D01*
X49354Y-27099D01*
X49299Y-27149D01*
X49249Y-27204D01*
X49204Y-27263D01*
X49164Y-27326D01*
X49130Y-27391D01*
X49102Y-27460D01*
X49079Y-27531D01*
X49063Y-27603D01*
X49054Y-27676D01*
X49050Y-27750D01*
G54D12*
X47500Y-45870D02*
X49000Y-45870D01*
G54D13*
X48957Y-44850D02*
X48943Y-44987D01*
X48903Y-45119D01*
X48838Y-45241D01*
X48751Y-45348D01*
X48645Y-45436D01*
X48523Y-45501D01*
X48392Y-45542D01*
X48254Y-45556D01*
X48118Y-45544D01*
X47986Y-45505D01*
X47863Y-45441D01*
X47756Y-45355D01*
X47667Y-45249D01*
X47601Y-45128D01*
X47559Y-44996D01*
X47544Y-44859D01*
X47555Y-44723D01*
X47593Y-44590D01*
X47656Y-44468D01*
X47742Y-44359D01*
X47847Y-44270D01*
X47967Y-44203D01*
X48099Y-44160D01*
X48236Y-44144D01*
X48372Y-44154D01*
X48505Y-44191D01*
X48628Y-44254D01*
X48737Y-44339D01*
X48827Y-44443D01*
X48895Y-44563D01*
X48939Y-44694D01*
X48956Y-44831D01*
X48957Y-44850D01*
G54D14*
X49000Y-45849D02*
X49084Y-45780D01*
X49162Y-45704D01*
X49233Y-45621D01*
X49297Y-45532D01*
X49352Y-45438D01*
X49399Y-45340D01*
X49438Y-45238D01*
X49467Y-45133D01*
X49487Y-45026D01*
X49498Y-44917D01*
X49499Y-44809D01*
X49490Y-44700D01*
X49473Y-44593D01*
X49446Y-44487D01*
X49409Y-44384D01*
X49364Y-44285D01*
X49311Y-44190D01*
X49249Y-44100D01*
X49180Y-44016D01*
X49104Y-43938D01*
X49021Y-43867D01*
X48932Y-43803D01*
X48838Y-43748D01*
X48740Y-43701D01*
X48638Y-43662D01*
X48533Y-43633D01*
X48426Y-43613D01*
X48317Y-43602D01*
X48209Y-43601D01*
X48100Y-43610D01*
X47993Y-43627D01*
X47887Y-43654D01*
X47784Y-43691D01*
X47685Y-43736D01*
X47590Y-43789D01*
X47500Y-43851D01*
X47416Y-43920D01*
X47338Y-43996D01*
X47267Y-44079D01*
X47203Y-44168D01*
X47148Y-44262D01*
X47101Y-44360D01*
X47062Y-44462D01*
X47033Y-44567D01*
X47013Y-44674D01*
X47002Y-44783D01*
X47001Y-44891D01*
X47010Y-45000D01*
X47027Y-45107D01*
X47054Y-45213D01*
X47091Y-45316D01*
X47136Y-45415D01*
X47189Y-45510D01*
X47251Y-45600D01*
X47320Y-45684D01*
X47396Y-45762D01*
X47479Y-45833D01*
X47500Y-45849D01*
G54D10*
X48700Y-44850D02*
X48698Y-44811D01*
X48693Y-44772D01*
X48684Y-44734D01*
X48672Y-44697D01*
X48657Y-44660D01*
X48639Y-44626D01*
X48618Y-44592D01*
X48594Y-44561D01*
X48568Y-44532D01*
X48539Y-44506D01*
X48508Y-44482D01*
X48475Y-44461D01*
X48440Y-44443D01*
X48403Y-44428D01*
X48366Y-44416D01*
X48328Y-44407D01*
X48289Y-44402D01*
X48250Y-44400D01*
X47800Y-44850D02*
X47802Y-44889D01*
X47807Y-44928D01*
X47816Y-44966D01*
X47828Y-45003D01*
X47843Y-45040D01*
X47861Y-45074D01*
X47882Y-45108D01*
X47906Y-45139D01*
X47932Y-45168D01*
X47961Y-45194D01*
X47992Y-45218D01*
X48026Y-45239D01*
X48060Y-45257D01*
X48097Y-45272D01*
X48134Y-45284D01*
X48172Y-45293D01*
X48211Y-45298D01*
X48250Y-45300D01*
X48900Y-44850D02*
X48897Y-44794D01*
X48890Y-44738D01*
X48877Y-44682D01*
X48860Y-44628D01*
X48839Y-44576D01*
X48812Y-44526D01*
X48782Y-44478D01*
X48747Y-44433D01*
X48709Y-44391D01*
X48667Y-44353D01*
X48622Y-44318D01*
X48575Y-44288D01*
X48524Y-44261D01*
X48472Y-44240D01*
X48418Y-44223D01*
X48362Y-44210D01*
X48306Y-44203D01*
X48250Y-44200D01*
X47600Y-44850D02*
X47603Y-44906D01*
X47610Y-44962D01*
X47623Y-45018D01*
X47640Y-45072D01*
X47661Y-45124D01*
X47688Y-45174D01*
X47718Y-45222D01*
X47753Y-45267D01*
X47791Y-45309D01*
X47833Y-45347D01*
X47878Y-45382D01*
X47926Y-45412D01*
X47976Y-45439D01*
X48028Y-45460D01*
X48082Y-45477D01*
X48138Y-45490D01*
X48194Y-45497D01*
X48250Y-45500D01*
X49100Y-44850D02*
X49096Y-44776D01*
X49087Y-44703D01*
X49071Y-44631D01*
X49048Y-44560D01*
X49020Y-44491D01*
X48986Y-44426D01*
X48946Y-44363D01*
X48901Y-44304D01*
X48851Y-44249D01*
X48796Y-44199D01*
X48737Y-44154D01*
X48675Y-44114D01*
X48609Y-44080D01*
X48540Y-44052D01*
X48469Y-44029D01*
X48397Y-44013D01*
X48324Y-44004D01*
X48250Y-44000D01*
X47400Y-44850D02*
X47404Y-44924D01*
X47413Y-44997D01*
X47429Y-45069D01*
X47452Y-45140D01*
X47480Y-45209D01*
X47514Y-45274D01*
X47554Y-45337D01*
X47599Y-45396D01*
X47649Y-45451D01*
X47704Y-45501D01*
X47763Y-45546D01*
X47826Y-45586D01*
X47891Y-45620D01*
X47960Y-45648D01*
X48031Y-45671D01*
X48103Y-45687D01*
X48176Y-45696D01*
X48250Y-45700D01*
G54D12*
X62750Y-24130D02*
X61250Y-24130D01*
G54D13*
X62707Y-25150D02*
X62693Y-25287D01*
X62653Y-25419D01*
X62588Y-25541D01*
X62501Y-25648D01*
X62395Y-25736D01*
X62273Y-25801D01*
X62142Y-25842D01*
X62004Y-25856D01*
X61868Y-25844D01*
X61736Y-25805D01*
X61613Y-25741D01*
X61506Y-25655D01*
X61417Y-25549D01*
X61351Y-25428D01*
X61309Y-25296D01*
X61294Y-25159D01*
X61305Y-25023D01*
X61343Y-24890D01*
X61406Y-24768D01*
X61492Y-24659D01*
X61597Y-24570D01*
X61717Y-24503D01*
X61849Y-24460D01*
X61986Y-24444D01*
X62122Y-24454D01*
X62255Y-24491D01*
X62378Y-24554D01*
X62487Y-24639D01*
X62577Y-24743D01*
X62645Y-24863D01*
X62689Y-24994D01*
X62706Y-25131D01*
X62707Y-25150D01*
G54D14*
X61250Y-24151D02*
X61166Y-24220D01*
X61088Y-24296D01*
X61017Y-24379D01*
X60953Y-24468D01*
X60898Y-24562D01*
X60851Y-24660D01*
X60812Y-24762D01*
X60783Y-24867D01*
X60763Y-24974D01*
X60752Y-25083D01*
X60751Y-25191D01*
X60760Y-25300D01*
X60777Y-25407D01*
X60804Y-25513D01*
X60841Y-25616D01*
X60886Y-25715D01*
X60939Y-25810D01*
X61001Y-25900D01*
X61070Y-25984D01*
X61146Y-26062D01*
X61229Y-26133D01*
X61318Y-26197D01*
X61412Y-26252D01*
X61510Y-26299D01*
X61612Y-26338D01*
X61717Y-26367D01*
X61824Y-26387D01*
X61933Y-26398D01*
X62041Y-26399D01*
X62150Y-26390D01*
X62257Y-26373D01*
X62363Y-26346D01*
X62466Y-26309D01*
X62565Y-26264D01*
X62660Y-26211D01*
X62750Y-26149D01*
X62834Y-26080D01*
X62912Y-26004D01*
X62983Y-25921D01*
X63047Y-25832D01*
X63102Y-25738D01*
X63149Y-25640D01*
X63188Y-25538D01*
X63217Y-25433D01*
X63237Y-25326D01*
X63248Y-25217D01*
X63249Y-25109D01*
X63240Y-25000D01*
X63223Y-24893D01*
X63196Y-24787D01*
X63159Y-24684D01*
X63114Y-24585D01*
X63061Y-24490D01*
X62999Y-24400D01*
X62930Y-24316D01*
X62854Y-24238D01*
X62771Y-24167D01*
X62750Y-24151D01*
G54D10*
X61550Y-25150D02*
X61552Y-25189D01*
X61557Y-25228D01*
X61566Y-25266D01*
X61578Y-25303D01*
X61593Y-25340D01*
X61611Y-25374D01*
X61632Y-25408D01*
X61656Y-25439D01*
X61682Y-25468D01*
X61711Y-25494D01*
X61742Y-25518D01*
X61776Y-25539D01*
X61810Y-25557D01*
X61847Y-25572D01*
X61884Y-25584D01*
X61922Y-25593D01*
X61961Y-25598D01*
X62000Y-25600D01*
X62450Y-25150D02*
X62448Y-25111D01*
X62443Y-25072D01*
X62434Y-25034D01*
X62422Y-24997D01*
X62407Y-24960D01*
X62389Y-24926D01*
X62368Y-24892D01*
X62344Y-24861D01*
X62318Y-24832D01*
X62289Y-24806D01*
X62258Y-24782D01*
X62225Y-24761D01*
X62190Y-24743D01*
X62153Y-24728D01*
X62116Y-24716D01*
X62078Y-24707D01*
X62039Y-24702D01*
X62000Y-24700D01*
X61350Y-25150D02*
X61353Y-25206D01*
X61360Y-25262D01*
X61373Y-25318D01*
X61390Y-25372D01*
X61411Y-25424D01*
X61438Y-25474D01*
X61468Y-25522D01*
X61503Y-25567D01*
X61541Y-25609D01*
X61583Y-25647D01*
X61628Y-25682D01*
X61676Y-25712D01*
X61726Y-25739D01*
X61778Y-25760D01*
X61832Y-25777D01*
X61888Y-25790D01*
X61944Y-25797D01*
X62000Y-25800D01*
X62650Y-25150D02*
X62647Y-25094D01*
X62640Y-25038D01*
X62627Y-24982D01*
X62610Y-24928D01*
X62589Y-24876D01*
X62562Y-24826D01*
X62532Y-24778D01*
X62497Y-24733D01*
X62459Y-24691D01*
X62417Y-24653D01*
X62372Y-24618D01*
X62325Y-24588D01*
X62274Y-24561D01*
X62222Y-24540D01*
X62168Y-24523D01*
X62112Y-24510D01*
X62056Y-24503D01*
X62000Y-24500D01*
X61150Y-25150D02*
X61154Y-25224D01*
X61163Y-25297D01*
X61179Y-25369D01*
X61202Y-25440D01*
X61230Y-25509D01*
X61264Y-25574D01*
X61304Y-25637D01*
X61349Y-25696D01*
X61399Y-25751D01*
X61454Y-25801D01*
X61513Y-25846D01*
X61576Y-25886D01*
X61641Y-25920D01*
X61710Y-25948D01*
X61781Y-25971D01*
X61853Y-25987D01*
X61926Y-25996D01*
X62000Y-26000D01*
X62850Y-25150D02*
X62846Y-25076D01*
X62837Y-25003D01*
X62821Y-24931D01*
X62798Y-24860D01*
X62770Y-24791D01*
X62736Y-24726D01*
X62696Y-24663D01*
X62651Y-24604D01*
X62601Y-24549D01*
X62546Y-24499D01*
X62487Y-24454D01*
X62425Y-24414D01*
X62359Y-24380D01*
X62290Y-24352D01*
X62219Y-24329D01*
X62147Y-24313D01*
X62074Y-24304D01*
X62000Y-24300D01*
G54D12*
X54500Y-25880D02*
X53000Y-25880D01*
G54D13*
X54457Y-26900D02*
X54443Y-27037D01*
X54403Y-27169D01*
X54338Y-27291D01*
X54251Y-27398D01*
X54145Y-27486D01*
X54023Y-27551D01*
X53892Y-27592D01*
X53754Y-27606D01*
X53618Y-27594D01*
X53486Y-27555D01*
X53363Y-27491D01*
X53256Y-27405D01*
X53167Y-27299D01*
X53101Y-27178D01*
X53059Y-27046D01*
X53044Y-26909D01*
X53055Y-26773D01*
X53093Y-26640D01*
X53156Y-26518D01*
X53242Y-26409D01*
X53347Y-26320D01*
X53467Y-26253D01*
X53599Y-26210D01*
X53736Y-26194D01*
X53872Y-26204D01*
X54005Y-26241D01*
X54128Y-26304D01*
X54237Y-26389D01*
X54327Y-26493D01*
X54395Y-26613D01*
X54439Y-26744D01*
X54456Y-26881D01*
X54457Y-26900D01*
G54D14*
X53000Y-25901D02*
X52916Y-25970D01*
X52838Y-26046D01*
X52767Y-26129D01*
X52703Y-26218D01*
X52648Y-26312D01*
X52601Y-26410D01*
X52562Y-26512D01*
X52533Y-26617D01*
X52513Y-26724D01*
X52502Y-26833D01*
X52501Y-26941D01*
X52510Y-27050D01*
X52527Y-27157D01*
X52554Y-27263D01*
X52591Y-27366D01*
X52636Y-27465D01*
X52689Y-27560D01*
X52751Y-27650D01*
X52820Y-27734D01*
X52896Y-27812D01*
X52979Y-27883D01*
X53068Y-27947D01*
X53162Y-28002D01*
X53260Y-28049D01*
X53362Y-28088D01*
X53467Y-28117D01*
X53574Y-28137D01*
X53683Y-28148D01*
X53791Y-28149D01*
X53900Y-28140D01*
X54007Y-28123D01*
X54113Y-28096D01*
X54216Y-28059D01*
X54315Y-28014D01*
X54410Y-27961D01*
X54500Y-27899D01*
X54584Y-27830D01*
X54662Y-27754D01*
X54733Y-27671D01*
X54797Y-27582D01*
X54852Y-27488D01*
X54899Y-27390D01*
X54938Y-27288D01*
X54967Y-27183D01*
X54987Y-27076D01*
X54998Y-26967D01*
X54999Y-26859D01*
X54990Y-26750D01*
X54973Y-26643D01*
X54946Y-26537D01*
X54909Y-26434D01*
X54864Y-26335D01*
X54811Y-26240D01*
X54749Y-26150D01*
X54680Y-26066D01*
X54604Y-25988D01*
X54521Y-25917D01*
X54500Y-25901D01*
G54D10*
X53300Y-26900D02*
X53302Y-26939D01*
X53307Y-26978D01*
X53316Y-27016D01*
X53328Y-27053D01*
X53343Y-27090D01*
X53361Y-27124D01*
X53382Y-27158D01*
X53406Y-27189D01*
X53432Y-27218D01*
X53461Y-27244D01*
X53492Y-27268D01*
X53526Y-27289D01*
X53560Y-27307D01*
X53597Y-27322D01*
X53634Y-27334D01*
X53672Y-27343D01*
X53711Y-27348D01*
X53750Y-27350D01*
X54200Y-26900D02*
X54198Y-26861D01*
X54193Y-26822D01*
X54184Y-26784D01*
X54172Y-26747D01*
X54157Y-26710D01*
X54139Y-26676D01*
X54118Y-26642D01*
X54094Y-26611D01*
X54068Y-26582D01*
X54039Y-26556D01*
X54008Y-26532D01*
X53975Y-26511D01*
X53940Y-26493D01*
X53903Y-26478D01*
X53866Y-26466D01*
X53828Y-26457D01*
X53789Y-26452D01*
X53750Y-26450D01*
X53100Y-26900D02*
X53103Y-26956D01*
X53110Y-27012D01*
X53123Y-27068D01*
X53140Y-27122D01*
X53161Y-27174D01*
X53188Y-27224D01*
X53218Y-27272D01*
X53253Y-27317D01*
X53291Y-27359D01*
X53333Y-27397D01*
X53378Y-27432D01*
X53426Y-27462D01*
X53476Y-27489D01*
X53528Y-27510D01*
X53582Y-27527D01*
X53638Y-27540D01*
X53694Y-27547D01*
X53750Y-27550D01*
X54400Y-26900D02*
X54397Y-26844D01*
X54390Y-26788D01*
X54377Y-26732D01*
X54360Y-26678D01*
X54339Y-26626D01*
X54312Y-26576D01*
X54282Y-26528D01*
X54247Y-26483D01*
X54209Y-26441D01*
X54167Y-26403D01*
X54122Y-26368D01*
X54075Y-26338D01*
X54024Y-26311D01*
X53972Y-26290D01*
X53918Y-26273D01*
X53862Y-26260D01*
X53806Y-26253D01*
X53750Y-26250D01*
X52900Y-26900D02*
X52904Y-26974D01*
X52913Y-27047D01*
X52929Y-27119D01*
X52952Y-27190D01*
X52980Y-27259D01*
X53014Y-27324D01*
X53054Y-27387D01*
X53099Y-27446D01*
X53149Y-27501D01*
X53204Y-27551D01*
X53263Y-27596D01*
X53326Y-27636D01*
X53391Y-27670D01*
X53460Y-27698D01*
X53531Y-27721D01*
X53603Y-27737D01*
X53676Y-27746D01*
X53750Y-27750D01*
X54600Y-26900D02*
X54596Y-26826D01*
X54587Y-26753D01*
X54571Y-26681D01*
X54548Y-26610D01*
X54520Y-26541D01*
X54486Y-26476D01*
X54446Y-26413D01*
X54401Y-26354D01*
X54351Y-26299D01*
X54296Y-26249D01*
X54237Y-26204D01*
X54175Y-26164D01*
X54109Y-26130D01*
X54040Y-26102D01*
X53969Y-26079D01*
X53897Y-26063D01*
X53824Y-26054D01*
X53750Y-26050D01*
G54D11*
X58500Y-22750D02*
X58500Y-26250D01*
X58500Y-26250D02*
X56500Y-26250D01*
X56500Y-26250D02*
X56500Y-22750D01*
X56500Y-22750D02*
X58500Y-22750D01*
X57750Y-22750D02*
X57750Y-23250D01*
X57750Y-23250D02*
X57250Y-23250D01*
X57250Y-23250D02*
X57250Y-22750D01*
X66500Y-22000D02*
X66500Y-25500D01*
X66500Y-25500D02*
X64500Y-25500D01*
X64500Y-25500D02*
X64500Y-22000D01*
X64500Y-22000D02*
X66500Y-22000D01*
X65750Y-22000D02*
X65750Y-22500D01*
X65750Y-22500D02*
X65250Y-22500D01*
X65250Y-22500D02*
X65250Y-22000D01*
X63500Y-30500D02*
X63500Y-31000D01*
X63500Y-31000D02*
X62500Y-31000D01*
X62500Y-31000D02*
X62500Y-30500D01*
X64000Y-30500D02*
X64000Y-40500D01*
X64000Y-40500D02*
X62000Y-40500D01*
X62000Y-40500D02*
X62000Y-30500D01*
X62000Y-30500D02*
X64000Y-30500D01*
G54D15*
X39500Y-21250D02*
X39500Y-24250D01*
X39500Y-24250D02*
X38500Y-24250D01*
X38500Y-24250D02*
X38500Y-21250D01*
X38500Y-21250D02*
X39500Y-21250D01*
X39500Y-24000D02*
X38500Y-24000D01*
X38500Y-23750D02*
X39500Y-23750D01*
X39000Y-21250D02*
X39000Y-20750D01*
X39000Y-24250D02*
X39000Y-24750D01*
X50000Y-30000D02*
X50000Y-33000D01*
X50000Y-33000D02*
X49000Y-33000D01*
X49000Y-33000D02*
X49000Y-30000D01*
X49000Y-30000D02*
X50000Y-30000D01*
X50000Y-32750D02*
X49000Y-32750D01*
X49000Y-32500D02*
X50000Y-32500D01*
X49500Y-30000D02*
X49500Y-29500D01*
X49500Y-33000D02*
X49500Y-33500D01*
X71500Y-22750D02*
X71500Y-25750D01*
X71500Y-25750D02*
X70500Y-25750D01*
X70500Y-25750D02*
X70500Y-22750D01*
X70500Y-22750D02*
X71500Y-22750D01*
X71500Y-25500D02*
X70500Y-25500D01*
X70500Y-25250D02*
X71500Y-25250D01*
X71000Y-22750D02*
X71000Y-22250D01*
X71000Y-25750D02*
X71000Y-26250D01*
X68750Y-26500D02*
X68750Y-29500D01*
X68750Y-29500D02*
X67750Y-29500D01*
X67750Y-29500D02*
X67750Y-26500D01*
X67750Y-26500D02*
X68750Y-26500D01*
X68750Y-29250D02*
X67750Y-29250D01*
X67750Y-29000D02*
X68750Y-29000D01*
X68250Y-26500D02*
X68250Y-26000D01*
X68250Y-29500D02*
X68250Y-30000D01*
X45500Y-24250D02*
X45200Y-24250D01*
X45200Y-24250D02*
X45200Y-23850D01*
X45200Y-23850D02*
X42800Y-23850D01*
X42800Y-23850D02*
X42800Y-24250D01*
X42800Y-24250D02*
X42500Y-24250D01*
X42800Y-24250D02*
X42800Y-24650D01*
X42800Y-24650D02*
X45200Y-24650D01*
X45200Y-24650D02*
X45200Y-24250D01*
X45000Y-23850D02*
X45000Y-24650D01*
X44900Y-24650D02*
X44900Y-23850D01*
X73250Y-43000D02*
X73250Y-43300D01*
X73250Y-43300D02*
X72850Y-43300D01*
X72850Y-43300D02*
X72850Y-45700D01*
X72850Y-45700D02*
X73250Y-45700D01*
X73250Y-45700D02*
X73250Y-46000D01*
X73250Y-45700D02*
X73650Y-45700D01*
X73650Y-45700D02*
X73650Y-43300D01*
X73650Y-43300D02*
X73250Y-43300D01*
X72850Y-43500D02*
X73650Y-43500D01*
X73650Y-43600D02*
X72850Y-43600D01*
X40750Y-20750D02*
X40750Y-21050D01*
X40750Y-21050D02*
X40350Y-21050D01*
X40350Y-21050D02*
X40350Y-23450D01*
X40350Y-23450D02*
X40750Y-23450D01*
X40750Y-23450D02*
X40750Y-23750D01*
X40750Y-23450D02*
X41150Y-23450D01*
X41150Y-23450D02*
X41150Y-21050D01*
X41150Y-21050D02*
X40750Y-21050D01*
X40350Y-21250D02*
X41150Y-21250D01*
X41150Y-21350D02*
X40350Y-21350D01*
X55500Y-37500D02*
X55500Y-37200D01*
X55500Y-37200D02*
X55900Y-37200D01*
X55900Y-37200D02*
X55900Y-34800D01*
X55900Y-34800D02*
X55500Y-34800D01*
X55500Y-34800D02*
X55500Y-34500D01*
X55500Y-34800D02*
X55100Y-34800D01*
X55100Y-34800D02*
X55100Y-37200D01*
X55100Y-37200D02*
X55500Y-37200D01*
X55900Y-37000D02*
X55100Y-37000D01*
X55100Y-36900D02*
X55900Y-36900D01*
X71750Y-41000D02*
X71750Y-40700D01*
X71750Y-40700D02*
X72150Y-40700D01*
X72150Y-40700D02*
X72150Y-38300D01*
X72150Y-38300D02*
X71750Y-38300D01*
X71750Y-38300D02*
X71750Y-38000D01*
X71750Y-38300D02*
X71350Y-38300D01*
X71350Y-38300D02*
X71350Y-40700D01*
X71350Y-40700D02*
X71750Y-40700D01*
X72150Y-40500D02*
X71350Y-40500D01*
X71350Y-40400D02*
X72150Y-40400D01*
G54D12*
X68100Y-19750D02*
X68069Y-20060D01*
X67979Y-20359D01*
X67832Y-20635D01*
X67635Y-20877D01*
X67394Y-21076D01*
X67120Y-21224D01*
X66821Y-21317D01*
X66511Y-21349D01*
X66201Y-21321D01*
X65901Y-21233D01*
X65624Y-21088D01*
X65381Y-20893D01*
X65180Y-20653D01*
X65030Y-20380D01*
X64935Y-20082D01*
X64901Y-19772D01*
X64927Y-19462D01*
X65013Y-19162D01*
X65156Y-18884D01*
X65350Y-18639D01*
X65587Y-18437D01*
X65860Y-18284D01*
X66157Y-18188D01*
X66467Y-18151D01*
X66777Y-18175D01*
X67078Y-18259D01*
X67357Y-18400D01*
X67603Y-18592D01*
X67807Y-18828D01*
X67961Y-19100D01*
X68060Y-19396D01*
X68099Y-19706D01*
X68100Y-19750D01*
X41600Y-27250D02*
X41569Y-27560D01*
X41479Y-27859D01*
X41332Y-28135D01*
X41135Y-28377D01*
X40894Y-28576D01*
X40620Y-28724D01*
X40321Y-28817D01*
X40011Y-28849D01*
X39701Y-28821D01*
X39401Y-28733D01*
X39124Y-28588D01*
X38881Y-28393D01*
X38680Y-28153D01*
X38530Y-27880D01*
X38435Y-27582D01*
X38401Y-27272D01*
X38427Y-26962D01*
X38513Y-26662D01*
X38656Y-26384D01*
X38850Y-26139D01*
X39087Y-25937D01*
X39360Y-25784D01*
X39657Y-25688D01*
X39967Y-25651D01*
X40277Y-25675D01*
X40578Y-25759D01*
X40857Y-25900D01*
X41103Y-26092D01*
X41307Y-26328D01*
X41461Y-26600D01*
X41560Y-26896D01*
X41599Y-27206D01*
X41600Y-27250D01*
X59600Y-20000D02*
X59569Y-20310D01*
X59479Y-20609D01*
X59332Y-20885D01*
X59135Y-21127D01*
X58894Y-21326D01*
X58620Y-21474D01*
X58321Y-21567D01*
X58011Y-21599D01*
X57701Y-21571D01*
X57401Y-21483D01*
X57124Y-21338D01*
X56881Y-21143D01*
X56680Y-20903D01*
X56530Y-20630D01*
X56435Y-20332D01*
X56401Y-20022D01*
X56427Y-19712D01*
X56513Y-19412D01*
X56656Y-19134D01*
X56850Y-18889D01*
X57087Y-18687D01*
X57360Y-18534D01*
X57657Y-18438D01*
X57967Y-18401D01*
X58277Y-18425D01*
X58578Y-18509D01*
X58857Y-18650D01*
X59103Y-18842D01*
X59307Y-19078D01*
X59461Y-19350D01*
X59560Y-19646D01*
X59599Y-19956D01*
X59600Y-20000D01*
G54D16*
X71501Y-17750D02*
X71481Y-17944D01*
X71425Y-18131D01*
X71333Y-18303D01*
X71210Y-18455D01*
X71059Y-18579D01*
X70887Y-18672D01*
X70701Y-18730D01*
X70506Y-18750D01*
X70313Y-18733D01*
X70126Y-18678D01*
X69952Y-18587D01*
X69800Y-18465D01*
X69675Y-18315D01*
X69580Y-18144D01*
X69521Y-17958D01*
X69500Y-17763D01*
X69516Y-17570D01*
X69570Y-17382D01*
X69659Y-17208D01*
X69780Y-17055D01*
X69929Y-16929D01*
X70100Y-16833D01*
X70286Y-16773D01*
X70480Y-16750D01*
X70673Y-16765D01*
X70861Y-16817D01*
X71036Y-16905D01*
X71190Y-17026D01*
X71317Y-17173D01*
X71414Y-17343D01*
X71476Y-17529D01*
X71500Y-17723D01*
X71501Y-17750D01*
X70751Y-38500D02*
X70731Y-38694D01*
X70675Y-38881D01*
X70583Y-39053D01*
X70460Y-39205D01*
X70309Y-39329D01*
X70137Y-39422D01*
X69951Y-39480D01*
X69756Y-39500D01*
X69563Y-39483D01*
X69376Y-39428D01*
X69202Y-39337D01*
X69050Y-39215D01*
X68925Y-39065D01*
X68830Y-38894D01*
X68771Y-38708D01*
X68750Y-38513D01*
X68766Y-38320D01*
X68820Y-38132D01*
X68909Y-37958D01*
X69030Y-37805D01*
X69179Y-37679D01*
X69350Y-37583D01*
X69536Y-37523D01*
X69730Y-37500D01*
X69923Y-37515D01*
X70111Y-37567D01*
X70286Y-37655D01*
X70440Y-37776D01*
X70567Y-37923D01*
X70664Y-38093D01*
X70726Y-38279D01*
X70750Y-38473D01*
X70751Y-38500D01*
X71251Y-30500D02*
X71231Y-30694D01*
X71175Y-30881D01*
X71083Y-31053D01*
X70960Y-31205D01*
X70809Y-31329D01*
X70637Y-31422D01*
X70451Y-31480D01*
X70256Y-31500D01*
X70063Y-31483D01*
X69876Y-31428D01*
X69702Y-31337D01*
X69550Y-31215D01*
X69425Y-31065D01*
X69330Y-30894D01*
X69271Y-30708D01*
X69250Y-30513D01*
X69266Y-30320D01*
X69320Y-30132D01*
X69409Y-29958D01*
X69530Y-29805D01*
X69679Y-29679D01*
X69850Y-29583D01*
X70036Y-29523D01*
X70230Y-29500D01*
X70423Y-29515D01*
X70611Y-29567D01*
X70786Y-29655D01*
X70940Y-29776D01*
X71067Y-29923D01*
X71164Y-30093D01*
X71226Y-30279D01*
X71250Y-30473D01*
X71251Y-30500D01*
G54D15*
X40020Y-36500D02*
X42000Y-36500D01*
X42000Y-36500D02*
X42000Y-37500D01*
X42000Y-37500D02*
X40000Y-37500D01*
X40000Y-37500D02*
X40000Y-36500D01*
X40000Y-36750D02*
X40250Y-36500D01*
X73500Y-29230D02*
X73500Y-27250D01*
X73500Y-27250D02*
X74500Y-27250D01*
X74500Y-27250D02*
X74500Y-29250D01*
X74500Y-29250D02*
X73500Y-29250D01*
X73750Y-29250D02*
X73500Y-29000D01*
X52480Y-45750D02*
X50500Y-45750D01*
X50500Y-45750D02*
X50500Y-44750D01*
X50500Y-44750D02*
X52500Y-44750D01*
X52500Y-44750D02*
X52500Y-45750D01*
X52500Y-45500D02*
X52250Y-45750D01*
X45730Y-22750D02*
X43750Y-22750D01*
X43750Y-22750D02*
X43750Y-21750D01*
X43750Y-21750D02*
X45750Y-21750D01*
X45750Y-21750D02*
X45750Y-22750D01*
X45750Y-22500D02*
X45500Y-22750D01*
X72250Y-31770D02*
X72250Y-33750D01*
X72250Y-33750D02*
X71250Y-33750D01*
X71250Y-33750D02*
X71250Y-31750D01*
X71250Y-31750D02*
X72250Y-31750D01*
X72000Y-31750D02*
X72250Y-32000D01*
X57500Y-36980D02*
X57500Y-35000D01*
X57500Y-35000D02*
X58500Y-35000D01*
X58500Y-35000D02*
X58500Y-37000D01*
X58500Y-37000D02*
X57500Y-37000D01*
X57750Y-37000D02*
X57500Y-36750D01*
X69230Y-36500D02*
X67250Y-36500D01*
X67250Y-36500D02*
X67250Y-35500D01*
X67250Y-35500D02*
X69250Y-35500D01*
X69250Y-35500D02*
X69250Y-36500D01*
X69250Y-36250D02*
X69000Y-36500D01*
X67270Y-34000D02*
X69250Y-34000D01*
X69250Y-34000D02*
X69250Y-35000D01*
X69250Y-35000D02*
X67250Y-35000D01*
X67250Y-35000D02*
X67250Y-34000D01*
X67250Y-34250D02*
X67500Y-34000D01*
X67270Y-32500D02*
X69250Y-32500D01*
X69250Y-32500D02*
X69250Y-33500D01*
X69250Y-33500D02*
X67250Y-33500D01*
X67250Y-33500D02*
X67250Y-32500D01*
X67250Y-32750D02*
X67500Y-32500D01*
X71500Y-42770D02*
X71500Y-44750D01*
X71500Y-44750D02*
X70500Y-44750D01*
X70500Y-44750D02*
X70500Y-42750D01*
X70500Y-42750D02*
X71500Y-42750D01*
X71250Y-42750D02*
X71500Y-43000D01*
X43195Y-17500D02*
X43153Y-17926D01*
X43029Y-18336D01*
X42828Y-18714D01*
X42557Y-19046D01*
X42227Y-19319D01*
X41850Y-19523D01*
X41441Y-19650D01*
X41015Y-19694D01*
X40589Y-19656D01*
X40178Y-19535D01*
X39799Y-19336D01*
X39465Y-19068D01*
X39189Y-18740D01*
X38983Y-18364D01*
X38853Y-17956D01*
X38806Y-17530D01*
X38842Y-17104D01*
X38960Y-16692D01*
X39155Y-16311D01*
X39422Y-15976D01*
X39748Y-15698D01*
X40122Y-15489D01*
X40529Y-15357D01*
X40955Y-15306D01*
X41381Y-15339D01*
X41793Y-15454D01*
X42176Y-15647D01*
X42513Y-15911D01*
X42793Y-16235D01*
X43005Y-16608D01*
X43140Y-17014D01*
X43194Y-17439D01*
X43195Y-17500D01*
X46750Y-29750D02*
X45250Y-31250D01*
X45250Y-31250D02*
X45250Y-31750D01*
X45250Y-31750D02*
X45750Y-32250D01*
X45750Y-32250D02*
X46750Y-32250D01*
X46750Y-32250D02*
X47750Y-31250D01*
X47750Y-31250D02*
X47750Y-30250D01*
X47750Y-30250D02*
X47250Y-29750D01*
X47250Y-29750D02*
X46750Y-29750D01*
G54D11*
X52700Y-16450D02*
X53000Y-16450D01*
X53000Y-16450D02*
X53000Y-25150D01*
X45950Y-25150D02*
X45950Y-16450D01*
X45950Y-16450D02*
X52700Y-16450D01*
X45950Y-25150D02*
X53000Y-25150D01*
G54D15*
X65750Y-15250D02*
X75750Y-15250D01*
X65750Y-14750D02*
X75750Y-14750D01*
X65750Y-12250D02*
X75750Y-12250D01*
X75750Y-12250D02*
X75750Y-15250D01*
X65750Y-12250D02*
X65750Y-15250D01*
X50000Y-15250D02*
X60000Y-15250D01*
X50000Y-14750D02*
X60000Y-14750D01*
X50000Y-12250D02*
X60000Y-12250D01*
X60000Y-12250D02*
X60000Y-15250D01*
X50000Y-12250D02*
X50000Y-15250D01*
G54D11*
X53200Y-29500D02*
X51300Y-29500D01*
X53200Y-37000D02*
X51300Y-37000D01*
X51300Y-37000D02*
X51300Y-29500D01*
X53200Y-29500D02*
X53200Y-37000D01*
X52050Y-37600D02*
X51750Y-37600D01*
X52050Y-37600D02*
X52050Y-37300D01*
X52050Y-37300D02*
X52450Y-37300D01*
X52450Y-37300D02*
X52450Y-37600D01*
X52450Y-37600D02*
X52750Y-37600D01*
X51750Y-37000D02*
X51750Y-37600D01*
X52750Y-37600D02*
X52750Y-37000D01*
X75950Y-16750D02*
X74050Y-16750D01*
X75950Y-24250D02*
X74050Y-24250D01*
X74050Y-24250D02*
X74050Y-16750D01*
X75950Y-16750D02*
X75950Y-24250D01*
X74800Y-24850D02*
X74500Y-24850D01*
X74800Y-24850D02*
X74800Y-24550D01*
X74800Y-24550D02*
X75200Y-24550D01*
X75200Y-24550D02*
X75200Y-24850D01*
X75200Y-24850D02*
X75500Y-24850D01*
X74500Y-24250D02*
X74500Y-24850D01*
X75500Y-24850D02*
X75500Y-24250D01*
X73700Y-16750D02*
X71800Y-16750D01*
X73700Y-24250D02*
X71800Y-24250D01*
X71800Y-24250D02*
X71800Y-16750D01*
X73700Y-16750D02*
X73700Y-24250D01*
X72550Y-24850D02*
X72250Y-24850D01*
X72550Y-24850D02*
X72550Y-24550D01*
X72550Y-24550D02*
X72950Y-24550D01*
X72950Y-24550D02*
X72950Y-24850D01*
X72950Y-24850D02*
X73250Y-24850D01*
X72250Y-24250D02*
X72250Y-24850D01*
X73250Y-24850D02*
X73250Y-24250D01*
G54D15*
X57450Y-31050D02*
X57450Y-33450D01*
X57450Y-33450D02*
X55050Y-33450D01*
X55050Y-33450D02*
X55050Y-31050D01*
X55050Y-31050D02*
X57450Y-31050D01*
G54D17*
X56566Y-32250D02*
X56559Y-32311D01*
X56542Y-32370D01*
X56513Y-32424D01*
X56474Y-32472D01*
X56426Y-32511D01*
X56372Y-32541D01*
X56313Y-32559D01*
X56252Y-32565D01*
X56191Y-32560D01*
X56132Y-32542D01*
X56077Y-32514D01*
X56029Y-32475D01*
X55990Y-32428D01*
X55960Y-32374D01*
X55941Y-32315D01*
X55935Y-32254D01*
X55940Y-32193D01*
X55957Y-32134D01*
X55985Y-32079D01*
X56023Y-32031D01*
X56070Y-31991D01*
X56124Y-31961D01*
X56183Y-31942D01*
X56244Y-31935D01*
X56304Y-31939D01*
X56364Y-31956D01*
X56419Y-31984D01*
X56467Y-32022D01*
X56508Y-32068D01*
X56538Y-32122D01*
X56558Y-32180D01*
X56565Y-32242D01*
X56566Y-32250D01*
G54D15*
X42200Y-31050D02*
X42200Y-33450D01*
X42200Y-33450D02*
X39800Y-33450D01*
X39800Y-33450D02*
X39800Y-31050D01*
X39800Y-31050D02*
X42200Y-31050D01*
G54D17*
X41316Y-32250D02*
X41309Y-32311D01*
X41292Y-32370D01*
X41263Y-32424D01*
X41224Y-32472D01*
X41176Y-32511D01*
X41122Y-32541D01*
X41063Y-32559D01*
X41002Y-32565D01*
X40941Y-32560D01*
X40882Y-32542D01*
X40827Y-32514D01*
X40779Y-32475D01*
X40740Y-32428D01*
X40710Y-32374D01*
X40691Y-32315D01*
X40685Y-32254D01*
X40690Y-32193D01*
X40707Y-32134D01*
X40735Y-32079D01*
X40773Y-32031D01*
X40820Y-31991D01*
X40874Y-31961D01*
X40933Y-31942D01*
X40994Y-31935D01*
X41054Y-31939D01*
X41114Y-31956D01*
X41169Y-31984D01*
X41217Y-32022D01*
X41258Y-32068D01*
X41288Y-32122D01*
X41308Y-32180D01*
X41315Y-32242D01*
X41316Y-32250D01*
G54D14*
X47020Y-14892D02*
X47020Y-12608D01*
X47020Y-12608D02*
X41980Y-12608D01*
X41980Y-12608D02*
X41980Y-14892D01*
X41980Y-14892D02*
X47020Y-14892D01*
X41960Y-13750D02*
X40877Y-13750D01*
X47040Y-13750D02*
X48123Y-13750D01*
G54D10*
X45250Y-44500D02*
X45250Y-45500D01*
X45250Y-45500D02*
X42250Y-45500D01*
X42250Y-45500D02*
X42250Y-44500D01*
X42250Y-44500D02*
X45250Y-44500D01*
X44250Y-45500D02*
X44250Y-44500D01*
G54D14*
X55642Y-17480D02*
X53358Y-17480D01*
X53358Y-17480D02*
X53358Y-22520D01*
X53358Y-22520D02*
X55642Y-22520D01*
X55642Y-22520D02*
X55642Y-17480D01*
X54500Y-22540D02*
X54500Y-23623D01*
X54500Y-17460D02*
X54500Y-16377D01*
X62892Y-17230D02*
X60608Y-17230D01*
X60608Y-17230D02*
X60608Y-22270D01*
X60608Y-22270D02*
X62892Y-22270D01*
X62892Y-22270D02*
X62892Y-17230D01*
X61750Y-22290D02*
X61750Y-23373D01*
X61750Y-17210D02*
X61750Y-16127D01*
X66250Y-31800D02*
X66172Y-31804D01*
X66094Y-31814D01*
X66018Y-31831D01*
X65943Y-31855D01*
X65870Y-31885D01*
X65801Y-31921D01*
X65734Y-31963D01*
X65672Y-32011D01*
X65614Y-32064D01*
X65561Y-32122D01*
X65513Y-32184D01*
X65471Y-32251D01*
X65435Y-32320D01*
X65405Y-32393D01*
X65381Y-32468D01*
X65364Y-32544D01*
X65354Y-32622D01*
X65350Y-32700D01*
X66950Y-35300D02*
X66950Y-32700D01*
X65550Y-32700D02*
X65550Y-35300D01*
X66950Y-32700D02*
X66947Y-32639D01*
X66939Y-32579D01*
X66926Y-32519D01*
X66907Y-32461D01*
X66884Y-32405D01*
X66856Y-32351D01*
X66823Y-32299D01*
X66786Y-32251D01*
X66744Y-32206D01*
X66699Y-32164D01*
X66651Y-32127D01*
X66600Y-32094D01*
X66545Y-32066D01*
X66489Y-32043D01*
X66431Y-32024D01*
X66371Y-32011D01*
X66311Y-32003D01*
X66250Y-32000D01*
X66250Y-32000D02*
X66189Y-32003D01*
X66129Y-32011D01*
X66069Y-32024D01*
X66011Y-32043D01*
X65955Y-32066D01*
X65901Y-32094D01*
X65849Y-32127D01*
X65801Y-32164D01*
X65756Y-32206D01*
X65714Y-32251D01*
X65677Y-32299D01*
X65644Y-32351D01*
X65616Y-32405D01*
X65593Y-32461D01*
X65574Y-32519D01*
X65561Y-32579D01*
X65553Y-32639D01*
X65550Y-32700D01*
X66250Y-36000D02*
X66311Y-35997D01*
X66371Y-35989D01*
X66431Y-35976D01*
X66489Y-35957D01*
X66545Y-35934D01*
X66600Y-35906D01*
X66651Y-35873D01*
X66699Y-35836D01*
X66744Y-35794D01*
X66786Y-35749D01*
X66823Y-35701D01*
X66856Y-35649D01*
X66884Y-35595D01*
X66907Y-35539D01*
X66926Y-35481D01*
X66939Y-35421D01*
X66947Y-35361D01*
X66950Y-35300D01*
X65550Y-35300D02*
X65553Y-35361D01*
X65561Y-35421D01*
X65574Y-35481D01*
X65593Y-35539D01*
X65616Y-35595D01*
X65644Y-35649D01*
X65677Y-35701D01*
X65714Y-35749D01*
X65756Y-35794D01*
X65801Y-35836D01*
X65849Y-35873D01*
X65901Y-35906D01*
X65955Y-35934D01*
X66011Y-35957D01*
X66069Y-35976D01*
X66129Y-35989D01*
X66189Y-35997D01*
X66250Y-36000D01*
X67150Y-32700D02*
X67146Y-32622D01*
X67136Y-32544D01*
X67119Y-32468D01*
X67095Y-32393D01*
X67065Y-32320D01*
X67029Y-32251D01*
X66987Y-32184D01*
X66939Y-32122D01*
X66886Y-32064D01*
X66828Y-32011D01*
X66766Y-31963D01*
X66700Y-31921D01*
X66630Y-31885D01*
X66557Y-31855D01*
X66482Y-31831D01*
X66406Y-31814D01*
X66328Y-31804D01*
X66250Y-31800D01*
X67150Y-32700D02*
X67150Y-35300D01*
X65350Y-35300D02*
X65350Y-32700D01*
X66250Y-36200D02*
X66328Y-36196D01*
X66406Y-36186D01*
X66482Y-36169D01*
X66557Y-36145D01*
X66630Y-36115D01*
X66700Y-36079D01*
X66766Y-36037D01*
X66828Y-35989D01*
X66886Y-35936D01*
X66939Y-35878D01*
X66987Y-35816D01*
X67029Y-35749D01*
X67065Y-35680D01*
X67095Y-35607D01*
X67119Y-35532D01*
X67136Y-35456D01*
X67146Y-35378D01*
X67150Y-35300D01*
X65350Y-35300D02*
X65354Y-35378D01*
X65364Y-35456D01*
X65381Y-35532D01*
X65405Y-35607D01*
X65435Y-35680D01*
X65471Y-35749D01*
X65513Y-35816D01*
X65561Y-35878D01*
X65614Y-35936D01*
X65672Y-35989D01*
X65734Y-36037D01*
X65801Y-36079D01*
X65870Y-36115D01*
X65943Y-36145D01*
X66018Y-36169D01*
X66094Y-36186D01*
X66172Y-36196D01*
X66250Y-36200D01*
G54D12*
X63445Y-14893D02*
X63445Y-15379D01*
X63464Y-15436D01*
X63483Y-15464D01*
X63521Y-15493D01*
X63598Y-15493D01*
X63636Y-15464D01*
X63655Y-15436D01*
X63674Y-15379D01*
X63674Y-14893D01*
X64036Y-15093D02*
X64036Y-15493D01*
X63940Y-14864D02*
X63845Y-15293D01*
X64093Y-15293D01*
X62643Y-17824D02*
X62643Y-17595D01*
X63243Y-17710D02*
X62643Y-17710D01*
X63243Y-17462D02*
X62643Y-17462D01*
X63186Y-17043D02*
X63214Y-17062D01*
X63243Y-17119D01*
X63243Y-17157D01*
X63214Y-17215D01*
X63157Y-17253D01*
X63100Y-17272D01*
X62986Y-17291D01*
X62900Y-17291D01*
X62786Y-17272D01*
X62729Y-17253D01*
X62671Y-17215D01*
X62643Y-17157D01*
X62643Y-17119D01*
X62671Y-17062D01*
X62700Y-17043D01*
X63300Y-16967D02*
X63300Y-16662D01*
X62700Y-16586D02*
X62671Y-16567D01*
X62643Y-16529D01*
X62643Y-16433D01*
X62671Y-16395D01*
X62700Y-16376D01*
X62757Y-16357D01*
X62814Y-16357D01*
X62900Y-16376D01*
X63243Y-16605D01*
X63243Y-16357D01*
X62700Y-16205D02*
X62671Y-16186D01*
X62643Y-16148D01*
X62643Y-16052D01*
X62671Y-16014D01*
X62700Y-15995D01*
X62757Y-15976D01*
X62814Y-15976D01*
X62900Y-15995D01*
X63243Y-16224D01*
X63243Y-15976D01*
X62643Y-15633D02*
X62643Y-15710D01*
X62671Y-15748D01*
X62700Y-15767D01*
X62786Y-15805D01*
X62900Y-15824D01*
X63129Y-15824D01*
X63186Y-15805D01*
X63214Y-15786D01*
X63243Y-15748D01*
X63243Y-15671D01*
X63214Y-15633D01*
X63186Y-15614D01*
X63129Y-15595D01*
X62986Y-15595D01*
X62929Y-15614D01*
X62900Y-15633D01*
X62871Y-15671D01*
X62871Y-15748D01*
X62900Y-15786D01*
X62929Y-15805D01*
X62986Y-15824D01*
X62643Y-15348D02*
X62643Y-15309D01*
X62671Y-15271D01*
X62700Y-15252D01*
X62757Y-15233D01*
X62871Y-15214D01*
X63014Y-15214D01*
X63129Y-15233D01*
X63186Y-15252D01*
X63214Y-15271D01*
X63243Y-15309D01*
X63243Y-15348D01*
X63214Y-15386D01*
X63186Y-15405D01*
X63129Y-15424D01*
X63014Y-15443D01*
X62871Y-15443D01*
X62757Y-15424D01*
X62700Y-15405D01*
X62671Y-15386D01*
X62643Y-15348D01*
X59695Y-17643D02*
X59695Y-18129D01*
X59714Y-18186D01*
X59733Y-18214D01*
X59771Y-18243D01*
X59848Y-18243D01*
X59886Y-18214D01*
X59905Y-18186D01*
X59924Y-18129D01*
X59924Y-17643D01*
X60076Y-17643D02*
X60324Y-17643D01*
X60190Y-17871D01*
X60248Y-17871D01*
X60286Y-17900D01*
X60305Y-17929D01*
X60324Y-17986D01*
X60324Y-18129D01*
X60305Y-18186D01*
X60286Y-18214D01*
X60248Y-18243D01*
X60133Y-18243D01*
X60095Y-18214D01*
X60076Y-18186D01*
X55393Y-17824D02*
X55393Y-17595D01*
X55993Y-17710D02*
X55393Y-17710D01*
X55993Y-17462D02*
X55393Y-17462D01*
X55936Y-17043D02*
X55964Y-17062D01*
X55993Y-17119D01*
X55993Y-17157D01*
X55964Y-17215D01*
X55907Y-17253D01*
X55850Y-17272D01*
X55736Y-17291D01*
X55650Y-17291D01*
X55536Y-17272D01*
X55479Y-17253D01*
X55421Y-17215D01*
X55393Y-17157D01*
X55393Y-17119D01*
X55421Y-17062D01*
X55450Y-17043D01*
X56050Y-16967D02*
X56050Y-16662D01*
X55450Y-16586D02*
X55421Y-16567D01*
X55393Y-16529D01*
X55393Y-16433D01*
X55421Y-16395D01*
X55450Y-16376D01*
X55507Y-16357D01*
X55564Y-16357D01*
X55650Y-16376D01*
X55993Y-16605D01*
X55993Y-16357D01*
X55450Y-16205D02*
X55421Y-16186D01*
X55393Y-16148D01*
X55393Y-16052D01*
X55421Y-16014D01*
X55450Y-15995D01*
X55507Y-15976D01*
X55564Y-15976D01*
X55650Y-15995D01*
X55993Y-16224D01*
X55993Y-15976D01*
X55393Y-15633D02*
X55393Y-15710D01*
X55421Y-15748D01*
X55450Y-15767D01*
X55536Y-15805D01*
X55650Y-15824D01*
X55879Y-15824D01*
X55936Y-15805D01*
X55964Y-15786D01*
X55993Y-15748D01*
X55993Y-15671D01*
X55964Y-15633D01*
X55936Y-15614D01*
X55879Y-15595D01*
X55736Y-15595D01*
X55679Y-15614D01*
X55650Y-15633D01*
X55621Y-15671D01*
X55621Y-15748D01*
X55650Y-15786D01*
X55679Y-15805D01*
X55736Y-15824D01*
X55393Y-15348D02*
X55393Y-15309D01*
X55421Y-15271D01*
X55450Y-15252D01*
X55507Y-15233D01*
X55621Y-15214D01*
X55764Y-15214D01*
X55879Y-15233D01*
X55936Y-15252D01*
X55964Y-15271D01*
X55993Y-15309D01*
X55993Y-15348D01*
X55964Y-15386D01*
X55936Y-15405D01*
X55879Y-15424D01*
X55764Y-15443D01*
X55621Y-15443D01*
X55507Y-15424D01*
X55450Y-15405D01*
X55421Y-15386D01*
X55393Y-15348D01*
X56723Y-36047D02*
X56723Y-36333D01*
X56723Y-36190D02*
X56173Y-36190D01*
X56251Y-36238D01*
X56304Y-36285D01*
X56330Y-36333D01*
X56173Y-35738D02*
X56173Y-35690D01*
X56199Y-35642D01*
X56225Y-35619D01*
X56277Y-35595D01*
X56382Y-35571D01*
X56513Y-35571D01*
X56618Y-35595D01*
X56670Y-35619D01*
X56696Y-35642D01*
X56723Y-35690D01*
X56723Y-35738D01*
X56696Y-35785D01*
X56670Y-35809D01*
X56618Y-35833D01*
X56513Y-35857D01*
X56382Y-35857D01*
X56277Y-35833D01*
X56225Y-35809D01*
X56199Y-35785D01*
X56173Y-35738D01*
X56723Y-35357D02*
X56173Y-35357D01*
X56513Y-35309D02*
X56723Y-35166D01*
X56356Y-35166D02*
X56565Y-35357D01*
X43381Y-25475D02*
X43405Y-25449D01*
X43453Y-25423D01*
X43572Y-25423D01*
X43619Y-25449D01*
X43643Y-25475D01*
X43667Y-25527D01*
X43667Y-25580D01*
X43643Y-25658D01*
X43357Y-25973D01*
X43667Y-25973D01*
X43833Y-25423D02*
X44167Y-25423D01*
X43952Y-25973D01*
X44452Y-25423D02*
X44500Y-25423D01*
X44548Y-25449D01*
X44571Y-25475D01*
X44595Y-25527D01*
X44619Y-25632D01*
X44619Y-25763D01*
X44595Y-25868D01*
X44571Y-25920D01*
X44548Y-25946D01*
X44500Y-25973D01*
X44452Y-25973D01*
X44405Y-25946D01*
X44381Y-25920D01*
X44357Y-25868D01*
X44333Y-25763D01*
X44333Y-25632D01*
X44357Y-25527D01*
X44381Y-25475D01*
X44405Y-25449D01*
X44452Y-25423D01*
X47925Y-42119D02*
X47899Y-42095D01*
X47873Y-42047D01*
X47873Y-41928D01*
X47899Y-41881D01*
X47925Y-41857D01*
X47977Y-41833D01*
X48030Y-41833D01*
X48108Y-41857D01*
X48423Y-42143D01*
X48423Y-41833D01*
X47925Y-41643D02*
X47899Y-41619D01*
X47873Y-41571D01*
X47873Y-41452D01*
X47899Y-41405D01*
X47925Y-41381D01*
X47977Y-41357D01*
X48030Y-41357D01*
X48108Y-41381D01*
X48423Y-41667D01*
X48423Y-41357D01*
X47873Y-41048D02*
X47873Y-41000D01*
X47899Y-40952D01*
X47925Y-40929D01*
X47977Y-40905D01*
X48082Y-40881D01*
X48213Y-40881D01*
X48318Y-40905D01*
X48370Y-40929D01*
X48396Y-40952D01*
X48423Y-41000D01*
X48423Y-41048D01*
X48396Y-41095D01*
X48370Y-41119D01*
X48318Y-41143D01*
X48213Y-41167D01*
X48082Y-41167D01*
X47977Y-41143D01*
X47925Y-41119D01*
X47899Y-41095D01*
X47873Y-41048D01*
X69423Y-23547D02*
X69423Y-23237D01*
X69632Y-23404D01*
X69632Y-23332D01*
X69658Y-23285D01*
X69685Y-23261D01*
X69737Y-23237D01*
X69868Y-23237D01*
X69920Y-23261D01*
X69946Y-23285D01*
X69973Y-23332D01*
X69973Y-23475D01*
X69946Y-23523D01*
X69920Y-23547D01*
X69423Y-22809D02*
X69423Y-22904D01*
X69449Y-22952D01*
X69475Y-22975D01*
X69554Y-23023D01*
X69658Y-23047D01*
X69868Y-23047D01*
X69920Y-23023D01*
X69946Y-22999D01*
X69973Y-22952D01*
X69973Y-22856D01*
X69946Y-22809D01*
X69920Y-22785D01*
X69868Y-22761D01*
X69737Y-22761D01*
X69685Y-22785D01*
X69658Y-22809D01*
X69632Y-22856D01*
X69632Y-22952D01*
X69658Y-22999D01*
X69685Y-23023D01*
X69737Y-23047D01*
X69423Y-22452D02*
X69423Y-22404D01*
X69449Y-22356D01*
X69475Y-22333D01*
X69527Y-22309D01*
X69632Y-22285D01*
X69763Y-22285D01*
X69868Y-22309D01*
X69920Y-22333D01*
X69946Y-22356D01*
X69973Y-22404D01*
X69973Y-22452D01*
X69946Y-22499D01*
X69920Y-22523D01*
X69868Y-22547D01*
X69763Y-22571D01*
X69632Y-22571D01*
X69527Y-22547D01*
X69475Y-22523D01*
X69449Y-22499D01*
X69423Y-22452D01*
X70025Y-22190D02*
X70025Y-21809D01*
X69973Y-21428D02*
X69973Y-21714D01*
X69973Y-21571D02*
X69423Y-21571D01*
X69501Y-21619D01*
X69554Y-21666D01*
X69580Y-21714D01*
X69396Y-20857D02*
X70104Y-21285D01*
X69475Y-20714D02*
X69449Y-20690D01*
X69423Y-20642D01*
X69423Y-20523D01*
X69449Y-20476D01*
X69475Y-20452D01*
X69527Y-20428D01*
X69580Y-20428D01*
X69658Y-20452D01*
X69973Y-20738D01*
X69973Y-20428D01*
X70025Y-20333D02*
X70025Y-19952D01*
X69423Y-19881D02*
X69973Y-19762D01*
X69580Y-19666D01*
X69973Y-19571D01*
X69423Y-19452D01*
X63923Y-21547D02*
X63923Y-21237D01*
X64132Y-21404D01*
X64132Y-21332D01*
X64158Y-21285D01*
X64185Y-21261D01*
X64237Y-21237D01*
X64368Y-21237D01*
X64420Y-21261D01*
X64446Y-21285D01*
X64473Y-21332D01*
X64473Y-21475D01*
X64446Y-21523D01*
X64420Y-21547D01*
X63923Y-20809D02*
X63923Y-20904D01*
X63949Y-20952D01*
X63975Y-20975D01*
X64054Y-21023D01*
X64158Y-21047D01*
X64368Y-21047D01*
X64420Y-21023D01*
X64446Y-20999D01*
X64473Y-20952D01*
X64473Y-20856D01*
X64446Y-20809D01*
X64420Y-20785D01*
X64368Y-20761D01*
X64237Y-20761D01*
X64185Y-20785D01*
X64158Y-20809D01*
X64132Y-20856D01*
X64132Y-20952D01*
X64158Y-20999D01*
X64185Y-21023D01*
X64237Y-21047D01*
X63923Y-20452D02*
X63923Y-20404D01*
X63949Y-20356D01*
X63975Y-20333D01*
X64027Y-20309D01*
X64132Y-20285D01*
X64263Y-20285D01*
X64368Y-20309D01*
X64420Y-20333D01*
X64446Y-20356D01*
X64473Y-20404D01*
X64473Y-20452D01*
X64446Y-20499D01*
X64420Y-20523D01*
X64368Y-20547D01*
X64263Y-20571D01*
X64132Y-20571D01*
X64027Y-20547D01*
X63975Y-20523D01*
X63949Y-20499D01*
X63923Y-20452D01*
X64525Y-20190D02*
X64525Y-19809D01*
X64473Y-19428D02*
X64473Y-19714D01*
X64473Y-19571D02*
X63923Y-19571D01*
X64001Y-19619D01*
X64054Y-19666D01*
X64080Y-19714D01*
X63896Y-18857D02*
X64604Y-19285D01*
X63975Y-18714D02*
X63949Y-18690D01*
X63923Y-18642D01*
X63923Y-18523D01*
X63949Y-18476D01*
X63975Y-18452D01*
X64027Y-18428D01*
X64080Y-18428D01*
X64158Y-18452D01*
X64473Y-18738D01*
X64473Y-18428D01*
X64525Y-18333D02*
X64525Y-17952D01*
X63923Y-17881D02*
X64473Y-17762D01*
X64080Y-17666D01*
X64473Y-17571D01*
X63923Y-17452D01*
X63453Y-26623D02*
X63763Y-26623D01*
X63596Y-26832D01*
X63668Y-26832D01*
X63715Y-26858D01*
X63739Y-26885D01*
X63763Y-26937D01*
X63763Y-27068D01*
X63739Y-27120D01*
X63715Y-27146D01*
X63668Y-27173D01*
X63525Y-27173D01*
X63477Y-27146D01*
X63453Y-27120D01*
X63929Y-26623D02*
X64239Y-26623D01*
X64072Y-26832D01*
X64144Y-26832D01*
X64191Y-26858D01*
X64215Y-26885D01*
X64239Y-26937D01*
X64239Y-27068D01*
X64215Y-27120D01*
X64191Y-27146D01*
X64144Y-27173D01*
X64001Y-27173D01*
X63953Y-27146D01*
X63929Y-27120D01*
X64548Y-26623D02*
X64596Y-26623D01*
X64644Y-26649D01*
X64667Y-26675D01*
X64691Y-26727D01*
X64715Y-26832D01*
X64715Y-26963D01*
X64691Y-27068D01*
X64667Y-27120D01*
X64644Y-27146D01*
X64596Y-27173D01*
X64548Y-27173D01*
X64501Y-27146D01*
X64477Y-27120D01*
X64453Y-27068D01*
X64429Y-26963D01*
X64429Y-26832D01*
X64453Y-26727D01*
X64477Y-26675D01*
X64501Y-26649D01*
X64548Y-26623D01*
X64810Y-27225D02*
X65191Y-27225D01*
X65572Y-27173D02*
X65286Y-27173D01*
X65429Y-27173D02*
X65429Y-26623D01*
X65381Y-26701D01*
X65334Y-26754D01*
X65286Y-26780D01*
X66143Y-26596D02*
X65715Y-27304D01*
X66286Y-26675D02*
X66310Y-26649D01*
X66358Y-26623D01*
X66477Y-26623D01*
X66524Y-26649D01*
X66548Y-26675D01*
X66572Y-26727D01*
X66572Y-26780D01*
X66548Y-26858D01*
X66262Y-27173D01*
X66572Y-27173D01*
X66667Y-27225D02*
X67048Y-27225D01*
X67119Y-26623D02*
X67238Y-27173D01*
X67334Y-26780D01*
X67429Y-27173D01*
X67548Y-26623D01*
X55453Y-26873D02*
X55763Y-26873D01*
X55596Y-27082D01*
X55668Y-27082D01*
X55715Y-27108D01*
X55739Y-27135D01*
X55763Y-27187D01*
X55763Y-27318D01*
X55739Y-27370D01*
X55715Y-27396D01*
X55668Y-27423D01*
X55525Y-27423D01*
X55477Y-27396D01*
X55453Y-27370D01*
X55929Y-26873D02*
X56239Y-26873D01*
X56072Y-27082D01*
X56144Y-27082D01*
X56191Y-27108D01*
X56215Y-27135D01*
X56239Y-27187D01*
X56239Y-27318D01*
X56215Y-27370D01*
X56191Y-27396D01*
X56144Y-27423D01*
X56001Y-27423D01*
X55953Y-27396D01*
X55929Y-27370D01*
X56548Y-26873D02*
X56596Y-26873D01*
X56644Y-26899D01*
X56667Y-26925D01*
X56691Y-26977D01*
X56715Y-27082D01*
X56715Y-27213D01*
X56691Y-27318D01*
X56667Y-27370D01*
X56644Y-27396D01*
X56596Y-27423D01*
X56548Y-27423D01*
X56501Y-27396D01*
X56477Y-27370D01*
X56453Y-27318D01*
X56429Y-27213D01*
X56429Y-27082D01*
X56453Y-26977D01*
X56477Y-26925D01*
X56501Y-26899D01*
X56548Y-26873D01*
X56810Y-27475D02*
X57191Y-27475D01*
X57572Y-27423D02*
X57286Y-27423D01*
X57429Y-27423D02*
X57429Y-26873D01*
X57381Y-26951D01*
X57334Y-27004D01*
X57286Y-27030D01*
X58143Y-26846D02*
X57715Y-27554D01*
X58286Y-26925D02*
X58310Y-26899D01*
X58358Y-26873D01*
X58477Y-26873D01*
X58524Y-26899D01*
X58548Y-26925D01*
X58572Y-26977D01*
X58572Y-27030D01*
X58548Y-27108D01*
X58262Y-27423D01*
X58572Y-27423D01*
X58667Y-27475D02*
X59048Y-27475D01*
X59119Y-26873D02*
X59238Y-27423D01*
X59334Y-27030D01*
X59429Y-27423D01*
X59548Y-26873D01*
X58941Y-34773D02*
X58655Y-34773D01*
X58798Y-34773D02*
X58798Y-34223D01*
X58750Y-34301D01*
X58703Y-34354D01*
X58655Y-34380D01*
X59155Y-34773D02*
X59155Y-34223D01*
X59203Y-34563D02*
X59346Y-34773D01*
X59346Y-34406D02*
X59155Y-34615D01*
X44723Y-17642D02*
X44723Y-17928D01*
X44723Y-17785D02*
X44173Y-17785D01*
X44251Y-17833D01*
X44304Y-17880D01*
X44330Y-17928D01*
X44723Y-17428D02*
X44173Y-17428D01*
X44565Y-17261D01*
X44173Y-17095D01*
X44723Y-17095D01*
X49441Y-26273D02*
X49155Y-26273D01*
X49298Y-26273D02*
X49298Y-25723D01*
X49250Y-25801D01*
X49203Y-25854D01*
X49155Y-25880D01*
X49655Y-26273D02*
X49655Y-25723D01*
X49703Y-26063D02*
X49846Y-26273D01*
X49846Y-25906D02*
X49655Y-26115D01*
X56473Y-44643D02*
X56473Y-44333D01*
X56682Y-44500D01*
X56682Y-44428D01*
X56708Y-44381D01*
X56735Y-44357D01*
X56787Y-44333D01*
X56918Y-44333D01*
X56970Y-44357D01*
X56996Y-44381D01*
X57023Y-44428D01*
X57023Y-44571D01*
X56996Y-44619D01*
X56970Y-44643D01*
X56473Y-44167D02*
X56473Y-43857D01*
X56682Y-44024D01*
X56682Y-43952D01*
X56708Y-43905D01*
X56735Y-43881D01*
X56787Y-43857D01*
X56918Y-43857D01*
X56970Y-43881D01*
X56996Y-43905D01*
X57023Y-43952D01*
X57023Y-44095D01*
X56996Y-44143D01*
X56970Y-44167D01*
X56473Y-43548D02*
X56473Y-43500D01*
X56499Y-43452D01*
X56525Y-43429D01*
X56577Y-43405D01*
X56682Y-43381D01*
X56813Y-43381D01*
X56918Y-43405D01*
X56970Y-43429D01*
X56996Y-43452D01*
X57023Y-43500D01*
X57023Y-43548D01*
X56996Y-43595D01*
X56970Y-43619D01*
X56918Y-43643D01*
X56813Y-43667D01*
X56682Y-43667D01*
X56577Y-43643D01*
X56525Y-43619D01*
X56499Y-43595D01*
X56473Y-43548D01*
X54173Y-44643D02*
X54173Y-44333D01*
X54382Y-44500D01*
X54382Y-44428D01*
X54408Y-44381D01*
X54435Y-44357D01*
X54487Y-44333D01*
X54618Y-44333D01*
X54670Y-44357D01*
X54696Y-44381D01*
X54723Y-44428D01*
X54723Y-44571D01*
X54696Y-44619D01*
X54670Y-44643D01*
X54173Y-44167D02*
X54173Y-43857D01*
X54382Y-44024D01*
X54382Y-43952D01*
X54408Y-43905D01*
X54435Y-43881D01*
X54487Y-43857D01*
X54618Y-43857D01*
X54670Y-43881D01*
X54696Y-43905D01*
X54723Y-43952D01*
X54723Y-44095D01*
X54696Y-44143D01*
X54670Y-44167D01*
X54173Y-43548D02*
X54173Y-43500D01*
X54199Y-43452D01*
X54225Y-43429D01*
X54277Y-43405D01*
X54382Y-43381D01*
X54513Y-43381D01*
X54618Y-43405D01*
X54670Y-43429D01*
X54696Y-43452D01*
X54723Y-43500D01*
X54723Y-43548D01*
X54696Y-43595D01*
X54670Y-43619D01*
X54618Y-43643D01*
X54513Y-43667D01*
X54382Y-43667D01*
X54277Y-43643D01*
X54225Y-43619D01*
X54199Y-43595D01*
X54173Y-43548D01*
X41655Y-39606D02*
X41655Y-39973D01*
X41536Y-39396D02*
X41417Y-39789D01*
X41727Y-39789D01*
X41917Y-39973D02*
X41917Y-39423D01*
X41965Y-39763D02*
X42108Y-39973D01*
X42108Y-39606D02*
X41917Y-39815D01*
X42274Y-39423D02*
X42608Y-39423D01*
X42393Y-39973D01*
X53976Y-39223D02*
X54024Y-39223D01*
X54072Y-39249D01*
X54095Y-39275D01*
X54119Y-39327D01*
X54143Y-39432D01*
X54143Y-39563D01*
X54119Y-39668D01*
X54095Y-39720D01*
X54072Y-39746D01*
X54024Y-39773D01*
X53976Y-39773D01*
X53929Y-39746D01*
X53905Y-39720D01*
X53881Y-39668D01*
X53857Y-39563D01*
X53857Y-39432D01*
X53881Y-39327D01*
X53905Y-39275D01*
X53929Y-39249D01*
X53976Y-39223D01*
X66655Y-45906D02*
X66655Y-46273D01*
X66536Y-45696D02*
X66417Y-46089D01*
X66727Y-46089D01*
X66869Y-45723D02*
X67203Y-45723D01*
X66988Y-46273D01*
X67393Y-46273D02*
X67393Y-45723D01*
X67441Y-46063D02*
X67584Y-46273D01*
X67584Y-45906D02*
X67393Y-46115D01*
X66655Y-44906D02*
X66655Y-45273D01*
X66536Y-44696D02*
X66417Y-45089D01*
X66727Y-45089D01*
X66917Y-45273D02*
X66917Y-44723D01*
X66965Y-45063D02*
X67108Y-45273D01*
X67108Y-44906D02*
X66917Y-45115D01*
X67274Y-44723D02*
X67608Y-44723D01*
X67393Y-45273D01*
X70023Y-33892D02*
X70023Y-34178D01*
X70023Y-34035D02*
X69473Y-34035D01*
X69551Y-34083D01*
X69604Y-34130D01*
X69630Y-34178D01*
X70023Y-33678D02*
X69473Y-33678D01*
X69865Y-33511D01*
X69473Y-33345D01*
X70023Y-33345D01*
X71108Y-27773D02*
X70822Y-27773D01*
X70965Y-27773D02*
X70965Y-27223D01*
X70917Y-27301D01*
X70870Y-27354D01*
X70822Y-27380D01*
X71322Y-27773D02*
X71322Y-27223D01*
X71489Y-27615D01*
X71655Y-27223D01*
X71655Y-27773D01*
X74473Y-45035D02*
X74473Y-45321D01*
X74473Y-45178D02*
X73923Y-45178D01*
X74001Y-45226D01*
X74054Y-45273D01*
X74080Y-45321D01*
X73923Y-44726D02*
X73923Y-44678D01*
X73949Y-44630D01*
X73975Y-44607D01*
X74027Y-44583D01*
X74132Y-44559D01*
X74263Y-44559D01*
X74368Y-44583D01*
X74420Y-44607D01*
X74446Y-44630D01*
X74473Y-44678D01*
X74473Y-44726D01*
X74446Y-44773D01*
X74420Y-44797D01*
X74368Y-44821D01*
X74263Y-44845D01*
X74132Y-44845D01*
X74027Y-44821D01*
X73975Y-44797D01*
X73949Y-44773D01*
X73923Y-44726D01*
X73923Y-44250D02*
X73923Y-44202D01*
X73949Y-44154D01*
X73975Y-44131D01*
X74027Y-44107D01*
X74132Y-44083D01*
X74263Y-44083D01*
X74368Y-44107D01*
X74420Y-44131D01*
X74446Y-44154D01*
X74473Y-44202D01*
X74473Y-44250D01*
X74446Y-44297D01*
X74420Y-44321D01*
X74368Y-44345D01*
X74263Y-44369D01*
X74132Y-44369D01*
X74027Y-44345D01*
X73975Y-44321D01*
X73949Y-44297D01*
X73923Y-44250D01*
X74473Y-43869D02*
X73923Y-43869D01*
X74263Y-43821D02*
X74473Y-43678D01*
X74106Y-43678D02*
X74315Y-43869D01*
X72465Y-30473D02*
X72179Y-30473D01*
X72322Y-30473D02*
X72322Y-29923D01*
X72274Y-30001D01*
X72227Y-30054D01*
X72179Y-30080D01*
X72774Y-29923D02*
X72822Y-29923D01*
X72870Y-29949D01*
X72893Y-29975D01*
X72917Y-30027D01*
X72941Y-30132D01*
X72941Y-30263D01*
X72917Y-30368D01*
X72893Y-30420D01*
X72870Y-30446D01*
X72822Y-30473D01*
X72774Y-30473D01*
X72727Y-30446D01*
X72703Y-30420D01*
X72679Y-30368D01*
X72655Y-30263D01*
X72655Y-30132D01*
X72679Y-30027D01*
X72703Y-29975D01*
X72727Y-29949D01*
X72774Y-29923D01*
X73250Y-29923D02*
X73298Y-29923D01*
X73346Y-29949D01*
X73369Y-29975D01*
X73393Y-30027D01*
X73417Y-30132D01*
X73417Y-30263D01*
X73393Y-30368D01*
X73369Y-30420D01*
X73346Y-30446D01*
X73298Y-30473D01*
X73250Y-30473D01*
X73203Y-30446D01*
X73179Y-30420D01*
X73155Y-30368D01*
X73131Y-30263D01*
X73131Y-30132D01*
X73155Y-30027D01*
X73179Y-29975D01*
X73203Y-29949D01*
X73250Y-29923D01*
X73631Y-30473D02*
X73631Y-29923D01*
X73679Y-30263D02*
X73822Y-30473D01*
X73822Y-30106D02*
X73631Y-30315D01*
X52773Y-42547D02*
X52773Y-42833D01*
X52773Y-42690D02*
X52223Y-42690D01*
X52301Y-42738D01*
X52354Y-42785D01*
X52380Y-42833D01*
X52223Y-42238D02*
X52223Y-42190D01*
X52249Y-42142D01*
X52275Y-42119D01*
X52327Y-42095D01*
X52432Y-42071D01*
X52563Y-42071D01*
X52668Y-42095D01*
X52720Y-42119D01*
X52746Y-42142D01*
X52773Y-42190D01*
X52773Y-42238D01*
X52746Y-42285D01*
X52720Y-42309D01*
X52668Y-42333D01*
X52563Y-42357D01*
X52432Y-42357D01*
X52327Y-42333D01*
X52275Y-42309D01*
X52249Y-42285D01*
X52223Y-42238D01*
X52773Y-41857D02*
X52223Y-41857D01*
X52563Y-41809D02*
X52773Y-41666D01*
X52406Y-41666D02*
X52615Y-41857D01*
G54D10*
X62607Y-40571D02*
X62607Y-40786D01*
X62593Y-40829D01*
X62564Y-40857D01*
X62521Y-40871D01*
X62493Y-40871D01*
X62750Y-40871D02*
X62750Y-40571D01*
X62865Y-40571D01*
X62893Y-40586D01*
X62908Y-40600D01*
X62922Y-40629D01*
X62922Y-40671D01*
X62908Y-40700D01*
X62893Y-40714D01*
X62865Y-40729D01*
X62750Y-40729D01*
X63208Y-40871D02*
X63036Y-40871D01*
X63122Y-40871D02*
X63122Y-40571D01*
X63093Y-40614D01*
X63065Y-40643D01*
X63036Y-40657D01*
X63308Y-40571D02*
X63494Y-40571D01*
X63394Y-40686D01*
X63436Y-40686D01*
X63465Y-40700D01*
X63479Y-40714D01*
X63494Y-40743D01*
X63494Y-40814D01*
X63479Y-40843D01*
X63465Y-40857D01*
X63436Y-40871D01*
X63351Y-40871D01*
X63322Y-40857D01*
X63308Y-40843D01*
X63357Y-43071D02*
X63357Y-43286D01*
X63343Y-43329D01*
X63314Y-43357D01*
X63271Y-43371D01*
X63243Y-43371D01*
X63500Y-43371D02*
X63500Y-43071D01*
X63615Y-43071D01*
X63643Y-43086D01*
X63658Y-43100D01*
X63672Y-43129D01*
X63672Y-43171D01*
X63658Y-43200D01*
X63643Y-43214D01*
X63615Y-43229D01*
X63500Y-43229D01*
X63958Y-43371D02*
X63786Y-43371D01*
X63872Y-43371D02*
X63872Y-43071D01*
X63843Y-43114D01*
X63815Y-43143D01*
X63786Y-43157D01*
X64215Y-43171D02*
X64215Y-43371D01*
X64144Y-43057D02*
X64072Y-43271D01*
X64258Y-43271D01*
X63821Y-29250D02*
X64036Y-29250D01*
X64079Y-29264D01*
X64107Y-29293D01*
X64121Y-29336D01*
X64121Y-29364D01*
X64121Y-29107D02*
X63821Y-29107D01*
X63821Y-28992D01*
X63836Y-28964D01*
X63850Y-28949D01*
X63879Y-28935D01*
X63921Y-28935D01*
X63950Y-28949D01*
X63964Y-28964D01*
X63979Y-28992D01*
X63979Y-29107D01*
X63821Y-28664D02*
X63821Y-28807D01*
X63964Y-28821D01*
X63950Y-28807D01*
X63936Y-28778D01*
X63936Y-28707D01*
X63950Y-28678D01*
X63964Y-28664D01*
X63993Y-28649D01*
X64064Y-28649D01*
X64093Y-28664D01*
X64107Y-28678D01*
X64121Y-28707D01*
X64121Y-28778D01*
X64107Y-28807D01*
X64093Y-28821D01*
X64357Y-40571D02*
X64357Y-40786D01*
X64343Y-40829D01*
X64314Y-40857D01*
X64271Y-40871D01*
X64243Y-40871D01*
X64500Y-40871D02*
X64500Y-40571D01*
X64615Y-40571D01*
X64643Y-40586D01*
X64658Y-40600D01*
X64672Y-40629D01*
X64672Y-40671D01*
X64658Y-40700D01*
X64643Y-40714D01*
X64615Y-40729D01*
X64500Y-40729D01*
X64958Y-40871D02*
X64786Y-40871D01*
X64872Y-40871D02*
X64872Y-40571D01*
X64843Y-40614D01*
X64815Y-40643D01*
X64786Y-40657D01*
X65229Y-40571D02*
X65086Y-40571D01*
X65072Y-40714D01*
X65086Y-40700D01*
X65115Y-40686D01*
X65186Y-40686D01*
X65215Y-40700D01*
X65229Y-40714D01*
X65244Y-40743D01*
X65244Y-40814D01*
X65229Y-40843D01*
X65215Y-40857D01*
X65186Y-40871D01*
X65115Y-40871D01*
X65086Y-40857D01*
X65072Y-40843D01*
X65607Y-40571D02*
X65607Y-40786D01*
X65593Y-40829D01*
X65564Y-40857D01*
X65521Y-40871D01*
X65493Y-40871D01*
X65750Y-40871D02*
X65750Y-40571D01*
X65865Y-40571D01*
X65893Y-40586D01*
X65908Y-40600D01*
X65922Y-40629D01*
X65922Y-40671D01*
X65908Y-40700D01*
X65893Y-40714D01*
X65865Y-40729D01*
X65750Y-40729D01*
X66208Y-40871D02*
X66036Y-40871D01*
X66122Y-40871D02*
X66122Y-40571D01*
X66093Y-40614D01*
X66065Y-40643D01*
X66036Y-40657D01*
X66465Y-40571D02*
X66408Y-40571D01*
X66379Y-40586D01*
X66365Y-40600D01*
X66336Y-40643D01*
X66322Y-40700D01*
X66322Y-40814D01*
X66336Y-40843D01*
X66351Y-40857D01*
X66379Y-40871D01*
X66436Y-40871D01*
X66465Y-40857D01*
X66479Y-40843D01*
X66494Y-40814D01*
X66494Y-40743D01*
X66479Y-40714D01*
X66465Y-40700D01*
X66436Y-40686D01*
X66379Y-40686D01*
X66351Y-40700D01*
X66336Y-40714D01*
X66322Y-40743D01*
X66357Y-43071D02*
X66357Y-43286D01*
X66343Y-43329D01*
X66314Y-43357D01*
X66271Y-43371D01*
X66243Y-43371D01*
X66500Y-43371D02*
X66500Y-43071D01*
X66615Y-43071D01*
X66643Y-43086D01*
X66658Y-43100D01*
X66672Y-43129D01*
X66672Y-43171D01*
X66658Y-43200D01*
X66643Y-43214D01*
X66615Y-43229D01*
X66500Y-43229D01*
X66958Y-43371D02*
X66786Y-43371D01*
X66872Y-43371D02*
X66872Y-43071D01*
X66843Y-43114D01*
X66815Y-43143D01*
X66786Y-43157D01*
X67058Y-43071D02*
X67258Y-43071D01*
X67129Y-43371D01*
X60107Y-43321D02*
X60107Y-43536D01*
X60093Y-43579D01*
X60064Y-43607D01*
X60021Y-43621D01*
X59993Y-43621D01*
X60250Y-43621D02*
X60250Y-43321D01*
X60365Y-43321D01*
X60393Y-43336D01*
X60408Y-43350D01*
X60422Y-43379D01*
X60422Y-43421D01*
X60408Y-43450D01*
X60393Y-43464D01*
X60365Y-43479D01*
X60250Y-43479D01*
X60708Y-43621D02*
X60536Y-43621D01*
X60622Y-43621D02*
X60622Y-43321D01*
X60593Y-43364D01*
X60565Y-43393D01*
X60536Y-43407D01*
X60994Y-43621D02*
X60822Y-43621D01*
X60908Y-43621D02*
X60908Y-43321D01*
X60879Y-43364D01*
X60851Y-43393D01*
X60822Y-43407D01*
X58857Y-40571D02*
X58857Y-40786D01*
X58843Y-40829D01*
X58814Y-40857D01*
X58771Y-40871D01*
X58743Y-40871D01*
X59000Y-40871D02*
X59000Y-40571D01*
X59115Y-40571D01*
X59143Y-40586D01*
X59158Y-40600D01*
X59172Y-40629D01*
X59172Y-40671D01*
X59158Y-40700D01*
X59143Y-40714D01*
X59115Y-40729D01*
X59000Y-40729D01*
X59458Y-40871D02*
X59286Y-40871D01*
X59372Y-40871D02*
X59372Y-40571D01*
X59343Y-40614D01*
X59315Y-40643D01*
X59286Y-40657D01*
X59644Y-40571D02*
X59672Y-40571D01*
X59701Y-40586D01*
X59715Y-40600D01*
X59729Y-40629D01*
X59744Y-40686D01*
X59744Y-40757D01*
X59729Y-40814D01*
X59715Y-40843D01*
X59701Y-40857D01*
X59672Y-40871D01*
X59644Y-40871D01*
X59615Y-40857D01*
X59601Y-40843D01*
X59586Y-40814D01*
X59572Y-40757D01*
X59572Y-40686D01*
X59586Y-40629D01*
X59601Y-40600D01*
X59615Y-40586D01*
X59644Y-40571D01*
X59821Y-29250D02*
X60036Y-29250D01*
X60079Y-29264D01*
X60107Y-29293D01*
X60121Y-29336D01*
X60121Y-29364D01*
X60121Y-29107D02*
X59821Y-29107D01*
X59821Y-28992D01*
X59836Y-28964D01*
X59850Y-28949D01*
X59879Y-28935D01*
X59921Y-28935D01*
X59950Y-28949D01*
X59964Y-28964D01*
X59979Y-28992D01*
X59979Y-29107D01*
X60121Y-28792D02*
X60121Y-28735D01*
X60107Y-28707D01*
X60093Y-28692D01*
X60050Y-28664D01*
X59993Y-28649D01*
X59879Y-28649D01*
X59850Y-28664D01*
X59836Y-28678D01*
X59821Y-28707D01*
X59821Y-28764D01*
X59836Y-28792D01*
X59850Y-28807D01*
X59879Y-28821D01*
X59950Y-28821D01*
X59979Y-28807D01*
X59993Y-28792D01*
X60007Y-28764D01*
X60007Y-28707D01*
X59993Y-28678D01*
X59979Y-28664D01*
X59950Y-28649D01*
X60821Y-29250D02*
X61036Y-29250D01*
X61079Y-29264D01*
X61107Y-29293D01*
X61121Y-29336D01*
X61121Y-29364D01*
X61121Y-29107D02*
X60821Y-29107D01*
X60821Y-28992D01*
X60836Y-28964D01*
X60850Y-28949D01*
X60879Y-28935D01*
X60921Y-28935D01*
X60950Y-28949D01*
X60964Y-28964D01*
X60979Y-28992D01*
X60979Y-29107D01*
X60950Y-28764D02*
X60936Y-28792D01*
X60921Y-28807D01*
X60893Y-28821D01*
X60879Y-28821D01*
X60850Y-28807D01*
X60836Y-28792D01*
X60821Y-28764D01*
X60821Y-28707D01*
X60836Y-28678D01*
X60850Y-28664D01*
X60879Y-28649D01*
X60893Y-28649D01*
X60921Y-28664D01*
X60936Y-28678D01*
X60950Y-28707D01*
X60950Y-28764D01*
X60964Y-28792D01*
X60979Y-28807D01*
X61007Y-28821D01*
X61064Y-28821D01*
X61093Y-28807D01*
X61107Y-28792D01*
X61121Y-28764D01*
X61121Y-28707D01*
X61107Y-28678D01*
X61093Y-28664D01*
X61064Y-28649D01*
X61007Y-28649D01*
X60979Y-28664D01*
X60964Y-28678D01*
X60950Y-28707D01*
X61821Y-29250D02*
X62036Y-29250D01*
X62079Y-29264D01*
X62107Y-29293D01*
X62121Y-29336D01*
X62121Y-29364D01*
X62121Y-29107D02*
X61821Y-29107D01*
X61821Y-28992D01*
X61836Y-28964D01*
X61850Y-28949D01*
X61879Y-28935D01*
X61921Y-28935D01*
X61950Y-28949D01*
X61964Y-28964D01*
X61979Y-28992D01*
X61979Y-29107D01*
X61821Y-28835D02*
X61821Y-28635D01*
X62121Y-28764D01*
X62821Y-29250D02*
X63036Y-29250D01*
X63079Y-29264D01*
X63107Y-29293D01*
X63121Y-29336D01*
X63121Y-29364D01*
X63121Y-29107D02*
X62821Y-29107D01*
X62821Y-28992D01*
X62836Y-28964D01*
X62850Y-28949D01*
X62879Y-28935D01*
X62921Y-28935D01*
X62950Y-28949D01*
X62964Y-28964D01*
X62979Y-28992D01*
X62979Y-29107D01*
X62821Y-28678D02*
X62821Y-28735D01*
X62836Y-28764D01*
X62850Y-28778D01*
X62893Y-28807D01*
X62950Y-28821D01*
X63064Y-28821D01*
X63093Y-28807D01*
X63107Y-28792D01*
X63121Y-28764D01*
X63121Y-28707D01*
X63107Y-28678D01*
X63093Y-28664D01*
X63064Y-28649D01*
X62993Y-28649D01*
X62964Y-28664D01*
X62950Y-28678D01*
X62936Y-28707D01*
X62936Y-28764D01*
X62950Y-28792D01*
X62964Y-28807D01*
X62993Y-28821D01*
X61357Y-40571D02*
X61357Y-40786D01*
X61343Y-40829D01*
X61314Y-40857D01*
X61271Y-40871D01*
X61243Y-40871D01*
X61500Y-40871D02*
X61500Y-40571D01*
X61615Y-40571D01*
X61643Y-40586D01*
X61658Y-40600D01*
X61672Y-40629D01*
X61672Y-40671D01*
X61658Y-40700D01*
X61643Y-40714D01*
X61615Y-40729D01*
X61500Y-40729D01*
X61958Y-40871D02*
X61786Y-40871D01*
X61872Y-40871D02*
X61872Y-40571D01*
X61843Y-40614D01*
X61815Y-40643D01*
X61786Y-40657D01*
X62072Y-40600D02*
X62086Y-40586D01*
X62115Y-40571D01*
X62186Y-40571D01*
X62215Y-40586D01*
X62229Y-40600D01*
X62244Y-40629D01*
X62244Y-40657D01*
X62229Y-40700D01*
X62058Y-40871D01*
X62244Y-40871D01*
X46500Y-43071D02*
X46500Y-43286D01*
X46486Y-43329D01*
X46457Y-43357D01*
X46414Y-43371D01*
X46386Y-43371D01*
X46643Y-43371D02*
X46643Y-43071D01*
X46758Y-43071D01*
X46786Y-43086D01*
X46801Y-43100D01*
X46815Y-43129D01*
X46815Y-43171D01*
X46801Y-43200D01*
X46786Y-43214D01*
X46758Y-43229D01*
X46643Y-43229D01*
X47072Y-43171D02*
X47072Y-43371D01*
X47001Y-43057D02*
X46929Y-43271D01*
X47115Y-43271D01*
X45000Y-43071D02*
X45000Y-43286D01*
X44986Y-43329D01*
X44957Y-43357D01*
X44914Y-43371D01*
X44886Y-43371D01*
X45143Y-43371D02*
X45143Y-43071D01*
X45258Y-43071D01*
X45286Y-43086D01*
X45301Y-43100D01*
X45315Y-43129D01*
X45315Y-43171D01*
X45301Y-43200D01*
X45286Y-43214D01*
X45258Y-43229D01*
X45143Y-43229D01*
X45415Y-43071D02*
X45601Y-43071D01*
X45501Y-43186D01*
X45543Y-43186D01*
X45572Y-43200D01*
X45586Y-43214D01*
X45601Y-43243D01*
X45601Y-43314D01*
X45586Y-43343D01*
X45572Y-43357D01*
X45543Y-43371D01*
X45458Y-43371D01*
X45429Y-43357D01*
X45415Y-43343D01*
X42000Y-43071D02*
X42000Y-43286D01*
X41986Y-43329D01*
X41957Y-43357D01*
X41914Y-43371D01*
X41886Y-43371D01*
X42143Y-43371D02*
X42143Y-43071D01*
X42258Y-43071D01*
X42286Y-43086D01*
X42301Y-43100D01*
X42315Y-43129D01*
X42315Y-43171D01*
X42301Y-43200D01*
X42286Y-43214D01*
X42258Y-43229D01*
X42143Y-43229D01*
X42429Y-43100D02*
X42443Y-43086D01*
X42472Y-43071D01*
X42543Y-43071D01*
X42572Y-43086D01*
X42586Y-43100D01*
X42601Y-43129D01*
X42601Y-43157D01*
X42586Y-43200D01*
X42415Y-43371D01*
X42601Y-43371D01*
X40500Y-43071D02*
X40500Y-43286D01*
X40486Y-43329D01*
X40457Y-43357D01*
X40414Y-43371D01*
X40386Y-43371D01*
X40643Y-43371D02*
X40643Y-43071D01*
X40758Y-43071D01*
X40786Y-43086D01*
X40801Y-43100D01*
X40815Y-43129D01*
X40815Y-43171D01*
X40801Y-43200D01*
X40786Y-43214D01*
X40758Y-43229D01*
X40643Y-43229D01*
X41101Y-43371D02*
X40929Y-43371D01*
X41015Y-43371D02*
X41015Y-43071D01*
X40986Y-43114D01*
X40958Y-43143D01*
X40929Y-43157D01*
G54D18*
X48278Y-28121D02*
X48278Y-27821D01*
X48350Y-27821D01*
X48393Y-27836D01*
X48421Y-27864D01*
X48436Y-27893D01*
X48450Y-27950D01*
X48450Y-27993D01*
X48436Y-28050D01*
X48421Y-28079D01*
X48393Y-28107D01*
X48350Y-28121D01*
X48278Y-28121D01*
X48621Y-27950D02*
X48593Y-27936D01*
X48578Y-27921D01*
X48564Y-27893D01*
X48564Y-27879D01*
X48578Y-27850D01*
X48593Y-27836D01*
X48621Y-27821D01*
X48678Y-27821D01*
X48707Y-27836D01*
X48721Y-27850D01*
X48736Y-27879D01*
X48736Y-27893D01*
X48721Y-27921D01*
X48707Y-27936D01*
X48678Y-27950D01*
X48621Y-27950D01*
X48593Y-27964D01*
X48578Y-27979D01*
X48564Y-28007D01*
X48564Y-28064D01*
X48578Y-28093D01*
X48593Y-28107D01*
X48621Y-28121D01*
X48678Y-28121D01*
X48707Y-28107D01*
X48721Y-28093D01*
X48736Y-28064D01*
X48736Y-28007D01*
X48721Y-27979D01*
X48707Y-27964D01*
X48678Y-27950D01*
X49807Y-26371D02*
X49664Y-26371D01*
X49664Y-26071D01*
X49907Y-26214D02*
X50007Y-26214D01*
X50050Y-26371D02*
X49907Y-26371D01*
X49907Y-26071D01*
X50050Y-26071D01*
X50178Y-26371D02*
X50178Y-26071D01*
X50250Y-26071D01*
X50293Y-26086D01*
X50321Y-26114D01*
X50336Y-26143D01*
X50350Y-26200D01*
X50350Y-26243D01*
X50336Y-26300D01*
X50321Y-26329D01*
X50293Y-26357D01*
X50250Y-26371D01*
X50178Y-26371D01*
X49528Y-44121D02*
X49528Y-43821D01*
X49600Y-43821D01*
X49643Y-43836D01*
X49671Y-43864D01*
X49686Y-43893D01*
X49700Y-43950D01*
X49700Y-43993D01*
X49686Y-44050D01*
X49671Y-44079D01*
X49643Y-44107D01*
X49600Y-44121D01*
X49528Y-44121D01*
X49957Y-43821D02*
X49900Y-43821D01*
X49871Y-43836D01*
X49857Y-43850D01*
X49828Y-43893D01*
X49814Y-43950D01*
X49814Y-44064D01*
X49828Y-44093D01*
X49843Y-44107D01*
X49871Y-44121D01*
X49928Y-44121D01*
X49957Y-44107D01*
X49971Y-44093D01*
X49986Y-44064D01*
X49986Y-43993D01*
X49971Y-43964D01*
X49957Y-43950D01*
X49928Y-43936D01*
X49871Y-43936D01*
X49843Y-43950D01*
X49828Y-43964D01*
X49814Y-43993D01*
X46871Y-44943D02*
X46871Y-45086D01*
X46571Y-45086D01*
X46714Y-44843D02*
X46714Y-44743D01*
X46871Y-44700D02*
X46871Y-44843D01*
X46571Y-44843D01*
X46571Y-44700D01*
X46871Y-44572D02*
X46571Y-44572D01*
X46571Y-44500D01*
X46586Y-44457D01*
X46614Y-44429D01*
X46643Y-44414D01*
X46700Y-44400D01*
X46743Y-44400D01*
X46800Y-44414D01*
X46829Y-44429D01*
X46857Y-44457D01*
X46871Y-44500D01*
X46871Y-44572D01*
X60621Y-25472D02*
X60321Y-25472D01*
X60321Y-25400D01*
X60336Y-25357D01*
X60364Y-25329D01*
X60393Y-25314D01*
X60450Y-25300D01*
X60493Y-25300D01*
X60550Y-25314D01*
X60579Y-25329D01*
X60607Y-25357D01*
X60621Y-25400D01*
X60621Y-25472D01*
X60350Y-25186D02*
X60336Y-25172D01*
X60321Y-25143D01*
X60321Y-25072D01*
X60336Y-25043D01*
X60350Y-25029D01*
X60379Y-25014D01*
X60407Y-25014D01*
X60450Y-25029D01*
X60621Y-25200D01*
X60621Y-25014D01*
X63621Y-25443D02*
X63621Y-25586D01*
X63321Y-25586D01*
X63464Y-25343D02*
X63464Y-25243D01*
X63621Y-25200D02*
X63621Y-25343D01*
X63321Y-25343D01*
X63321Y-25200D01*
X63621Y-25072D02*
X63321Y-25072D01*
X63321Y-25000D01*
X63336Y-24957D01*
X63364Y-24929D01*
X63393Y-24914D01*
X63450Y-24900D01*
X63493Y-24900D01*
X63550Y-24914D01*
X63579Y-24929D01*
X63607Y-24957D01*
X63621Y-25000D01*
X63621Y-25072D01*
X52371Y-27222D02*
X52071Y-27222D01*
X52071Y-27150D01*
X52086Y-27107D01*
X52114Y-27079D01*
X52143Y-27064D01*
X52200Y-27050D01*
X52243Y-27050D01*
X52300Y-27064D01*
X52329Y-27079D01*
X52357Y-27107D01*
X52371Y-27150D01*
X52371Y-27222D01*
X52371Y-26764D02*
X52371Y-26936D01*
X52371Y-26850D02*
X52071Y-26850D01*
X52114Y-26879D01*
X52143Y-26907D01*
X52157Y-26936D01*
X55371Y-27193D02*
X55371Y-27336D01*
X55071Y-27336D01*
X55214Y-27093D02*
X55214Y-26993D01*
X55371Y-26950D02*
X55371Y-27093D01*
X55071Y-27093D01*
X55071Y-26950D01*
X55371Y-26822D02*
X55071Y-26822D01*
X55071Y-26750D01*
X55086Y-26707D01*
X55114Y-26679D01*
X55143Y-26664D01*
X55200Y-26650D01*
X55243Y-26650D01*
X55300Y-26664D01*
X55329Y-26679D01*
X55357Y-26707D01*
X55371Y-26750D01*
X55371Y-26822D01*
G54D10*
X56195Y-21893D02*
X56195Y-22379D01*
X56214Y-22436D01*
X56233Y-22464D01*
X56271Y-22493D01*
X56348Y-22493D01*
X56386Y-22464D01*
X56405Y-22436D01*
X56424Y-22379D01*
X56424Y-21893D01*
X56824Y-22493D02*
X56595Y-22493D01*
X56709Y-22493D02*
X56709Y-21893D01*
X56671Y-21979D01*
X56633Y-22036D01*
X56595Y-22064D01*
X57202Y-25641D02*
X56702Y-25641D01*
X57060Y-25524D01*
X56702Y-25407D01*
X57202Y-25407D01*
X56702Y-25174D02*
X56702Y-25107D01*
X56726Y-25074D01*
X56774Y-25041D01*
X56869Y-25024D01*
X57036Y-25024D01*
X57131Y-25041D01*
X57179Y-25074D01*
X57202Y-25107D01*
X57202Y-25174D01*
X57179Y-25207D01*
X57131Y-25241D01*
X57036Y-25257D01*
X56869Y-25257D01*
X56774Y-25241D01*
X56726Y-25207D01*
X56702Y-25174D01*
X57155Y-24674D02*
X57179Y-24690D01*
X57202Y-24740D01*
X57202Y-24774D01*
X57179Y-24824D01*
X57131Y-24857D01*
X57083Y-24874D01*
X56988Y-24890D01*
X56917Y-24890D01*
X56821Y-24874D01*
X56774Y-24857D01*
X56726Y-24824D01*
X56702Y-24774D01*
X56702Y-24740D01*
X56726Y-24690D01*
X56750Y-24674D01*
X56702Y-24557D02*
X56702Y-24340D01*
X56893Y-24457D01*
X56893Y-24407D01*
X56917Y-24374D01*
X56940Y-24357D01*
X56988Y-24340D01*
X57107Y-24340D01*
X57155Y-24357D01*
X57179Y-24374D01*
X57202Y-24407D01*
X57202Y-24507D01*
X57179Y-24540D01*
X57155Y-24557D01*
X56702Y-24124D02*
X56702Y-24091D01*
X56726Y-24057D01*
X56750Y-24041D01*
X56798Y-24024D01*
X56893Y-24007D01*
X57012Y-24007D01*
X57107Y-24024D01*
X57155Y-24041D01*
X57179Y-24057D01*
X57202Y-24091D01*
X57202Y-24124D01*
X57179Y-24157D01*
X57155Y-24174D01*
X57107Y-24191D01*
X57012Y-24207D01*
X56893Y-24207D01*
X56798Y-24191D01*
X56750Y-24174D01*
X56726Y-24157D01*
X56702Y-24124D01*
X56869Y-23708D02*
X57202Y-23708D01*
X56679Y-23791D02*
X57036Y-23874D01*
X57036Y-23658D01*
X57202Y-23341D02*
X57202Y-23541D01*
X57202Y-23441D02*
X56702Y-23441D01*
X56774Y-23475D01*
X56821Y-23508D01*
X56845Y-23541D01*
X62695Y-22893D02*
X62695Y-23379D01*
X62714Y-23436D01*
X62733Y-23464D01*
X62771Y-23493D01*
X62848Y-23493D01*
X62886Y-23464D01*
X62905Y-23436D01*
X62924Y-23379D01*
X62924Y-22893D01*
X63095Y-22950D02*
X63114Y-22921D01*
X63152Y-22893D01*
X63248Y-22893D01*
X63286Y-22921D01*
X63305Y-22950D01*
X63324Y-23007D01*
X63324Y-23064D01*
X63305Y-23150D01*
X63076Y-23493D01*
X63324Y-23493D01*
X65202Y-24891D02*
X64702Y-24891D01*
X65060Y-24774D01*
X64702Y-24657D01*
X65202Y-24657D01*
X64702Y-24424D02*
X64702Y-24357D01*
X64726Y-24324D01*
X64774Y-24291D01*
X64869Y-24274D01*
X65036Y-24274D01*
X65131Y-24291D01*
X65179Y-24324D01*
X65202Y-24357D01*
X65202Y-24424D01*
X65179Y-24457D01*
X65131Y-24491D01*
X65036Y-24507D01*
X64869Y-24507D01*
X64774Y-24491D01*
X64726Y-24457D01*
X64702Y-24424D01*
X65155Y-23924D02*
X65179Y-23940D01*
X65202Y-23990D01*
X65202Y-24024D01*
X65179Y-24074D01*
X65131Y-24107D01*
X65083Y-24124D01*
X64988Y-24140D01*
X64917Y-24140D01*
X64821Y-24124D01*
X64774Y-24107D01*
X64726Y-24074D01*
X64702Y-24024D01*
X64702Y-23990D01*
X64726Y-23940D01*
X64750Y-23924D01*
X64702Y-23807D02*
X64702Y-23590D01*
X64893Y-23707D01*
X64893Y-23657D01*
X64917Y-23624D01*
X64940Y-23607D01*
X64988Y-23590D01*
X65107Y-23590D01*
X65155Y-23607D01*
X65179Y-23624D01*
X65202Y-23657D01*
X65202Y-23757D01*
X65179Y-23790D01*
X65155Y-23807D01*
X64702Y-23374D02*
X64702Y-23341D01*
X64726Y-23307D01*
X64750Y-23291D01*
X64798Y-23274D01*
X64893Y-23257D01*
X65012Y-23257D01*
X65107Y-23274D01*
X65155Y-23291D01*
X65179Y-23307D01*
X65202Y-23341D01*
X65202Y-23374D01*
X65179Y-23407D01*
X65155Y-23424D01*
X65107Y-23441D01*
X65012Y-23457D01*
X64893Y-23457D01*
X64798Y-23441D01*
X64750Y-23424D01*
X64726Y-23407D01*
X64702Y-23374D01*
X64869Y-22958D02*
X65202Y-22958D01*
X64679Y-23041D02*
X65036Y-23124D01*
X65036Y-22908D01*
X65202Y-22591D02*
X65202Y-22791D01*
X65202Y-22691D02*
X64702Y-22691D01*
X64774Y-22725D01*
X64821Y-22758D01*
X64845Y-22791D01*
G54D19*
X59657Y-30833D02*
X59657Y-31400D01*
X59679Y-31467D01*
X59700Y-31500D01*
X59743Y-31533D01*
X59829Y-31533D01*
X59871Y-31500D01*
X59893Y-31467D01*
X59914Y-31400D01*
X59914Y-30833D01*
X60342Y-30833D02*
X60128Y-30833D01*
X60107Y-31167D01*
X60128Y-31133D01*
X60171Y-31100D01*
X60278Y-31100D01*
X60321Y-31133D01*
X60342Y-31167D01*
X60364Y-31233D01*
X60364Y-31400D01*
X60342Y-31467D01*
X60321Y-31500D01*
X60278Y-31533D01*
X60171Y-31533D01*
X60128Y-31500D01*
X60107Y-31467D01*
X63283Y-37751D02*
X62583Y-37751D01*
X62583Y-37579D01*
X62617Y-37537D01*
X62650Y-37515D01*
X62717Y-37494D01*
X62817Y-37494D01*
X62883Y-37515D01*
X62917Y-37537D01*
X62950Y-37579D01*
X62950Y-37751D01*
X63283Y-37301D02*
X62583Y-37301D01*
X63217Y-36830D02*
X63250Y-36851D01*
X63283Y-36915D01*
X63283Y-36958D01*
X63250Y-37023D01*
X63183Y-37065D01*
X63117Y-37087D01*
X62983Y-37108D01*
X62883Y-37108D01*
X62750Y-37087D01*
X62683Y-37065D01*
X62617Y-37023D01*
X62583Y-36958D01*
X62583Y-36915D01*
X62617Y-36851D01*
X62650Y-36830D01*
X63283Y-36401D02*
X63283Y-36658D01*
X63283Y-36530D02*
X62583Y-36530D01*
X62683Y-36573D01*
X62750Y-36615D01*
X62783Y-36658D01*
X62583Y-36015D02*
X62583Y-36101D01*
X62617Y-36144D01*
X62650Y-36165D01*
X62750Y-36208D01*
X62883Y-36229D01*
X63150Y-36229D01*
X63217Y-36208D01*
X63250Y-36186D01*
X63283Y-36144D01*
X63283Y-36058D01*
X63250Y-36015D01*
X63217Y-35994D01*
X63150Y-35972D01*
X62983Y-35972D01*
X62917Y-35994D01*
X62883Y-36015D01*
X62850Y-36058D01*
X62850Y-36144D01*
X62883Y-36186D01*
X62917Y-36208D01*
X62983Y-36229D01*
X62917Y-35629D02*
X62917Y-35779D01*
X63283Y-35779D02*
X62583Y-35779D01*
X62583Y-35565D01*
X62883Y-35329D02*
X62850Y-35371D01*
X62817Y-35393D01*
X62750Y-35414D01*
X62717Y-35414D01*
X62650Y-35393D01*
X62617Y-35371D01*
X62583Y-35329D01*
X62583Y-35243D01*
X62617Y-35200D01*
X62650Y-35179D01*
X62717Y-35157D01*
X62750Y-35157D01*
X62817Y-35179D01*
X62850Y-35200D01*
X62883Y-35243D01*
X62883Y-35329D01*
X62917Y-35371D01*
X62950Y-35393D01*
X63017Y-35414D01*
X63150Y-35414D01*
X63217Y-35393D01*
X63250Y-35371D01*
X63283Y-35329D01*
X63283Y-35243D01*
X63250Y-35200D01*
X63217Y-35179D01*
X63150Y-35157D01*
X63017Y-35157D01*
X62950Y-35179D01*
X62917Y-35200D01*
X62883Y-35243D01*
X62883Y-34900D02*
X62850Y-34942D01*
X62817Y-34964D01*
X62750Y-34985D01*
X62717Y-34985D01*
X62650Y-34964D01*
X62617Y-34942D01*
X62583Y-34900D01*
X62583Y-34814D01*
X62617Y-34771D01*
X62650Y-34750D01*
X62717Y-34728D01*
X62750Y-34728D01*
X62817Y-34750D01*
X62850Y-34771D01*
X62883Y-34814D01*
X62883Y-34900D01*
X62917Y-34942D01*
X62950Y-34964D01*
X63017Y-34985D01*
X63150Y-34985D01*
X63217Y-34964D01*
X63250Y-34942D01*
X63283Y-34900D01*
X63283Y-34814D01*
X63250Y-34771D01*
X63217Y-34750D01*
X63150Y-34728D01*
X63017Y-34728D01*
X62950Y-34750D01*
X62917Y-34771D01*
X62883Y-34814D01*
G54D12*
X39705Y-21702D02*
X39705Y-21202D01*
X39800Y-21202D01*
X39858Y-21226D01*
X39896Y-21274D01*
X39915Y-21321D01*
X39934Y-21417D01*
X39934Y-21488D01*
X39915Y-21583D01*
X39896Y-21631D01*
X39858Y-21679D01*
X39800Y-21702D01*
X39705Y-21702D01*
X40296Y-21202D02*
X40105Y-21202D01*
X40086Y-21440D01*
X40105Y-21417D01*
X40143Y-21393D01*
X40239Y-21393D01*
X40277Y-21417D01*
X40296Y-21440D01*
X40315Y-21488D01*
X40315Y-21607D01*
X40296Y-21655D01*
X40277Y-21679D01*
X40239Y-21702D01*
X40143Y-21702D01*
X40105Y-21679D01*
X40086Y-21655D01*
X48702Y-31486D02*
X48202Y-31486D01*
X48202Y-31391D01*
X48226Y-31333D01*
X48274Y-31295D01*
X48321Y-31276D01*
X48417Y-31257D01*
X48488Y-31257D01*
X48583Y-31276D01*
X48631Y-31295D01*
X48679Y-31333D01*
X48702Y-31391D01*
X48702Y-31486D01*
X48702Y-30876D02*
X48702Y-31105D01*
X48702Y-30991D02*
X48202Y-30991D01*
X48274Y-31029D01*
X48321Y-31067D01*
X48345Y-31105D01*
X48702Y-30495D02*
X48702Y-30724D01*
X48702Y-30610D02*
X48202Y-30610D01*
X48274Y-30648D01*
X48321Y-30686D01*
X48345Y-30724D01*
X70202Y-24986D02*
X69702Y-24986D01*
X69702Y-24891D01*
X69726Y-24833D01*
X69774Y-24795D01*
X69821Y-24776D01*
X69917Y-24757D01*
X69988Y-24757D01*
X70083Y-24776D01*
X70131Y-24795D01*
X70179Y-24833D01*
X70202Y-24891D01*
X70202Y-24986D01*
X70202Y-24376D02*
X70202Y-24605D01*
X70202Y-24491D02*
X69702Y-24491D01*
X69774Y-24529D01*
X69821Y-24567D01*
X69845Y-24605D01*
X69750Y-24224D02*
X69726Y-24205D01*
X69702Y-24167D01*
X69702Y-24071D01*
X69726Y-24033D01*
X69750Y-24014D01*
X69798Y-23995D01*
X69845Y-23995D01*
X69917Y-24014D01*
X70202Y-24243D01*
X70202Y-23995D01*
X67452Y-28736D02*
X66952Y-28736D01*
X66952Y-28641D01*
X66976Y-28583D01*
X67024Y-28545D01*
X67071Y-28526D01*
X67167Y-28507D01*
X67238Y-28507D01*
X67333Y-28526D01*
X67381Y-28545D01*
X67429Y-28583D01*
X67452Y-28641D01*
X67452Y-28736D01*
X67452Y-28126D02*
X67452Y-28355D01*
X67452Y-28241D02*
X66952Y-28241D01*
X67024Y-28279D01*
X67071Y-28317D01*
X67095Y-28355D01*
X66952Y-27993D02*
X66952Y-27745D01*
X67143Y-27879D01*
X67143Y-27821D01*
X67167Y-27783D01*
X67190Y-27764D01*
X67238Y-27745D01*
X67357Y-27745D01*
X67405Y-27764D01*
X67429Y-27783D01*
X67452Y-27821D01*
X67452Y-27936D01*
X67429Y-27974D01*
X67405Y-27993D01*
X42955Y-25162D02*
X42955Y-24762D01*
X43050Y-24762D01*
X43108Y-24781D01*
X43146Y-24819D01*
X43165Y-24857D01*
X43184Y-24933D01*
X43184Y-24990D01*
X43165Y-25067D01*
X43146Y-25105D01*
X43108Y-25143D01*
X43050Y-25162D01*
X42955Y-25162D01*
X43317Y-24762D02*
X43584Y-24762D01*
X43412Y-25162D01*
X73205Y-42412D02*
X73205Y-42012D01*
X73300Y-42012D01*
X73358Y-42031D01*
X73396Y-42069D01*
X73415Y-42107D01*
X73434Y-42183D01*
X73434Y-42240D01*
X73415Y-42317D01*
X73396Y-42355D01*
X73358Y-42393D01*
X73300Y-42412D01*
X73205Y-42412D01*
X73624Y-42412D02*
X73700Y-42412D01*
X73739Y-42393D01*
X73758Y-42374D01*
X73796Y-42317D01*
X73815Y-42240D01*
X73815Y-42088D01*
X73796Y-42050D01*
X73777Y-42031D01*
X73739Y-42012D01*
X73662Y-42012D01*
X73624Y-42031D01*
X73605Y-42050D01*
X73586Y-42088D01*
X73586Y-42183D01*
X73605Y-42221D01*
X73624Y-42240D01*
X73662Y-42260D01*
X73739Y-42260D01*
X73777Y-42240D01*
X73796Y-42221D01*
X73815Y-42183D01*
X41205Y-20662D02*
X41205Y-20262D01*
X41300Y-20262D01*
X41358Y-20281D01*
X41396Y-20319D01*
X41415Y-20357D01*
X41434Y-20433D01*
X41434Y-20490D01*
X41415Y-20567D01*
X41396Y-20605D01*
X41358Y-20643D01*
X41300Y-20662D01*
X41205Y-20662D01*
X41777Y-20395D02*
X41777Y-20662D01*
X41681Y-20243D02*
X41586Y-20529D01*
X41834Y-20529D01*
X54912Y-36045D02*
X54512Y-36045D01*
X54512Y-35950D01*
X54531Y-35892D01*
X54569Y-35854D01*
X54607Y-35835D01*
X54683Y-35816D01*
X54740Y-35816D01*
X54817Y-35835D01*
X54855Y-35854D01*
X54893Y-35892D01*
X54912Y-35950D01*
X54912Y-36045D01*
X54512Y-35683D02*
X54512Y-35435D01*
X54664Y-35569D01*
X54664Y-35511D01*
X54683Y-35473D01*
X54702Y-35454D01*
X54740Y-35435D01*
X54836Y-35435D01*
X54874Y-35454D01*
X54893Y-35473D01*
X54912Y-35511D01*
X54912Y-35626D01*
X54893Y-35664D01*
X54874Y-35683D01*
X71162Y-41736D02*
X70762Y-41736D01*
X70762Y-41641D01*
X70781Y-41583D01*
X70819Y-41545D01*
X70857Y-41526D01*
X70933Y-41507D01*
X70990Y-41507D01*
X71067Y-41526D01*
X71105Y-41545D01*
X71143Y-41583D01*
X71162Y-41641D01*
X71162Y-41736D01*
X71162Y-41126D02*
X71162Y-41355D01*
X71162Y-41241D02*
X70762Y-41241D01*
X70819Y-41279D01*
X70857Y-41317D01*
X70876Y-41355D01*
X70762Y-40879D02*
X70762Y-40840D01*
X70781Y-40802D01*
X70800Y-40783D01*
X70838Y-40764D01*
X70914Y-40745D01*
X71010Y-40745D01*
X71086Y-40764D01*
X71124Y-40783D01*
X71143Y-40802D01*
X71162Y-40840D01*
X71162Y-40879D01*
X71143Y-40917D01*
X71124Y-40936D01*
X71086Y-40955D01*
X71010Y-40974D01*
X70914Y-40974D01*
X70838Y-40955D01*
X70800Y-40936D01*
X70781Y-40917D01*
X70762Y-40879D01*
X68192Y-18624D02*
X68176Y-18643D01*
X68126Y-18662D01*
X68092Y-18662D01*
X68042Y-18643D01*
X68009Y-18605D01*
X67992Y-18567D01*
X67976Y-18490D01*
X67976Y-18433D01*
X67992Y-18357D01*
X68009Y-18319D01*
X68042Y-18281D01*
X68092Y-18262D01*
X68126Y-18262D01*
X68176Y-18281D01*
X68192Y-18300D01*
X68359Y-18662D02*
X68426Y-18662D01*
X68459Y-18643D01*
X68476Y-18624D01*
X68509Y-18567D01*
X68526Y-18490D01*
X68526Y-18338D01*
X68509Y-18300D01*
X68492Y-18281D01*
X68459Y-18262D01*
X68392Y-18262D01*
X68359Y-18281D01*
X68342Y-18300D01*
X68326Y-18338D01*
X68326Y-18433D01*
X68342Y-18471D01*
X68359Y-18490D01*
X68392Y-18510D01*
X68459Y-18510D01*
X68492Y-18490D01*
X68509Y-18471D01*
X68526Y-18433D01*
X65662Y-21458D02*
X65662Y-21658D01*
X65662Y-21558D02*
X65262Y-21558D01*
X65319Y-21592D01*
X65357Y-21625D01*
X65376Y-21658D01*
X65262Y-21242D02*
X65262Y-21209D01*
X65281Y-21175D01*
X65300Y-21159D01*
X65338Y-21142D01*
X65414Y-21125D01*
X65510Y-21125D01*
X65586Y-21142D01*
X65624Y-21159D01*
X65643Y-21175D01*
X65662Y-21209D01*
X65662Y-21242D01*
X65643Y-21275D01*
X65624Y-21292D01*
X65586Y-21309D01*
X65510Y-21325D01*
X65414Y-21325D01*
X65338Y-21309D01*
X65300Y-21292D01*
X65281Y-21275D01*
X65262Y-21242D01*
X65395Y-20976D02*
X65662Y-20976D01*
X65433Y-20976D02*
X65414Y-20959D01*
X65395Y-20926D01*
X65395Y-20876D01*
X65414Y-20842D01*
X65452Y-20826D01*
X65662Y-20826D01*
X65452Y-20542D02*
X65452Y-20659D01*
X65662Y-20659D02*
X65262Y-20659D01*
X65262Y-20492D01*
X65700Y-20442D02*
X65700Y-20175D01*
X65243Y-19842D02*
X65757Y-20142D01*
X65700Y-19808D02*
X65700Y-19541D01*
X65395Y-19308D02*
X65662Y-19308D01*
X65243Y-19391D02*
X65529Y-19474D01*
X65529Y-19258D01*
X65262Y-19058D02*
X65262Y-19025D01*
X65281Y-18991D01*
X65300Y-18975D01*
X65338Y-18958D01*
X65414Y-18941D01*
X65510Y-18941D01*
X65586Y-18958D01*
X65624Y-18975D01*
X65643Y-18991D01*
X65662Y-19025D01*
X65662Y-19058D01*
X65643Y-19091D01*
X65624Y-19108D01*
X65586Y-19125D01*
X65510Y-19141D01*
X65414Y-19141D01*
X65338Y-19125D01*
X65300Y-19108D01*
X65281Y-19091D01*
X65262Y-19058D01*
X65262Y-18725D02*
X65262Y-18692D01*
X65281Y-18658D01*
X65300Y-18642D01*
X65338Y-18625D01*
X65414Y-18608D01*
X65510Y-18608D01*
X65586Y-18625D01*
X65624Y-18642D01*
X65643Y-18658D01*
X65662Y-18692D01*
X65662Y-18725D01*
X65643Y-18758D01*
X65624Y-18775D01*
X65586Y-18792D01*
X65510Y-18808D01*
X65414Y-18808D01*
X65338Y-18792D01*
X65300Y-18775D01*
X65281Y-18758D01*
X65262Y-18725D01*
X65395Y-18492D02*
X65662Y-18409D01*
X65395Y-18325D01*
X66514Y-21177D02*
X66514Y-20720D01*
X66743Y-20949D02*
X66286Y-20949D01*
X40692Y-25624D02*
X40676Y-25643D01*
X40626Y-25662D01*
X40592Y-25662D01*
X40542Y-25643D01*
X40509Y-25605D01*
X40492Y-25567D01*
X40476Y-25490D01*
X40476Y-25433D01*
X40492Y-25357D01*
X40509Y-25319D01*
X40542Y-25281D01*
X40592Y-25262D01*
X40626Y-25262D01*
X40676Y-25281D01*
X40692Y-25300D01*
X40992Y-25262D02*
X40926Y-25262D01*
X40892Y-25281D01*
X40876Y-25300D01*
X40842Y-25357D01*
X40826Y-25433D01*
X40826Y-25586D01*
X40842Y-25624D01*
X40859Y-25643D01*
X40892Y-25662D01*
X40959Y-25662D01*
X40992Y-25643D01*
X41009Y-25624D01*
X41026Y-25586D01*
X41026Y-25490D01*
X41009Y-25452D01*
X40992Y-25433D01*
X40959Y-25414D01*
X40892Y-25414D01*
X40859Y-25433D01*
X40842Y-25452D01*
X40826Y-25490D01*
X38395Y-28742D02*
X38662Y-28742D01*
X38243Y-28825D02*
X38529Y-28908D01*
X38529Y-28692D01*
X38262Y-28592D02*
X38262Y-28359D01*
X38662Y-28509D01*
X38262Y-28159D02*
X38262Y-28126D01*
X38281Y-28092D01*
X38300Y-28076D01*
X38338Y-28059D01*
X38414Y-28042D01*
X38510Y-28042D01*
X38586Y-28059D01*
X38624Y-28076D01*
X38643Y-28092D01*
X38662Y-28126D01*
X38662Y-28159D01*
X38643Y-28192D01*
X38624Y-28209D01*
X38586Y-28226D01*
X38510Y-28242D01*
X38414Y-28242D01*
X38338Y-28226D01*
X38300Y-28209D01*
X38281Y-28192D01*
X38262Y-28159D01*
X38395Y-27743D02*
X38662Y-27743D01*
X38395Y-27893D02*
X38605Y-27893D01*
X38643Y-27876D01*
X38662Y-27843D01*
X38662Y-27793D01*
X38643Y-27759D01*
X38624Y-27743D01*
X38452Y-27459D02*
X38452Y-27576D01*
X38662Y-27576D02*
X38262Y-27576D01*
X38262Y-27409D01*
X38700Y-27359D02*
X38700Y-27092D01*
X38243Y-26759D02*
X38757Y-27059D01*
X38700Y-26725D02*
X38700Y-26458D01*
X38300Y-26391D02*
X38281Y-26375D01*
X38262Y-26341D01*
X38262Y-26258D01*
X38281Y-26225D01*
X38300Y-26208D01*
X38338Y-26191D01*
X38376Y-26191D01*
X38433Y-26208D01*
X38662Y-26408D01*
X38662Y-26191D01*
X38262Y-25875D02*
X38262Y-26042D01*
X38452Y-26058D01*
X38433Y-26042D01*
X38414Y-26008D01*
X38414Y-25925D01*
X38433Y-25892D01*
X38452Y-25875D01*
X38490Y-25858D01*
X38586Y-25858D01*
X38624Y-25875D01*
X38643Y-25892D01*
X38662Y-25925D01*
X38662Y-26008D01*
X38643Y-26042D01*
X38624Y-26058D01*
X38395Y-25742D02*
X38662Y-25659D01*
X38395Y-25575D01*
X40014Y-29478D02*
X40014Y-29021D01*
X40243Y-29250D02*
X39786Y-29250D01*
X56192Y-18874D02*
X56176Y-18893D01*
X56126Y-18912D01*
X56092Y-18912D01*
X56042Y-18893D01*
X56009Y-18855D01*
X55992Y-18817D01*
X55976Y-18740D01*
X55976Y-18683D01*
X55992Y-18607D01*
X56009Y-18569D01*
X56042Y-18531D01*
X56092Y-18512D01*
X56126Y-18512D01*
X56176Y-18531D01*
X56192Y-18550D01*
X56392Y-18683D02*
X56359Y-18664D01*
X56342Y-18645D01*
X56326Y-18607D01*
X56326Y-18588D01*
X56342Y-18550D01*
X56359Y-18531D01*
X56392Y-18512D01*
X56459Y-18512D01*
X56492Y-18531D01*
X56509Y-18550D01*
X56526Y-18588D01*
X56526Y-18607D01*
X56509Y-18645D01*
X56492Y-18664D01*
X56459Y-18683D01*
X56392Y-18683D01*
X56359Y-18702D01*
X56342Y-18721D01*
X56326Y-18760D01*
X56326Y-18836D01*
X56342Y-18874D01*
X56359Y-18893D01*
X56392Y-18912D01*
X56459Y-18912D01*
X56492Y-18893D01*
X56509Y-18874D01*
X56526Y-18836D01*
X56526Y-18760D01*
X56509Y-18721D01*
X56492Y-18702D01*
X56459Y-18683D01*
X58162Y-20759D02*
X58162Y-20959D01*
X58162Y-20859D02*
X57762Y-20859D01*
X57819Y-20893D01*
X57857Y-20926D01*
X57876Y-20959D01*
X57762Y-20543D02*
X57762Y-20510D01*
X57781Y-20476D01*
X57800Y-20460D01*
X57838Y-20443D01*
X57914Y-20426D01*
X58010Y-20426D01*
X58086Y-20443D01*
X58124Y-20460D01*
X58143Y-20476D01*
X58162Y-20510D01*
X58162Y-20543D01*
X58143Y-20576D01*
X58124Y-20593D01*
X58086Y-20610D01*
X58010Y-20626D01*
X57914Y-20626D01*
X57838Y-20610D01*
X57800Y-20593D01*
X57781Y-20576D01*
X57762Y-20543D01*
X57895Y-20277D02*
X58162Y-20277D01*
X57933Y-20277D02*
X57914Y-20260D01*
X57895Y-20227D01*
X57895Y-20177D01*
X57914Y-20143D01*
X57952Y-20127D01*
X58162Y-20127D01*
X57952Y-19843D02*
X57952Y-19960D01*
X58162Y-19960D02*
X57762Y-19960D01*
X57762Y-19793D01*
X58200Y-19743D02*
X58200Y-19476D01*
X57743Y-19143D02*
X58257Y-19443D01*
X58200Y-19109D02*
X58200Y-18842D01*
X57895Y-18609D02*
X58162Y-18609D01*
X57743Y-18692D02*
X58029Y-18775D01*
X58029Y-18559D01*
X57762Y-18359D02*
X57762Y-18326D01*
X57781Y-18292D01*
X57800Y-18276D01*
X57838Y-18259D01*
X57914Y-18242D01*
X58010Y-18242D01*
X58086Y-18259D01*
X58124Y-18276D01*
X58143Y-18292D01*
X58162Y-18326D01*
X58162Y-18359D01*
X58143Y-18392D01*
X58124Y-18409D01*
X58086Y-18426D01*
X58010Y-18442D01*
X57914Y-18442D01*
X57838Y-18426D01*
X57800Y-18409D01*
X57781Y-18392D01*
X57762Y-18359D01*
X57762Y-18026D02*
X57762Y-17993D01*
X57781Y-17959D01*
X57800Y-17943D01*
X57838Y-17926D01*
X57914Y-17909D01*
X58010Y-17909D01*
X58086Y-17926D01*
X58124Y-17943D01*
X58143Y-17959D01*
X58162Y-17993D01*
X58162Y-18026D01*
X58143Y-18059D01*
X58124Y-18076D01*
X58086Y-18093D01*
X58010Y-18109D01*
X57914Y-18109D01*
X57838Y-18093D01*
X57800Y-18076D01*
X57781Y-18059D01*
X57762Y-18026D01*
X57895Y-17793D02*
X58162Y-17710D01*
X57895Y-17626D01*
X56573Y-20014D02*
X57030Y-20014D01*
X56801Y-20243D02*
X56801Y-19786D01*
G54D16*
X70807Y-16593D02*
X70793Y-16607D01*
X70750Y-16621D01*
X70721Y-16621D01*
X70678Y-16607D01*
X70650Y-16579D01*
X70635Y-16550D01*
X70621Y-16493D01*
X70621Y-16450D01*
X70635Y-16393D01*
X70650Y-16364D01*
X70678Y-16336D01*
X70721Y-16321D01*
X70750Y-16321D01*
X70793Y-16336D01*
X70807Y-16350D01*
X71093Y-16621D02*
X70921Y-16621D01*
X71007Y-16621D02*
X71007Y-16321D01*
X70978Y-16364D01*
X70950Y-16393D01*
X70921Y-16407D01*
X71193Y-16321D02*
X71379Y-16321D01*
X71279Y-16436D01*
X71321Y-16436D01*
X71350Y-16450D01*
X71364Y-16464D01*
X71379Y-16493D01*
X71379Y-16564D01*
X71364Y-16593D01*
X71350Y-16607D01*
X71321Y-16621D01*
X71236Y-16621D01*
X71207Y-16607D01*
X71193Y-16593D01*
X70351Y-17371D02*
X70209Y-17371D01*
X70280Y-17371D02*
X70280Y-17071D01*
X70256Y-17114D01*
X70232Y-17143D01*
X70209Y-17157D01*
X70566Y-17171D02*
X70566Y-17371D01*
X70459Y-17171D02*
X70459Y-17329D01*
X70470Y-17357D01*
X70494Y-17371D01*
X70530Y-17371D01*
X70554Y-17357D01*
X70566Y-17343D01*
X70768Y-17214D02*
X70685Y-17214D01*
X70685Y-17371D02*
X70685Y-17071D01*
X70804Y-17071D01*
G54D20*
X71286Y-17757D02*
X71515Y-17757D01*
X71401Y-17871D02*
X71401Y-17643D01*
G54D16*
X70557Y-37593D02*
X70543Y-37607D01*
X70500Y-37621D01*
X70471Y-37621D01*
X70428Y-37607D01*
X70400Y-37579D01*
X70385Y-37550D01*
X70371Y-37493D01*
X70371Y-37450D01*
X70385Y-37393D01*
X70400Y-37364D01*
X70428Y-37336D01*
X70471Y-37321D01*
X70500Y-37321D01*
X70543Y-37336D01*
X70557Y-37350D01*
X70843Y-37621D02*
X70671Y-37621D01*
X70757Y-37621D02*
X70757Y-37321D01*
X70728Y-37364D01*
X70700Y-37393D01*
X70671Y-37407D01*
X70957Y-37350D02*
X70971Y-37336D01*
X71000Y-37321D01*
X71071Y-37321D01*
X71100Y-37336D01*
X71114Y-37350D01*
X71129Y-37379D01*
X71129Y-37407D01*
X71114Y-37450D01*
X70943Y-37621D01*
X71129Y-37621D01*
X69121Y-39184D02*
X69121Y-39326D01*
X69121Y-39255D02*
X68821Y-39255D01*
X68864Y-39279D01*
X68893Y-39303D01*
X68907Y-39326D01*
X68921Y-38969D02*
X69121Y-38969D01*
X68921Y-39076D02*
X69079Y-39076D01*
X69107Y-39065D01*
X69121Y-39041D01*
X69121Y-39005D01*
X69107Y-38981D01*
X69093Y-38969D01*
X68964Y-38767D02*
X68964Y-38850D01*
X69121Y-38850D02*
X68821Y-38850D01*
X68821Y-38731D01*
X69150Y-38696D02*
X69150Y-38506D01*
X68807Y-38268D02*
X69193Y-38482D01*
X69150Y-38244D02*
X69150Y-38054D01*
X69121Y-37864D02*
X69121Y-38006D01*
X69121Y-37935D02*
X68821Y-37935D01*
X68864Y-37959D01*
X68893Y-37983D01*
X68907Y-38006D01*
X68821Y-37709D02*
X68821Y-37685D01*
X68836Y-37661D01*
X68850Y-37649D01*
X68879Y-37637D01*
X68936Y-37626D01*
X69007Y-37626D01*
X69064Y-37637D01*
X69093Y-37649D01*
X69107Y-37661D01*
X69121Y-37685D01*
X69121Y-37709D01*
X69107Y-37733D01*
X69093Y-37745D01*
X69064Y-37756D01*
X69007Y-37768D01*
X68936Y-37768D01*
X68879Y-37756D01*
X68850Y-37745D01*
X68836Y-37733D01*
X68821Y-37709D01*
X68821Y-37471D02*
X68821Y-37447D01*
X68836Y-37423D01*
X68850Y-37411D01*
X68879Y-37399D01*
X68936Y-37388D01*
X69007Y-37388D01*
X69064Y-37399D01*
X69093Y-37411D01*
X69107Y-37423D01*
X69121Y-37447D01*
X69121Y-37471D01*
X69107Y-37495D01*
X69093Y-37507D01*
X69064Y-37518D01*
X69007Y-37530D01*
X68936Y-37530D01*
X68879Y-37518D01*
X68850Y-37507D01*
X68836Y-37495D01*
X68821Y-37471D01*
X68821Y-37316D02*
X69121Y-37233D01*
X68821Y-37150D01*
G54D20*
X69757Y-37714D02*
X69757Y-37485D01*
X69871Y-37599D02*
X69643Y-37599D01*
G54D16*
X71593Y-31193D02*
X71607Y-31207D01*
X71621Y-31250D01*
X71621Y-31279D01*
X71607Y-31322D01*
X71579Y-31350D01*
X71550Y-31365D01*
X71493Y-31379D01*
X71450Y-31379D01*
X71393Y-31365D01*
X71364Y-31350D01*
X71336Y-31322D01*
X71321Y-31279D01*
X71321Y-31250D01*
X71336Y-31207D01*
X71350Y-31193D01*
X71621Y-30907D02*
X71621Y-31079D01*
X71621Y-30993D02*
X71321Y-30993D01*
X71364Y-31022D01*
X71393Y-31050D01*
X71407Y-31079D01*
X71621Y-30621D02*
X71621Y-30793D01*
X71621Y-30707D02*
X71321Y-30707D01*
X71364Y-30736D01*
X71393Y-30764D01*
X71407Y-30793D01*
X69671Y-31635D02*
X69871Y-31635D01*
X69557Y-31695D02*
X69771Y-31754D01*
X69771Y-31600D01*
X69843Y-31504D02*
X69857Y-31493D01*
X69871Y-31504D01*
X69857Y-31516D01*
X69843Y-31504D01*
X69871Y-31504D01*
X69571Y-31409D02*
X69571Y-31243D01*
X69871Y-31350D01*
X69671Y-31040D02*
X69871Y-31040D01*
X69671Y-31147D02*
X69829Y-31147D01*
X69857Y-31136D01*
X69871Y-31112D01*
X69871Y-31076D01*
X69857Y-31052D01*
X69843Y-31040D01*
X69714Y-30838D02*
X69714Y-30921D01*
X69871Y-30921D02*
X69571Y-30921D01*
X69571Y-30802D01*
X69900Y-30767D02*
X69900Y-30577D01*
X69557Y-30339D02*
X69943Y-30553D01*
X69900Y-30315D02*
X69900Y-30125D01*
X69871Y-29935D02*
X69871Y-30077D01*
X69871Y-30006D02*
X69571Y-30006D01*
X69614Y-30030D01*
X69643Y-30054D01*
X69657Y-30077D01*
X69571Y-29780D02*
X69571Y-29756D01*
X69586Y-29732D01*
X69600Y-29720D01*
X69629Y-29708D01*
X69686Y-29697D01*
X69757Y-29697D01*
X69814Y-29708D01*
X69843Y-29720D01*
X69857Y-29732D01*
X69871Y-29756D01*
X69871Y-29780D01*
X69857Y-29804D01*
X69843Y-29816D01*
X69814Y-29827D01*
X69757Y-29839D01*
X69686Y-29839D01*
X69629Y-29827D01*
X69600Y-29816D01*
X69586Y-29804D01*
X69571Y-29780D01*
X69571Y-29542D02*
X69571Y-29518D01*
X69586Y-29494D01*
X69600Y-29482D01*
X69629Y-29470D01*
X69686Y-29459D01*
X69757Y-29459D01*
X69814Y-29470D01*
X69843Y-29482D01*
X69857Y-29494D01*
X69871Y-29518D01*
X69871Y-29542D01*
X69857Y-29566D01*
X69843Y-29578D01*
X69814Y-29589D01*
X69757Y-29601D01*
X69686Y-29601D01*
X69629Y-29589D01*
X69600Y-29578D01*
X69586Y-29566D01*
X69571Y-29542D01*
X69571Y-29387D02*
X69871Y-29304D01*
X69571Y-29221D01*
G54D20*
X70257Y-29714D02*
X70257Y-29485D01*
X70371Y-29599D02*
X70143Y-29599D01*
G54D12*
X40993Y-38124D02*
X40974Y-38143D01*
X40917Y-38162D01*
X40879Y-38162D01*
X40821Y-38143D01*
X40783Y-38105D01*
X40764Y-38067D01*
X40745Y-37990D01*
X40745Y-37933D01*
X40764Y-37857D01*
X40783Y-37819D01*
X40821Y-37781D01*
X40879Y-37762D01*
X40917Y-37762D01*
X40974Y-37781D01*
X40993Y-37800D01*
X41374Y-38162D02*
X41145Y-38162D01*
X41259Y-38162D02*
X41259Y-37762D01*
X41221Y-37819D01*
X41183Y-37857D01*
X41145Y-37876D01*
X41621Y-37762D02*
X41660Y-37762D01*
X41698Y-37781D01*
X41717Y-37800D01*
X41736Y-37838D01*
X41755Y-37914D01*
X41755Y-38010D01*
X41736Y-38086D01*
X41717Y-38124D01*
X41698Y-38143D01*
X41660Y-38162D01*
X41621Y-38162D01*
X41583Y-38143D01*
X41564Y-38124D01*
X41545Y-38086D01*
X41526Y-38010D01*
X41526Y-37914D01*
X41545Y-37838D01*
X41564Y-37800D01*
X41583Y-37781D01*
X41621Y-37762D01*
X75374Y-27507D02*
X75393Y-27526D01*
X75412Y-27583D01*
X75412Y-27621D01*
X75393Y-27679D01*
X75355Y-27717D01*
X75317Y-27736D01*
X75240Y-27755D01*
X75183Y-27755D01*
X75107Y-27736D01*
X75069Y-27717D01*
X75031Y-27679D01*
X75012Y-27621D01*
X75012Y-27583D01*
X75031Y-27526D01*
X75050Y-27507D01*
X75412Y-27126D02*
X75412Y-27355D01*
X75412Y-27241D02*
X75012Y-27241D01*
X75069Y-27279D01*
X75107Y-27317D01*
X75126Y-27355D01*
X75012Y-26993D02*
X75012Y-26726D01*
X75412Y-26898D01*
X51493Y-44624D02*
X51474Y-44643D01*
X51417Y-44662D01*
X51379Y-44662D01*
X51321Y-44643D01*
X51283Y-44605D01*
X51264Y-44567D01*
X51245Y-44490D01*
X51245Y-44433D01*
X51264Y-44357D01*
X51283Y-44319D01*
X51321Y-44281D01*
X51379Y-44262D01*
X51417Y-44262D01*
X51474Y-44281D01*
X51493Y-44300D01*
X51874Y-44662D02*
X51645Y-44662D01*
X51759Y-44662D02*
X51759Y-44262D01*
X51721Y-44319D01*
X51683Y-44357D01*
X51645Y-44376D01*
X52217Y-44395D02*
X52217Y-44662D01*
X52121Y-44243D02*
X52026Y-44529D01*
X52274Y-44529D01*
X43684Y-21374D02*
X43665Y-21393D01*
X43608Y-21412D01*
X43570Y-21412D01*
X43512Y-21393D01*
X43474Y-21355D01*
X43455Y-21317D01*
X43436Y-21240D01*
X43436Y-21183D01*
X43455Y-21107D01*
X43474Y-21069D01*
X43512Y-21031D01*
X43570Y-21012D01*
X43608Y-21012D01*
X43665Y-21031D01*
X43684Y-21050D01*
X43817Y-21012D02*
X44084Y-21012D01*
X43912Y-21412D01*
X73124Y-32007D02*
X73143Y-32026D01*
X73162Y-32083D01*
X73162Y-32121D01*
X73143Y-32179D01*
X73105Y-32217D01*
X73067Y-32236D01*
X72990Y-32255D01*
X72933Y-32255D01*
X72857Y-32236D01*
X72819Y-32217D01*
X72781Y-32179D01*
X72762Y-32121D01*
X72762Y-32083D01*
X72781Y-32026D01*
X72800Y-32007D01*
X73162Y-31626D02*
X73162Y-31855D01*
X73162Y-31741D02*
X72762Y-31741D01*
X72819Y-31779D01*
X72857Y-31817D01*
X72876Y-31855D01*
X72762Y-31264D02*
X72762Y-31455D01*
X72952Y-31474D01*
X72933Y-31455D01*
X72914Y-31417D01*
X72914Y-31321D01*
X72933Y-31283D01*
X72952Y-31264D01*
X72990Y-31245D01*
X73086Y-31245D01*
X73124Y-31264D01*
X73143Y-31283D01*
X73162Y-31321D01*
X73162Y-31417D01*
X73143Y-31455D01*
X73124Y-31474D01*
X57934Y-37624D02*
X57915Y-37643D01*
X57858Y-37662D01*
X57820Y-37662D01*
X57762Y-37643D01*
X57724Y-37605D01*
X57705Y-37567D01*
X57686Y-37490D01*
X57686Y-37433D01*
X57705Y-37357D01*
X57724Y-37319D01*
X57762Y-37281D01*
X57820Y-37262D01*
X57858Y-37262D01*
X57915Y-37281D01*
X57934Y-37300D01*
X58296Y-37262D02*
X58105Y-37262D01*
X58086Y-37452D01*
X58105Y-37433D01*
X58143Y-37414D01*
X58239Y-37414D01*
X58277Y-37433D01*
X58296Y-37452D01*
X58315Y-37490D01*
X58315Y-37586D01*
X58296Y-37624D01*
X58277Y-37643D01*
X58239Y-37662D01*
X58143Y-37662D01*
X58105Y-37643D01*
X58086Y-37624D01*
X67684Y-37124D02*
X67665Y-37143D01*
X67608Y-37162D01*
X67570Y-37162D01*
X67512Y-37143D01*
X67474Y-37105D01*
X67455Y-37067D01*
X67436Y-36990D01*
X67436Y-36933D01*
X67455Y-36857D01*
X67474Y-36819D01*
X67512Y-36781D01*
X67570Y-36762D01*
X67608Y-36762D01*
X67665Y-36781D01*
X67684Y-36800D01*
X68027Y-36895D02*
X68027Y-37162D01*
X67931Y-36743D02*
X67836Y-37029D01*
X68084Y-37029D01*
X69434Y-34124D02*
X69415Y-34143D01*
X69358Y-34162D01*
X69320Y-34162D01*
X69262Y-34143D01*
X69224Y-34105D01*
X69205Y-34067D01*
X69186Y-33990D01*
X69186Y-33933D01*
X69205Y-33857D01*
X69224Y-33819D01*
X69262Y-33781D01*
X69320Y-33762D01*
X69358Y-33762D01*
X69415Y-33781D01*
X69434Y-33800D01*
X69567Y-33762D02*
X69815Y-33762D01*
X69681Y-33914D01*
X69739Y-33914D01*
X69777Y-33933D01*
X69796Y-33952D01*
X69815Y-33990D01*
X69815Y-34086D01*
X69796Y-34124D01*
X69777Y-34143D01*
X69739Y-34162D01*
X69624Y-34162D01*
X69586Y-34143D01*
X69567Y-34124D01*
X66934Y-32124D02*
X66915Y-32143D01*
X66858Y-32162D01*
X66820Y-32162D01*
X66762Y-32143D01*
X66724Y-32105D01*
X66705Y-32067D01*
X66686Y-31990D01*
X66686Y-31933D01*
X66705Y-31857D01*
X66724Y-31819D01*
X66762Y-31781D01*
X66820Y-31762D01*
X66858Y-31762D01*
X66915Y-31781D01*
X66934Y-31800D01*
X67086Y-31800D02*
X67105Y-31781D01*
X67143Y-31762D01*
X67239Y-31762D01*
X67277Y-31781D01*
X67296Y-31800D01*
X67315Y-31838D01*
X67315Y-31876D01*
X67296Y-31933D01*
X67067Y-32162D01*
X67315Y-32162D01*
X70374Y-44507D02*
X70393Y-44526D01*
X70412Y-44583D01*
X70412Y-44621D01*
X70393Y-44679D01*
X70355Y-44717D01*
X70317Y-44736D01*
X70240Y-44755D01*
X70183Y-44755D01*
X70107Y-44736D01*
X70069Y-44717D01*
X70031Y-44679D01*
X70012Y-44621D01*
X70012Y-44583D01*
X70031Y-44526D01*
X70050Y-44507D01*
X70412Y-44126D02*
X70412Y-44355D01*
X70412Y-44241D02*
X70012Y-44241D01*
X70069Y-44279D01*
X70107Y-44317D01*
X70126Y-44355D01*
X70012Y-43783D02*
X70012Y-43860D01*
X70031Y-43898D01*
X70050Y-43917D01*
X70107Y-43955D01*
X70183Y-43974D01*
X70336Y-43974D01*
X70374Y-43955D01*
X70393Y-43936D01*
X70412Y-43898D01*
X70412Y-43821D01*
X70393Y-43783D01*
X70374Y-43764D01*
X70336Y-43745D01*
X70240Y-43745D01*
X70202Y-43764D01*
X70183Y-43783D01*
X70164Y-43821D01*
X70164Y-43898D01*
X70183Y-43936D01*
X70202Y-43955D01*
X70240Y-43974D01*
G54D14*
X39417Y-15155D02*
X39393Y-15179D01*
X39322Y-15202D01*
X39274Y-15202D01*
X39202Y-15179D01*
X39155Y-15131D01*
X39131Y-15083D01*
X39107Y-14988D01*
X39107Y-14917D01*
X39131Y-14821D01*
X39155Y-14774D01*
X39202Y-14726D01*
X39274Y-14702D01*
X39322Y-14702D01*
X39393Y-14726D01*
X39417Y-14750D01*
X39893Y-15202D02*
X39607Y-15202D01*
X39750Y-15202D02*
X39750Y-14702D01*
X39702Y-14774D01*
X39655Y-14821D01*
X39607Y-14845D01*
X38702Y-19702D02*
X38702Y-19988D01*
X38702Y-19845D02*
X38202Y-19845D01*
X38274Y-19893D01*
X38321Y-19940D01*
X38345Y-19988D01*
X38655Y-19488D02*
X38679Y-19464D01*
X38702Y-19488D01*
X38679Y-19512D01*
X38655Y-19488D01*
X38702Y-19488D01*
X38250Y-19274D02*
X38226Y-19250D01*
X38202Y-19202D01*
X38202Y-19083D01*
X38226Y-19036D01*
X38250Y-19012D01*
X38298Y-18988D01*
X38345Y-18988D01*
X38417Y-19012D01*
X38702Y-19298D01*
X38702Y-18988D01*
X38369Y-18560D02*
X38702Y-18560D01*
X38369Y-18774D02*
X38631Y-18774D01*
X38679Y-18750D01*
X38702Y-18703D01*
X38702Y-18631D01*
X38679Y-18583D01*
X38655Y-18560D01*
X38440Y-18155D02*
X38440Y-18322D01*
X38702Y-18322D02*
X38202Y-18322D01*
X38202Y-18084D01*
X38750Y-18012D02*
X38750Y-17631D01*
X38179Y-17155D02*
X38821Y-17583D01*
X38750Y-17107D02*
X38750Y-16726D01*
X38250Y-16631D02*
X38226Y-16607D01*
X38202Y-16559D01*
X38202Y-16440D01*
X38226Y-16393D01*
X38250Y-16369D01*
X38298Y-16345D01*
X38345Y-16345D01*
X38417Y-16369D01*
X38702Y-16655D01*
X38702Y-16345D01*
X38202Y-15893D02*
X38202Y-16131D01*
X38440Y-16155D01*
X38417Y-16131D01*
X38393Y-16083D01*
X38393Y-15964D01*
X38417Y-15917D01*
X38440Y-15893D01*
X38488Y-15869D01*
X38607Y-15869D01*
X38655Y-15893D01*
X38679Y-15917D01*
X38702Y-15964D01*
X38702Y-16083D01*
X38679Y-16131D01*
X38655Y-16155D01*
X38202Y-15560D02*
X38202Y-15512D01*
X38226Y-15464D01*
X38250Y-15441D01*
X38298Y-15417D01*
X38393Y-15393D01*
X38512Y-15393D01*
X38607Y-15417D01*
X38655Y-15441D01*
X38679Y-15464D01*
X38702Y-15512D01*
X38702Y-15560D01*
X38679Y-15607D01*
X38655Y-15631D01*
X38607Y-15655D01*
X38512Y-15679D01*
X38393Y-15679D01*
X38298Y-15655D01*
X38250Y-15631D01*
X38226Y-15607D01*
X38202Y-15560D01*
X38369Y-15227D02*
X38702Y-15108D01*
X38369Y-14988D01*
G54D12*
X46212Y-29450D02*
X46174Y-29431D01*
X46136Y-29393D01*
X46079Y-29336D01*
X46040Y-29317D01*
X46002Y-29317D01*
X46021Y-29412D02*
X45983Y-29393D01*
X45945Y-29355D01*
X45926Y-29279D01*
X45926Y-29145D01*
X45945Y-29069D01*
X45983Y-29031D01*
X46021Y-29012D01*
X46098Y-29012D01*
X46136Y-29031D01*
X46174Y-29069D01*
X46193Y-29145D01*
X46193Y-29279D01*
X46174Y-29355D01*
X46136Y-29393D01*
X46098Y-29412D01*
X46021Y-29412D01*
X46574Y-29412D02*
X46345Y-29412D01*
X46459Y-29412D02*
X46459Y-29012D01*
X46421Y-29069D01*
X46383Y-29107D01*
X46345Y-29126D01*
X45508Y-31952D02*
X45565Y-31971D01*
X45584Y-31990D01*
X45603Y-32029D01*
X45603Y-32086D01*
X45584Y-32124D01*
X45565Y-32143D01*
X45527Y-32162D01*
X45374Y-32162D01*
X45374Y-31762D01*
X45508Y-31762D01*
X45546Y-31781D01*
X45565Y-31800D01*
X45584Y-31838D01*
X45584Y-31876D01*
X45565Y-31914D01*
X45546Y-31933D01*
X45508Y-31952D01*
X45374Y-31952D01*
X46003Y-32124D02*
X45984Y-32143D01*
X45927Y-32162D01*
X45889Y-32162D01*
X45831Y-32143D01*
X45793Y-32105D01*
X45774Y-32067D01*
X45755Y-31990D01*
X45755Y-31933D01*
X45774Y-31857D01*
X45793Y-31819D01*
X45831Y-31781D01*
X45889Y-31762D01*
X45927Y-31762D01*
X45984Y-31781D01*
X46003Y-31800D01*
X46365Y-31762D02*
X46174Y-31762D01*
X46155Y-31952D01*
X46174Y-31933D01*
X46212Y-31914D01*
X46308Y-31914D01*
X46346Y-31933D01*
X46365Y-31952D01*
X46384Y-31990D01*
X46384Y-32086D01*
X46365Y-32124D01*
X46346Y-32143D01*
X46308Y-32162D01*
X46212Y-32162D01*
X46174Y-32143D01*
X46155Y-32124D01*
X46727Y-31895D02*
X46727Y-32162D01*
X46631Y-31743D02*
X46536Y-32029D01*
X46784Y-32029D01*
X46898Y-31762D02*
X47165Y-31762D01*
X46993Y-32162D01*
X47546Y-32124D02*
X47527Y-32143D01*
X47470Y-32162D01*
X47432Y-32162D01*
X47374Y-32143D01*
X47336Y-32105D01*
X47317Y-32067D01*
X47298Y-31990D01*
X47298Y-31933D01*
X47317Y-31857D01*
X47336Y-31819D01*
X47374Y-31781D01*
X47432Y-31762D01*
X47470Y-31762D01*
X47527Y-31781D01*
X47546Y-31800D01*
G54D15*
X44793Y-19893D02*
X44793Y-20379D01*
X44821Y-20436D01*
X44850Y-20464D01*
X44907Y-20493D01*
X45021Y-20493D01*
X45079Y-20464D01*
X45107Y-20436D01*
X45136Y-20379D01*
X45136Y-19893D01*
X45679Y-19893D02*
X45565Y-19893D01*
X45508Y-19921D01*
X45479Y-19950D01*
X45422Y-20036D01*
X45393Y-20150D01*
X45393Y-20379D01*
X45422Y-20436D01*
X45450Y-20464D01*
X45508Y-20493D01*
X45622Y-20493D01*
X45679Y-20464D01*
X45708Y-20436D01*
X45736Y-20379D01*
X45736Y-20236D01*
X45708Y-20179D01*
X45679Y-20150D01*
X45622Y-20121D01*
X45508Y-20121D01*
X45450Y-20150D01*
X45422Y-20179D01*
X45393Y-20236D01*
X47658Y-16243D02*
X47458Y-15957D01*
X47315Y-16243D02*
X47315Y-15643D01*
X47543Y-15643D01*
X47601Y-15671D01*
X47629Y-15700D01*
X47658Y-15757D01*
X47658Y-15843D01*
X47629Y-15900D01*
X47601Y-15929D01*
X47543Y-15957D01*
X47315Y-15957D01*
X47915Y-15929D02*
X48115Y-15929D01*
X48201Y-16243D02*
X47915Y-16243D01*
X47915Y-15643D01*
X48201Y-15643D01*
X48744Y-16243D02*
X48458Y-16243D01*
X48458Y-15643D01*
X48915Y-16071D02*
X49201Y-16071D01*
X48858Y-16243D02*
X49058Y-15643D01*
X49258Y-16243D01*
X49572Y-15957D02*
X49572Y-16243D01*
X49372Y-15643D02*
X49572Y-15957D01*
X49772Y-15643D01*
G54D14*
X64159Y-13074D02*
X64159Y-12274D01*
X64464Y-12274D01*
X64540Y-12312D01*
X64579Y-12350D01*
X64617Y-12426D01*
X64617Y-12540D01*
X64579Y-12617D01*
X64540Y-12655D01*
X64464Y-12693D01*
X64159Y-12693D01*
X64921Y-12350D02*
X64959Y-12312D01*
X65036Y-12274D01*
X65226Y-12274D01*
X65302Y-12312D01*
X65340Y-12350D01*
X65379Y-12426D01*
X65379Y-12502D01*
X65340Y-12617D01*
X64883Y-13074D01*
X65379Y-13074D01*
X68805Y-12498D02*
X68767Y-12536D01*
X68652Y-12574D01*
X68576Y-12574D01*
X68462Y-12536D01*
X68386Y-12460D01*
X68347Y-12383D01*
X68309Y-12231D01*
X68309Y-12117D01*
X68347Y-11964D01*
X68386Y-11888D01*
X68462Y-11812D01*
X68576Y-11774D01*
X68652Y-11774D01*
X68767Y-11812D01*
X68805Y-11850D01*
X69300Y-11774D02*
X69452Y-11774D01*
X69528Y-11812D01*
X69605Y-11888D01*
X69643Y-12040D01*
X69643Y-12307D01*
X69605Y-12460D01*
X69528Y-12536D01*
X69452Y-12574D01*
X69300Y-12574D01*
X69224Y-12536D01*
X69147Y-12460D01*
X69109Y-12307D01*
X69109Y-12040D01*
X69147Y-11888D01*
X69224Y-11812D01*
X69300Y-11774D01*
X69985Y-12574D02*
X69985Y-11774D01*
X70443Y-12574D01*
X70443Y-11774D01*
X70823Y-12574D02*
X70823Y-11774D01*
X71281Y-12574D01*
X71281Y-11774D01*
X71471Y-12650D02*
X72081Y-12650D01*
X72652Y-11774D02*
X72271Y-11774D01*
X72233Y-12155D01*
X72271Y-12117D01*
X72348Y-12079D01*
X72538Y-12079D01*
X72614Y-12117D01*
X72652Y-12155D01*
X72691Y-12231D01*
X72691Y-12421D01*
X72652Y-12498D01*
X72614Y-12536D01*
X72538Y-12574D01*
X72348Y-12574D01*
X72271Y-12536D01*
X72233Y-12498D01*
X48659Y-12824D02*
X48659Y-12024D01*
X48964Y-12024D01*
X49040Y-12062D01*
X49079Y-12100D01*
X49117Y-12176D01*
X49117Y-12290D01*
X49079Y-12367D01*
X49040Y-12405D01*
X48964Y-12443D01*
X48659Y-12443D01*
X49879Y-12824D02*
X49421Y-12824D01*
X49650Y-12824D02*
X49650Y-12024D01*
X49574Y-12138D01*
X49498Y-12214D01*
X49421Y-12252D01*
X53055Y-12498D02*
X53017Y-12536D01*
X52902Y-12574D01*
X52826Y-12574D01*
X52712Y-12536D01*
X52636Y-12460D01*
X52597Y-12383D01*
X52559Y-12231D01*
X52559Y-12117D01*
X52597Y-11964D01*
X52636Y-11888D01*
X52712Y-11812D01*
X52826Y-11774D01*
X52902Y-11774D01*
X53017Y-11812D01*
X53055Y-11850D01*
X53550Y-11774D02*
X53702Y-11774D01*
X53778Y-11812D01*
X53855Y-11888D01*
X53893Y-12040D01*
X53893Y-12307D01*
X53855Y-12460D01*
X53778Y-12536D01*
X53702Y-12574D01*
X53550Y-12574D01*
X53474Y-12536D01*
X53397Y-12460D01*
X53359Y-12307D01*
X53359Y-12040D01*
X53397Y-11888D01*
X53474Y-11812D01*
X53550Y-11774D01*
X54235Y-12574D02*
X54235Y-11774D01*
X54693Y-12574D01*
X54693Y-11774D01*
X55073Y-12574D02*
X55073Y-11774D01*
X55531Y-12574D01*
X55531Y-11774D01*
X55721Y-12650D02*
X56331Y-12650D01*
X56902Y-11774D02*
X56521Y-11774D01*
X56483Y-12155D01*
X56521Y-12117D01*
X56598Y-12079D01*
X56788Y-12079D01*
X56864Y-12117D01*
X56902Y-12155D01*
X56941Y-12231D01*
X56941Y-12421D01*
X56902Y-12498D01*
X56864Y-12536D01*
X56788Y-12574D01*
X56598Y-12574D01*
X56521Y-12536D01*
X56483Y-12498D01*
G54D15*
X50993Y-35106D02*
X50707Y-35306D01*
X50993Y-35449D02*
X50393Y-35449D01*
X50393Y-35221D01*
X50421Y-35163D01*
X50450Y-35135D01*
X50507Y-35106D01*
X50593Y-35106D01*
X50650Y-35135D01*
X50679Y-35163D01*
X50707Y-35221D01*
X50707Y-35449D01*
X50393Y-34935D02*
X50993Y-34735D01*
X50393Y-34535D01*
X50993Y-34021D02*
X50993Y-34364D01*
X50993Y-34192D02*
X50393Y-34192D01*
X50479Y-34249D01*
X50536Y-34307D01*
X50564Y-34364D01*
X51608Y-29243D02*
X51265Y-29243D01*
X51437Y-29243D02*
X51437Y-28643D01*
X51380Y-28729D01*
X51322Y-28786D01*
X51265Y-28814D01*
X51979Y-28643D02*
X52036Y-28643D01*
X52093Y-28671D01*
X52122Y-28700D01*
X52151Y-28757D01*
X52179Y-28871D01*
X52179Y-29014D01*
X52151Y-29129D01*
X52122Y-29186D01*
X52093Y-29214D01*
X52036Y-29243D01*
X51979Y-29243D01*
X51922Y-29214D01*
X51893Y-29186D01*
X51865Y-29129D01*
X51836Y-29014D01*
X51836Y-28871D01*
X51865Y-28757D01*
X51893Y-28700D01*
X51922Y-28671D01*
X51979Y-28643D01*
X52550Y-28643D02*
X52607Y-28643D01*
X52664Y-28671D01*
X52693Y-28700D01*
X52722Y-28757D01*
X52750Y-28871D01*
X52750Y-29014D01*
X52722Y-29129D01*
X52693Y-29186D01*
X52664Y-29214D01*
X52607Y-29243D01*
X52550Y-29243D01*
X52493Y-29214D01*
X52464Y-29186D01*
X52436Y-29129D01*
X52407Y-29014D01*
X52407Y-28871D01*
X52436Y-28757D01*
X52464Y-28700D01*
X52493Y-28671D01*
X52550Y-28643D01*
X53007Y-29243D02*
X53007Y-28643D01*
X53064Y-29014D02*
X53235Y-29243D01*
X53235Y-28843D02*
X53007Y-29071D01*
X74644Y-25743D02*
X74444Y-25457D01*
X74301Y-25743D02*
X74301Y-25143D01*
X74529Y-25143D01*
X74587Y-25171D01*
X74615Y-25200D01*
X74644Y-25257D01*
X74644Y-25343D01*
X74615Y-25400D01*
X74587Y-25429D01*
X74529Y-25457D01*
X74301Y-25457D01*
X74815Y-25143D02*
X75015Y-25743D01*
X75215Y-25143D01*
X75386Y-25200D02*
X75415Y-25171D01*
X75472Y-25143D01*
X75615Y-25143D01*
X75672Y-25171D01*
X75701Y-25200D01*
X75729Y-25257D01*
X75729Y-25314D01*
X75701Y-25400D01*
X75358Y-25743D01*
X75729Y-25743D01*
X74543Y-16493D02*
X74200Y-16493D01*
X74372Y-16493D02*
X74372Y-15893D01*
X74315Y-15979D01*
X74257Y-16036D01*
X74200Y-16064D01*
X74914Y-15893D02*
X74971Y-15893D01*
X75028Y-15921D01*
X75057Y-15950D01*
X75086Y-16007D01*
X75114Y-16121D01*
X75114Y-16264D01*
X75086Y-16379D01*
X75057Y-16436D01*
X75028Y-16464D01*
X74971Y-16493D01*
X74914Y-16493D01*
X74857Y-16464D01*
X74828Y-16436D01*
X74800Y-16379D01*
X74771Y-16264D01*
X74771Y-16121D01*
X74800Y-16007D01*
X74828Y-15950D01*
X74857Y-15921D01*
X74914Y-15893D01*
X75371Y-16493D02*
X75371Y-15893D01*
X75571Y-16321D01*
X75771Y-15893D01*
X75771Y-16493D01*
X72394Y-25743D02*
X72194Y-25457D01*
X72051Y-25743D02*
X72051Y-25143D01*
X72279Y-25143D01*
X72337Y-25171D01*
X72365Y-25200D01*
X72394Y-25257D01*
X72394Y-25343D01*
X72365Y-25400D01*
X72337Y-25429D01*
X72279Y-25457D01*
X72051Y-25457D01*
X72565Y-25143D02*
X72765Y-25743D01*
X72965Y-25143D01*
X73108Y-25143D02*
X73479Y-25143D01*
X73279Y-25371D01*
X73365Y-25371D01*
X73422Y-25400D01*
X73451Y-25429D01*
X73479Y-25486D01*
X73479Y-25629D01*
X73451Y-25686D01*
X73422Y-25714D01*
X73365Y-25743D01*
X73193Y-25743D01*
X73136Y-25714D01*
X73108Y-25686D01*
X72108Y-16493D02*
X71765Y-16493D01*
X71937Y-16493D02*
X71937Y-15893D01*
X71880Y-15979D01*
X71822Y-16036D01*
X71765Y-16064D01*
X72479Y-15893D02*
X72536Y-15893D01*
X72593Y-15921D01*
X72622Y-15950D01*
X72651Y-16007D01*
X72679Y-16121D01*
X72679Y-16264D01*
X72651Y-16379D01*
X72622Y-16436D01*
X72593Y-16464D01*
X72536Y-16493D01*
X72479Y-16493D01*
X72422Y-16464D01*
X72393Y-16436D01*
X72365Y-16379D01*
X72336Y-16264D01*
X72336Y-16121D01*
X72365Y-16007D01*
X72393Y-15950D01*
X72422Y-15921D01*
X72479Y-15893D01*
X73050Y-15893D02*
X73107Y-15893D01*
X73164Y-15921D01*
X73193Y-15950D01*
X73222Y-16007D01*
X73250Y-16121D01*
X73250Y-16264D01*
X73222Y-16379D01*
X73193Y-16436D01*
X73164Y-16464D01*
X73107Y-16493D01*
X73050Y-16493D01*
X72993Y-16464D01*
X72964Y-16436D01*
X72936Y-16379D01*
X72907Y-16264D01*
X72907Y-16121D01*
X72936Y-16007D01*
X72964Y-15950D01*
X72993Y-15921D01*
X73050Y-15893D01*
X73507Y-16493D02*
X73507Y-15893D01*
X73564Y-16264D02*
X73735Y-16493D01*
X73735Y-16093D02*
X73507Y-16321D01*
G54D21*
X58429Y-32916D02*
X58452Y-32844D01*
X58452Y-32725D01*
X58429Y-32678D01*
X58405Y-32654D01*
X58357Y-32630D01*
X58310Y-32630D01*
X58262Y-32654D01*
X58238Y-32678D01*
X58214Y-32725D01*
X58190Y-32821D01*
X58167Y-32868D01*
X58143Y-32892D01*
X58095Y-32916D01*
X58048Y-32916D01*
X58000Y-32892D01*
X57976Y-32868D01*
X57952Y-32821D01*
X57952Y-32701D01*
X57976Y-32630D01*
X57952Y-32464D02*
X58452Y-32345D01*
X58095Y-32249D01*
X58452Y-32154D01*
X57952Y-32035D01*
X58452Y-31583D02*
X58452Y-31869D01*
X58452Y-31726D02*
X57952Y-31726D01*
X58024Y-31774D01*
X58071Y-31821D01*
X58095Y-31869D01*
G54D14*
X54229Y-33881D02*
X54252Y-33809D01*
X54252Y-33690D01*
X54229Y-33643D01*
X54205Y-33619D01*
X54157Y-33595D01*
X54110Y-33595D01*
X54062Y-33619D01*
X54038Y-33643D01*
X54014Y-33690D01*
X53990Y-33786D01*
X53967Y-33833D01*
X53943Y-33857D01*
X53895Y-33881D01*
X53848Y-33881D01*
X53800Y-33857D01*
X53776Y-33833D01*
X53752Y-33786D01*
X53752Y-33666D01*
X53776Y-33595D01*
X53752Y-33429D02*
X54252Y-33310D01*
X53895Y-33214D01*
X54252Y-33119D01*
X53752Y-33000D01*
X54300Y-32929D02*
X54300Y-32548D01*
X54252Y-32429D02*
X53752Y-32429D01*
X53752Y-32238D01*
X53776Y-32191D01*
X53800Y-32167D01*
X53848Y-32143D01*
X53919Y-32143D01*
X53967Y-32167D01*
X53990Y-32191D01*
X54014Y-32238D01*
X54014Y-32429D01*
X53752Y-31929D02*
X54157Y-31929D01*
X54205Y-31905D01*
X54229Y-31881D01*
X54252Y-31834D01*
X54252Y-31738D01*
X54229Y-31691D01*
X54205Y-31667D01*
X54157Y-31643D01*
X53752Y-31643D01*
X54229Y-31429D02*
X54252Y-31357D01*
X54252Y-31238D01*
X54229Y-31191D01*
X54205Y-31167D01*
X54157Y-31143D01*
X54110Y-31143D01*
X54062Y-31167D01*
X54038Y-31191D01*
X54014Y-31238D01*
X53990Y-31334D01*
X53967Y-31381D01*
X53943Y-31405D01*
X53895Y-31429D01*
X53848Y-31429D01*
X53800Y-31405D01*
X53776Y-31381D01*
X53752Y-31334D01*
X53752Y-31214D01*
X53776Y-31143D01*
X54252Y-30929D02*
X53752Y-30929D01*
X53990Y-30929D02*
X53990Y-30643D01*
X54252Y-30643D02*
X53752Y-30643D01*
G54D21*
X43179Y-32916D02*
X43202Y-32844D01*
X43202Y-32725D01*
X43179Y-32678D01*
X43155Y-32654D01*
X43107Y-32630D01*
X43060Y-32630D01*
X43012Y-32654D01*
X42988Y-32678D01*
X42964Y-32725D01*
X42940Y-32821D01*
X42917Y-32868D01*
X42893Y-32892D01*
X42845Y-32916D01*
X42798Y-32916D01*
X42750Y-32892D01*
X42726Y-32868D01*
X42702Y-32821D01*
X42702Y-32701D01*
X42726Y-32630D01*
X42702Y-32464D02*
X43202Y-32345D01*
X42845Y-32249D01*
X43202Y-32154D01*
X42702Y-32035D01*
X42750Y-31869D02*
X42726Y-31845D01*
X42702Y-31797D01*
X42702Y-31678D01*
X42726Y-31631D01*
X42750Y-31607D01*
X42798Y-31583D01*
X42845Y-31583D01*
X42917Y-31607D01*
X43202Y-31893D01*
X43202Y-31583D01*
G54D12*
X45917Y-15473D02*
X45750Y-15211D01*
X45631Y-15473D02*
X45631Y-14923D01*
X45822Y-14923D01*
X45869Y-14949D01*
X45893Y-14975D01*
X45917Y-15027D01*
X45917Y-15106D01*
X45893Y-15158D01*
X45869Y-15185D01*
X45822Y-15211D01*
X45631Y-15211D01*
X46083Y-14923D02*
X46393Y-14923D01*
X46226Y-15132D01*
X46298Y-15132D01*
X46345Y-15158D01*
X46369Y-15185D01*
X46393Y-15237D01*
X46393Y-15368D01*
X46369Y-15420D01*
X46345Y-15446D01*
X46298Y-15473D01*
X46155Y-15473D01*
X46107Y-15446D01*
X46083Y-15420D01*
G54D10*
X41455Y-44912D02*
X41455Y-44512D01*
X41684Y-44912D02*
X41512Y-44683D01*
X41684Y-44512D02*
X41455Y-44740D01*
X42065Y-44912D02*
X41836Y-44912D01*
X41950Y-44912D02*
X41950Y-44512D01*
X41912Y-44569D01*
X41874Y-44607D01*
X41836Y-44626D01*
G54D12*
X53723Y-23571D02*
X53461Y-23738D01*
X53723Y-23857D02*
X53173Y-23857D01*
X53173Y-23666D01*
X53199Y-23619D01*
X53225Y-23595D01*
X53277Y-23571D01*
X53356Y-23571D01*
X53408Y-23595D01*
X53435Y-23619D01*
X53461Y-23666D01*
X53461Y-23857D01*
X53723Y-23095D02*
X53723Y-23381D01*
X53723Y-23238D02*
X53173Y-23238D01*
X53251Y-23286D01*
X53304Y-23333D01*
X53330Y-23381D01*
X53173Y-22929D02*
X53173Y-22619D01*
X53382Y-22786D01*
X53382Y-22714D01*
X53408Y-22667D01*
X53435Y-22643D01*
X53487Y-22619D01*
X53618Y-22619D01*
X53670Y-22643D01*
X53696Y-22667D01*
X53723Y-22714D01*
X53723Y-22857D01*
X53696Y-22905D01*
X53670Y-22929D01*
X60473Y-20321D02*
X60211Y-20488D01*
X60473Y-20607D02*
X59923Y-20607D01*
X59923Y-20416D01*
X59949Y-20369D01*
X59975Y-20345D01*
X60027Y-20321D01*
X60106Y-20321D01*
X60158Y-20345D01*
X60185Y-20369D01*
X60211Y-20416D01*
X60211Y-20607D01*
X60473Y-19845D02*
X60473Y-20131D01*
X60473Y-19988D02*
X59923Y-19988D01*
X60001Y-20036D01*
X60054Y-20083D01*
X60080Y-20131D01*
X60106Y-19417D02*
X60473Y-19417D01*
X59896Y-19536D02*
X60289Y-19655D01*
X60289Y-19345D01*
G54D10*
X65845Y-31232D02*
X66179Y-31682D01*
X66179Y-31232D02*
X65845Y-31682D01*
X66631Y-31682D02*
X66345Y-31682D01*
X66488Y-31682D02*
X66488Y-31232D01*
X66440Y-31296D01*
X66393Y-31339D01*
X66345Y-31361D01*
X67775Y-35976D02*
X67754Y-36023D01*
X67711Y-36071D01*
X67646Y-36142D01*
X67625Y-36190D01*
X67625Y-36238D01*
X67732Y-36214D02*
X67711Y-36261D01*
X67668Y-36309D01*
X67582Y-36333D01*
X67432Y-36333D01*
X67346Y-36309D01*
X67304Y-36261D01*
X67282Y-36214D01*
X67282Y-36118D01*
X67304Y-36071D01*
X67346Y-36023D01*
X67432Y-35999D01*
X67582Y-35999D01*
X67668Y-36023D01*
X67711Y-36071D01*
X67732Y-36118D01*
X67732Y-36214D01*
X67282Y-35785D02*
X67646Y-35785D01*
X67689Y-35761D01*
X67711Y-35737D01*
X67732Y-35690D01*
X67732Y-35594D01*
X67711Y-35547D01*
X67689Y-35523D01*
X67646Y-35499D01*
X67282Y-35499D01*
X67604Y-35285D02*
X67604Y-35047D01*
X67732Y-35332D02*
X67282Y-35166D01*
X67732Y-34999D01*
X67732Y-34546D02*
X67518Y-34713D01*
X67732Y-34832D02*
X67282Y-34832D01*
X67282Y-34641D01*
X67304Y-34594D01*
X67325Y-34570D01*
X67368Y-34546D01*
X67432Y-34546D01*
X67475Y-34570D01*
X67496Y-34594D01*
X67518Y-34641D01*
X67518Y-34832D01*
X67282Y-34403D02*
X67282Y-34118D01*
X67732Y-34261D02*
X67282Y-34261D01*
X67282Y-33999D02*
X67282Y-33665D01*
X67732Y-33999D01*
X67732Y-33665D01*
X67689Y-33189D02*
X67711Y-33213D01*
X67732Y-33284D01*
X67732Y-33332D01*
X67711Y-33404D01*
X67668Y-33451D01*
X67625Y-33475D01*
X67539Y-33499D01*
X67475Y-33499D01*
X67389Y-33475D01*
X67346Y-33451D01*
X67304Y-33404D01*
X67282Y-33332D01*
X67282Y-33284D01*
X67304Y-33213D01*
X67325Y-33189D01*
X67732Y-32975D02*
X67282Y-32975D01*
X67604Y-32808D01*
X67282Y-32642D01*
X67732Y-32642D01*
X67711Y-32428D02*
X67732Y-32356D01*
X67732Y-32237D01*
X67711Y-32190D01*
X67689Y-32166D01*
X67646Y-32142D01*
X67604Y-32142D01*
X67561Y-32166D01*
X67539Y-32190D01*
X67518Y-32237D01*
X67496Y-32333D01*
X67475Y-32380D01*
X67454Y-32404D01*
X67411Y-32428D01*
X67368Y-32428D01*
X67325Y-32404D01*
X67304Y-32380D01*
X67282Y-32333D01*
X67282Y-32213D01*
X67304Y-32142D01*
X67432Y-31714D02*
X67732Y-31714D01*
X67261Y-31833D02*
X67582Y-31952D01*
X67582Y-31642D01*
M02*
