G04 (created by PCBNEW-RS274X (2012-01-19 BZR 3256)-stable) date 21/05/2012 10:04:41 p.m.*
G01*
G70*
G90*
%MOIN*%
G04 Gerber Fmt 3.4, Leading zero omitted, Abs format*
%FSLAX34Y34*%
G04 APERTURE LIST*
%ADD10C,0.006000*%
%ADD11C,0.070000*%
%ADD12R,0.070000X0.070000*%
%ADD13C,0.055000*%
%ADD14R,0.060000X0.060000*%
%ADD15C,0.060000*%
%ADD16C,0.066000*%
%ADD17R,0.090000X0.062000*%
%ADD18O,0.090000X0.062000*%
%ADD19R,0.055000X0.055000*%
%ADD20R,0.065000X0.065000*%
%ADD21C,0.065000*%
%ADD22C,0.098400*%
%ADD23C,0.150000*%
%ADD24R,0.150000X0.150000*%
%ADD25O,0.078700X0.078700*%
%ADD26C,0.078700*%
%ADD27C,0.118100*%
%ADD28C,0.035000*%
%ADD29C,0.016000*%
%ADD30C,0.014000*%
%ADD31C,0.010000*%
%ADD32C,0.022000*%
%ADD33C,0.050000*%
%ADD34C,0.018000*%
%ADD35C,0.020000*%
%ADD36C,0.030000*%
G04 APERTURE END LIST*
G54D10*
G54D11*
X64500Y-16750D03*
X65500Y-16750D03*
G54D12*
X66500Y-16750D03*
G54D11*
X57250Y-16750D03*
X58250Y-16750D03*
G54D12*
X59250Y-16750D03*
G54D13*
X56500Y-37500D03*
X56500Y-34500D03*
X42500Y-25750D03*
X45500Y-25750D03*
X48250Y-40000D03*
X48250Y-43000D03*
X69500Y-22750D03*
X69500Y-19750D03*
X63750Y-21250D03*
X63750Y-18250D03*
X67000Y-27000D03*
X64000Y-27000D03*
X59000Y-27250D03*
X56000Y-27250D03*
X57500Y-34500D03*
X60500Y-34500D03*
X44500Y-16000D03*
X44500Y-19000D03*
X48000Y-26000D03*
X51000Y-26000D03*
X56750Y-45500D03*
X56750Y-42500D03*
X54500Y-45500D03*
X54500Y-42500D03*
X43500Y-39750D03*
X40500Y-39750D03*
X52500Y-39500D03*
X55500Y-39500D03*
X65500Y-46000D03*
X68500Y-46000D03*
X65500Y-45000D03*
X68500Y-45000D03*
X69750Y-35250D03*
X69750Y-32250D03*
X69750Y-27500D03*
X72750Y-27500D03*
X74500Y-43000D03*
X74500Y-46000D03*
X71750Y-30000D03*
X74750Y-30000D03*
X52500Y-43750D03*
X52500Y-40750D03*
G54D14*
X62750Y-41500D03*
G54D15*
X62750Y-42500D03*
G54D14*
X63750Y-41500D03*
G54D15*
X63750Y-42500D03*
G54D14*
X64750Y-29500D03*
G54D15*
X64750Y-28500D03*
G54D14*
X64750Y-41500D03*
G54D15*
X64750Y-42500D03*
G54D14*
X65750Y-41500D03*
G54D15*
X65750Y-42500D03*
G54D14*
X66750Y-41500D03*
G54D15*
X66750Y-42500D03*
G54D14*
X60750Y-41500D03*
G54D15*
X60750Y-42500D03*
G54D14*
X59750Y-41500D03*
G54D15*
X59750Y-42500D03*
G54D14*
X60750Y-29500D03*
G54D15*
X60750Y-28500D03*
G54D14*
X61750Y-29500D03*
G54D15*
X61750Y-28500D03*
G54D14*
X62750Y-29500D03*
G54D15*
X62750Y-28500D03*
G54D14*
X63750Y-29500D03*
G54D15*
X63750Y-28500D03*
G54D14*
X61750Y-41500D03*
G54D15*
X61750Y-42500D03*
G54D14*
X46750Y-42500D03*
G54D15*
X46750Y-41500D03*
G54D14*
X45000Y-42500D03*
G54D15*
X45000Y-41500D03*
G54D14*
X42500Y-42500D03*
G54D15*
X42500Y-41500D03*
G54D14*
X40750Y-42500D03*
G54D15*
X40750Y-41500D03*
G54D16*
X50500Y-27750D03*
X49500Y-27750D03*
X48250Y-44250D03*
X48250Y-45250D03*
X62000Y-25750D03*
X62000Y-24750D03*
X53750Y-27500D03*
X53750Y-26500D03*
G54D17*
X56000Y-23500D03*
G54D18*
X56000Y-24500D03*
X56000Y-25500D03*
X59000Y-25500D03*
X59000Y-24500D03*
X59000Y-23500D03*
G54D17*
X64000Y-22750D03*
G54D18*
X64000Y-23750D03*
X64000Y-24750D03*
X67000Y-24750D03*
X67000Y-23750D03*
X67000Y-22750D03*
G54D17*
X61500Y-31500D03*
G54D18*
X61500Y-32500D03*
X61500Y-33500D03*
X61500Y-34500D03*
X61500Y-35500D03*
X61500Y-36500D03*
X61500Y-37500D03*
X61500Y-38500D03*
X61500Y-39500D03*
X64500Y-39500D03*
X64500Y-38500D03*
X64500Y-37500D03*
X64500Y-36500D03*
X64500Y-35500D03*
X64500Y-34500D03*
X64500Y-33500D03*
X64500Y-32500D03*
X64500Y-31500D03*
G54D11*
X39000Y-20750D03*
G54D12*
X39000Y-24750D03*
G54D11*
X49500Y-29500D03*
G54D12*
X49500Y-33500D03*
G54D11*
X71000Y-22250D03*
G54D12*
X71000Y-26250D03*
G54D11*
X68250Y-26000D03*
G54D12*
X68250Y-30000D03*
G54D19*
X45500Y-24250D03*
G54D13*
X42500Y-24250D03*
G54D19*
X73250Y-43000D03*
G54D13*
X73250Y-46000D03*
G54D19*
X40750Y-20750D03*
G54D13*
X40750Y-23750D03*
G54D19*
X55500Y-37500D03*
G54D13*
X55500Y-34500D03*
G54D19*
X71750Y-41000D03*
G54D13*
X71750Y-38000D03*
G54D20*
X66500Y-20250D03*
G54D21*
X66500Y-19250D03*
G54D20*
X40000Y-27750D03*
G54D21*
X40000Y-26750D03*
G54D20*
X57500Y-20000D03*
G54D21*
X58500Y-20000D03*
G54D19*
X71000Y-17750D03*
G54D13*
X70000Y-17750D03*
G54D19*
X69750Y-38000D03*
G54D13*
X69750Y-39000D03*
G54D19*
X70250Y-30000D03*
G54D13*
X70250Y-31000D03*
X40500Y-37000D03*
X41500Y-37000D03*
X74000Y-28750D03*
X74000Y-27750D03*
X52000Y-45250D03*
X51000Y-45250D03*
X45250Y-22250D03*
X44250Y-22250D03*
X71750Y-32250D03*
X71750Y-33250D03*
X58000Y-36500D03*
X58000Y-35500D03*
X68750Y-36000D03*
X67750Y-36000D03*
X67750Y-34500D03*
X68750Y-34500D03*
X67750Y-33000D03*
X68750Y-33000D03*
X71000Y-43250D03*
X71000Y-44250D03*
G54D12*
X41000Y-16500D03*
G54D11*
X41000Y-18500D03*
G54D19*
X45750Y-31250D03*
G54D13*
X46750Y-31250D03*
X46750Y-30250D03*
G54D22*
X49500Y-23600D03*
X47050Y-22800D03*
X51850Y-22800D03*
X51850Y-18100D03*
X47050Y-18050D03*
G54D23*
X68750Y-13750D03*
X70750Y-13750D03*
G54D24*
X66750Y-13750D03*
G54D23*
X72750Y-13750D03*
X74750Y-13750D03*
X53000Y-13750D03*
X55000Y-13750D03*
G54D24*
X51000Y-13750D03*
G54D23*
X57000Y-13750D03*
X59000Y-13750D03*
G54D25*
X51750Y-30700D03*
X52750Y-33700D03*
X51750Y-35700D03*
X74500Y-17950D03*
X75500Y-20950D03*
X74500Y-22950D03*
X72250Y-17950D03*
X73250Y-20950D03*
X72250Y-22950D03*
G54D26*
X57530Y-31364D03*
X54970Y-33136D03*
X57530Y-33136D03*
X54970Y-31364D03*
X42280Y-31364D03*
X39720Y-33136D03*
X42280Y-33136D03*
X39720Y-31364D03*
G54D27*
X48000Y-13750D03*
X41000Y-13750D03*
G54D14*
X44750Y-45000D03*
G54D15*
X43750Y-45000D03*
X42750Y-45000D03*
G54D27*
X54500Y-16500D03*
X54500Y-23500D03*
X61750Y-16250D03*
X61750Y-23250D03*
G54D26*
X66250Y-35000D03*
X66250Y-33000D03*
G54D28*
X56750Y-41250D03*
X69000Y-46750D03*
X73250Y-38000D03*
X40000Y-23750D03*
X58500Y-28750D03*
X56250Y-32250D03*
X49250Y-46750D03*
G54D29*
X42500Y-41500D02*
X40750Y-41500D01*
G54D30*
X47050Y-22800D02*
X47050Y-25050D01*
X47050Y-25050D02*
X48000Y-26000D01*
G54D31*
X42500Y-41500D02*
X44000Y-40000D01*
X49500Y-34500D02*
X44000Y-40000D01*
X49500Y-34500D02*
X49500Y-33500D01*
X42500Y-41500D02*
X42250Y-41500D01*
X42250Y-41500D02*
X42500Y-41500D01*
G54D29*
X69000Y-46500D02*
X68500Y-46000D01*
X45000Y-41500D02*
X46750Y-41500D01*
X67750Y-36000D02*
X67750Y-41500D01*
X67750Y-41500D02*
X69250Y-43000D01*
X69250Y-43000D02*
X69250Y-45250D01*
X69250Y-45250D02*
X68500Y-46000D01*
G54D32*
X56500Y-37500D02*
X55500Y-37500D01*
G54D29*
X67750Y-36000D02*
X66000Y-36000D01*
G54D32*
X74500Y-14000D02*
X74750Y-13750D01*
G54D29*
X69000Y-46750D02*
X69000Y-46500D01*
G54D31*
X48250Y-39200D02*
X51750Y-35700D01*
G54D30*
X48250Y-40000D02*
X46750Y-41500D01*
G54D29*
X65500Y-35500D02*
X64500Y-35500D01*
G54D32*
X74500Y-17950D02*
X74500Y-14000D01*
G54D31*
X51750Y-35700D02*
X53700Y-35700D01*
G54D29*
X66000Y-36000D02*
X65500Y-35500D01*
G54D31*
X48250Y-40000D02*
X48250Y-39200D01*
X76250Y-45750D02*
X75250Y-46750D01*
X76250Y-33500D02*
X76250Y-45750D01*
X75250Y-46750D02*
X69000Y-46750D01*
X56750Y-41250D02*
X56500Y-41000D01*
G54D30*
X76250Y-18750D02*
X76250Y-33500D01*
G54D31*
X56500Y-41000D02*
X56500Y-37500D01*
G54D30*
X75450Y-17950D02*
X76250Y-18750D01*
X74500Y-17950D02*
X75450Y-17950D01*
G54D31*
X53700Y-35700D02*
X55500Y-37500D01*
G54D33*
X51000Y-13750D02*
X48000Y-13750D01*
X51850Y-18100D02*
X51850Y-17400D01*
X55000Y-14250D02*
X55000Y-13750D01*
X51850Y-17400D02*
X55000Y-14250D01*
X59250Y-13750D02*
X61750Y-16250D01*
X64500Y-16750D02*
X64500Y-17250D01*
X68000Y-18250D02*
X69500Y-19750D01*
X65500Y-18250D02*
X68000Y-18250D01*
X64500Y-16750D02*
X62250Y-16750D01*
X64500Y-17250D02*
X65500Y-18250D01*
X62250Y-16750D02*
X61750Y-16250D01*
X59000Y-13750D02*
X59250Y-13750D01*
G54D32*
X75500Y-20950D02*
X75250Y-20950D01*
X75250Y-28000D02*
X74500Y-28750D01*
X75250Y-27500D02*
X75250Y-28000D01*
X74500Y-28750D02*
X74000Y-28750D01*
X73750Y-28500D02*
X74000Y-28750D01*
X74500Y-21950D02*
X75500Y-20950D01*
X72750Y-13750D02*
X72750Y-17450D01*
X75250Y-20950D02*
X72250Y-17950D01*
X71000Y-17750D02*
X72050Y-17750D01*
X74500Y-22950D02*
X74500Y-21950D01*
X72750Y-17450D02*
X72250Y-17950D01*
X74500Y-26750D02*
X75250Y-27500D01*
X64750Y-28500D02*
X73750Y-28500D01*
X74500Y-22950D02*
X74500Y-26750D01*
X72050Y-17750D02*
X72250Y-17950D01*
G54D33*
X57250Y-16750D02*
X57250Y-17750D01*
X57750Y-18250D02*
X63750Y-18250D01*
X57250Y-17750D02*
X57750Y-18250D01*
X54500Y-16500D02*
X57000Y-16500D01*
X57000Y-16500D02*
X57250Y-16750D01*
X57250Y-16750D02*
X57250Y-14000D01*
X57250Y-14000D02*
X57000Y-13750D01*
G54D30*
X73250Y-40500D02*
X73250Y-38000D01*
X71750Y-30000D02*
X70250Y-30000D01*
X71750Y-41000D02*
X72750Y-41000D01*
X72750Y-41000D02*
X73250Y-40500D01*
X71750Y-32250D02*
X71750Y-30000D01*
X65250Y-46250D02*
X65500Y-46000D01*
X53000Y-44250D02*
X52000Y-45250D01*
X53750Y-46000D02*
X54000Y-46250D01*
X52000Y-45250D02*
X53000Y-45250D01*
X65500Y-46000D02*
X65500Y-45000D01*
X62750Y-43000D02*
X61500Y-44250D01*
X53000Y-45250D02*
X53750Y-46000D01*
X54000Y-46250D02*
X65250Y-46250D01*
X61500Y-44250D02*
X53000Y-44250D01*
X62750Y-42500D02*
X62750Y-43000D01*
G54D34*
X64750Y-42500D02*
X64750Y-44500D01*
X64750Y-44500D02*
X63750Y-45500D01*
X63750Y-45500D02*
X56750Y-45500D01*
G54D30*
X60750Y-42500D02*
X59500Y-43750D01*
X59500Y-43750D02*
X52500Y-43750D01*
X71500Y-42750D02*
X73000Y-42750D01*
X71000Y-43250D02*
X71000Y-39250D01*
X73250Y-43000D02*
X74500Y-43000D01*
X73000Y-42750D02*
X73250Y-43000D01*
X71000Y-39250D02*
X69750Y-38000D01*
X71000Y-43250D02*
X71500Y-42750D01*
G54D29*
X42750Y-42750D02*
X42500Y-42500D01*
X42750Y-45000D02*
X42750Y-42750D01*
X44750Y-42750D02*
X45000Y-42500D01*
X44750Y-45000D02*
X44750Y-42750D01*
G54D34*
X63000Y-44750D02*
X55250Y-44750D01*
X63750Y-42500D02*
X63750Y-44000D01*
X63750Y-44000D02*
X63000Y-44750D01*
X55250Y-44750D02*
X54500Y-45500D01*
G54D29*
X40000Y-28500D02*
X39000Y-29500D01*
X41500Y-24750D02*
X42500Y-25750D01*
X39000Y-40750D02*
X40750Y-42500D01*
X39000Y-24750D02*
X41500Y-24750D01*
X39000Y-27750D02*
X40000Y-27750D01*
X39000Y-29500D02*
X39000Y-40750D01*
X39000Y-24750D02*
X39000Y-27750D01*
X40000Y-27750D02*
X40000Y-28500D01*
G54D30*
X45500Y-24250D02*
X45500Y-25750D01*
G54D29*
X45250Y-22250D02*
X45250Y-24000D01*
X45250Y-24000D02*
X45500Y-24250D01*
G54D33*
X53000Y-13750D02*
X53000Y-13000D01*
X66500Y-15750D02*
X66500Y-16750D01*
X65750Y-15750D02*
X66500Y-15750D01*
X62250Y-12250D02*
X65750Y-15750D01*
X53750Y-12250D02*
X62250Y-12250D01*
X53000Y-13000D02*
X53750Y-12250D01*
X66500Y-16750D02*
X69000Y-16750D01*
X69000Y-16750D02*
X70000Y-17750D01*
X49500Y-23600D02*
X49500Y-18000D01*
X49500Y-18000D02*
X53000Y-14500D01*
X53000Y-14500D02*
X53000Y-13750D01*
G54D32*
X70000Y-18750D02*
X70000Y-17750D01*
G54D30*
X73250Y-46000D02*
X74500Y-46000D01*
X56000Y-27250D02*
X56000Y-27000D01*
G54D29*
X69000Y-39000D02*
X69750Y-39000D01*
G54D34*
X41780Y-30864D02*
X42280Y-31364D01*
G54D30*
X65000Y-24250D02*
X64500Y-23750D01*
X47400Y-21500D02*
X49500Y-23600D01*
X74750Y-31750D02*
X74750Y-30000D01*
G54D29*
X68750Y-38750D02*
X69000Y-39000D01*
X68750Y-34500D02*
X68750Y-33000D01*
X71500Y-33000D02*
X71750Y-33250D01*
X68750Y-36000D02*
X68750Y-38750D01*
G54D30*
X71500Y-44250D02*
X73250Y-46000D01*
G54D29*
X68750Y-33000D02*
X71500Y-33000D01*
G54D32*
X72200Y-20950D02*
X70000Y-18750D01*
G54D31*
X56000Y-29834D02*
X57530Y-31364D01*
G54D30*
X48250Y-45250D02*
X46750Y-46750D01*
G54D29*
X41250Y-24250D02*
X40750Y-23750D01*
G54D30*
X65000Y-25250D02*
X65000Y-24250D01*
G54D32*
X61500Y-35500D02*
X58000Y-35500D01*
G54D30*
X44250Y-22250D02*
X44250Y-21750D01*
X44250Y-21750D02*
X44500Y-21500D01*
G54D31*
X42280Y-31364D02*
X45636Y-31364D01*
G54D30*
X44500Y-21500D02*
X47400Y-21500D01*
G54D32*
X58000Y-35000D02*
X58500Y-34500D01*
G54D34*
X40750Y-26750D02*
X40000Y-26750D01*
X41780Y-30114D02*
X41780Y-30000D01*
G54D32*
X73250Y-20950D02*
X72200Y-20950D01*
G54D30*
X51000Y-45250D02*
X48250Y-45250D01*
G54D32*
X58500Y-32334D02*
X57530Y-31364D01*
G54D34*
X41780Y-27780D02*
X40750Y-26750D01*
G54D29*
X42500Y-24250D02*
X41250Y-24250D01*
G54D30*
X55500Y-40250D02*
X53750Y-42000D01*
X64000Y-27000D02*
X64000Y-26250D01*
X55500Y-39500D02*
X55500Y-40250D01*
G54D29*
X44250Y-22500D02*
X42500Y-24250D01*
G54D30*
X51000Y-43250D02*
X51000Y-45250D01*
G54D34*
X41780Y-30000D02*
X41780Y-27780D01*
G54D31*
X56000Y-27250D02*
X56000Y-29834D01*
G54D30*
X45500Y-46750D02*
X44500Y-46750D01*
G54D31*
X45636Y-31364D02*
X45750Y-31250D01*
G54D30*
X44500Y-46750D02*
X43750Y-46000D01*
X53750Y-42000D02*
X52250Y-42000D01*
X64000Y-26250D02*
X65000Y-25250D01*
X56000Y-27000D02*
X57000Y-26000D01*
G54D32*
X72250Y-22950D02*
X72250Y-21950D01*
X72250Y-21950D02*
X73250Y-20950D01*
X58000Y-35500D02*
X58000Y-35000D01*
X72250Y-22950D02*
X72250Y-26000D01*
G54D30*
X71750Y-33250D02*
X73250Y-33250D01*
X43750Y-46000D02*
X43750Y-45000D01*
X73250Y-33250D02*
X74750Y-31750D01*
X70250Y-31000D02*
X70250Y-31750D01*
X71000Y-44250D02*
X71500Y-44250D01*
X52250Y-42000D02*
X51000Y-43250D01*
G54D34*
X41780Y-30000D02*
X41780Y-30864D01*
G54D29*
X44250Y-22250D02*
X44250Y-22500D01*
G54D30*
X57000Y-25500D02*
X56000Y-24500D01*
X64500Y-23750D02*
X64000Y-23750D01*
X46750Y-46750D02*
X45500Y-46750D01*
G54D32*
X72250Y-26000D02*
X74000Y-27750D01*
G54D30*
X57000Y-26000D02*
X57000Y-25500D01*
G54D29*
X40750Y-23750D02*
X40000Y-23750D01*
X41500Y-37000D02*
X41500Y-32144D01*
G54D32*
X58500Y-34500D02*
X58500Y-32334D01*
G54D30*
X70250Y-31750D02*
X71750Y-33250D01*
G54D29*
X41500Y-32144D02*
X42280Y-31364D01*
G54D31*
X63000Y-27750D02*
X63750Y-28500D01*
G54D29*
X52750Y-33700D02*
X52750Y-31700D01*
G54D31*
X52750Y-33700D02*
X52750Y-33250D01*
X58500Y-28750D02*
X59000Y-28250D01*
X60000Y-27750D02*
X63000Y-27750D01*
G54D29*
X52750Y-31700D02*
X51750Y-30700D01*
G54D31*
X52750Y-33250D02*
X53750Y-32250D01*
X59500Y-28250D02*
X60000Y-27750D01*
X53750Y-32250D02*
X56250Y-32250D01*
X59000Y-28250D02*
X59500Y-28250D01*
X50500Y-27750D02*
X50500Y-26500D01*
X50500Y-26500D02*
X51000Y-26000D01*
G54D30*
X52500Y-40750D02*
X52500Y-39500D01*
X67000Y-22750D02*
X69500Y-22750D01*
G54D35*
X64500Y-22000D02*
X63000Y-22000D01*
X66250Y-20250D02*
X64500Y-22000D01*
X66500Y-20250D02*
X66250Y-20250D01*
X63000Y-22000D02*
X61750Y-23250D01*
G54D30*
X67000Y-24750D02*
X67000Y-27000D01*
X59000Y-27250D02*
X59000Y-25500D01*
G54D31*
X53750Y-26500D02*
X53750Y-25750D01*
X53750Y-25750D02*
X56000Y-23500D01*
G54D33*
X56000Y-20000D02*
X57500Y-20000D01*
X54500Y-21500D02*
X56000Y-20000D01*
X54500Y-23500D02*
X54500Y-21500D01*
G54D29*
X62000Y-24750D02*
X64000Y-22750D01*
G54D30*
X48250Y-44250D02*
X48250Y-43000D01*
G54D35*
X59750Y-41500D02*
X59000Y-40750D01*
X59000Y-37000D02*
X59500Y-36500D01*
X59500Y-36500D02*
X61500Y-36500D01*
X59000Y-40750D02*
X59000Y-37000D01*
X60250Y-37500D02*
X61500Y-37500D01*
X59750Y-38000D02*
X60250Y-37500D01*
X60750Y-41250D02*
X59750Y-40250D01*
X59750Y-40250D02*
X59750Y-38000D01*
X60750Y-41500D02*
X60750Y-41250D01*
X60500Y-40250D02*
X61750Y-41500D01*
X61500Y-38500D02*
X60750Y-38500D01*
X60750Y-38500D02*
X60500Y-38750D01*
X60500Y-38750D02*
X60500Y-40250D01*
X61500Y-40250D02*
X62750Y-41500D01*
X61500Y-39500D02*
X61500Y-40250D01*
X64500Y-39500D02*
X64500Y-40750D01*
X64500Y-40750D02*
X63750Y-41500D01*
X65250Y-41000D02*
X64750Y-41500D01*
X64500Y-38500D02*
X65000Y-38500D01*
X65000Y-38500D02*
X65250Y-38750D01*
X65250Y-38750D02*
X65250Y-41000D01*
X65750Y-37750D02*
X65750Y-41500D01*
X64500Y-37500D02*
X65500Y-37500D01*
X65500Y-37500D02*
X65750Y-37750D01*
X66250Y-36500D02*
X66750Y-37000D01*
X64500Y-36500D02*
X66250Y-36500D01*
X66750Y-37000D02*
X66750Y-41500D01*
G54D29*
X65250Y-32250D02*
X65250Y-30000D01*
X65250Y-30000D02*
X64750Y-29500D01*
X65000Y-32500D02*
X65250Y-32250D01*
X64500Y-32500D02*
X65000Y-32500D01*
X63750Y-30500D02*
X63750Y-29500D01*
X64500Y-31500D02*
X64500Y-31250D01*
X64500Y-31250D02*
X63750Y-30500D01*
X40750Y-20750D02*
X39000Y-20750D01*
X40750Y-18750D02*
X41000Y-18500D01*
X40750Y-20750D02*
X40750Y-18750D01*
G54D36*
X44500Y-19000D02*
X41500Y-19000D01*
X41500Y-19000D02*
X41000Y-18500D01*
G54D29*
X62750Y-30750D02*
X62750Y-29500D01*
X62000Y-31500D02*
X62750Y-30750D01*
X61500Y-31500D02*
X62000Y-31500D01*
X60500Y-32000D02*
X60500Y-31250D01*
X60500Y-31250D02*
X61750Y-30000D01*
X61750Y-29500D02*
X61750Y-30000D01*
X61000Y-32500D02*
X61500Y-32500D01*
X61000Y-32500D02*
X60500Y-32000D01*
X61250Y-33500D02*
X60000Y-32250D01*
X61500Y-33500D02*
X61250Y-33500D01*
X60000Y-30250D02*
X60750Y-29500D01*
X60000Y-32250D02*
X60000Y-30250D01*
G54D32*
X56500Y-36000D02*
X56500Y-34500D01*
X58000Y-36500D02*
X57000Y-36500D01*
X57000Y-36500D02*
X56500Y-36000D01*
X56500Y-34500D02*
X57500Y-34500D01*
X55500Y-33666D02*
X54970Y-33136D01*
X55500Y-34500D02*
X55500Y-33666D01*
X57500Y-34500D02*
X55500Y-34500D01*
X61500Y-34500D02*
X60500Y-34500D01*
G54D30*
X71500Y-26250D02*
X72750Y-27500D01*
X71000Y-26250D02*
X71500Y-26250D01*
X68250Y-30000D02*
X68250Y-30750D01*
X68250Y-30750D02*
X69750Y-32250D01*
G54D36*
X41000Y-16500D02*
X41500Y-16000D01*
X41500Y-16000D02*
X44500Y-16000D01*
G54D33*
X41000Y-13750D02*
X41000Y-16500D01*
G54D29*
X39720Y-36220D02*
X40500Y-37000D01*
G54D31*
X66750Y-42500D02*
X66750Y-46500D01*
X66750Y-46500D02*
X66500Y-46750D01*
G54D29*
X39720Y-33136D02*
X39720Y-36220D01*
G54D31*
X66500Y-46750D02*
X49250Y-46750D01*
X49500Y-25250D02*
X51850Y-22900D01*
X49500Y-27750D02*
X49500Y-25250D01*
X51850Y-22900D02*
X51850Y-22800D01*
X49500Y-29500D02*
X47500Y-29500D01*
X49500Y-29500D02*
X49500Y-27750D01*
X47500Y-29500D02*
X46750Y-30250D01*
G54D29*
X66250Y-35000D02*
X67250Y-35000D01*
X67250Y-35000D02*
X67750Y-34500D01*
X64500Y-34500D02*
X65750Y-34500D01*
X65750Y-34500D02*
X66250Y-35000D01*
X67750Y-33000D02*
X66250Y-33000D01*
X64500Y-33500D02*
X65750Y-33500D01*
X65750Y-33500D02*
X66250Y-33000D01*
G54D10*
G36*
X74890Y-27850D02*
X74519Y-28220D01*
X74519Y-27824D01*
X74508Y-27620D01*
X74452Y-27483D01*
X74361Y-27460D01*
X74290Y-27531D01*
X74290Y-27389D01*
X74267Y-27298D01*
X74074Y-27231D01*
X73870Y-27242D01*
X73733Y-27298D01*
X73710Y-27389D01*
X74000Y-27679D01*
X74290Y-27389D01*
X74290Y-27531D01*
X74071Y-27750D01*
X74361Y-28040D01*
X74452Y-28017D01*
X74519Y-27824D01*
X74519Y-28220D01*
X74366Y-28373D01*
X74298Y-28305D01*
X74157Y-28246D01*
X74267Y-28202D01*
X74290Y-28111D01*
X74000Y-27821D01*
X73929Y-27892D01*
X73929Y-27750D01*
X73639Y-27460D01*
X73548Y-27483D01*
X73481Y-27676D01*
X73492Y-27880D01*
X73548Y-28017D01*
X73639Y-28040D01*
X73929Y-27750D01*
X73929Y-27892D01*
X73710Y-28111D01*
X73717Y-28140D01*
X73275Y-28140D01*
X73275Y-27605D01*
X73275Y-27396D01*
X73200Y-27215D01*
X73200Y-21537D01*
X73200Y-21000D01*
X73200Y-20900D01*
X73200Y-20363D01*
X73099Y-20317D01*
X72868Y-20423D01*
X72695Y-20609D01*
X72625Y-20800D01*
X72672Y-20900D01*
X73200Y-20900D01*
X73200Y-21000D01*
X72672Y-21000D01*
X72625Y-21100D01*
X72695Y-21291D01*
X72868Y-21477D01*
X73099Y-21583D01*
X73200Y-21537D01*
X73200Y-27215D01*
X73195Y-27203D01*
X73048Y-27055D01*
X72875Y-26983D01*
X72875Y-23100D01*
X72875Y-22800D01*
X72805Y-22609D01*
X72632Y-22423D01*
X72401Y-22317D01*
X72300Y-22363D01*
X72300Y-22900D01*
X72828Y-22900D01*
X72875Y-22800D01*
X72875Y-23100D01*
X72828Y-23000D01*
X72300Y-23000D01*
X72300Y-23537D01*
X72401Y-23583D01*
X72632Y-23477D01*
X72805Y-23291D01*
X72875Y-23100D01*
X72875Y-26983D01*
X72855Y-26975D01*
X72677Y-26975D01*
X72200Y-26498D01*
X72200Y-23537D01*
X72200Y-23000D01*
X72200Y-22900D01*
X72200Y-22363D01*
X72099Y-22317D01*
X71868Y-22423D01*
X71695Y-22609D01*
X71625Y-22800D01*
X71672Y-22900D01*
X72200Y-22900D01*
X72200Y-23000D01*
X71672Y-23000D01*
X71625Y-23100D01*
X71695Y-23291D01*
X71868Y-23477D01*
X72099Y-23583D01*
X72200Y-23537D01*
X72200Y-26498D01*
X71726Y-26024D01*
X71623Y-25954D01*
X71599Y-25949D01*
X71599Y-25851D01*
X71599Y-22369D01*
X71599Y-22131D01*
X71508Y-21911D01*
X71339Y-21742D01*
X71119Y-21651D01*
X70881Y-21651D01*
X70661Y-21742D01*
X70492Y-21911D01*
X70401Y-22131D01*
X70401Y-22369D01*
X70492Y-22589D01*
X70661Y-22758D01*
X70881Y-22849D01*
X71119Y-22849D01*
X71339Y-22758D01*
X71508Y-22589D01*
X71599Y-22369D01*
X71599Y-25851D01*
X71561Y-25759D01*
X71491Y-25689D01*
X71400Y-25651D01*
X71301Y-25651D01*
X70601Y-25651D01*
X70509Y-25689D01*
X70439Y-25759D01*
X70401Y-25850D01*
X70401Y-25949D01*
X70401Y-26649D01*
X70439Y-26741D01*
X70509Y-26811D01*
X70600Y-26849D01*
X70699Y-26849D01*
X71399Y-26849D01*
X71491Y-26811D01*
X71549Y-26752D01*
X72225Y-27427D01*
X72225Y-27604D01*
X72305Y-27797D01*
X72452Y-27945D01*
X72645Y-28025D01*
X72854Y-28025D01*
X73047Y-27945D01*
X73195Y-27798D01*
X73275Y-27605D01*
X73275Y-28140D01*
X70290Y-28140D01*
X70290Y-18111D01*
X70000Y-17821D01*
X69929Y-17892D01*
X69929Y-17750D01*
X69639Y-17460D01*
X69548Y-17483D01*
X69481Y-17676D01*
X69492Y-17880D01*
X69548Y-18017D01*
X69639Y-18040D01*
X69929Y-17750D01*
X69929Y-17892D01*
X69710Y-18111D01*
X69733Y-18202D01*
X69926Y-18269D01*
X70130Y-18258D01*
X70267Y-18202D01*
X70290Y-18111D01*
X70290Y-28140D01*
X70275Y-28140D01*
X70275Y-27605D01*
X70275Y-27396D01*
X70195Y-27203D01*
X70048Y-27055D01*
X69855Y-26975D01*
X69646Y-26975D01*
X69453Y-27055D01*
X69305Y-27202D01*
X69225Y-27395D01*
X69225Y-27604D01*
X69305Y-27797D01*
X69452Y-27945D01*
X69645Y-28025D01*
X69854Y-28025D01*
X70047Y-27945D01*
X70195Y-27798D01*
X70275Y-27605D01*
X70275Y-28140D01*
X68849Y-28140D01*
X68849Y-26119D01*
X68849Y-25881D01*
X68758Y-25661D01*
X68589Y-25492D01*
X68369Y-25401D01*
X68131Y-25401D01*
X67911Y-25492D01*
X67742Y-25661D01*
X67651Y-25881D01*
X67651Y-26119D01*
X67742Y-26339D01*
X67911Y-26508D01*
X68131Y-26599D01*
X68369Y-26599D01*
X68589Y-26508D01*
X68758Y-26339D01*
X68849Y-26119D01*
X68849Y-28140D01*
X65166Y-28140D01*
X65061Y-28035D01*
X64859Y-27951D01*
X64641Y-27951D01*
X64519Y-28001D01*
X64519Y-27074D01*
X64508Y-26870D01*
X64452Y-26733D01*
X64361Y-26710D01*
X64290Y-26781D01*
X64290Y-26639D01*
X64267Y-26548D01*
X64074Y-26481D01*
X63870Y-26492D01*
X63733Y-26548D01*
X63710Y-26639D01*
X64000Y-26929D01*
X64290Y-26639D01*
X64290Y-26781D01*
X64071Y-27000D01*
X64361Y-27290D01*
X64452Y-27267D01*
X64519Y-27074D01*
X64519Y-28001D01*
X64439Y-28035D01*
X64290Y-28184D01*
X64290Y-27361D01*
X64000Y-27071D01*
X63929Y-27142D01*
X63929Y-27000D01*
X63639Y-26710D01*
X63548Y-26733D01*
X63481Y-26926D01*
X63492Y-27130D01*
X63548Y-27267D01*
X63639Y-27290D01*
X63929Y-27000D01*
X63929Y-27142D01*
X63710Y-27361D01*
X63733Y-27452D01*
X63926Y-27519D01*
X64130Y-27508D01*
X64267Y-27452D01*
X64290Y-27361D01*
X64290Y-28184D01*
X64285Y-28189D01*
X64250Y-28273D01*
X64215Y-28189D01*
X64061Y-28035D01*
X63859Y-27951D01*
X63641Y-27951D01*
X63630Y-27955D01*
X63212Y-27538D01*
X63115Y-27473D01*
X63000Y-27450D01*
X60000Y-27450D01*
X59885Y-27473D01*
X59788Y-27538D01*
X59376Y-27950D01*
X59000Y-27950D01*
X58885Y-27973D01*
X58788Y-28038D01*
X58501Y-28325D01*
X58416Y-28325D01*
X58260Y-28389D01*
X58140Y-28509D01*
X58075Y-28665D01*
X58075Y-28834D01*
X58139Y-28990D01*
X58259Y-29110D01*
X58415Y-29175D01*
X58584Y-29175D01*
X58740Y-29111D01*
X58860Y-28991D01*
X58925Y-28835D01*
X58925Y-28749D01*
X59124Y-28550D01*
X59500Y-28550D01*
X59615Y-28527D01*
X59712Y-28462D01*
X60124Y-28050D01*
X60424Y-28050D01*
X60285Y-28189D01*
X60201Y-28391D01*
X60201Y-28609D01*
X60285Y-28811D01*
X60425Y-28951D01*
X60401Y-28951D01*
X60309Y-28989D01*
X60239Y-29059D01*
X60201Y-29150D01*
X60201Y-29249D01*
X60201Y-29582D01*
X59767Y-30017D01*
X59695Y-30123D01*
X59670Y-30250D01*
X59670Y-32250D01*
X59695Y-32377D01*
X59767Y-32483D01*
X60798Y-33514D01*
X60798Y-33609D01*
X60882Y-33811D01*
X61036Y-33965D01*
X61120Y-34000D01*
X61036Y-34035D01*
X60931Y-34140D01*
X60882Y-34140D01*
X60798Y-34055D01*
X60605Y-33975D01*
X60396Y-33975D01*
X60203Y-34055D01*
X60055Y-34202D01*
X59975Y-34395D01*
X59975Y-34604D01*
X60055Y-34797D01*
X60202Y-34945D01*
X60395Y-35025D01*
X60604Y-35025D01*
X60797Y-34945D01*
X60882Y-34860D01*
X60931Y-34860D01*
X61036Y-34965D01*
X61115Y-34998D01*
X60950Y-35118D01*
X60835Y-35304D01*
X60818Y-35363D01*
X60865Y-35450D01*
X61400Y-35450D01*
X61450Y-35450D01*
X61550Y-35450D01*
X61600Y-35450D01*
X62135Y-35450D01*
X62182Y-35363D01*
X62165Y-35304D01*
X62050Y-35118D01*
X61884Y-34998D01*
X61964Y-34965D01*
X62118Y-34811D01*
X62202Y-34609D01*
X62202Y-34391D01*
X62118Y-34189D01*
X61964Y-34035D01*
X61879Y-34000D01*
X61964Y-33965D01*
X62118Y-33811D01*
X62202Y-33609D01*
X62202Y-33391D01*
X62118Y-33189D01*
X61964Y-33035D01*
X61879Y-33000D01*
X61964Y-32965D01*
X62118Y-32811D01*
X62202Y-32609D01*
X62202Y-32391D01*
X62118Y-32189D01*
X61988Y-32059D01*
X61999Y-32059D01*
X62091Y-32021D01*
X62161Y-31951D01*
X62199Y-31860D01*
X62199Y-31761D01*
X62199Y-31756D01*
X62199Y-31755D01*
X62233Y-31733D01*
X62983Y-30984D01*
X62983Y-30983D01*
X63030Y-30912D01*
X63054Y-30877D01*
X63055Y-30876D01*
X63079Y-30750D01*
X63080Y-30750D01*
X63080Y-30049D01*
X63099Y-30049D01*
X63191Y-30011D01*
X63250Y-29952D01*
X63309Y-30011D01*
X63400Y-30049D01*
X63420Y-30049D01*
X63420Y-30500D01*
X63445Y-30627D01*
X63517Y-30733D01*
X63927Y-31143D01*
X63882Y-31189D01*
X63798Y-31391D01*
X63798Y-31609D01*
X63882Y-31811D01*
X64036Y-31965D01*
X64120Y-32000D01*
X64036Y-32035D01*
X63882Y-32189D01*
X63798Y-32391D01*
X63798Y-32609D01*
X63882Y-32811D01*
X64036Y-32965D01*
X64120Y-33000D01*
X64036Y-33035D01*
X63882Y-33189D01*
X63798Y-33391D01*
X63798Y-33609D01*
X63882Y-33811D01*
X64036Y-33965D01*
X64120Y-34000D01*
X64036Y-34035D01*
X63882Y-34189D01*
X63798Y-34391D01*
X63798Y-34609D01*
X63882Y-34811D01*
X64036Y-34965D01*
X64120Y-35000D01*
X64036Y-35035D01*
X63882Y-35189D01*
X63798Y-35391D01*
X63798Y-35609D01*
X63882Y-35811D01*
X64036Y-35965D01*
X64120Y-36000D01*
X64036Y-36035D01*
X63882Y-36189D01*
X63798Y-36391D01*
X63798Y-36609D01*
X63882Y-36811D01*
X64036Y-36965D01*
X64120Y-37000D01*
X64036Y-37035D01*
X63882Y-37189D01*
X63798Y-37391D01*
X63798Y-37609D01*
X63882Y-37811D01*
X64036Y-37965D01*
X64120Y-38000D01*
X64036Y-38035D01*
X63882Y-38189D01*
X63798Y-38391D01*
X63798Y-38609D01*
X63882Y-38811D01*
X64036Y-38965D01*
X64120Y-39000D01*
X64036Y-39035D01*
X63882Y-39189D01*
X63798Y-39391D01*
X63798Y-39609D01*
X63882Y-39811D01*
X64036Y-39965D01*
X64150Y-40012D01*
X64150Y-40605D01*
X63804Y-40951D01*
X63401Y-40951D01*
X63309Y-40989D01*
X63250Y-41048D01*
X63191Y-40989D01*
X63100Y-40951D01*
X63001Y-40951D01*
X62695Y-40951D01*
X61850Y-40105D01*
X61850Y-40012D01*
X61964Y-39965D01*
X62118Y-39811D01*
X62202Y-39609D01*
X62202Y-39391D01*
X62118Y-39189D01*
X61964Y-39035D01*
X61879Y-39000D01*
X61964Y-38965D01*
X62118Y-38811D01*
X62202Y-38609D01*
X62202Y-38391D01*
X62118Y-38189D01*
X61964Y-38035D01*
X61879Y-38000D01*
X61964Y-37965D01*
X62118Y-37811D01*
X62202Y-37609D01*
X62202Y-37391D01*
X62118Y-37189D01*
X61964Y-37035D01*
X61879Y-37000D01*
X61964Y-36965D01*
X62118Y-36811D01*
X62202Y-36609D01*
X62202Y-36391D01*
X62118Y-36189D01*
X61964Y-36035D01*
X61884Y-36001D01*
X62050Y-35882D01*
X62165Y-35696D01*
X62182Y-35637D01*
X62135Y-35550D01*
X61600Y-35550D01*
X61550Y-35550D01*
X61450Y-35550D01*
X61400Y-35550D01*
X60865Y-35550D01*
X60818Y-35637D01*
X60835Y-35696D01*
X60950Y-35882D01*
X61115Y-36001D01*
X61036Y-36035D01*
X60921Y-36150D01*
X59500Y-36150D01*
X59366Y-36177D01*
X59252Y-36253D01*
X58753Y-36753D01*
X58677Y-36866D01*
X58650Y-37000D01*
X58650Y-40750D01*
X58677Y-40884D01*
X58753Y-40997D01*
X59201Y-41445D01*
X59201Y-41849D01*
X59239Y-41941D01*
X59309Y-42011D01*
X59400Y-42049D01*
X59425Y-42049D01*
X59285Y-42189D01*
X59201Y-42391D01*
X59201Y-42609D01*
X59285Y-42811D01*
X59439Y-42965D01*
X59641Y-43049D01*
X59748Y-43049D01*
X59367Y-43430D01*
X58525Y-43430D01*
X58525Y-36605D01*
X58525Y-36396D01*
X58519Y-36381D01*
X58519Y-35574D01*
X58508Y-35370D01*
X58452Y-35233D01*
X58361Y-35210D01*
X58290Y-35281D01*
X58290Y-35139D01*
X58267Y-35048D01*
X58173Y-35015D01*
X58173Y-33265D01*
X58173Y-33009D01*
X58165Y-32989D01*
X58165Y-31464D01*
X58155Y-31214D01*
X58078Y-31028D01*
X57974Y-30991D01*
X57903Y-31062D01*
X57903Y-30920D01*
X57866Y-30816D01*
X57630Y-30729D01*
X57380Y-30739D01*
X57194Y-30816D01*
X57157Y-30920D01*
X57530Y-31293D01*
X57903Y-30920D01*
X57903Y-31062D01*
X57601Y-31364D01*
X57974Y-31737D01*
X58078Y-31700D01*
X58165Y-31464D01*
X58165Y-32989D01*
X58075Y-32773D01*
X57903Y-32600D01*
X57903Y-31808D01*
X57530Y-31435D01*
X57459Y-31506D01*
X57459Y-31364D01*
X57086Y-30991D01*
X56982Y-31028D01*
X56895Y-31264D01*
X56905Y-31514D01*
X56982Y-31700D01*
X57086Y-31737D01*
X57459Y-31364D01*
X57459Y-31506D01*
X57157Y-31808D01*
X57194Y-31912D01*
X57430Y-31999D01*
X57680Y-31989D01*
X57866Y-31912D01*
X57903Y-31808D01*
X57903Y-32600D01*
X57895Y-32592D01*
X57659Y-32493D01*
X57403Y-32493D01*
X57167Y-32591D01*
X56986Y-32771D01*
X56887Y-33007D01*
X56887Y-33263D01*
X56985Y-33499D01*
X57165Y-33680D01*
X57401Y-33779D01*
X57657Y-33779D01*
X57893Y-33681D01*
X58074Y-33501D01*
X58173Y-33265D01*
X58173Y-35015D01*
X58074Y-34981D01*
X57870Y-34992D01*
X57733Y-35048D01*
X57710Y-35139D01*
X58000Y-35429D01*
X58290Y-35139D01*
X58290Y-35281D01*
X58071Y-35500D01*
X58361Y-35790D01*
X58452Y-35767D01*
X58519Y-35574D01*
X58519Y-36381D01*
X58445Y-36203D01*
X58298Y-36055D01*
X58157Y-35996D01*
X58267Y-35952D01*
X58290Y-35861D01*
X58000Y-35571D01*
X57929Y-35642D01*
X57929Y-35500D01*
X57639Y-35210D01*
X57548Y-35233D01*
X57481Y-35426D01*
X57492Y-35630D01*
X57548Y-35767D01*
X57639Y-35790D01*
X57929Y-35500D01*
X57929Y-35642D01*
X57710Y-35861D01*
X57733Y-35952D01*
X57851Y-35993D01*
X57703Y-36055D01*
X57617Y-36140D01*
X57149Y-36140D01*
X56860Y-35850D01*
X56860Y-34882D01*
X56882Y-34860D01*
X57117Y-34860D01*
X57202Y-34945D01*
X57395Y-35025D01*
X57604Y-35025D01*
X57797Y-34945D01*
X57945Y-34798D01*
X58025Y-34605D01*
X58025Y-34396D01*
X57945Y-34203D01*
X57798Y-34055D01*
X57605Y-33975D01*
X57396Y-33975D01*
X57203Y-34055D01*
X57117Y-34140D01*
X56882Y-34140D01*
X56798Y-34055D01*
X56605Y-33975D01*
X56396Y-33975D01*
X56203Y-34055D01*
X56117Y-34140D01*
X55882Y-34140D01*
X55860Y-34117D01*
X55860Y-33666D01*
X55833Y-33528D01*
X55755Y-33411D01*
X55752Y-33409D01*
X55611Y-33268D01*
X55613Y-33265D01*
X55613Y-33009D01*
X55515Y-32773D01*
X55335Y-32592D01*
X55234Y-32550D01*
X55949Y-32550D01*
X56009Y-32610D01*
X56165Y-32675D01*
X56334Y-32675D01*
X56490Y-32611D01*
X56610Y-32491D01*
X56675Y-32335D01*
X56675Y-32166D01*
X56611Y-32010D01*
X56519Y-31918D01*
X56519Y-27324D01*
X56508Y-27120D01*
X56452Y-26983D01*
X56361Y-26960D01*
X56071Y-27250D01*
X56361Y-27540D01*
X56452Y-27517D01*
X56519Y-27324D01*
X56519Y-31918D01*
X56491Y-31890D01*
X56335Y-31825D01*
X56290Y-31825D01*
X56290Y-27611D01*
X56000Y-27321D01*
X55929Y-27392D01*
X55929Y-27250D01*
X55639Y-26960D01*
X55548Y-26983D01*
X55481Y-27176D01*
X55492Y-27380D01*
X55548Y-27517D01*
X55639Y-27540D01*
X55929Y-27250D01*
X55929Y-27392D01*
X55710Y-27611D01*
X55733Y-27702D01*
X55926Y-27769D01*
X56130Y-27758D01*
X56267Y-27702D01*
X56290Y-27611D01*
X56290Y-31825D01*
X56166Y-31825D01*
X56010Y-31889D01*
X55949Y-31950D01*
X55234Y-31950D01*
X55333Y-31909D01*
X55514Y-31729D01*
X55613Y-31493D01*
X55613Y-31237D01*
X55515Y-31001D01*
X55335Y-30820D01*
X55099Y-30721D01*
X54843Y-30721D01*
X54607Y-30819D01*
X54426Y-30999D01*
X54327Y-31235D01*
X54327Y-31491D01*
X54425Y-31727D01*
X54605Y-31908D01*
X54705Y-31950D01*
X53750Y-31950D01*
X53635Y-31973D01*
X53538Y-32038D01*
X53080Y-32496D01*
X53080Y-31700D01*
X53058Y-31594D01*
X53055Y-31574D01*
X53055Y-31573D01*
X52983Y-31467D01*
X52378Y-30862D01*
X52393Y-30826D01*
X52393Y-30575D01*
X52297Y-30343D01*
X52120Y-30165D01*
X51888Y-30069D01*
X51637Y-30069D01*
X51613Y-30069D01*
X51381Y-30165D01*
X51203Y-30342D01*
X51107Y-30574D01*
X51107Y-30825D01*
X51203Y-31057D01*
X51380Y-31235D01*
X51612Y-31331D01*
X51863Y-31331D01*
X51887Y-31331D01*
X51906Y-31322D01*
X52420Y-31836D01*
X52420Y-33148D01*
X52381Y-33165D01*
X52203Y-33342D01*
X52107Y-33574D01*
X52107Y-33825D01*
X52203Y-34057D01*
X52380Y-34235D01*
X52612Y-34331D01*
X52863Y-34331D01*
X52887Y-34331D01*
X53119Y-34235D01*
X53297Y-34058D01*
X53393Y-33826D01*
X53393Y-33575D01*
X53297Y-33343D01*
X53189Y-33234D01*
X53874Y-32550D01*
X54705Y-32550D01*
X54607Y-32591D01*
X54426Y-32771D01*
X54327Y-33007D01*
X54327Y-33263D01*
X54425Y-33499D01*
X54605Y-33680D01*
X54841Y-33779D01*
X55097Y-33779D01*
X55101Y-33777D01*
X55140Y-33815D01*
X55140Y-34117D01*
X55055Y-34202D01*
X54975Y-34395D01*
X54975Y-34604D01*
X55055Y-34797D01*
X55202Y-34945D01*
X55395Y-35025D01*
X55604Y-35025D01*
X55797Y-34945D01*
X55882Y-34860D01*
X56117Y-34860D01*
X56140Y-34882D01*
X56140Y-35995D01*
X56139Y-36000D01*
X56167Y-36138D01*
X56245Y-36255D01*
X56743Y-36752D01*
X56745Y-36755D01*
X56862Y-36833D01*
X57000Y-36861D01*
X57000Y-36860D01*
X57004Y-36860D01*
X57617Y-36860D01*
X57702Y-36945D01*
X57895Y-37025D01*
X58104Y-37025D01*
X58297Y-36945D01*
X58445Y-36798D01*
X58525Y-36605D01*
X58525Y-43430D01*
X57275Y-43430D01*
X57275Y-42605D01*
X57275Y-42396D01*
X57195Y-42203D01*
X57175Y-42182D01*
X57175Y-41335D01*
X57175Y-41166D01*
X57111Y-41010D01*
X56991Y-40890D01*
X56835Y-40825D01*
X56800Y-40825D01*
X56800Y-37942D01*
X56945Y-37798D01*
X57025Y-37605D01*
X57025Y-37396D01*
X56945Y-37203D01*
X56798Y-37055D01*
X56605Y-36975D01*
X56396Y-36975D01*
X56203Y-37055D01*
X56117Y-37140D01*
X56009Y-37140D01*
X55986Y-37084D01*
X55916Y-37014D01*
X55825Y-36976D01*
X55726Y-36976D01*
X55400Y-36976D01*
X53912Y-35488D01*
X53815Y-35423D01*
X53700Y-35400D01*
X52320Y-35400D01*
X52297Y-35343D01*
X52120Y-35165D01*
X51888Y-35069D01*
X51637Y-35069D01*
X51613Y-35069D01*
X51381Y-35165D01*
X51203Y-35342D01*
X51107Y-35574D01*
X51107Y-35825D01*
X51134Y-35890D01*
X48038Y-38988D01*
X47973Y-39085D01*
X47950Y-39200D01*
X47950Y-39557D01*
X47805Y-39702D01*
X47725Y-39895D01*
X47725Y-40072D01*
X46846Y-40951D01*
X46641Y-40951D01*
X46439Y-41035D01*
X46304Y-41170D01*
X45446Y-41170D01*
X45311Y-41035D01*
X45109Y-40951D01*
X44891Y-40951D01*
X44689Y-41035D01*
X44535Y-41189D01*
X44451Y-41391D01*
X44451Y-41609D01*
X44535Y-41811D01*
X44675Y-41951D01*
X44651Y-41951D01*
X44559Y-41989D01*
X44489Y-42059D01*
X44451Y-42150D01*
X44451Y-42249D01*
X44451Y-42614D01*
X44445Y-42623D01*
X44420Y-42750D01*
X44420Y-44451D01*
X44401Y-44451D01*
X44309Y-44489D01*
X44239Y-44559D01*
X44201Y-44650D01*
X44201Y-44712D01*
X44128Y-44692D01*
X44058Y-44762D01*
X44058Y-44622D01*
X44031Y-44528D01*
X43829Y-44457D01*
X43616Y-44468D01*
X43469Y-44528D01*
X43442Y-44622D01*
X43750Y-44929D01*
X44058Y-44622D01*
X44058Y-44762D01*
X43821Y-45000D01*
X44128Y-45308D01*
X44201Y-45287D01*
X44201Y-45349D01*
X44239Y-45441D01*
X44309Y-45511D01*
X44400Y-45549D01*
X44499Y-45549D01*
X45099Y-45549D01*
X45191Y-45511D01*
X45261Y-45441D01*
X45299Y-45350D01*
X45299Y-45251D01*
X45299Y-44651D01*
X45261Y-44559D01*
X45191Y-44489D01*
X45100Y-44451D01*
X45080Y-44451D01*
X45080Y-43049D01*
X45349Y-43049D01*
X45441Y-43011D01*
X45511Y-42941D01*
X45549Y-42850D01*
X45549Y-42751D01*
X45549Y-42151D01*
X45511Y-42059D01*
X45441Y-41989D01*
X45350Y-41951D01*
X45325Y-41951D01*
X45446Y-41830D01*
X46304Y-41830D01*
X46425Y-41951D01*
X46401Y-41951D01*
X46309Y-41989D01*
X46239Y-42059D01*
X46201Y-42150D01*
X46201Y-42249D01*
X46201Y-42849D01*
X46239Y-42941D01*
X46309Y-43011D01*
X46400Y-43049D01*
X46499Y-43049D01*
X47099Y-43049D01*
X47191Y-43011D01*
X47261Y-42941D01*
X47299Y-42850D01*
X47299Y-42751D01*
X47299Y-42151D01*
X47261Y-42059D01*
X47191Y-41989D01*
X47100Y-41951D01*
X47075Y-41951D01*
X47215Y-41811D01*
X47299Y-41609D01*
X47299Y-41403D01*
X48177Y-40525D01*
X48354Y-40525D01*
X48547Y-40445D01*
X48695Y-40298D01*
X48775Y-40105D01*
X48775Y-39896D01*
X48695Y-39703D01*
X48550Y-39557D01*
X48550Y-39324D01*
X51563Y-36311D01*
X51612Y-36331D01*
X51863Y-36331D01*
X51887Y-36331D01*
X52119Y-36235D01*
X52297Y-36058D01*
X52321Y-36000D01*
X53575Y-36000D01*
X54976Y-37400D01*
X54976Y-37824D01*
X55014Y-37916D01*
X55084Y-37986D01*
X55175Y-38024D01*
X55274Y-38024D01*
X55824Y-38024D01*
X55916Y-37986D01*
X55986Y-37916D01*
X56009Y-37860D01*
X56117Y-37860D01*
X56200Y-37942D01*
X56200Y-41000D01*
X56223Y-41115D01*
X56288Y-41212D01*
X56325Y-41249D01*
X56325Y-41334D01*
X56389Y-41490D01*
X56509Y-41610D01*
X56665Y-41675D01*
X56834Y-41675D01*
X56990Y-41611D01*
X57110Y-41491D01*
X57175Y-41335D01*
X57175Y-42182D01*
X57048Y-42055D01*
X56855Y-41975D01*
X56646Y-41975D01*
X56453Y-42055D01*
X56305Y-42202D01*
X56225Y-42395D01*
X56225Y-42604D01*
X56305Y-42797D01*
X56452Y-42945D01*
X56645Y-43025D01*
X56854Y-43025D01*
X57047Y-42945D01*
X57195Y-42798D01*
X57275Y-42605D01*
X57275Y-43430D01*
X56019Y-43430D01*
X56019Y-39574D01*
X56008Y-39370D01*
X55952Y-39233D01*
X55861Y-39210D01*
X55790Y-39281D01*
X55790Y-39139D01*
X55767Y-39048D01*
X55574Y-38981D01*
X55370Y-38992D01*
X55233Y-39048D01*
X55210Y-39139D01*
X55500Y-39429D01*
X55790Y-39139D01*
X55790Y-39281D01*
X55571Y-39500D01*
X55861Y-39790D01*
X55952Y-39767D01*
X56019Y-39574D01*
X56019Y-43430D01*
X55790Y-43430D01*
X55790Y-39861D01*
X55500Y-39571D01*
X55429Y-39642D01*
X55429Y-39500D01*
X55139Y-39210D01*
X55048Y-39233D01*
X54981Y-39426D01*
X54992Y-39630D01*
X55048Y-39767D01*
X55139Y-39790D01*
X55429Y-39500D01*
X55429Y-39642D01*
X55210Y-39861D01*
X55233Y-39952D01*
X55426Y-40019D01*
X55630Y-40008D01*
X55767Y-39952D01*
X55790Y-39861D01*
X55790Y-43430D01*
X55025Y-43430D01*
X55025Y-42605D01*
X55025Y-42396D01*
X54945Y-42203D01*
X54798Y-42055D01*
X54605Y-41975D01*
X54396Y-41975D01*
X54203Y-42055D01*
X54055Y-42202D01*
X53975Y-42395D01*
X53975Y-42604D01*
X54055Y-42797D01*
X54202Y-42945D01*
X54395Y-43025D01*
X54604Y-43025D01*
X54797Y-42945D01*
X54945Y-42798D01*
X55025Y-42605D01*
X55025Y-43430D01*
X53025Y-43430D01*
X53025Y-40855D01*
X53025Y-40646D01*
X52945Y-40453D01*
X52820Y-40327D01*
X52820Y-39922D01*
X52945Y-39798D01*
X53025Y-39605D01*
X53025Y-39396D01*
X52945Y-39203D01*
X52798Y-39055D01*
X52605Y-38975D01*
X52396Y-38975D01*
X52203Y-39055D01*
X52055Y-39202D01*
X51975Y-39395D01*
X51975Y-39604D01*
X52055Y-39797D01*
X52180Y-39922D01*
X52180Y-40327D01*
X52055Y-40452D01*
X51975Y-40645D01*
X51975Y-40854D01*
X52055Y-41047D01*
X52202Y-41195D01*
X52395Y-41275D01*
X52604Y-41275D01*
X52797Y-41195D01*
X52945Y-41048D01*
X53025Y-40855D01*
X53025Y-43430D01*
X52922Y-43430D01*
X52798Y-43305D01*
X52605Y-43225D01*
X52396Y-43225D01*
X52203Y-43305D01*
X52055Y-43452D01*
X51975Y-43645D01*
X51975Y-43854D01*
X52055Y-44047D01*
X52202Y-44195D01*
X52395Y-44275D01*
X52523Y-44275D01*
X52073Y-44725D01*
X51896Y-44725D01*
X51703Y-44805D01*
X51555Y-44952D01*
X51496Y-45092D01*
X51452Y-44983D01*
X51361Y-44960D01*
X51290Y-45031D01*
X51290Y-44889D01*
X51267Y-44798D01*
X51074Y-44731D01*
X50870Y-44742D01*
X50733Y-44798D01*
X50710Y-44889D01*
X51000Y-45179D01*
X51290Y-44889D01*
X51290Y-45031D01*
X51071Y-45250D01*
X51361Y-45540D01*
X51452Y-45517D01*
X51493Y-45398D01*
X51555Y-45547D01*
X51702Y-45695D01*
X51895Y-45775D01*
X52104Y-45775D01*
X52297Y-45695D01*
X52422Y-45570D01*
X52867Y-45570D01*
X53523Y-46226D01*
X53524Y-46226D01*
X53526Y-46228D01*
X53747Y-46450D01*
X51290Y-46450D01*
X51290Y-45611D01*
X51000Y-45321D01*
X50929Y-45392D01*
X50929Y-45250D01*
X50639Y-44960D01*
X50548Y-44983D01*
X50481Y-45176D01*
X50492Y-45380D01*
X50548Y-45517D01*
X50639Y-45540D01*
X50929Y-45250D01*
X50929Y-45392D01*
X50710Y-45611D01*
X50733Y-45702D01*
X50926Y-45769D01*
X51130Y-45758D01*
X51267Y-45702D01*
X51290Y-45611D01*
X51290Y-46450D01*
X49551Y-46450D01*
X49491Y-46390D01*
X49335Y-46325D01*
X49166Y-46325D01*
X49010Y-46389D01*
X48890Y-46509D01*
X48830Y-46653D01*
X48830Y-44366D01*
X48830Y-44135D01*
X48742Y-43922D01*
X48579Y-43759D01*
X48570Y-43755D01*
X48570Y-43422D01*
X48695Y-43298D01*
X48775Y-43105D01*
X48775Y-42896D01*
X48695Y-42703D01*
X48548Y-42555D01*
X48355Y-42475D01*
X48146Y-42475D01*
X47953Y-42555D01*
X47805Y-42702D01*
X47725Y-42895D01*
X47725Y-43104D01*
X47805Y-43297D01*
X47930Y-43422D01*
X47930Y-43754D01*
X47922Y-43758D01*
X47759Y-43921D01*
X47670Y-44134D01*
X47670Y-44365D01*
X47758Y-44578D01*
X47921Y-44741D01*
X47952Y-44753D01*
X47952Y-44754D01*
X47921Y-44850D01*
X48250Y-45179D01*
X48579Y-44850D01*
X48548Y-44754D01*
X48578Y-44742D01*
X48741Y-44579D01*
X48830Y-44366D01*
X48830Y-46653D01*
X48825Y-46665D01*
X48825Y-46834D01*
X48861Y-46922D01*
X48823Y-46922D01*
X48823Y-45336D01*
X48812Y-45111D01*
X48746Y-44952D01*
X48650Y-44921D01*
X48321Y-45250D01*
X48650Y-45579D01*
X48746Y-45548D01*
X48823Y-45336D01*
X48823Y-46922D01*
X48579Y-46922D01*
X48579Y-45650D01*
X48250Y-45321D01*
X48179Y-45392D01*
X48179Y-45250D01*
X47850Y-44921D01*
X47754Y-44952D01*
X47677Y-45164D01*
X47688Y-45389D01*
X47754Y-45548D01*
X47850Y-45579D01*
X48179Y-45250D01*
X48179Y-45392D01*
X47921Y-45650D01*
X47952Y-45746D01*
X48164Y-45823D01*
X48389Y-45812D01*
X48548Y-45746D01*
X48579Y-45650D01*
X48579Y-46922D01*
X47800Y-46925D01*
X44058Y-46925D01*
X44058Y-45378D01*
X43750Y-45071D01*
X43442Y-45378D01*
X43469Y-45472D01*
X43671Y-45543D01*
X43884Y-45532D01*
X44031Y-45472D01*
X44058Y-45378D01*
X44058Y-46925D01*
X38325Y-46925D01*
X38325Y-25650D01*
X38670Y-25650D01*
X38670Y-27750D01*
X38695Y-27876D01*
X38767Y-27983D01*
X38874Y-28055D01*
X39000Y-28080D01*
X39426Y-28080D01*
X39426Y-28124D01*
X39464Y-28216D01*
X39534Y-28286D01*
X39625Y-28324D01*
X39670Y-28324D01*
X39670Y-28364D01*
X38767Y-29267D01*
X38695Y-29373D01*
X38670Y-29500D01*
X38670Y-40750D01*
X38695Y-40877D01*
X38767Y-40983D01*
X40201Y-42417D01*
X40201Y-42849D01*
X40239Y-42941D01*
X40309Y-43011D01*
X40400Y-43049D01*
X40499Y-43049D01*
X41099Y-43049D01*
X41191Y-43011D01*
X41261Y-42941D01*
X41299Y-42850D01*
X41299Y-42751D01*
X41299Y-42151D01*
X41261Y-42059D01*
X41191Y-41989D01*
X41100Y-41951D01*
X41075Y-41951D01*
X41196Y-41830D01*
X42054Y-41830D01*
X42175Y-41951D01*
X42151Y-41951D01*
X42059Y-41989D01*
X41989Y-42059D01*
X41951Y-42150D01*
X41951Y-42249D01*
X41951Y-42849D01*
X41989Y-42941D01*
X42059Y-43011D01*
X42150Y-43049D01*
X42249Y-43049D01*
X42420Y-43049D01*
X42420Y-44554D01*
X42285Y-44689D01*
X42201Y-44891D01*
X42201Y-45109D01*
X42285Y-45311D01*
X42439Y-45465D01*
X42641Y-45549D01*
X42859Y-45549D01*
X43061Y-45465D01*
X43215Y-45311D01*
X43252Y-45219D01*
X43278Y-45281D01*
X43372Y-45308D01*
X43679Y-45000D01*
X43372Y-44692D01*
X43278Y-44719D01*
X43254Y-44784D01*
X43215Y-44689D01*
X43080Y-44554D01*
X43080Y-42750D01*
X43055Y-42624D01*
X43054Y-42623D01*
X43049Y-42615D01*
X43049Y-42151D01*
X43011Y-42059D01*
X42941Y-41989D01*
X42850Y-41951D01*
X42825Y-41951D01*
X42965Y-41811D01*
X43049Y-41609D01*
X43049Y-41391D01*
X43044Y-41379D01*
X44212Y-40212D01*
X49712Y-34712D01*
X49777Y-34615D01*
X49800Y-34500D01*
X49800Y-34099D01*
X49899Y-34099D01*
X49991Y-34061D01*
X50061Y-33991D01*
X50099Y-33900D01*
X50099Y-33801D01*
X50099Y-33101D01*
X50061Y-33009D01*
X49991Y-32939D01*
X49900Y-32901D01*
X49801Y-32901D01*
X49101Y-32901D01*
X49009Y-32939D01*
X48939Y-33009D01*
X48901Y-33100D01*
X48901Y-33199D01*
X48901Y-33899D01*
X48939Y-33991D01*
X49009Y-34061D01*
X49100Y-34099D01*
X49199Y-34099D01*
X49200Y-34099D01*
X49200Y-34376D01*
X45700Y-37875D01*
X45700Y-31713D01*
X45700Y-31300D01*
X45700Y-31200D01*
X45700Y-30787D01*
X45638Y-30725D01*
X45426Y-30726D01*
X45334Y-30764D01*
X45264Y-30834D01*
X45226Y-30925D01*
X45226Y-31024D01*
X45225Y-31138D01*
X45287Y-31200D01*
X45700Y-31200D01*
X45700Y-31300D01*
X45287Y-31300D01*
X45225Y-31362D01*
X45226Y-31476D01*
X45226Y-31575D01*
X45264Y-31666D01*
X45334Y-31736D01*
X45426Y-31774D01*
X45638Y-31775D01*
X45700Y-31713D01*
X45700Y-37875D01*
X43997Y-39578D01*
X43945Y-39453D01*
X43798Y-39305D01*
X43605Y-39225D01*
X43396Y-39225D01*
X43203Y-39305D01*
X43055Y-39452D01*
X42975Y-39645D01*
X42975Y-39854D01*
X43055Y-40047D01*
X43202Y-40195D01*
X43328Y-40247D01*
X42923Y-40652D01*
X42923Y-33265D01*
X42923Y-33009D01*
X42915Y-32989D01*
X42915Y-31464D01*
X42905Y-31214D01*
X42828Y-31028D01*
X42724Y-30991D01*
X42653Y-31062D01*
X42653Y-30920D01*
X42616Y-30816D01*
X42380Y-30729D01*
X42130Y-30739D01*
X41944Y-30816D01*
X41907Y-30920D01*
X42280Y-31293D01*
X42653Y-30920D01*
X42653Y-31062D01*
X42351Y-31364D01*
X42724Y-31737D01*
X42828Y-31700D01*
X42915Y-31464D01*
X42915Y-32989D01*
X42825Y-32773D01*
X42653Y-32600D01*
X42653Y-31808D01*
X42280Y-31435D01*
X42209Y-31506D01*
X42209Y-31364D01*
X41836Y-30991D01*
X41732Y-31028D01*
X41645Y-31264D01*
X41655Y-31514D01*
X41732Y-31700D01*
X41836Y-31737D01*
X42209Y-31364D01*
X42209Y-31506D01*
X41907Y-31808D01*
X41944Y-31912D01*
X42180Y-31999D01*
X42430Y-31989D01*
X42616Y-31912D01*
X42653Y-31808D01*
X42653Y-32600D01*
X42645Y-32592D01*
X42409Y-32493D01*
X42153Y-32493D01*
X41917Y-32591D01*
X41736Y-32771D01*
X41637Y-33007D01*
X41637Y-33263D01*
X41735Y-33499D01*
X41915Y-33680D01*
X42151Y-33779D01*
X42407Y-33779D01*
X42643Y-33681D01*
X42824Y-33501D01*
X42923Y-33265D01*
X42923Y-40652D01*
X42620Y-40955D01*
X42609Y-40951D01*
X42391Y-40951D01*
X42189Y-41035D01*
X42054Y-41170D01*
X42019Y-41170D01*
X42019Y-37074D01*
X42008Y-36870D01*
X41952Y-36733D01*
X41861Y-36710D01*
X41790Y-36781D01*
X41790Y-36639D01*
X41767Y-36548D01*
X41574Y-36481D01*
X41370Y-36492D01*
X41233Y-36548D01*
X41210Y-36639D01*
X41500Y-36929D01*
X41790Y-36639D01*
X41790Y-36781D01*
X41571Y-37000D01*
X41861Y-37290D01*
X41952Y-37267D01*
X42019Y-37074D01*
X42019Y-41170D01*
X41790Y-41170D01*
X41790Y-37361D01*
X41500Y-37071D01*
X41210Y-37361D01*
X41233Y-37452D01*
X41426Y-37519D01*
X41630Y-37508D01*
X41767Y-37452D01*
X41790Y-37361D01*
X41790Y-41170D01*
X41196Y-41170D01*
X41061Y-41035D01*
X41025Y-41020D01*
X41025Y-39855D01*
X41025Y-39646D01*
X40945Y-39453D01*
X40798Y-39305D01*
X40605Y-39225D01*
X40396Y-39225D01*
X40203Y-39305D01*
X40055Y-39452D01*
X39975Y-39645D01*
X39975Y-39854D01*
X40055Y-40047D01*
X40202Y-40195D01*
X40395Y-40275D01*
X40604Y-40275D01*
X40797Y-40195D01*
X40945Y-40048D01*
X41025Y-39855D01*
X41025Y-41020D01*
X40859Y-40951D01*
X40641Y-40951D01*
X40439Y-41035D01*
X40285Y-41189D01*
X40201Y-41391D01*
X40201Y-41484D01*
X39330Y-40613D01*
X39330Y-33654D01*
X39355Y-33680D01*
X39390Y-33694D01*
X39390Y-36220D01*
X39415Y-36347D01*
X39487Y-36453D01*
X39975Y-36941D01*
X39975Y-37104D01*
X40055Y-37297D01*
X40202Y-37445D01*
X40395Y-37525D01*
X40604Y-37525D01*
X40797Y-37445D01*
X40945Y-37298D01*
X41003Y-37157D01*
X41048Y-37267D01*
X41139Y-37290D01*
X41429Y-37000D01*
X41139Y-36710D01*
X41048Y-36733D01*
X41006Y-36851D01*
X40945Y-36703D01*
X40798Y-36555D01*
X40605Y-36475D01*
X40441Y-36475D01*
X40050Y-36084D01*
X40050Y-33694D01*
X40083Y-33681D01*
X40264Y-33501D01*
X40363Y-33265D01*
X40363Y-33009D01*
X40265Y-32773D01*
X40085Y-32592D01*
X39849Y-32493D01*
X39593Y-32493D01*
X39357Y-32591D01*
X39330Y-32617D01*
X39330Y-31882D01*
X39355Y-31908D01*
X39591Y-32007D01*
X39847Y-32007D01*
X40083Y-31909D01*
X40264Y-31729D01*
X40363Y-31493D01*
X40363Y-31237D01*
X40265Y-31001D01*
X40085Y-30820D01*
X39849Y-30721D01*
X39593Y-30721D01*
X39357Y-30819D01*
X39330Y-30845D01*
X39330Y-29636D01*
X40233Y-28733D01*
X40305Y-28627D01*
X40305Y-28626D01*
X40308Y-28605D01*
X40329Y-28500D01*
X40330Y-28500D01*
X40330Y-28324D01*
X40374Y-28324D01*
X40466Y-28286D01*
X40536Y-28216D01*
X40574Y-28125D01*
X40574Y-28026D01*
X40574Y-27376D01*
X40568Y-27361D01*
X40568Y-26834D01*
X40556Y-26611D01*
X40492Y-26454D01*
X40396Y-26425D01*
X40325Y-26496D01*
X40325Y-26354D01*
X40296Y-26258D01*
X40084Y-26182D01*
X39861Y-26194D01*
X39704Y-26258D01*
X39675Y-26354D01*
X40000Y-26679D01*
X40325Y-26354D01*
X40325Y-26496D01*
X40071Y-26750D01*
X40396Y-27075D01*
X40492Y-27046D01*
X40568Y-26834D01*
X40568Y-27361D01*
X40536Y-27284D01*
X40466Y-27214D01*
X40375Y-27176D01*
X40315Y-27176D01*
X40325Y-27146D01*
X40000Y-26821D01*
X39929Y-26892D01*
X39929Y-26750D01*
X39604Y-26425D01*
X39508Y-26454D01*
X39432Y-26666D01*
X39444Y-26889D01*
X39508Y-27046D01*
X39604Y-27075D01*
X39929Y-26750D01*
X39929Y-26892D01*
X39675Y-27146D01*
X39684Y-27176D01*
X39626Y-27176D01*
X39534Y-27214D01*
X39464Y-27284D01*
X39426Y-27375D01*
X39426Y-27420D01*
X39330Y-27420D01*
X39330Y-25650D01*
X41934Y-25650D01*
X41975Y-25691D01*
X41975Y-25854D01*
X42055Y-26047D01*
X42202Y-26195D01*
X42395Y-26275D01*
X42604Y-26275D01*
X42797Y-26195D01*
X42945Y-26048D01*
X43025Y-25855D01*
X43025Y-25650D01*
X43750Y-25650D01*
X43750Y-26850D01*
X49200Y-26850D01*
X49200Y-27246D01*
X49172Y-27258D01*
X49009Y-27421D01*
X48920Y-27634D01*
X48920Y-27865D01*
X49008Y-28078D01*
X49171Y-28241D01*
X49200Y-28253D01*
X49200Y-28975D01*
X49161Y-28992D01*
X48992Y-29161D01*
X48975Y-29200D01*
X47500Y-29200D01*
X47385Y-29223D01*
X47287Y-29288D01*
X46850Y-29725D01*
X46646Y-29725D01*
X46453Y-29805D01*
X46305Y-29952D01*
X46225Y-30145D01*
X46225Y-30354D01*
X46305Y-30547D01*
X46452Y-30695D01*
X46585Y-30750D01*
X46453Y-30805D01*
X46305Y-30952D01*
X46274Y-31024D01*
X46274Y-30925D01*
X46236Y-30834D01*
X46166Y-30764D01*
X46074Y-30726D01*
X45862Y-30725D01*
X45800Y-30787D01*
X45800Y-31150D01*
X45800Y-31200D01*
X45800Y-31300D01*
X45800Y-31350D01*
X45800Y-31713D01*
X45862Y-31775D01*
X46074Y-31774D01*
X46166Y-31736D01*
X46236Y-31666D01*
X46274Y-31575D01*
X46274Y-31476D01*
X46274Y-31472D01*
X46305Y-31547D01*
X46452Y-31695D01*
X46645Y-31775D01*
X46854Y-31775D01*
X47047Y-31695D01*
X47195Y-31548D01*
X47275Y-31355D01*
X47275Y-31146D01*
X47195Y-30953D01*
X47048Y-30805D01*
X46914Y-30749D01*
X47047Y-30695D01*
X47195Y-30548D01*
X47275Y-30355D01*
X47275Y-30149D01*
X47624Y-29800D01*
X48975Y-29800D01*
X48992Y-29839D01*
X49161Y-30008D01*
X49381Y-30099D01*
X49619Y-30099D01*
X49839Y-30008D01*
X50008Y-29839D01*
X50099Y-29619D01*
X50099Y-29381D01*
X50008Y-29161D01*
X49839Y-28992D01*
X49800Y-28975D01*
X49800Y-28253D01*
X49828Y-28242D01*
X49991Y-28079D01*
X49999Y-28058D01*
X50008Y-28078D01*
X50171Y-28241D01*
X50384Y-28330D01*
X50615Y-28330D01*
X50828Y-28242D01*
X50991Y-28079D01*
X51080Y-27866D01*
X51080Y-27635D01*
X50992Y-27422D01*
X50829Y-27259D01*
X50800Y-27246D01*
X50800Y-26850D01*
X53280Y-26850D01*
X53421Y-26991D01*
X53441Y-26999D01*
X53422Y-27008D01*
X53259Y-27171D01*
X53170Y-27384D01*
X53170Y-27615D01*
X53258Y-27828D01*
X53421Y-27991D01*
X53634Y-28080D01*
X53865Y-28080D01*
X54078Y-27992D01*
X54241Y-27829D01*
X54330Y-27616D01*
X54330Y-27385D01*
X54242Y-27172D01*
X54079Y-27009D01*
X54058Y-27000D01*
X54078Y-26992D01*
X54220Y-26850D01*
X55719Y-26850D01*
X55710Y-26889D01*
X56000Y-27179D01*
X56290Y-26889D01*
X56280Y-26850D01*
X58657Y-26850D01*
X58555Y-26952D01*
X58475Y-27145D01*
X58475Y-27354D01*
X58555Y-27547D01*
X58702Y-27695D01*
X58895Y-27775D01*
X59104Y-27775D01*
X59297Y-27695D01*
X59445Y-27548D01*
X59525Y-27355D01*
X59525Y-27146D01*
X59445Y-26953D01*
X59342Y-26850D01*
X62750Y-26850D01*
X62750Y-25450D01*
X66680Y-25450D01*
X66680Y-26577D01*
X66555Y-26702D01*
X66475Y-26895D01*
X66475Y-27104D01*
X66555Y-27297D01*
X66702Y-27445D01*
X66895Y-27525D01*
X67104Y-27525D01*
X67297Y-27445D01*
X67445Y-27298D01*
X67525Y-27105D01*
X67525Y-26896D01*
X67445Y-26703D01*
X67320Y-26577D01*
X67320Y-25450D01*
X67850Y-25450D01*
X67850Y-23070D01*
X69077Y-23070D01*
X69202Y-23195D01*
X69395Y-23275D01*
X69604Y-23275D01*
X69797Y-23195D01*
X69945Y-23048D01*
X70025Y-22855D01*
X70025Y-22646D01*
X69945Y-22453D01*
X69798Y-22305D01*
X69605Y-22225D01*
X69396Y-22225D01*
X69203Y-22305D01*
X69077Y-22430D01*
X67850Y-22430D01*
X67850Y-18807D01*
X69030Y-19987D01*
X69055Y-20047D01*
X69202Y-20195D01*
X69395Y-20275D01*
X69604Y-20275D01*
X69797Y-20195D01*
X69945Y-20048D01*
X70025Y-19855D01*
X70025Y-19646D01*
X69945Y-19453D01*
X69798Y-19305D01*
X69736Y-19279D01*
X68354Y-17896D01*
X68192Y-17788D01*
X68000Y-17749D01*
X67995Y-17750D01*
X67850Y-17750D01*
X67850Y-14190D01*
X67902Y-14316D01*
X68183Y-14597D01*
X68550Y-14750D01*
X68948Y-14750D01*
X69316Y-14598D01*
X69597Y-14317D01*
X69750Y-13950D01*
X69902Y-14316D01*
X70183Y-14597D01*
X70550Y-14750D01*
X70948Y-14750D01*
X71316Y-14598D01*
X71597Y-14317D01*
X71750Y-13950D01*
X71902Y-14316D01*
X72183Y-14597D01*
X72390Y-14683D01*
X72390Y-17300D01*
X72371Y-17319D01*
X72137Y-17319D01*
X72113Y-17319D01*
X71941Y-17390D01*
X71509Y-17390D01*
X71486Y-17334D01*
X71416Y-17264D01*
X71325Y-17226D01*
X71226Y-17226D01*
X70676Y-17226D01*
X70584Y-17264D01*
X70514Y-17334D01*
X70476Y-17425D01*
X70476Y-17524D01*
X70476Y-17541D01*
X70452Y-17483D01*
X70361Y-17460D01*
X70290Y-17531D01*
X70290Y-17389D01*
X70267Y-17298D01*
X70074Y-17231D01*
X69870Y-17242D01*
X69733Y-17298D01*
X69710Y-17389D01*
X70000Y-17679D01*
X70290Y-17389D01*
X70290Y-17531D01*
X70071Y-17750D01*
X70361Y-18040D01*
X70452Y-18017D01*
X70476Y-17947D01*
X70476Y-18074D01*
X70514Y-18166D01*
X70584Y-18236D01*
X70675Y-18274D01*
X70774Y-18274D01*
X71324Y-18274D01*
X71416Y-18236D01*
X71486Y-18166D01*
X71509Y-18110D01*
X71621Y-18110D01*
X71703Y-18307D01*
X71880Y-18485D01*
X72112Y-18581D01*
X72363Y-18581D01*
X72371Y-18581D01*
X74857Y-21066D01*
X74857Y-21075D01*
X74859Y-21081D01*
X74245Y-21695D01*
X74167Y-21812D01*
X74139Y-21950D01*
X74140Y-21954D01*
X74140Y-22411D01*
X74131Y-22415D01*
X73953Y-22592D01*
X73875Y-22780D01*
X73875Y-21100D01*
X73875Y-20800D01*
X73805Y-20609D01*
X73632Y-20423D01*
X73401Y-20317D01*
X73300Y-20363D01*
X73300Y-20900D01*
X73828Y-20900D01*
X73875Y-20800D01*
X73875Y-21100D01*
X73828Y-21000D01*
X73300Y-21000D01*
X73300Y-21537D01*
X73401Y-21583D01*
X73632Y-21477D01*
X73805Y-21291D01*
X73875Y-21100D01*
X73875Y-22780D01*
X73857Y-22824D01*
X73857Y-23075D01*
X73953Y-23307D01*
X74130Y-23485D01*
X74140Y-23489D01*
X74140Y-26745D01*
X74139Y-26750D01*
X74167Y-26888D01*
X74245Y-27005D01*
X74890Y-27649D01*
X74890Y-27850D01*
X74890Y-27850D01*
G37*
G54D31*
X74890Y-27850D02*
X74519Y-28220D01*
X74519Y-27824D01*
X74508Y-27620D01*
X74452Y-27483D01*
X74361Y-27460D01*
X74290Y-27531D01*
X74290Y-27389D01*
X74267Y-27298D01*
X74074Y-27231D01*
X73870Y-27242D01*
X73733Y-27298D01*
X73710Y-27389D01*
X74000Y-27679D01*
X74290Y-27389D01*
X74290Y-27531D01*
X74071Y-27750D01*
X74361Y-28040D01*
X74452Y-28017D01*
X74519Y-27824D01*
X74519Y-28220D01*
X74366Y-28373D01*
X74298Y-28305D01*
X74157Y-28246D01*
X74267Y-28202D01*
X74290Y-28111D01*
X74000Y-27821D01*
X73929Y-27892D01*
X73929Y-27750D01*
X73639Y-27460D01*
X73548Y-27483D01*
X73481Y-27676D01*
X73492Y-27880D01*
X73548Y-28017D01*
X73639Y-28040D01*
X73929Y-27750D01*
X73929Y-27892D01*
X73710Y-28111D01*
X73717Y-28140D01*
X73275Y-28140D01*
X73275Y-27605D01*
X73275Y-27396D01*
X73200Y-27215D01*
X73200Y-21537D01*
X73200Y-21000D01*
X73200Y-20900D01*
X73200Y-20363D01*
X73099Y-20317D01*
X72868Y-20423D01*
X72695Y-20609D01*
X72625Y-20800D01*
X72672Y-20900D01*
X73200Y-20900D01*
X73200Y-21000D01*
X72672Y-21000D01*
X72625Y-21100D01*
X72695Y-21291D01*
X72868Y-21477D01*
X73099Y-21583D01*
X73200Y-21537D01*
X73200Y-27215D01*
X73195Y-27203D01*
X73048Y-27055D01*
X72875Y-26983D01*
X72875Y-23100D01*
X72875Y-22800D01*
X72805Y-22609D01*
X72632Y-22423D01*
X72401Y-22317D01*
X72300Y-22363D01*
X72300Y-22900D01*
X72828Y-22900D01*
X72875Y-22800D01*
X72875Y-23100D01*
X72828Y-23000D01*
X72300Y-23000D01*
X72300Y-23537D01*
X72401Y-23583D01*
X72632Y-23477D01*
X72805Y-23291D01*
X72875Y-23100D01*
X72875Y-26983D01*
X72855Y-26975D01*
X72677Y-26975D01*
X72200Y-26498D01*
X72200Y-23537D01*
X72200Y-23000D01*
X72200Y-22900D01*
X72200Y-22363D01*
X72099Y-22317D01*
X71868Y-22423D01*
X71695Y-22609D01*
X71625Y-22800D01*
X71672Y-22900D01*
X72200Y-22900D01*
X72200Y-23000D01*
X71672Y-23000D01*
X71625Y-23100D01*
X71695Y-23291D01*
X71868Y-23477D01*
X72099Y-23583D01*
X72200Y-23537D01*
X72200Y-26498D01*
X71726Y-26024D01*
X71623Y-25954D01*
X71599Y-25949D01*
X71599Y-25851D01*
X71599Y-22369D01*
X71599Y-22131D01*
X71508Y-21911D01*
X71339Y-21742D01*
X71119Y-21651D01*
X70881Y-21651D01*
X70661Y-21742D01*
X70492Y-21911D01*
X70401Y-22131D01*
X70401Y-22369D01*
X70492Y-22589D01*
X70661Y-22758D01*
X70881Y-22849D01*
X71119Y-22849D01*
X71339Y-22758D01*
X71508Y-22589D01*
X71599Y-22369D01*
X71599Y-25851D01*
X71561Y-25759D01*
X71491Y-25689D01*
X71400Y-25651D01*
X71301Y-25651D01*
X70601Y-25651D01*
X70509Y-25689D01*
X70439Y-25759D01*
X70401Y-25850D01*
X70401Y-25949D01*
X70401Y-26649D01*
X70439Y-26741D01*
X70509Y-26811D01*
X70600Y-26849D01*
X70699Y-26849D01*
X71399Y-26849D01*
X71491Y-26811D01*
X71549Y-26752D01*
X72225Y-27427D01*
X72225Y-27604D01*
X72305Y-27797D01*
X72452Y-27945D01*
X72645Y-28025D01*
X72854Y-28025D01*
X73047Y-27945D01*
X73195Y-27798D01*
X73275Y-27605D01*
X73275Y-28140D01*
X70290Y-28140D01*
X70290Y-18111D01*
X70000Y-17821D01*
X69929Y-17892D01*
X69929Y-17750D01*
X69639Y-17460D01*
X69548Y-17483D01*
X69481Y-17676D01*
X69492Y-17880D01*
X69548Y-18017D01*
X69639Y-18040D01*
X69929Y-17750D01*
X69929Y-17892D01*
X69710Y-18111D01*
X69733Y-18202D01*
X69926Y-18269D01*
X70130Y-18258D01*
X70267Y-18202D01*
X70290Y-18111D01*
X70290Y-28140D01*
X70275Y-28140D01*
X70275Y-27605D01*
X70275Y-27396D01*
X70195Y-27203D01*
X70048Y-27055D01*
X69855Y-26975D01*
X69646Y-26975D01*
X69453Y-27055D01*
X69305Y-27202D01*
X69225Y-27395D01*
X69225Y-27604D01*
X69305Y-27797D01*
X69452Y-27945D01*
X69645Y-28025D01*
X69854Y-28025D01*
X70047Y-27945D01*
X70195Y-27798D01*
X70275Y-27605D01*
X70275Y-28140D01*
X68849Y-28140D01*
X68849Y-26119D01*
X68849Y-25881D01*
X68758Y-25661D01*
X68589Y-25492D01*
X68369Y-25401D01*
X68131Y-25401D01*
X67911Y-25492D01*
X67742Y-25661D01*
X67651Y-25881D01*
X67651Y-26119D01*
X67742Y-26339D01*
X67911Y-26508D01*
X68131Y-26599D01*
X68369Y-26599D01*
X68589Y-26508D01*
X68758Y-26339D01*
X68849Y-26119D01*
X68849Y-28140D01*
X65166Y-28140D01*
X65061Y-28035D01*
X64859Y-27951D01*
X64641Y-27951D01*
X64519Y-28001D01*
X64519Y-27074D01*
X64508Y-26870D01*
X64452Y-26733D01*
X64361Y-26710D01*
X64290Y-26781D01*
X64290Y-26639D01*
X64267Y-26548D01*
X64074Y-26481D01*
X63870Y-26492D01*
X63733Y-26548D01*
X63710Y-26639D01*
X64000Y-26929D01*
X64290Y-26639D01*
X64290Y-26781D01*
X64071Y-27000D01*
X64361Y-27290D01*
X64452Y-27267D01*
X64519Y-27074D01*
X64519Y-28001D01*
X64439Y-28035D01*
X64290Y-28184D01*
X64290Y-27361D01*
X64000Y-27071D01*
X63929Y-27142D01*
X63929Y-27000D01*
X63639Y-26710D01*
X63548Y-26733D01*
X63481Y-26926D01*
X63492Y-27130D01*
X63548Y-27267D01*
X63639Y-27290D01*
X63929Y-27000D01*
X63929Y-27142D01*
X63710Y-27361D01*
X63733Y-27452D01*
X63926Y-27519D01*
X64130Y-27508D01*
X64267Y-27452D01*
X64290Y-27361D01*
X64290Y-28184D01*
X64285Y-28189D01*
X64250Y-28273D01*
X64215Y-28189D01*
X64061Y-28035D01*
X63859Y-27951D01*
X63641Y-27951D01*
X63630Y-27955D01*
X63212Y-27538D01*
X63115Y-27473D01*
X63000Y-27450D01*
X60000Y-27450D01*
X59885Y-27473D01*
X59788Y-27538D01*
X59376Y-27950D01*
X59000Y-27950D01*
X58885Y-27973D01*
X58788Y-28038D01*
X58501Y-28325D01*
X58416Y-28325D01*
X58260Y-28389D01*
X58140Y-28509D01*
X58075Y-28665D01*
X58075Y-28834D01*
X58139Y-28990D01*
X58259Y-29110D01*
X58415Y-29175D01*
X58584Y-29175D01*
X58740Y-29111D01*
X58860Y-28991D01*
X58925Y-28835D01*
X58925Y-28749D01*
X59124Y-28550D01*
X59500Y-28550D01*
X59615Y-28527D01*
X59712Y-28462D01*
X60124Y-28050D01*
X60424Y-28050D01*
X60285Y-28189D01*
X60201Y-28391D01*
X60201Y-28609D01*
X60285Y-28811D01*
X60425Y-28951D01*
X60401Y-28951D01*
X60309Y-28989D01*
X60239Y-29059D01*
X60201Y-29150D01*
X60201Y-29249D01*
X60201Y-29582D01*
X59767Y-30017D01*
X59695Y-30123D01*
X59670Y-30250D01*
X59670Y-32250D01*
X59695Y-32377D01*
X59767Y-32483D01*
X60798Y-33514D01*
X60798Y-33609D01*
X60882Y-33811D01*
X61036Y-33965D01*
X61120Y-34000D01*
X61036Y-34035D01*
X60931Y-34140D01*
X60882Y-34140D01*
X60798Y-34055D01*
X60605Y-33975D01*
X60396Y-33975D01*
X60203Y-34055D01*
X60055Y-34202D01*
X59975Y-34395D01*
X59975Y-34604D01*
X60055Y-34797D01*
X60202Y-34945D01*
X60395Y-35025D01*
X60604Y-35025D01*
X60797Y-34945D01*
X60882Y-34860D01*
X60931Y-34860D01*
X61036Y-34965D01*
X61115Y-34998D01*
X60950Y-35118D01*
X60835Y-35304D01*
X60818Y-35363D01*
X60865Y-35450D01*
X61400Y-35450D01*
X61450Y-35450D01*
X61550Y-35450D01*
X61600Y-35450D01*
X62135Y-35450D01*
X62182Y-35363D01*
X62165Y-35304D01*
X62050Y-35118D01*
X61884Y-34998D01*
X61964Y-34965D01*
X62118Y-34811D01*
X62202Y-34609D01*
X62202Y-34391D01*
X62118Y-34189D01*
X61964Y-34035D01*
X61879Y-34000D01*
X61964Y-33965D01*
X62118Y-33811D01*
X62202Y-33609D01*
X62202Y-33391D01*
X62118Y-33189D01*
X61964Y-33035D01*
X61879Y-33000D01*
X61964Y-32965D01*
X62118Y-32811D01*
X62202Y-32609D01*
X62202Y-32391D01*
X62118Y-32189D01*
X61988Y-32059D01*
X61999Y-32059D01*
X62091Y-32021D01*
X62161Y-31951D01*
X62199Y-31860D01*
X62199Y-31761D01*
X62199Y-31756D01*
X62199Y-31755D01*
X62233Y-31733D01*
X62983Y-30984D01*
X62983Y-30983D01*
X63030Y-30912D01*
X63054Y-30877D01*
X63055Y-30876D01*
X63079Y-30750D01*
X63080Y-30750D01*
X63080Y-30049D01*
X63099Y-30049D01*
X63191Y-30011D01*
X63250Y-29952D01*
X63309Y-30011D01*
X63400Y-30049D01*
X63420Y-30049D01*
X63420Y-30500D01*
X63445Y-30627D01*
X63517Y-30733D01*
X63927Y-31143D01*
X63882Y-31189D01*
X63798Y-31391D01*
X63798Y-31609D01*
X63882Y-31811D01*
X64036Y-31965D01*
X64120Y-32000D01*
X64036Y-32035D01*
X63882Y-32189D01*
X63798Y-32391D01*
X63798Y-32609D01*
X63882Y-32811D01*
X64036Y-32965D01*
X64120Y-33000D01*
X64036Y-33035D01*
X63882Y-33189D01*
X63798Y-33391D01*
X63798Y-33609D01*
X63882Y-33811D01*
X64036Y-33965D01*
X64120Y-34000D01*
X64036Y-34035D01*
X63882Y-34189D01*
X63798Y-34391D01*
X63798Y-34609D01*
X63882Y-34811D01*
X64036Y-34965D01*
X64120Y-35000D01*
X64036Y-35035D01*
X63882Y-35189D01*
X63798Y-35391D01*
X63798Y-35609D01*
X63882Y-35811D01*
X64036Y-35965D01*
X64120Y-36000D01*
X64036Y-36035D01*
X63882Y-36189D01*
X63798Y-36391D01*
X63798Y-36609D01*
X63882Y-36811D01*
X64036Y-36965D01*
X64120Y-37000D01*
X64036Y-37035D01*
X63882Y-37189D01*
X63798Y-37391D01*
X63798Y-37609D01*
X63882Y-37811D01*
X64036Y-37965D01*
X64120Y-38000D01*
X64036Y-38035D01*
X63882Y-38189D01*
X63798Y-38391D01*
X63798Y-38609D01*
X63882Y-38811D01*
X64036Y-38965D01*
X64120Y-39000D01*
X64036Y-39035D01*
X63882Y-39189D01*
X63798Y-39391D01*
X63798Y-39609D01*
X63882Y-39811D01*
X64036Y-39965D01*
X64150Y-40012D01*
X64150Y-40605D01*
X63804Y-40951D01*
X63401Y-40951D01*
X63309Y-40989D01*
X63250Y-41048D01*
X63191Y-40989D01*
X63100Y-40951D01*
X63001Y-40951D01*
X62695Y-40951D01*
X61850Y-40105D01*
X61850Y-40012D01*
X61964Y-39965D01*
X62118Y-39811D01*
X62202Y-39609D01*
X62202Y-39391D01*
X62118Y-39189D01*
X61964Y-39035D01*
X61879Y-39000D01*
X61964Y-38965D01*
X62118Y-38811D01*
X62202Y-38609D01*
X62202Y-38391D01*
X62118Y-38189D01*
X61964Y-38035D01*
X61879Y-38000D01*
X61964Y-37965D01*
X62118Y-37811D01*
X62202Y-37609D01*
X62202Y-37391D01*
X62118Y-37189D01*
X61964Y-37035D01*
X61879Y-37000D01*
X61964Y-36965D01*
X62118Y-36811D01*
X62202Y-36609D01*
X62202Y-36391D01*
X62118Y-36189D01*
X61964Y-36035D01*
X61884Y-36001D01*
X62050Y-35882D01*
X62165Y-35696D01*
X62182Y-35637D01*
X62135Y-35550D01*
X61600Y-35550D01*
X61550Y-35550D01*
X61450Y-35550D01*
X61400Y-35550D01*
X60865Y-35550D01*
X60818Y-35637D01*
X60835Y-35696D01*
X60950Y-35882D01*
X61115Y-36001D01*
X61036Y-36035D01*
X60921Y-36150D01*
X59500Y-36150D01*
X59366Y-36177D01*
X59252Y-36253D01*
X58753Y-36753D01*
X58677Y-36866D01*
X58650Y-37000D01*
X58650Y-40750D01*
X58677Y-40884D01*
X58753Y-40997D01*
X59201Y-41445D01*
X59201Y-41849D01*
X59239Y-41941D01*
X59309Y-42011D01*
X59400Y-42049D01*
X59425Y-42049D01*
X59285Y-42189D01*
X59201Y-42391D01*
X59201Y-42609D01*
X59285Y-42811D01*
X59439Y-42965D01*
X59641Y-43049D01*
X59748Y-43049D01*
X59367Y-43430D01*
X58525Y-43430D01*
X58525Y-36605D01*
X58525Y-36396D01*
X58519Y-36381D01*
X58519Y-35574D01*
X58508Y-35370D01*
X58452Y-35233D01*
X58361Y-35210D01*
X58290Y-35281D01*
X58290Y-35139D01*
X58267Y-35048D01*
X58173Y-35015D01*
X58173Y-33265D01*
X58173Y-33009D01*
X58165Y-32989D01*
X58165Y-31464D01*
X58155Y-31214D01*
X58078Y-31028D01*
X57974Y-30991D01*
X57903Y-31062D01*
X57903Y-30920D01*
X57866Y-30816D01*
X57630Y-30729D01*
X57380Y-30739D01*
X57194Y-30816D01*
X57157Y-30920D01*
X57530Y-31293D01*
X57903Y-30920D01*
X57903Y-31062D01*
X57601Y-31364D01*
X57974Y-31737D01*
X58078Y-31700D01*
X58165Y-31464D01*
X58165Y-32989D01*
X58075Y-32773D01*
X57903Y-32600D01*
X57903Y-31808D01*
X57530Y-31435D01*
X57459Y-31506D01*
X57459Y-31364D01*
X57086Y-30991D01*
X56982Y-31028D01*
X56895Y-31264D01*
X56905Y-31514D01*
X56982Y-31700D01*
X57086Y-31737D01*
X57459Y-31364D01*
X57459Y-31506D01*
X57157Y-31808D01*
X57194Y-31912D01*
X57430Y-31999D01*
X57680Y-31989D01*
X57866Y-31912D01*
X57903Y-31808D01*
X57903Y-32600D01*
X57895Y-32592D01*
X57659Y-32493D01*
X57403Y-32493D01*
X57167Y-32591D01*
X56986Y-32771D01*
X56887Y-33007D01*
X56887Y-33263D01*
X56985Y-33499D01*
X57165Y-33680D01*
X57401Y-33779D01*
X57657Y-33779D01*
X57893Y-33681D01*
X58074Y-33501D01*
X58173Y-33265D01*
X58173Y-35015D01*
X58074Y-34981D01*
X57870Y-34992D01*
X57733Y-35048D01*
X57710Y-35139D01*
X58000Y-35429D01*
X58290Y-35139D01*
X58290Y-35281D01*
X58071Y-35500D01*
X58361Y-35790D01*
X58452Y-35767D01*
X58519Y-35574D01*
X58519Y-36381D01*
X58445Y-36203D01*
X58298Y-36055D01*
X58157Y-35996D01*
X58267Y-35952D01*
X58290Y-35861D01*
X58000Y-35571D01*
X57929Y-35642D01*
X57929Y-35500D01*
X57639Y-35210D01*
X57548Y-35233D01*
X57481Y-35426D01*
X57492Y-35630D01*
X57548Y-35767D01*
X57639Y-35790D01*
X57929Y-35500D01*
X57929Y-35642D01*
X57710Y-35861D01*
X57733Y-35952D01*
X57851Y-35993D01*
X57703Y-36055D01*
X57617Y-36140D01*
X57149Y-36140D01*
X56860Y-35850D01*
X56860Y-34882D01*
X56882Y-34860D01*
X57117Y-34860D01*
X57202Y-34945D01*
X57395Y-35025D01*
X57604Y-35025D01*
X57797Y-34945D01*
X57945Y-34798D01*
X58025Y-34605D01*
X58025Y-34396D01*
X57945Y-34203D01*
X57798Y-34055D01*
X57605Y-33975D01*
X57396Y-33975D01*
X57203Y-34055D01*
X57117Y-34140D01*
X56882Y-34140D01*
X56798Y-34055D01*
X56605Y-33975D01*
X56396Y-33975D01*
X56203Y-34055D01*
X56117Y-34140D01*
X55882Y-34140D01*
X55860Y-34117D01*
X55860Y-33666D01*
X55833Y-33528D01*
X55755Y-33411D01*
X55752Y-33409D01*
X55611Y-33268D01*
X55613Y-33265D01*
X55613Y-33009D01*
X55515Y-32773D01*
X55335Y-32592D01*
X55234Y-32550D01*
X55949Y-32550D01*
X56009Y-32610D01*
X56165Y-32675D01*
X56334Y-32675D01*
X56490Y-32611D01*
X56610Y-32491D01*
X56675Y-32335D01*
X56675Y-32166D01*
X56611Y-32010D01*
X56519Y-31918D01*
X56519Y-27324D01*
X56508Y-27120D01*
X56452Y-26983D01*
X56361Y-26960D01*
X56071Y-27250D01*
X56361Y-27540D01*
X56452Y-27517D01*
X56519Y-27324D01*
X56519Y-31918D01*
X56491Y-31890D01*
X56335Y-31825D01*
X56290Y-31825D01*
X56290Y-27611D01*
X56000Y-27321D01*
X55929Y-27392D01*
X55929Y-27250D01*
X55639Y-26960D01*
X55548Y-26983D01*
X55481Y-27176D01*
X55492Y-27380D01*
X55548Y-27517D01*
X55639Y-27540D01*
X55929Y-27250D01*
X55929Y-27392D01*
X55710Y-27611D01*
X55733Y-27702D01*
X55926Y-27769D01*
X56130Y-27758D01*
X56267Y-27702D01*
X56290Y-27611D01*
X56290Y-31825D01*
X56166Y-31825D01*
X56010Y-31889D01*
X55949Y-31950D01*
X55234Y-31950D01*
X55333Y-31909D01*
X55514Y-31729D01*
X55613Y-31493D01*
X55613Y-31237D01*
X55515Y-31001D01*
X55335Y-30820D01*
X55099Y-30721D01*
X54843Y-30721D01*
X54607Y-30819D01*
X54426Y-30999D01*
X54327Y-31235D01*
X54327Y-31491D01*
X54425Y-31727D01*
X54605Y-31908D01*
X54705Y-31950D01*
X53750Y-31950D01*
X53635Y-31973D01*
X53538Y-32038D01*
X53080Y-32496D01*
X53080Y-31700D01*
X53058Y-31594D01*
X53055Y-31574D01*
X53055Y-31573D01*
X52983Y-31467D01*
X52378Y-30862D01*
X52393Y-30826D01*
X52393Y-30575D01*
X52297Y-30343D01*
X52120Y-30165D01*
X51888Y-30069D01*
X51637Y-30069D01*
X51613Y-30069D01*
X51381Y-30165D01*
X51203Y-30342D01*
X51107Y-30574D01*
X51107Y-30825D01*
X51203Y-31057D01*
X51380Y-31235D01*
X51612Y-31331D01*
X51863Y-31331D01*
X51887Y-31331D01*
X51906Y-31322D01*
X52420Y-31836D01*
X52420Y-33148D01*
X52381Y-33165D01*
X52203Y-33342D01*
X52107Y-33574D01*
X52107Y-33825D01*
X52203Y-34057D01*
X52380Y-34235D01*
X52612Y-34331D01*
X52863Y-34331D01*
X52887Y-34331D01*
X53119Y-34235D01*
X53297Y-34058D01*
X53393Y-33826D01*
X53393Y-33575D01*
X53297Y-33343D01*
X53189Y-33234D01*
X53874Y-32550D01*
X54705Y-32550D01*
X54607Y-32591D01*
X54426Y-32771D01*
X54327Y-33007D01*
X54327Y-33263D01*
X54425Y-33499D01*
X54605Y-33680D01*
X54841Y-33779D01*
X55097Y-33779D01*
X55101Y-33777D01*
X55140Y-33815D01*
X55140Y-34117D01*
X55055Y-34202D01*
X54975Y-34395D01*
X54975Y-34604D01*
X55055Y-34797D01*
X55202Y-34945D01*
X55395Y-35025D01*
X55604Y-35025D01*
X55797Y-34945D01*
X55882Y-34860D01*
X56117Y-34860D01*
X56140Y-34882D01*
X56140Y-35995D01*
X56139Y-36000D01*
X56167Y-36138D01*
X56245Y-36255D01*
X56743Y-36752D01*
X56745Y-36755D01*
X56862Y-36833D01*
X57000Y-36861D01*
X57000Y-36860D01*
X57004Y-36860D01*
X57617Y-36860D01*
X57702Y-36945D01*
X57895Y-37025D01*
X58104Y-37025D01*
X58297Y-36945D01*
X58445Y-36798D01*
X58525Y-36605D01*
X58525Y-43430D01*
X57275Y-43430D01*
X57275Y-42605D01*
X57275Y-42396D01*
X57195Y-42203D01*
X57175Y-42182D01*
X57175Y-41335D01*
X57175Y-41166D01*
X57111Y-41010D01*
X56991Y-40890D01*
X56835Y-40825D01*
X56800Y-40825D01*
X56800Y-37942D01*
X56945Y-37798D01*
X57025Y-37605D01*
X57025Y-37396D01*
X56945Y-37203D01*
X56798Y-37055D01*
X56605Y-36975D01*
X56396Y-36975D01*
X56203Y-37055D01*
X56117Y-37140D01*
X56009Y-37140D01*
X55986Y-37084D01*
X55916Y-37014D01*
X55825Y-36976D01*
X55726Y-36976D01*
X55400Y-36976D01*
X53912Y-35488D01*
X53815Y-35423D01*
X53700Y-35400D01*
X52320Y-35400D01*
X52297Y-35343D01*
X52120Y-35165D01*
X51888Y-35069D01*
X51637Y-35069D01*
X51613Y-35069D01*
X51381Y-35165D01*
X51203Y-35342D01*
X51107Y-35574D01*
X51107Y-35825D01*
X51134Y-35890D01*
X48038Y-38988D01*
X47973Y-39085D01*
X47950Y-39200D01*
X47950Y-39557D01*
X47805Y-39702D01*
X47725Y-39895D01*
X47725Y-40072D01*
X46846Y-40951D01*
X46641Y-40951D01*
X46439Y-41035D01*
X46304Y-41170D01*
X45446Y-41170D01*
X45311Y-41035D01*
X45109Y-40951D01*
X44891Y-40951D01*
X44689Y-41035D01*
X44535Y-41189D01*
X44451Y-41391D01*
X44451Y-41609D01*
X44535Y-41811D01*
X44675Y-41951D01*
X44651Y-41951D01*
X44559Y-41989D01*
X44489Y-42059D01*
X44451Y-42150D01*
X44451Y-42249D01*
X44451Y-42614D01*
X44445Y-42623D01*
X44420Y-42750D01*
X44420Y-44451D01*
X44401Y-44451D01*
X44309Y-44489D01*
X44239Y-44559D01*
X44201Y-44650D01*
X44201Y-44712D01*
X44128Y-44692D01*
X44058Y-44762D01*
X44058Y-44622D01*
X44031Y-44528D01*
X43829Y-44457D01*
X43616Y-44468D01*
X43469Y-44528D01*
X43442Y-44622D01*
X43750Y-44929D01*
X44058Y-44622D01*
X44058Y-44762D01*
X43821Y-45000D01*
X44128Y-45308D01*
X44201Y-45287D01*
X44201Y-45349D01*
X44239Y-45441D01*
X44309Y-45511D01*
X44400Y-45549D01*
X44499Y-45549D01*
X45099Y-45549D01*
X45191Y-45511D01*
X45261Y-45441D01*
X45299Y-45350D01*
X45299Y-45251D01*
X45299Y-44651D01*
X45261Y-44559D01*
X45191Y-44489D01*
X45100Y-44451D01*
X45080Y-44451D01*
X45080Y-43049D01*
X45349Y-43049D01*
X45441Y-43011D01*
X45511Y-42941D01*
X45549Y-42850D01*
X45549Y-42751D01*
X45549Y-42151D01*
X45511Y-42059D01*
X45441Y-41989D01*
X45350Y-41951D01*
X45325Y-41951D01*
X45446Y-41830D01*
X46304Y-41830D01*
X46425Y-41951D01*
X46401Y-41951D01*
X46309Y-41989D01*
X46239Y-42059D01*
X46201Y-42150D01*
X46201Y-42249D01*
X46201Y-42849D01*
X46239Y-42941D01*
X46309Y-43011D01*
X46400Y-43049D01*
X46499Y-43049D01*
X47099Y-43049D01*
X47191Y-43011D01*
X47261Y-42941D01*
X47299Y-42850D01*
X47299Y-42751D01*
X47299Y-42151D01*
X47261Y-42059D01*
X47191Y-41989D01*
X47100Y-41951D01*
X47075Y-41951D01*
X47215Y-41811D01*
X47299Y-41609D01*
X47299Y-41403D01*
X48177Y-40525D01*
X48354Y-40525D01*
X48547Y-40445D01*
X48695Y-40298D01*
X48775Y-40105D01*
X48775Y-39896D01*
X48695Y-39703D01*
X48550Y-39557D01*
X48550Y-39324D01*
X51563Y-36311D01*
X51612Y-36331D01*
X51863Y-36331D01*
X51887Y-36331D01*
X52119Y-36235D01*
X52297Y-36058D01*
X52321Y-36000D01*
X53575Y-36000D01*
X54976Y-37400D01*
X54976Y-37824D01*
X55014Y-37916D01*
X55084Y-37986D01*
X55175Y-38024D01*
X55274Y-38024D01*
X55824Y-38024D01*
X55916Y-37986D01*
X55986Y-37916D01*
X56009Y-37860D01*
X56117Y-37860D01*
X56200Y-37942D01*
X56200Y-41000D01*
X56223Y-41115D01*
X56288Y-41212D01*
X56325Y-41249D01*
X56325Y-41334D01*
X56389Y-41490D01*
X56509Y-41610D01*
X56665Y-41675D01*
X56834Y-41675D01*
X56990Y-41611D01*
X57110Y-41491D01*
X57175Y-41335D01*
X57175Y-42182D01*
X57048Y-42055D01*
X56855Y-41975D01*
X56646Y-41975D01*
X56453Y-42055D01*
X56305Y-42202D01*
X56225Y-42395D01*
X56225Y-42604D01*
X56305Y-42797D01*
X56452Y-42945D01*
X56645Y-43025D01*
X56854Y-43025D01*
X57047Y-42945D01*
X57195Y-42798D01*
X57275Y-42605D01*
X57275Y-43430D01*
X56019Y-43430D01*
X56019Y-39574D01*
X56008Y-39370D01*
X55952Y-39233D01*
X55861Y-39210D01*
X55790Y-39281D01*
X55790Y-39139D01*
X55767Y-39048D01*
X55574Y-38981D01*
X55370Y-38992D01*
X55233Y-39048D01*
X55210Y-39139D01*
X55500Y-39429D01*
X55790Y-39139D01*
X55790Y-39281D01*
X55571Y-39500D01*
X55861Y-39790D01*
X55952Y-39767D01*
X56019Y-39574D01*
X56019Y-43430D01*
X55790Y-43430D01*
X55790Y-39861D01*
X55500Y-39571D01*
X55429Y-39642D01*
X55429Y-39500D01*
X55139Y-39210D01*
X55048Y-39233D01*
X54981Y-39426D01*
X54992Y-39630D01*
X55048Y-39767D01*
X55139Y-39790D01*
X55429Y-39500D01*
X55429Y-39642D01*
X55210Y-39861D01*
X55233Y-39952D01*
X55426Y-40019D01*
X55630Y-40008D01*
X55767Y-39952D01*
X55790Y-39861D01*
X55790Y-43430D01*
X55025Y-43430D01*
X55025Y-42605D01*
X55025Y-42396D01*
X54945Y-42203D01*
X54798Y-42055D01*
X54605Y-41975D01*
X54396Y-41975D01*
X54203Y-42055D01*
X54055Y-42202D01*
X53975Y-42395D01*
X53975Y-42604D01*
X54055Y-42797D01*
X54202Y-42945D01*
X54395Y-43025D01*
X54604Y-43025D01*
X54797Y-42945D01*
X54945Y-42798D01*
X55025Y-42605D01*
X55025Y-43430D01*
X53025Y-43430D01*
X53025Y-40855D01*
X53025Y-40646D01*
X52945Y-40453D01*
X52820Y-40327D01*
X52820Y-39922D01*
X52945Y-39798D01*
X53025Y-39605D01*
X53025Y-39396D01*
X52945Y-39203D01*
X52798Y-39055D01*
X52605Y-38975D01*
X52396Y-38975D01*
X52203Y-39055D01*
X52055Y-39202D01*
X51975Y-39395D01*
X51975Y-39604D01*
X52055Y-39797D01*
X52180Y-39922D01*
X52180Y-40327D01*
X52055Y-40452D01*
X51975Y-40645D01*
X51975Y-40854D01*
X52055Y-41047D01*
X52202Y-41195D01*
X52395Y-41275D01*
X52604Y-41275D01*
X52797Y-41195D01*
X52945Y-41048D01*
X53025Y-40855D01*
X53025Y-43430D01*
X52922Y-43430D01*
X52798Y-43305D01*
X52605Y-43225D01*
X52396Y-43225D01*
X52203Y-43305D01*
X52055Y-43452D01*
X51975Y-43645D01*
X51975Y-43854D01*
X52055Y-44047D01*
X52202Y-44195D01*
X52395Y-44275D01*
X52523Y-44275D01*
X52073Y-44725D01*
X51896Y-44725D01*
X51703Y-44805D01*
X51555Y-44952D01*
X51496Y-45092D01*
X51452Y-44983D01*
X51361Y-44960D01*
X51290Y-45031D01*
X51290Y-44889D01*
X51267Y-44798D01*
X51074Y-44731D01*
X50870Y-44742D01*
X50733Y-44798D01*
X50710Y-44889D01*
X51000Y-45179D01*
X51290Y-44889D01*
X51290Y-45031D01*
X51071Y-45250D01*
X51361Y-45540D01*
X51452Y-45517D01*
X51493Y-45398D01*
X51555Y-45547D01*
X51702Y-45695D01*
X51895Y-45775D01*
X52104Y-45775D01*
X52297Y-45695D01*
X52422Y-45570D01*
X52867Y-45570D01*
X53523Y-46226D01*
X53524Y-46226D01*
X53526Y-46228D01*
X53747Y-46450D01*
X51290Y-46450D01*
X51290Y-45611D01*
X51000Y-45321D01*
X50929Y-45392D01*
X50929Y-45250D01*
X50639Y-44960D01*
X50548Y-44983D01*
X50481Y-45176D01*
X50492Y-45380D01*
X50548Y-45517D01*
X50639Y-45540D01*
X50929Y-45250D01*
X50929Y-45392D01*
X50710Y-45611D01*
X50733Y-45702D01*
X50926Y-45769D01*
X51130Y-45758D01*
X51267Y-45702D01*
X51290Y-45611D01*
X51290Y-46450D01*
X49551Y-46450D01*
X49491Y-46390D01*
X49335Y-46325D01*
X49166Y-46325D01*
X49010Y-46389D01*
X48890Y-46509D01*
X48830Y-46653D01*
X48830Y-44366D01*
X48830Y-44135D01*
X48742Y-43922D01*
X48579Y-43759D01*
X48570Y-43755D01*
X48570Y-43422D01*
X48695Y-43298D01*
X48775Y-43105D01*
X48775Y-42896D01*
X48695Y-42703D01*
X48548Y-42555D01*
X48355Y-42475D01*
X48146Y-42475D01*
X47953Y-42555D01*
X47805Y-42702D01*
X47725Y-42895D01*
X47725Y-43104D01*
X47805Y-43297D01*
X47930Y-43422D01*
X47930Y-43754D01*
X47922Y-43758D01*
X47759Y-43921D01*
X47670Y-44134D01*
X47670Y-44365D01*
X47758Y-44578D01*
X47921Y-44741D01*
X47952Y-44753D01*
X47952Y-44754D01*
X47921Y-44850D01*
X48250Y-45179D01*
X48579Y-44850D01*
X48548Y-44754D01*
X48578Y-44742D01*
X48741Y-44579D01*
X48830Y-44366D01*
X48830Y-46653D01*
X48825Y-46665D01*
X48825Y-46834D01*
X48861Y-46922D01*
X48823Y-46922D01*
X48823Y-45336D01*
X48812Y-45111D01*
X48746Y-44952D01*
X48650Y-44921D01*
X48321Y-45250D01*
X48650Y-45579D01*
X48746Y-45548D01*
X48823Y-45336D01*
X48823Y-46922D01*
X48579Y-46922D01*
X48579Y-45650D01*
X48250Y-45321D01*
X48179Y-45392D01*
X48179Y-45250D01*
X47850Y-44921D01*
X47754Y-44952D01*
X47677Y-45164D01*
X47688Y-45389D01*
X47754Y-45548D01*
X47850Y-45579D01*
X48179Y-45250D01*
X48179Y-45392D01*
X47921Y-45650D01*
X47952Y-45746D01*
X48164Y-45823D01*
X48389Y-45812D01*
X48548Y-45746D01*
X48579Y-45650D01*
X48579Y-46922D01*
X47800Y-46925D01*
X44058Y-46925D01*
X44058Y-45378D01*
X43750Y-45071D01*
X43442Y-45378D01*
X43469Y-45472D01*
X43671Y-45543D01*
X43884Y-45532D01*
X44031Y-45472D01*
X44058Y-45378D01*
X44058Y-46925D01*
X38325Y-46925D01*
X38325Y-25650D01*
X38670Y-25650D01*
X38670Y-27750D01*
X38695Y-27876D01*
X38767Y-27983D01*
X38874Y-28055D01*
X39000Y-28080D01*
X39426Y-28080D01*
X39426Y-28124D01*
X39464Y-28216D01*
X39534Y-28286D01*
X39625Y-28324D01*
X39670Y-28324D01*
X39670Y-28364D01*
X38767Y-29267D01*
X38695Y-29373D01*
X38670Y-29500D01*
X38670Y-40750D01*
X38695Y-40877D01*
X38767Y-40983D01*
X40201Y-42417D01*
X40201Y-42849D01*
X40239Y-42941D01*
X40309Y-43011D01*
X40400Y-43049D01*
X40499Y-43049D01*
X41099Y-43049D01*
X41191Y-43011D01*
X41261Y-42941D01*
X41299Y-42850D01*
X41299Y-42751D01*
X41299Y-42151D01*
X41261Y-42059D01*
X41191Y-41989D01*
X41100Y-41951D01*
X41075Y-41951D01*
X41196Y-41830D01*
X42054Y-41830D01*
X42175Y-41951D01*
X42151Y-41951D01*
X42059Y-41989D01*
X41989Y-42059D01*
X41951Y-42150D01*
X41951Y-42249D01*
X41951Y-42849D01*
X41989Y-42941D01*
X42059Y-43011D01*
X42150Y-43049D01*
X42249Y-43049D01*
X42420Y-43049D01*
X42420Y-44554D01*
X42285Y-44689D01*
X42201Y-44891D01*
X42201Y-45109D01*
X42285Y-45311D01*
X42439Y-45465D01*
X42641Y-45549D01*
X42859Y-45549D01*
X43061Y-45465D01*
X43215Y-45311D01*
X43252Y-45219D01*
X43278Y-45281D01*
X43372Y-45308D01*
X43679Y-45000D01*
X43372Y-44692D01*
X43278Y-44719D01*
X43254Y-44784D01*
X43215Y-44689D01*
X43080Y-44554D01*
X43080Y-42750D01*
X43055Y-42624D01*
X43054Y-42623D01*
X43049Y-42615D01*
X43049Y-42151D01*
X43011Y-42059D01*
X42941Y-41989D01*
X42850Y-41951D01*
X42825Y-41951D01*
X42965Y-41811D01*
X43049Y-41609D01*
X43049Y-41391D01*
X43044Y-41379D01*
X44212Y-40212D01*
X49712Y-34712D01*
X49777Y-34615D01*
X49800Y-34500D01*
X49800Y-34099D01*
X49899Y-34099D01*
X49991Y-34061D01*
X50061Y-33991D01*
X50099Y-33900D01*
X50099Y-33801D01*
X50099Y-33101D01*
X50061Y-33009D01*
X49991Y-32939D01*
X49900Y-32901D01*
X49801Y-32901D01*
X49101Y-32901D01*
X49009Y-32939D01*
X48939Y-33009D01*
X48901Y-33100D01*
X48901Y-33199D01*
X48901Y-33899D01*
X48939Y-33991D01*
X49009Y-34061D01*
X49100Y-34099D01*
X49199Y-34099D01*
X49200Y-34099D01*
X49200Y-34376D01*
X45700Y-37875D01*
X45700Y-31713D01*
X45700Y-31300D01*
X45700Y-31200D01*
X45700Y-30787D01*
X45638Y-30725D01*
X45426Y-30726D01*
X45334Y-30764D01*
X45264Y-30834D01*
X45226Y-30925D01*
X45226Y-31024D01*
X45225Y-31138D01*
X45287Y-31200D01*
X45700Y-31200D01*
X45700Y-31300D01*
X45287Y-31300D01*
X45225Y-31362D01*
X45226Y-31476D01*
X45226Y-31575D01*
X45264Y-31666D01*
X45334Y-31736D01*
X45426Y-31774D01*
X45638Y-31775D01*
X45700Y-31713D01*
X45700Y-37875D01*
X43997Y-39578D01*
X43945Y-39453D01*
X43798Y-39305D01*
X43605Y-39225D01*
X43396Y-39225D01*
X43203Y-39305D01*
X43055Y-39452D01*
X42975Y-39645D01*
X42975Y-39854D01*
X43055Y-40047D01*
X43202Y-40195D01*
X43328Y-40247D01*
X42923Y-40652D01*
X42923Y-33265D01*
X42923Y-33009D01*
X42915Y-32989D01*
X42915Y-31464D01*
X42905Y-31214D01*
X42828Y-31028D01*
X42724Y-30991D01*
X42653Y-31062D01*
X42653Y-30920D01*
X42616Y-30816D01*
X42380Y-30729D01*
X42130Y-30739D01*
X41944Y-30816D01*
X41907Y-30920D01*
X42280Y-31293D01*
X42653Y-30920D01*
X42653Y-31062D01*
X42351Y-31364D01*
X42724Y-31737D01*
X42828Y-31700D01*
X42915Y-31464D01*
X42915Y-32989D01*
X42825Y-32773D01*
X42653Y-32600D01*
X42653Y-31808D01*
X42280Y-31435D01*
X42209Y-31506D01*
X42209Y-31364D01*
X41836Y-30991D01*
X41732Y-31028D01*
X41645Y-31264D01*
X41655Y-31514D01*
X41732Y-31700D01*
X41836Y-31737D01*
X42209Y-31364D01*
X42209Y-31506D01*
X41907Y-31808D01*
X41944Y-31912D01*
X42180Y-31999D01*
X42430Y-31989D01*
X42616Y-31912D01*
X42653Y-31808D01*
X42653Y-32600D01*
X42645Y-32592D01*
X42409Y-32493D01*
X42153Y-32493D01*
X41917Y-32591D01*
X41736Y-32771D01*
X41637Y-33007D01*
X41637Y-33263D01*
X41735Y-33499D01*
X41915Y-33680D01*
X42151Y-33779D01*
X42407Y-33779D01*
X42643Y-33681D01*
X42824Y-33501D01*
X42923Y-33265D01*
X42923Y-40652D01*
X42620Y-40955D01*
X42609Y-40951D01*
X42391Y-40951D01*
X42189Y-41035D01*
X42054Y-41170D01*
X42019Y-41170D01*
X42019Y-37074D01*
X42008Y-36870D01*
X41952Y-36733D01*
X41861Y-36710D01*
X41790Y-36781D01*
X41790Y-36639D01*
X41767Y-36548D01*
X41574Y-36481D01*
X41370Y-36492D01*
X41233Y-36548D01*
X41210Y-36639D01*
X41500Y-36929D01*
X41790Y-36639D01*
X41790Y-36781D01*
X41571Y-37000D01*
X41861Y-37290D01*
X41952Y-37267D01*
X42019Y-37074D01*
X42019Y-41170D01*
X41790Y-41170D01*
X41790Y-37361D01*
X41500Y-37071D01*
X41210Y-37361D01*
X41233Y-37452D01*
X41426Y-37519D01*
X41630Y-37508D01*
X41767Y-37452D01*
X41790Y-37361D01*
X41790Y-41170D01*
X41196Y-41170D01*
X41061Y-41035D01*
X41025Y-41020D01*
X41025Y-39855D01*
X41025Y-39646D01*
X40945Y-39453D01*
X40798Y-39305D01*
X40605Y-39225D01*
X40396Y-39225D01*
X40203Y-39305D01*
X40055Y-39452D01*
X39975Y-39645D01*
X39975Y-39854D01*
X40055Y-40047D01*
X40202Y-40195D01*
X40395Y-40275D01*
X40604Y-40275D01*
X40797Y-40195D01*
X40945Y-40048D01*
X41025Y-39855D01*
X41025Y-41020D01*
X40859Y-40951D01*
X40641Y-40951D01*
X40439Y-41035D01*
X40285Y-41189D01*
X40201Y-41391D01*
X40201Y-41484D01*
X39330Y-40613D01*
X39330Y-33654D01*
X39355Y-33680D01*
X39390Y-33694D01*
X39390Y-36220D01*
X39415Y-36347D01*
X39487Y-36453D01*
X39975Y-36941D01*
X39975Y-37104D01*
X40055Y-37297D01*
X40202Y-37445D01*
X40395Y-37525D01*
X40604Y-37525D01*
X40797Y-37445D01*
X40945Y-37298D01*
X41003Y-37157D01*
X41048Y-37267D01*
X41139Y-37290D01*
X41429Y-37000D01*
X41139Y-36710D01*
X41048Y-36733D01*
X41006Y-36851D01*
X40945Y-36703D01*
X40798Y-36555D01*
X40605Y-36475D01*
X40441Y-36475D01*
X40050Y-36084D01*
X40050Y-33694D01*
X40083Y-33681D01*
X40264Y-33501D01*
X40363Y-33265D01*
X40363Y-33009D01*
X40265Y-32773D01*
X40085Y-32592D01*
X39849Y-32493D01*
X39593Y-32493D01*
X39357Y-32591D01*
X39330Y-32617D01*
X39330Y-31882D01*
X39355Y-31908D01*
X39591Y-32007D01*
X39847Y-32007D01*
X40083Y-31909D01*
X40264Y-31729D01*
X40363Y-31493D01*
X40363Y-31237D01*
X40265Y-31001D01*
X40085Y-30820D01*
X39849Y-30721D01*
X39593Y-30721D01*
X39357Y-30819D01*
X39330Y-30845D01*
X39330Y-29636D01*
X40233Y-28733D01*
X40305Y-28627D01*
X40305Y-28626D01*
X40308Y-28605D01*
X40329Y-28500D01*
X40330Y-28500D01*
X40330Y-28324D01*
X40374Y-28324D01*
X40466Y-28286D01*
X40536Y-28216D01*
X40574Y-28125D01*
X40574Y-28026D01*
X40574Y-27376D01*
X40568Y-27361D01*
X40568Y-26834D01*
X40556Y-26611D01*
X40492Y-26454D01*
X40396Y-26425D01*
X40325Y-26496D01*
X40325Y-26354D01*
X40296Y-26258D01*
X40084Y-26182D01*
X39861Y-26194D01*
X39704Y-26258D01*
X39675Y-26354D01*
X40000Y-26679D01*
X40325Y-26354D01*
X40325Y-26496D01*
X40071Y-26750D01*
X40396Y-27075D01*
X40492Y-27046D01*
X40568Y-26834D01*
X40568Y-27361D01*
X40536Y-27284D01*
X40466Y-27214D01*
X40375Y-27176D01*
X40315Y-27176D01*
X40325Y-27146D01*
X40000Y-26821D01*
X39929Y-26892D01*
X39929Y-26750D01*
X39604Y-26425D01*
X39508Y-26454D01*
X39432Y-26666D01*
X39444Y-26889D01*
X39508Y-27046D01*
X39604Y-27075D01*
X39929Y-26750D01*
X39929Y-26892D01*
X39675Y-27146D01*
X39684Y-27176D01*
X39626Y-27176D01*
X39534Y-27214D01*
X39464Y-27284D01*
X39426Y-27375D01*
X39426Y-27420D01*
X39330Y-27420D01*
X39330Y-25650D01*
X41934Y-25650D01*
X41975Y-25691D01*
X41975Y-25854D01*
X42055Y-26047D01*
X42202Y-26195D01*
X42395Y-26275D01*
X42604Y-26275D01*
X42797Y-26195D01*
X42945Y-26048D01*
X43025Y-25855D01*
X43025Y-25650D01*
X43750Y-25650D01*
X43750Y-26850D01*
X49200Y-26850D01*
X49200Y-27246D01*
X49172Y-27258D01*
X49009Y-27421D01*
X48920Y-27634D01*
X48920Y-27865D01*
X49008Y-28078D01*
X49171Y-28241D01*
X49200Y-28253D01*
X49200Y-28975D01*
X49161Y-28992D01*
X48992Y-29161D01*
X48975Y-29200D01*
X47500Y-29200D01*
X47385Y-29223D01*
X47287Y-29288D01*
X46850Y-29725D01*
X46646Y-29725D01*
X46453Y-29805D01*
X46305Y-29952D01*
X46225Y-30145D01*
X46225Y-30354D01*
X46305Y-30547D01*
X46452Y-30695D01*
X46585Y-30750D01*
X46453Y-30805D01*
X46305Y-30952D01*
X46274Y-31024D01*
X46274Y-30925D01*
X46236Y-30834D01*
X46166Y-30764D01*
X46074Y-30726D01*
X45862Y-30725D01*
X45800Y-30787D01*
X45800Y-31150D01*
X45800Y-31200D01*
X45800Y-31300D01*
X45800Y-31350D01*
X45800Y-31713D01*
X45862Y-31775D01*
X46074Y-31774D01*
X46166Y-31736D01*
X46236Y-31666D01*
X46274Y-31575D01*
X46274Y-31476D01*
X46274Y-31472D01*
X46305Y-31547D01*
X46452Y-31695D01*
X46645Y-31775D01*
X46854Y-31775D01*
X47047Y-31695D01*
X47195Y-31548D01*
X47275Y-31355D01*
X47275Y-31146D01*
X47195Y-30953D01*
X47048Y-30805D01*
X46914Y-30749D01*
X47047Y-30695D01*
X47195Y-30548D01*
X47275Y-30355D01*
X47275Y-30149D01*
X47624Y-29800D01*
X48975Y-29800D01*
X48992Y-29839D01*
X49161Y-30008D01*
X49381Y-30099D01*
X49619Y-30099D01*
X49839Y-30008D01*
X50008Y-29839D01*
X50099Y-29619D01*
X50099Y-29381D01*
X50008Y-29161D01*
X49839Y-28992D01*
X49800Y-28975D01*
X49800Y-28253D01*
X49828Y-28242D01*
X49991Y-28079D01*
X49999Y-28058D01*
X50008Y-28078D01*
X50171Y-28241D01*
X50384Y-28330D01*
X50615Y-28330D01*
X50828Y-28242D01*
X50991Y-28079D01*
X51080Y-27866D01*
X51080Y-27635D01*
X50992Y-27422D01*
X50829Y-27259D01*
X50800Y-27246D01*
X50800Y-26850D01*
X53280Y-26850D01*
X53421Y-26991D01*
X53441Y-26999D01*
X53422Y-27008D01*
X53259Y-27171D01*
X53170Y-27384D01*
X53170Y-27615D01*
X53258Y-27828D01*
X53421Y-27991D01*
X53634Y-28080D01*
X53865Y-28080D01*
X54078Y-27992D01*
X54241Y-27829D01*
X54330Y-27616D01*
X54330Y-27385D01*
X54242Y-27172D01*
X54079Y-27009D01*
X54058Y-27000D01*
X54078Y-26992D01*
X54220Y-26850D01*
X55719Y-26850D01*
X55710Y-26889D01*
X56000Y-27179D01*
X56290Y-26889D01*
X56280Y-26850D01*
X58657Y-26850D01*
X58555Y-26952D01*
X58475Y-27145D01*
X58475Y-27354D01*
X58555Y-27547D01*
X58702Y-27695D01*
X58895Y-27775D01*
X59104Y-27775D01*
X59297Y-27695D01*
X59445Y-27548D01*
X59525Y-27355D01*
X59525Y-27146D01*
X59445Y-26953D01*
X59342Y-26850D01*
X62750Y-26850D01*
X62750Y-25450D01*
X66680Y-25450D01*
X66680Y-26577D01*
X66555Y-26702D01*
X66475Y-26895D01*
X66475Y-27104D01*
X66555Y-27297D01*
X66702Y-27445D01*
X66895Y-27525D01*
X67104Y-27525D01*
X67297Y-27445D01*
X67445Y-27298D01*
X67525Y-27105D01*
X67525Y-26896D01*
X67445Y-26703D01*
X67320Y-26577D01*
X67320Y-25450D01*
X67850Y-25450D01*
X67850Y-23070D01*
X69077Y-23070D01*
X69202Y-23195D01*
X69395Y-23275D01*
X69604Y-23275D01*
X69797Y-23195D01*
X69945Y-23048D01*
X70025Y-22855D01*
X70025Y-22646D01*
X69945Y-22453D01*
X69798Y-22305D01*
X69605Y-22225D01*
X69396Y-22225D01*
X69203Y-22305D01*
X69077Y-22430D01*
X67850Y-22430D01*
X67850Y-18807D01*
X69030Y-19987D01*
X69055Y-20047D01*
X69202Y-20195D01*
X69395Y-20275D01*
X69604Y-20275D01*
X69797Y-20195D01*
X69945Y-20048D01*
X70025Y-19855D01*
X70025Y-19646D01*
X69945Y-19453D01*
X69798Y-19305D01*
X69736Y-19279D01*
X68354Y-17896D01*
X68192Y-17788D01*
X68000Y-17749D01*
X67995Y-17750D01*
X67850Y-17750D01*
X67850Y-14190D01*
X67902Y-14316D01*
X68183Y-14597D01*
X68550Y-14750D01*
X68948Y-14750D01*
X69316Y-14598D01*
X69597Y-14317D01*
X69750Y-13950D01*
X69902Y-14316D01*
X70183Y-14597D01*
X70550Y-14750D01*
X70948Y-14750D01*
X71316Y-14598D01*
X71597Y-14317D01*
X71750Y-13950D01*
X71902Y-14316D01*
X72183Y-14597D01*
X72390Y-14683D01*
X72390Y-17300D01*
X72371Y-17319D01*
X72137Y-17319D01*
X72113Y-17319D01*
X71941Y-17390D01*
X71509Y-17390D01*
X71486Y-17334D01*
X71416Y-17264D01*
X71325Y-17226D01*
X71226Y-17226D01*
X70676Y-17226D01*
X70584Y-17264D01*
X70514Y-17334D01*
X70476Y-17425D01*
X70476Y-17524D01*
X70476Y-17541D01*
X70452Y-17483D01*
X70361Y-17460D01*
X70290Y-17531D01*
X70290Y-17389D01*
X70267Y-17298D01*
X70074Y-17231D01*
X69870Y-17242D01*
X69733Y-17298D01*
X69710Y-17389D01*
X70000Y-17679D01*
X70290Y-17389D01*
X70290Y-17531D01*
X70071Y-17750D01*
X70361Y-18040D01*
X70452Y-18017D01*
X70476Y-17947D01*
X70476Y-18074D01*
X70514Y-18166D01*
X70584Y-18236D01*
X70675Y-18274D01*
X70774Y-18274D01*
X71324Y-18274D01*
X71416Y-18236D01*
X71486Y-18166D01*
X71509Y-18110D01*
X71621Y-18110D01*
X71703Y-18307D01*
X71880Y-18485D01*
X72112Y-18581D01*
X72363Y-18581D01*
X72371Y-18581D01*
X74857Y-21066D01*
X74857Y-21075D01*
X74859Y-21081D01*
X74245Y-21695D01*
X74167Y-21812D01*
X74139Y-21950D01*
X74140Y-21954D01*
X74140Y-22411D01*
X74131Y-22415D01*
X73953Y-22592D01*
X73875Y-22780D01*
X73875Y-21100D01*
X73875Y-20800D01*
X73805Y-20609D01*
X73632Y-20423D01*
X73401Y-20317D01*
X73300Y-20363D01*
X73300Y-20900D01*
X73828Y-20900D01*
X73875Y-20800D01*
X73875Y-21100D01*
X73828Y-21000D01*
X73300Y-21000D01*
X73300Y-21537D01*
X73401Y-21583D01*
X73632Y-21477D01*
X73805Y-21291D01*
X73875Y-21100D01*
X73875Y-22780D01*
X73857Y-22824D01*
X73857Y-23075D01*
X73953Y-23307D01*
X74130Y-23485D01*
X74140Y-23489D01*
X74140Y-26745D01*
X74139Y-26750D01*
X74167Y-26888D01*
X74245Y-27005D01*
X74890Y-27649D01*
X74890Y-27850D01*
G54D10*
G36*
X75950Y-45626D02*
X75269Y-46307D01*
X75269Y-30074D01*
X75258Y-29870D01*
X75202Y-29733D01*
X75111Y-29710D01*
X75040Y-29781D01*
X75040Y-29639D01*
X75017Y-29548D01*
X74824Y-29481D01*
X74620Y-29492D01*
X74483Y-29548D01*
X74460Y-29639D01*
X74750Y-29929D01*
X75040Y-29639D01*
X75040Y-29781D01*
X74821Y-30000D01*
X75111Y-30290D01*
X75202Y-30267D01*
X75269Y-30074D01*
X75269Y-46307D01*
X75126Y-46450D01*
X75040Y-46450D01*
X75040Y-30361D01*
X74750Y-30071D01*
X74679Y-30142D01*
X74679Y-30000D01*
X74389Y-29710D01*
X74298Y-29733D01*
X74231Y-29926D01*
X74242Y-30130D01*
X74298Y-30267D01*
X74389Y-30290D01*
X74679Y-30000D01*
X74679Y-30142D01*
X74460Y-30361D01*
X74483Y-30452D01*
X74676Y-30519D01*
X74880Y-30508D01*
X75017Y-30452D01*
X75040Y-30361D01*
X75040Y-46450D01*
X75025Y-46450D01*
X75025Y-43105D01*
X75025Y-42896D01*
X74945Y-42703D01*
X74798Y-42555D01*
X74605Y-42475D01*
X74396Y-42475D01*
X74203Y-42555D01*
X74077Y-42680D01*
X73774Y-42680D01*
X73774Y-42676D01*
X73736Y-42584D01*
X73666Y-42514D01*
X73575Y-42476D01*
X73476Y-42476D01*
X73155Y-42476D01*
X73123Y-42454D01*
X73000Y-42430D01*
X71500Y-42430D01*
X71378Y-42454D01*
X71320Y-42493D01*
X71320Y-41472D01*
X71334Y-41486D01*
X71425Y-41524D01*
X71524Y-41524D01*
X72074Y-41524D01*
X72166Y-41486D01*
X72236Y-41416D01*
X72274Y-41325D01*
X72274Y-41320D01*
X72750Y-41320D01*
X72872Y-41296D01*
X72873Y-41296D01*
X72976Y-41226D01*
X73476Y-40726D01*
X73545Y-40623D01*
X73546Y-40622D01*
X73570Y-40500D01*
X73570Y-38281D01*
X73610Y-38241D01*
X73675Y-38085D01*
X73675Y-37916D01*
X73611Y-37760D01*
X73491Y-37640D01*
X73335Y-37575D01*
X73166Y-37575D01*
X73010Y-37639D01*
X72890Y-37759D01*
X72825Y-37915D01*
X72825Y-38084D01*
X72889Y-38240D01*
X72930Y-38281D01*
X72930Y-40368D01*
X72618Y-40680D01*
X72275Y-40680D01*
X72275Y-32355D01*
X72275Y-32146D01*
X72195Y-31953D01*
X72070Y-31827D01*
X72070Y-30422D01*
X72195Y-30298D01*
X72275Y-30105D01*
X72275Y-29896D01*
X72195Y-29703D01*
X72048Y-29555D01*
X71855Y-29475D01*
X71646Y-29475D01*
X71453Y-29555D01*
X71327Y-29680D01*
X70774Y-29680D01*
X70774Y-29676D01*
X70736Y-29584D01*
X70666Y-29514D01*
X70575Y-29476D01*
X70476Y-29476D01*
X69926Y-29476D01*
X69834Y-29514D01*
X69764Y-29584D01*
X69726Y-29675D01*
X69726Y-29774D01*
X69726Y-30324D01*
X69764Y-30416D01*
X69834Y-30486D01*
X69925Y-30524D01*
X70024Y-30524D01*
X70041Y-30524D01*
X69983Y-30548D01*
X69960Y-30639D01*
X70250Y-30929D01*
X70540Y-30639D01*
X70517Y-30548D01*
X70447Y-30524D01*
X70574Y-30524D01*
X70666Y-30486D01*
X70736Y-30416D01*
X70774Y-30325D01*
X70774Y-30320D01*
X71327Y-30320D01*
X71430Y-30422D01*
X71430Y-31827D01*
X71305Y-31952D01*
X71225Y-32145D01*
X71225Y-32354D01*
X71305Y-32547D01*
X71452Y-32695D01*
X71592Y-32753D01*
X71483Y-32798D01*
X71460Y-32889D01*
X71750Y-33179D01*
X72040Y-32889D01*
X72017Y-32798D01*
X71898Y-32756D01*
X72047Y-32695D01*
X72195Y-32548D01*
X72275Y-32355D01*
X72275Y-40680D01*
X72274Y-40680D01*
X72274Y-40676D01*
X72269Y-40663D01*
X72269Y-38074D01*
X72269Y-33324D01*
X72258Y-33120D01*
X72202Y-32983D01*
X72111Y-32960D01*
X71821Y-33250D01*
X72111Y-33540D01*
X72202Y-33517D01*
X72269Y-33324D01*
X72269Y-38074D01*
X72258Y-37870D01*
X72202Y-37733D01*
X72111Y-37710D01*
X72040Y-37781D01*
X72040Y-37639D01*
X72040Y-33611D01*
X71750Y-33321D01*
X71679Y-33392D01*
X71679Y-33250D01*
X71389Y-32960D01*
X71298Y-32983D01*
X71231Y-33176D01*
X71242Y-33380D01*
X71298Y-33517D01*
X71389Y-33540D01*
X71679Y-33250D01*
X71679Y-33392D01*
X71460Y-33611D01*
X71483Y-33702D01*
X71676Y-33769D01*
X71880Y-33758D01*
X72017Y-33702D01*
X72040Y-33611D01*
X72040Y-37639D01*
X72017Y-37548D01*
X71824Y-37481D01*
X71620Y-37492D01*
X71483Y-37548D01*
X71460Y-37639D01*
X71750Y-37929D01*
X72040Y-37639D01*
X72040Y-37781D01*
X71821Y-38000D01*
X72111Y-38290D01*
X72202Y-38267D01*
X72269Y-38074D01*
X72269Y-40663D01*
X72236Y-40584D01*
X72166Y-40514D01*
X72075Y-40476D01*
X72040Y-40476D01*
X72040Y-38361D01*
X71750Y-38071D01*
X71679Y-38142D01*
X71679Y-38000D01*
X71389Y-37710D01*
X71298Y-37733D01*
X71231Y-37926D01*
X71242Y-38130D01*
X71298Y-38267D01*
X71389Y-38290D01*
X71679Y-38000D01*
X71679Y-38142D01*
X71460Y-38361D01*
X71483Y-38452D01*
X71676Y-38519D01*
X71880Y-38508D01*
X72017Y-38452D01*
X72040Y-38361D01*
X72040Y-40476D01*
X71976Y-40476D01*
X71426Y-40476D01*
X71334Y-40514D01*
X71320Y-40528D01*
X71320Y-39250D01*
X71319Y-39249D01*
X71296Y-39128D01*
X71295Y-39126D01*
X71226Y-39024D01*
X71226Y-39023D01*
X70769Y-38566D01*
X70769Y-31074D01*
X70758Y-30870D01*
X70702Y-30733D01*
X70611Y-30710D01*
X70321Y-31000D01*
X70611Y-31290D01*
X70702Y-31267D01*
X70769Y-31074D01*
X70769Y-38566D01*
X70540Y-38337D01*
X70540Y-31361D01*
X70250Y-31071D01*
X70179Y-31142D01*
X70179Y-31000D01*
X69889Y-30710D01*
X69798Y-30733D01*
X69731Y-30926D01*
X69742Y-31130D01*
X69798Y-31267D01*
X69889Y-31290D01*
X70179Y-31000D01*
X70179Y-31142D01*
X69960Y-31361D01*
X69983Y-31452D01*
X70176Y-31519D01*
X70380Y-31508D01*
X70517Y-31452D01*
X70540Y-31361D01*
X70540Y-38337D01*
X70275Y-38072D01*
X70275Y-35355D01*
X70275Y-35146D01*
X70275Y-32355D01*
X70275Y-32146D01*
X70195Y-31953D01*
X70048Y-31805D01*
X69855Y-31725D01*
X69677Y-31725D01*
X68570Y-30617D01*
X68570Y-30599D01*
X68649Y-30599D01*
X68741Y-30561D01*
X68811Y-30491D01*
X68849Y-30400D01*
X68849Y-30301D01*
X68849Y-29601D01*
X68811Y-29509D01*
X68741Y-29439D01*
X68650Y-29401D01*
X68551Y-29401D01*
X67851Y-29401D01*
X67759Y-29439D01*
X67689Y-29509D01*
X67651Y-29600D01*
X67651Y-29699D01*
X67651Y-30399D01*
X67689Y-30491D01*
X67759Y-30561D01*
X67850Y-30599D01*
X67930Y-30599D01*
X67930Y-30750D01*
X67954Y-30873D01*
X68024Y-30976D01*
X69225Y-32177D01*
X69225Y-32354D01*
X69305Y-32547D01*
X69452Y-32695D01*
X69645Y-32775D01*
X69854Y-32775D01*
X70047Y-32695D01*
X70195Y-32548D01*
X70275Y-32355D01*
X70275Y-35146D01*
X70195Y-34953D01*
X70048Y-34805D01*
X69855Y-34725D01*
X69646Y-34725D01*
X69453Y-34805D01*
X69305Y-34952D01*
X69269Y-35038D01*
X69269Y-34574D01*
X69269Y-33074D01*
X69258Y-32870D01*
X69202Y-32733D01*
X69111Y-32710D01*
X69040Y-32781D01*
X69040Y-32639D01*
X69017Y-32548D01*
X68824Y-32481D01*
X68620Y-32492D01*
X68483Y-32548D01*
X68460Y-32639D01*
X68750Y-32929D01*
X69040Y-32639D01*
X69040Y-32781D01*
X68821Y-33000D01*
X69111Y-33290D01*
X69202Y-33267D01*
X69269Y-33074D01*
X69269Y-34574D01*
X69258Y-34370D01*
X69202Y-34233D01*
X69111Y-34210D01*
X69040Y-34281D01*
X69040Y-34139D01*
X69040Y-33361D01*
X68750Y-33071D01*
X68460Y-33361D01*
X68483Y-33452D01*
X68676Y-33519D01*
X68880Y-33508D01*
X69017Y-33452D01*
X69040Y-33361D01*
X69040Y-34139D01*
X69017Y-34048D01*
X68824Y-33981D01*
X68620Y-33992D01*
X68483Y-34048D01*
X68460Y-34139D01*
X68750Y-34429D01*
X69040Y-34139D01*
X69040Y-34281D01*
X68821Y-34500D01*
X69111Y-34790D01*
X69202Y-34767D01*
X69269Y-34574D01*
X69269Y-35038D01*
X69225Y-35145D01*
X69225Y-35354D01*
X69305Y-35547D01*
X69452Y-35695D01*
X69645Y-35775D01*
X69854Y-35775D01*
X70047Y-35695D01*
X70195Y-35548D01*
X70275Y-35355D01*
X70275Y-38072D01*
X70274Y-38071D01*
X70274Y-37676D01*
X70236Y-37584D01*
X70166Y-37514D01*
X70075Y-37476D01*
X69976Y-37476D01*
X69426Y-37476D01*
X69334Y-37514D01*
X69269Y-37579D01*
X69269Y-36074D01*
X69258Y-35870D01*
X69202Y-35733D01*
X69111Y-35710D01*
X69040Y-35781D01*
X69040Y-35639D01*
X69040Y-34861D01*
X68750Y-34571D01*
X68460Y-34861D01*
X68483Y-34952D01*
X68676Y-35019D01*
X68880Y-35008D01*
X69017Y-34952D01*
X69040Y-34861D01*
X69040Y-35639D01*
X69017Y-35548D01*
X68824Y-35481D01*
X68620Y-35492D01*
X68483Y-35548D01*
X68460Y-35639D01*
X68750Y-35929D01*
X69040Y-35639D01*
X69040Y-35781D01*
X68821Y-36000D01*
X69111Y-36290D01*
X69202Y-36267D01*
X69269Y-36074D01*
X69269Y-37579D01*
X69264Y-37584D01*
X69226Y-37675D01*
X69226Y-37774D01*
X69226Y-38324D01*
X69264Y-38416D01*
X69334Y-38486D01*
X69425Y-38524D01*
X69524Y-38524D01*
X69541Y-38524D01*
X69483Y-38548D01*
X69460Y-38639D01*
X69715Y-38894D01*
X69750Y-38929D01*
X69821Y-39000D01*
X69856Y-39035D01*
X70111Y-39290D01*
X70202Y-39267D01*
X70269Y-39074D01*
X70263Y-38965D01*
X70680Y-39382D01*
X70680Y-42827D01*
X70555Y-42952D01*
X70475Y-43145D01*
X70475Y-43354D01*
X70555Y-43547D01*
X70702Y-43695D01*
X70842Y-43753D01*
X70733Y-43798D01*
X70710Y-43889D01*
X71000Y-44179D01*
X71290Y-43889D01*
X71267Y-43798D01*
X71148Y-43756D01*
X71297Y-43695D01*
X71445Y-43548D01*
X71525Y-43355D01*
X71525Y-43177D01*
X71632Y-43070D01*
X72726Y-43070D01*
X72726Y-43324D01*
X72764Y-43416D01*
X72834Y-43486D01*
X72925Y-43524D01*
X73024Y-43524D01*
X73574Y-43524D01*
X73666Y-43486D01*
X73736Y-43416D01*
X73774Y-43325D01*
X73774Y-43320D01*
X74077Y-43320D01*
X74202Y-43445D01*
X74395Y-43525D01*
X74604Y-43525D01*
X74797Y-43445D01*
X74945Y-43298D01*
X75025Y-43105D01*
X75025Y-46450D01*
X75019Y-46450D01*
X75019Y-46074D01*
X75008Y-45870D01*
X74952Y-45733D01*
X74861Y-45710D01*
X74790Y-45781D01*
X74790Y-45639D01*
X74767Y-45548D01*
X74574Y-45481D01*
X74370Y-45492D01*
X74233Y-45548D01*
X74210Y-45639D01*
X74500Y-45929D01*
X74790Y-45639D01*
X74790Y-45781D01*
X74571Y-46000D01*
X74861Y-46290D01*
X74952Y-46267D01*
X75019Y-46074D01*
X75019Y-46450D01*
X74767Y-46450D01*
X74790Y-46361D01*
X74500Y-46071D01*
X74429Y-46142D01*
X74429Y-46000D01*
X74139Y-45710D01*
X74048Y-45733D01*
X73981Y-45926D01*
X73992Y-46130D01*
X74048Y-46267D01*
X74139Y-46290D01*
X74429Y-46000D01*
X74429Y-46142D01*
X74210Y-46361D01*
X74232Y-46450D01*
X73769Y-46450D01*
X73769Y-46074D01*
X73758Y-45870D01*
X73702Y-45733D01*
X73611Y-45710D01*
X73540Y-45781D01*
X73540Y-45639D01*
X73517Y-45548D01*
X73324Y-45481D01*
X73120Y-45492D01*
X72983Y-45548D01*
X72960Y-45639D01*
X73250Y-45929D01*
X73540Y-45639D01*
X73540Y-45781D01*
X73321Y-46000D01*
X73611Y-46290D01*
X73702Y-46267D01*
X73769Y-46074D01*
X73769Y-46450D01*
X73517Y-46450D01*
X73540Y-46361D01*
X73250Y-46071D01*
X73179Y-46142D01*
X73179Y-46000D01*
X72889Y-45710D01*
X72798Y-45733D01*
X72731Y-45926D01*
X72742Y-46130D01*
X72798Y-46267D01*
X72889Y-46290D01*
X73179Y-46000D01*
X73179Y-46142D01*
X72960Y-46361D01*
X72982Y-46450D01*
X71519Y-46450D01*
X71519Y-44324D01*
X71508Y-44120D01*
X71452Y-43983D01*
X71361Y-43960D01*
X71071Y-44250D01*
X71361Y-44540D01*
X71452Y-44517D01*
X71519Y-44324D01*
X71519Y-46450D01*
X71290Y-46450D01*
X71290Y-44611D01*
X71000Y-44321D01*
X70929Y-44392D01*
X70929Y-44250D01*
X70639Y-43960D01*
X70548Y-43983D01*
X70481Y-44176D01*
X70492Y-44380D01*
X70548Y-44517D01*
X70639Y-44540D01*
X70929Y-44250D01*
X70929Y-44392D01*
X70710Y-44611D01*
X70733Y-44702D01*
X70926Y-44769D01*
X71130Y-44758D01*
X71267Y-44702D01*
X71290Y-44611D01*
X71290Y-46450D01*
X70040Y-46450D01*
X70040Y-39361D01*
X69750Y-39071D01*
X69679Y-39142D01*
X69679Y-39000D01*
X69389Y-38710D01*
X69298Y-38733D01*
X69231Y-38926D01*
X69242Y-39130D01*
X69298Y-39267D01*
X69389Y-39290D01*
X69679Y-39000D01*
X69679Y-39142D01*
X69460Y-39361D01*
X69483Y-39452D01*
X69676Y-39519D01*
X69880Y-39508D01*
X70017Y-39452D01*
X70040Y-39361D01*
X70040Y-46450D01*
X69320Y-46450D01*
X69308Y-46394D01*
X69305Y-46374D01*
X69305Y-46373D01*
X69233Y-46267D01*
X69025Y-46059D01*
X69025Y-45941D01*
X69483Y-45484D01*
X69483Y-45483D01*
X69530Y-45412D01*
X69554Y-45377D01*
X69555Y-45376D01*
X69579Y-45250D01*
X69580Y-45250D01*
X69580Y-43000D01*
X69558Y-42894D01*
X69555Y-42874D01*
X69555Y-42873D01*
X69483Y-42767D01*
X69483Y-42766D01*
X69040Y-42323D01*
X69040Y-36361D01*
X68750Y-36071D01*
X68460Y-36361D01*
X68483Y-36452D01*
X68676Y-36519D01*
X68880Y-36508D01*
X69017Y-36452D01*
X69040Y-36361D01*
X69040Y-42323D01*
X68080Y-41363D01*
X68080Y-36412D01*
X68195Y-36298D01*
X68253Y-36157D01*
X68298Y-36267D01*
X68389Y-36290D01*
X68679Y-36000D01*
X68389Y-35710D01*
X68298Y-35733D01*
X68256Y-35851D01*
X68195Y-35703D01*
X68048Y-35555D01*
X67855Y-35475D01*
X67646Y-35475D01*
X67453Y-35555D01*
X67337Y-35670D01*
X66136Y-35670D01*
X66100Y-35634D01*
X66121Y-35643D01*
X66377Y-35643D01*
X66613Y-35545D01*
X66794Y-35365D01*
X66808Y-35330D01*
X67250Y-35330D01*
X67376Y-35305D01*
X67377Y-35305D01*
X67483Y-35233D01*
X67691Y-35025D01*
X67854Y-35025D01*
X68047Y-34945D01*
X68195Y-34798D01*
X68253Y-34657D01*
X68298Y-34767D01*
X68389Y-34790D01*
X68679Y-34500D01*
X68389Y-34210D01*
X68298Y-34233D01*
X68256Y-34351D01*
X68195Y-34203D01*
X68048Y-34055D01*
X67855Y-33975D01*
X67646Y-33975D01*
X67453Y-34055D01*
X67305Y-34202D01*
X67225Y-34395D01*
X67225Y-34559D01*
X67114Y-34670D01*
X66808Y-34670D01*
X66795Y-34637D01*
X66615Y-34456D01*
X66379Y-34357D01*
X66123Y-34357D01*
X66087Y-34371D01*
X65983Y-34267D01*
X65877Y-34195D01*
X65750Y-34170D01*
X65099Y-34170D01*
X64964Y-34035D01*
X64879Y-34000D01*
X64964Y-33965D01*
X65099Y-33830D01*
X65750Y-33830D01*
X65876Y-33805D01*
X65877Y-33805D01*
X65983Y-33733D01*
X66087Y-33628D01*
X66121Y-33643D01*
X66377Y-33643D01*
X66613Y-33545D01*
X66794Y-33365D01*
X66808Y-33330D01*
X67337Y-33330D01*
X67452Y-33445D01*
X67645Y-33525D01*
X67854Y-33525D01*
X68047Y-33445D01*
X68195Y-33298D01*
X68253Y-33157D01*
X68298Y-33267D01*
X68389Y-33290D01*
X68679Y-33000D01*
X68389Y-32710D01*
X68298Y-32733D01*
X68256Y-32851D01*
X68195Y-32703D01*
X68048Y-32555D01*
X67855Y-32475D01*
X67646Y-32475D01*
X67453Y-32555D01*
X67337Y-32670D01*
X66808Y-32670D01*
X66795Y-32637D01*
X66615Y-32456D01*
X66379Y-32357D01*
X66123Y-32357D01*
X65887Y-32455D01*
X65706Y-32635D01*
X65607Y-32871D01*
X65607Y-33127D01*
X65621Y-33162D01*
X65614Y-33170D01*
X65099Y-33170D01*
X64964Y-33035D01*
X64879Y-33000D01*
X64964Y-32965D01*
X65118Y-32811D01*
X65119Y-32806D01*
X65120Y-32806D01*
X65126Y-32805D01*
X65127Y-32805D01*
X65233Y-32733D01*
X65483Y-32484D01*
X65483Y-32483D01*
X65530Y-32412D01*
X65554Y-32377D01*
X65555Y-32376D01*
X65579Y-32250D01*
X65580Y-32250D01*
X65580Y-30000D01*
X65558Y-29894D01*
X65555Y-29874D01*
X65555Y-29873D01*
X65483Y-29767D01*
X65299Y-29583D01*
X65299Y-29151D01*
X65261Y-29059D01*
X65191Y-28989D01*
X65100Y-28951D01*
X65075Y-28951D01*
X65166Y-28860D01*
X73477Y-28860D01*
X73555Y-29047D01*
X73702Y-29195D01*
X73895Y-29275D01*
X74104Y-29275D01*
X74297Y-29195D01*
X74382Y-29110D01*
X74495Y-29110D01*
X74500Y-29111D01*
X74500Y-29110D01*
X74638Y-29083D01*
X74755Y-29005D01*
X75502Y-28256D01*
X75504Y-28255D01*
X75505Y-28255D01*
X75583Y-28138D01*
X75610Y-28000D01*
X75610Y-27500D01*
X75583Y-27362D01*
X75505Y-27245D01*
X75502Y-27243D01*
X74860Y-26600D01*
X74860Y-23488D01*
X74869Y-23485D01*
X75047Y-23308D01*
X75143Y-23076D01*
X75143Y-22825D01*
X75047Y-22593D01*
X74870Y-22415D01*
X74860Y-22410D01*
X74860Y-22099D01*
X75378Y-21581D01*
X75613Y-21581D01*
X75637Y-21581D01*
X75869Y-21485D01*
X75930Y-21424D01*
X75930Y-33500D01*
X75950Y-33601D01*
X75950Y-45626D01*
X75950Y-45626D01*
G37*
G54D31*
X75950Y-45626D02*
X75269Y-46307D01*
X75269Y-30074D01*
X75258Y-29870D01*
X75202Y-29733D01*
X75111Y-29710D01*
X75040Y-29781D01*
X75040Y-29639D01*
X75017Y-29548D01*
X74824Y-29481D01*
X74620Y-29492D01*
X74483Y-29548D01*
X74460Y-29639D01*
X74750Y-29929D01*
X75040Y-29639D01*
X75040Y-29781D01*
X74821Y-30000D01*
X75111Y-30290D01*
X75202Y-30267D01*
X75269Y-30074D01*
X75269Y-46307D01*
X75126Y-46450D01*
X75040Y-46450D01*
X75040Y-30361D01*
X74750Y-30071D01*
X74679Y-30142D01*
X74679Y-30000D01*
X74389Y-29710D01*
X74298Y-29733D01*
X74231Y-29926D01*
X74242Y-30130D01*
X74298Y-30267D01*
X74389Y-30290D01*
X74679Y-30000D01*
X74679Y-30142D01*
X74460Y-30361D01*
X74483Y-30452D01*
X74676Y-30519D01*
X74880Y-30508D01*
X75017Y-30452D01*
X75040Y-30361D01*
X75040Y-46450D01*
X75025Y-46450D01*
X75025Y-43105D01*
X75025Y-42896D01*
X74945Y-42703D01*
X74798Y-42555D01*
X74605Y-42475D01*
X74396Y-42475D01*
X74203Y-42555D01*
X74077Y-42680D01*
X73774Y-42680D01*
X73774Y-42676D01*
X73736Y-42584D01*
X73666Y-42514D01*
X73575Y-42476D01*
X73476Y-42476D01*
X73155Y-42476D01*
X73123Y-42454D01*
X73000Y-42430D01*
X71500Y-42430D01*
X71378Y-42454D01*
X71320Y-42493D01*
X71320Y-41472D01*
X71334Y-41486D01*
X71425Y-41524D01*
X71524Y-41524D01*
X72074Y-41524D01*
X72166Y-41486D01*
X72236Y-41416D01*
X72274Y-41325D01*
X72274Y-41320D01*
X72750Y-41320D01*
X72872Y-41296D01*
X72873Y-41296D01*
X72976Y-41226D01*
X73476Y-40726D01*
X73545Y-40623D01*
X73546Y-40622D01*
X73570Y-40500D01*
X73570Y-38281D01*
X73610Y-38241D01*
X73675Y-38085D01*
X73675Y-37916D01*
X73611Y-37760D01*
X73491Y-37640D01*
X73335Y-37575D01*
X73166Y-37575D01*
X73010Y-37639D01*
X72890Y-37759D01*
X72825Y-37915D01*
X72825Y-38084D01*
X72889Y-38240D01*
X72930Y-38281D01*
X72930Y-40368D01*
X72618Y-40680D01*
X72275Y-40680D01*
X72275Y-32355D01*
X72275Y-32146D01*
X72195Y-31953D01*
X72070Y-31827D01*
X72070Y-30422D01*
X72195Y-30298D01*
X72275Y-30105D01*
X72275Y-29896D01*
X72195Y-29703D01*
X72048Y-29555D01*
X71855Y-29475D01*
X71646Y-29475D01*
X71453Y-29555D01*
X71327Y-29680D01*
X70774Y-29680D01*
X70774Y-29676D01*
X70736Y-29584D01*
X70666Y-29514D01*
X70575Y-29476D01*
X70476Y-29476D01*
X69926Y-29476D01*
X69834Y-29514D01*
X69764Y-29584D01*
X69726Y-29675D01*
X69726Y-29774D01*
X69726Y-30324D01*
X69764Y-30416D01*
X69834Y-30486D01*
X69925Y-30524D01*
X70024Y-30524D01*
X70041Y-30524D01*
X69983Y-30548D01*
X69960Y-30639D01*
X70250Y-30929D01*
X70540Y-30639D01*
X70517Y-30548D01*
X70447Y-30524D01*
X70574Y-30524D01*
X70666Y-30486D01*
X70736Y-30416D01*
X70774Y-30325D01*
X70774Y-30320D01*
X71327Y-30320D01*
X71430Y-30422D01*
X71430Y-31827D01*
X71305Y-31952D01*
X71225Y-32145D01*
X71225Y-32354D01*
X71305Y-32547D01*
X71452Y-32695D01*
X71592Y-32753D01*
X71483Y-32798D01*
X71460Y-32889D01*
X71750Y-33179D01*
X72040Y-32889D01*
X72017Y-32798D01*
X71898Y-32756D01*
X72047Y-32695D01*
X72195Y-32548D01*
X72275Y-32355D01*
X72275Y-40680D01*
X72274Y-40680D01*
X72274Y-40676D01*
X72269Y-40663D01*
X72269Y-38074D01*
X72269Y-33324D01*
X72258Y-33120D01*
X72202Y-32983D01*
X72111Y-32960D01*
X71821Y-33250D01*
X72111Y-33540D01*
X72202Y-33517D01*
X72269Y-33324D01*
X72269Y-38074D01*
X72258Y-37870D01*
X72202Y-37733D01*
X72111Y-37710D01*
X72040Y-37781D01*
X72040Y-37639D01*
X72040Y-33611D01*
X71750Y-33321D01*
X71679Y-33392D01*
X71679Y-33250D01*
X71389Y-32960D01*
X71298Y-32983D01*
X71231Y-33176D01*
X71242Y-33380D01*
X71298Y-33517D01*
X71389Y-33540D01*
X71679Y-33250D01*
X71679Y-33392D01*
X71460Y-33611D01*
X71483Y-33702D01*
X71676Y-33769D01*
X71880Y-33758D01*
X72017Y-33702D01*
X72040Y-33611D01*
X72040Y-37639D01*
X72017Y-37548D01*
X71824Y-37481D01*
X71620Y-37492D01*
X71483Y-37548D01*
X71460Y-37639D01*
X71750Y-37929D01*
X72040Y-37639D01*
X72040Y-37781D01*
X71821Y-38000D01*
X72111Y-38290D01*
X72202Y-38267D01*
X72269Y-38074D01*
X72269Y-40663D01*
X72236Y-40584D01*
X72166Y-40514D01*
X72075Y-40476D01*
X72040Y-40476D01*
X72040Y-38361D01*
X71750Y-38071D01*
X71679Y-38142D01*
X71679Y-38000D01*
X71389Y-37710D01*
X71298Y-37733D01*
X71231Y-37926D01*
X71242Y-38130D01*
X71298Y-38267D01*
X71389Y-38290D01*
X71679Y-38000D01*
X71679Y-38142D01*
X71460Y-38361D01*
X71483Y-38452D01*
X71676Y-38519D01*
X71880Y-38508D01*
X72017Y-38452D01*
X72040Y-38361D01*
X72040Y-40476D01*
X71976Y-40476D01*
X71426Y-40476D01*
X71334Y-40514D01*
X71320Y-40528D01*
X71320Y-39250D01*
X71319Y-39249D01*
X71296Y-39128D01*
X71295Y-39126D01*
X71226Y-39024D01*
X71226Y-39023D01*
X70769Y-38566D01*
X70769Y-31074D01*
X70758Y-30870D01*
X70702Y-30733D01*
X70611Y-30710D01*
X70321Y-31000D01*
X70611Y-31290D01*
X70702Y-31267D01*
X70769Y-31074D01*
X70769Y-38566D01*
X70540Y-38337D01*
X70540Y-31361D01*
X70250Y-31071D01*
X70179Y-31142D01*
X70179Y-31000D01*
X69889Y-30710D01*
X69798Y-30733D01*
X69731Y-30926D01*
X69742Y-31130D01*
X69798Y-31267D01*
X69889Y-31290D01*
X70179Y-31000D01*
X70179Y-31142D01*
X69960Y-31361D01*
X69983Y-31452D01*
X70176Y-31519D01*
X70380Y-31508D01*
X70517Y-31452D01*
X70540Y-31361D01*
X70540Y-38337D01*
X70275Y-38072D01*
X70275Y-35355D01*
X70275Y-35146D01*
X70275Y-32355D01*
X70275Y-32146D01*
X70195Y-31953D01*
X70048Y-31805D01*
X69855Y-31725D01*
X69677Y-31725D01*
X68570Y-30617D01*
X68570Y-30599D01*
X68649Y-30599D01*
X68741Y-30561D01*
X68811Y-30491D01*
X68849Y-30400D01*
X68849Y-30301D01*
X68849Y-29601D01*
X68811Y-29509D01*
X68741Y-29439D01*
X68650Y-29401D01*
X68551Y-29401D01*
X67851Y-29401D01*
X67759Y-29439D01*
X67689Y-29509D01*
X67651Y-29600D01*
X67651Y-29699D01*
X67651Y-30399D01*
X67689Y-30491D01*
X67759Y-30561D01*
X67850Y-30599D01*
X67930Y-30599D01*
X67930Y-30750D01*
X67954Y-30873D01*
X68024Y-30976D01*
X69225Y-32177D01*
X69225Y-32354D01*
X69305Y-32547D01*
X69452Y-32695D01*
X69645Y-32775D01*
X69854Y-32775D01*
X70047Y-32695D01*
X70195Y-32548D01*
X70275Y-32355D01*
X70275Y-35146D01*
X70195Y-34953D01*
X70048Y-34805D01*
X69855Y-34725D01*
X69646Y-34725D01*
X69453Y-34805D01*
X69305Y-34952D01*
X69269Y-35038D01*
X69269Y-34574D01*
X69269Y-33074D01*
X69258Y-32870D01*
X69202Y-32733D01*
X69111Y-32710D01*
X69040Y-32781D01*
X69040Y-32639D01*
X69017Y-32548D01*
X68824Y-32481D01*
X68620Y-32492D01*
X68483Y-32548D01*
X68460Y-32639D01*
X68750Y-32929D01*
X69040Y-32639D01*
X69040Y-32781D01*
X68821Y-33000D01*
X69111Y-33290D01*
X69202Y-33267D01*
X69269Y-33074D01*
X69269Y-34574D01*
X69258Y-34370D01*
X69202Y-34233D01*
X69111Y-34210D01*
X69040Y-34281D01*
X69040Y-34139D01*
X69040Y-33361D01*
X68750Y-33071D01*
X68460Y-33361D01*
X68483Y-33452D01*
X68676Y-33519D01*
X68880Y-33508D01*
X69017Y-33452D01*
X69040Y-33361D01*
X69040Y-34139D01*
X69017Y-34048D01*
X68824Y-33981D01*
X68620Y-33992D01*
X68483Y-34048D01*
X68460Y-34139D01*
X68750Y-34429D01*
X69040Y-34139D01*
X69040Y-34281D01*
X68821Y-34500D01*
X69111Y-34790D01*
X69202Y-34767D01*
X69269Y-34574D01*
X69269Y-35038D01*
X69225Y-35145D01*
X69225Y-35354D01*
X69305Y-35547D01*
X69452Y-35695D01*
X69645Y-35775D01*
X69854Y-35775D01*
X70047Y-35695D01*
X70195Y-35548D01*
X70275Y-35355D01*
X70275Y-38072D01*
X70274Y-38071D01*
X70274Y-37676D01*
X70236Y-37584D01*
X70166Y-37514D01*
X70075Y-37476D01*
X69976Y-37476D01*
X69426Y-37476D01*
X69334Y-37514D01*
X69269Y-37579D01*
X69269Y-36074D01*
X69258Y-35870D01*
X69202Y-35733D01*
X69111Y-35710D01*
X69040Y-35781D01*
X69040Y-35639D01*
X69040Y-34861D01*
X68750Y-34571D01*
X68460Y-34861D01*
X68483Y-34952D01*
X68676Y-35019D01*
X68880Y-35008D01*
X69017Y-34952D01*
X69040Y-34861D01*
X69040Y-35639D01*
X69017Y-35548D01*
X68824Y-35481D01*
X68620Y-35492D01*
X68483Y-35548D01*
X68460Y-35639D01*
X68750Y-35929D01*
X69040Y-35639D01*
X69040Y-35781D01*
X68821Y-36000D01*
X69111Y-36290D01*
X69202Y-36267D01*
X69269Y-36074D01*
X69269Y-37579D01*
X69264Y-37584D01*
X69226Y-37675D01*
X69226Y-37774D01*
X69226Y-38324D01*
X69264Y-38416D01*
X69334Y-38486D01*
X69425Y-38524D01*
X69524Y-38524D01*
X69541Y-38524D01*
X69483Y-38548D01*
X69460Y-38639D01*
X69715Y-38894D01*
X69750Y-38929D01*
X69821Y-39000D01*
X69856Y-39035D01*
X70111Y-39290D01*
X70202Y-39267D01*
X70269Y-39074D01*
X70263Y-38965D01*
X70680Y-39382D01*
X70680Y-42827D01*
X70555Y-42952D01*
X70475Y-43145D01*
X70475Y-43354D01*
X70555Y-43547D01*
X70702Y-43695D01*
X70842Y-43753D01*
X70733Y-43798D01*
X70710Y-43889D01*
X71000Y-44179D01*
X71290Y-43889D01*
X71267Y-43798D01*
X71148Y-43756D01*
X71297Y-43695D01*
X71445Y-43548D01*
X71525Y-43355D01*
X71525Y-43177D01*
X71632Y-43070D01*
X72726Y-43070D01*
X72726Y-43324D01*
X72764Y-43416D01*
X72834Y-43486D01*
X72925Y-43524D01*
X73024Y-43524D01*
X73574Y-43524D01*
X73666Y-43486D01*
X73736Y-43416D01*
X73774Y-43325D01*
X73774Y-43320D01*
X74077Y-43320D01*
X74202Y-43445D01*
X74395Y-43525D01*
X74604Y-43525D01*
X74797Y-43445D01*
X74945Y-43298D01*
X75025Y-43105D01*
X75025Y-46450D01*
X75019Y-46450D01*
X75019Y-46074D01*
X75008Y-45870D01*
X74952Y-45733D01*
X74861Y-45710D01*
X74790Y-45781D01*
X74790Y-45639D01*
X74767Y-45548D01*
X74574Y-45481D01*
X74370Y-45492D01*
X74233Y-45548D01*
X74210Y-45639D01*
X74500Y-45929D01*
X74790Y-45639D01*
X74790Y-45781D01*
X74571Y-46000D01*
X74861Y-46290D01*
X74952Y-46267D01*
X75019Y-46074D01*
X75019Y-46450D01*
X74767Y-46450D01*
X74790Y-46361D01*
X74500Y-46071D01*
X74429Y-46142D01*
X74429Y-46000D01*
X74139Y-45710D01*
X74048Y-45733D01*
X73981Y-45926D01*
X73992Y-46130D01*
X74048Y-46267D01*
X74139Y-46290D01*
X74429Y-46000D01*
X74429Y-46142D01*
X74210Y-46361D01*
X74232Y-46450D01*
X73769Y-46450D01*
X73769Y-46074D01*
X73758Y-45870D01*
X73702Y-45733D01*
X73611Y-45710D01*
X73540Y-45781D01*
X73540Y-45639D01*
X73517Y-45548D01*
X73324Y-45481D01*
X73120Y-45492D01*
X72983Y-45548D01*
X72960Y-45639D01*
X73250Y-45929D01*
X73540Y-45639D01*
X73540Y-45781D01*
X73321Y-46000D01*
X73611Y-46290D01*
X73702Y-46267D01*
X73769Y-46074D01*
X73769Y-46450D01*
X73517Y-46450D01*
X73540Y-46361D01*
X73250Y-46071D01*
X73179Y-46142D01*
X73179Y-46000D01*
X72889Y-45710D01*
X72798Y-45733D01*
X72731Y-45926D01*
X72742Y-46130D01*
X72798Y-46267D01*
X72889Y-46290D01*
X73179Y-46000D01*
X73179Y-46142D01*
X72960Y-46361D01*
X72982Y-46450D01*
X71519Y-46450D01*
X71519Y-44324D01*
X71508Y-44120D01*
X71452Y-43983D01*
X71361Y-43960D01*
X71071Y-44250D01*
X71361Y-44540D01*
X71452Y-44517D01*
X71519Y-44324D01*
X71519Y-46450D01*
X71290Y-46450D01*
X71290Y-44611D01*
X71000Y-44321D01*
X70929Y-44392D01*
X70929Y-44250D01*
X70639Y-43960D01*
X70548Y-43983D01*
X70481Y-44176D01*
X70492Y-44380D01*
X70548Y-44517D01*
X70639Y-44540D01*
X70929Y-44250D01*
X70929Y-44392D01*
X70710Y-44611D01*
X70733Y-44702D01*
X70926Y-44769D01*
X71130Y-44758D01*
X71267Y-44702D01*
X71290Y-44611D01*
X71290Y-46450D01*
X70040Y-46450D01*
X70040Y-39361D01*
X69750Y-39071D01*
X69679Y-39142D01*
X69679Y-39000D01*
X69389Y-38710D01*
X69298Y-38733D01*
X69231Y-38926D01*
X69242Y-39130D01*
X69298Y-39267D01*
X69389Y-39290D01*
X69679Y-39000D01*
X69679Y-39142D01*
X69460Y-39361D01*
X69483Y-39452D01*
X69676Y-39519D01*
X69880Y-39508D01*
X70017Y-39452D01*
X70040Y-39361D01*
X70040Y-46450D01*
X69320Y-46450D01*
X69308Y-46394D01*
X69305Y-46374D01*
X69305Y-46373D01*
X69233Y-46267D01*
X69025Y-46059D01*
X69025Y-45941D01*
X69483Y-45484D01*
X69483Y-45483D01*
X69530Y-45412D01*
X69554Y-45377D01*
X69555Y-45376D01*
X69579Y-45250D01*
X69580Y-45250D01*
X69580Y-43000D01*
X69558Y-42894D01*
X69555Y-42874D01*
X69555Y-42873D01*
X69483Y-42767D01*
X69483Y-42766D01*
X69040Y-42323D01*
X69040Y-36361D01*
X68750Y-36071D01*
X68460Y-36361D01*
X68483Y-36452D01*
X68676Y-36519D01*
X68880Y-36508D01*
X69017Y-36452D01*
X69040Y-36361D01*
X69040Y-42323D01*
X68080Y-41363D01*
X68080Y-36412D01*
X68195Y-36298D01*
X68253Y-36157D01*
X68298Y-36267D01*
X68389Y-36290D01*
X68679Y-36000D01*
X68389Y-35710D01*
X68298Y-35733D01*
X68256Y-35851D01*
X68195Y-35703D01*
X68048Y-35555D01*
X67855Y-35475D01*
X67646Y-35475D01*
X67453Y-35555D01*
X67337Y-35670D01*
X66136Y-35670D01*
X66100Y-35634D01*
X66121Y-35643D01*
X66377Y-35643D01*
X66613Y-35545D01*
X66794Y-35365D01*
X66808Y-35330D01*
X67250Y-35330D01*
X67376Y-35305D01*
X67377Y-35305D01*
X67483Y-35233D01*
X67691Y-35025D01*
X67854Y-35025D01*
X68047Y-34945D01*
X68195Y-34798D01*
X68253Y-34657D01*
X68298Y-34767D01*
X68389Y-34790D01*
X68679Y-34500D01*
X68389Y-34210D01*
X68298Y-34233D01*
X68256Y-34351D01*
X68195Y-34203D01*
X68048Y-34055D01*
X67855Y-33975D01*
X67646Y-33975D01*
X67453Y-34055D01*
X67305Y-34202D01*
X67225Y-34395D01*
X67225Y-34559D01*
X67114Y-34670D01*
X66808Y-34670D01*
X66795Y-34637D01*
X66615Y-34456D01*
X66379Y-34357D01*
X66123Y-34357D01*
X66087Y-34371D01*
X65983Y-34267D01*
X65877Y-34195D01*
X65750Y-34170D01*
X65099Y-34170D01*
X64964Y-34035D01*
X64879Y-34000D01*
X64964Y-33965D01*
X65099Y-33830D01*
X65750Y-33830D01*
X65876Y-33805D01*
X65877Y-33805D01*
X65983Y-33733D01*
X66087Y-33628D01*
X66121Y-33643D01*
X66377Y-33643D01*
X66613Y-33545D01*
X66794Y-33365D01*
X66808Y-33330D01*
X67337Y-33330D01*
X67452Y-33445D01*
X67645Y-33525D01*
X67854Y-33525D01*
X68047Y-33445D01*
X68195Y-33298D01*
X68253Y-33157D01*
X68298Y-33267D01*
X68389Y-33290D01*
X68679Y-33000D01*
X68389Y-32710D01*
X68298Y-32733D01*
X68256Y-32851D01*
X68195Y-32703D01*
X68048Y-32555D01*
X67855Y-32475D01*
X67646Y-32475D01*
X67453Y-32555D01*
X67337Y-32670D01*
X66808Y-32670D01*
X66795Y-32637D01*
X66615Y-32456D01*
X66379Y-32357D01*
X66123Y-32357D01*
X65887Y-32455D01*
X65706Y-32635D01*
X65607Y-32871D01*
X65607Y-33127D01*
X65621Y-33162D01*
X65614Y-33170D01*
X65099Y-33170D01*
X64964Y-33035D01*
X64879Y-33000D01*
X64964Y-32965D01*
X65118Y-32811D01*
X65119Y-32806D01*
X65120Y-32806D01*
X65126Y-32805D01*
X65127Y-32805D01*
X65233Y-32733D01*
X65483Y-32484D01*
X65483Y-32483D01*
X65530Y-32412D01*
X65554Y-32377D01*
X65555Y-32376D01*
X65579Y-32250D01*
X65580Y-32250D01*
X65580Y-30000D01*
X65558Y-29894D01*
X65555Y-29874D01*
X65555Y-29873D01*
X65483Y-29767D01*
X65299Y-29583D01*
X65299Y-29151D01*
X65261Y-29059D01*
X65191Y-28989D01*
X65100Y-28951D01*
X65075Y-28951D01*
X65166Y-28860D01*
X73477Y-28860D01*
X73555Y-29047D01*
X73702Y-29195D01*
X73895Y-29275D01*
X74104Y-29275D01*
X74297Y-29195D01*
X74382Y-29110D01*
X74495Y-29110D01*
X74500Y-29111D01*
X74500Y-29110D01*
X74638Y-29083D01*
X74755Y-29005D01*
X75502Y-28256D01*
X75504Y-28255D01*
X75505Y-28255D01*
X75583Y-28138D01*
X75610Y-28000D01*
X75610Y-27500D01*
X75583Y-27362D01*
X75505Y-27245D01*
X75502Y-27243D01*
X74860Y-26600D01*
X74860Y-23488D01*
X74869Y-23485D01*
X75047Y-23308D01*
X75143Y-23076D01*
X75143Y-22825D01*
X75047Y-22593D01*
X74870Y-22415D01*
X74860Y-22410D01*
X74860Y-22099D01*
X75378Y-21581D01*
X75613Y-21581D01*
X75637Y-21581D01*
X75869Y-21485D01*
X75930Y-21424D01*
X75930Y-33500D01*
X75950Y-33601D01*
X75950Y-45626D01*
M02*
